M48
;DRILL file {KiCad 5.0.1} date Mo 04 Feb 2019 16:51:51 CET
;FORMAT={-:-/ absolute / inch / decimal}
FMAT,2
INCH,TZ
T1C0.0157
T2C0.0236
T3C0.0315
T4C0.0358
T5C0.0394
T6C0.0433
T7C0.0472
T8C0.0551
T9C0.0591
%
G90
G05
M72
T1
X4.7244Y-2.7559
X4.8031Y-4.2913
X5.Y-4.7126
X5.5512Y-4.7244
X3.1102Y-4.3701
X5.1181Y-5.1969
X5.6693Y-5.3543
X5.0394Y-5.2756
X5.748Y-5.3543
X2.9528Y-4.3701
X3.1102Y-4.6063
X3.0315Y-4.3701
X3.1102Y-4.2913
X3.0315Y-4.5276
X5.6693Y-5.1181
X5.0394Y-5.1181
X2.9528Y-4.4488
X3.1102Y-4.5276
X2.9528Y-4.2913
X3.1102Y-4.4488
X5.1181Y-5.1181
X5.748Y-5.2756
X3.0315Y-4.2913
X5.0394Y-5.1969
X3.0315Y-4.4488
X3.1102Y-4.2126
X3.0315Y-4.6063
X5.748Y-5.1969
X5.6693Y-5.2756
X2.9528Y-4.5276
X3.0315Y-4.2126
X5.6693Y-5.1969
X5.1181Y-5.2756
X5.748Y-5.1181
T2
X2.9921Y-5.5906
X2.9921Y-5.6693
T3
X5.8268Y-3.189
X5.8268Y-3.289
X5.8268Y-3.389
X6.1268Y-3.189
X6.1268Y-3.289
X6.1268Y-3.389
X4.8819Y-3.189
X4.8819Y-3.289
X4.8819Y-3.389
X5.1819Y-3.189
X5.1819Y-3.289
X5.1819Y-3.389
X4.0157Y-4.0551
X4.0157Y-4.4551
X5.6693Y-2.6378
X5.6693Y-3.0378
X5.1969Y-2.6378
X5.1969Y-3.0378
X5.3543Y-3.189
X5.3543Y-3.289
X5.3543Y-3.389
X5.6543Y-3.189
X5.6543Y-3.289
X5.6543Y-3.389
X2.6181Y-5.0394
X2.7165Y-5.0394
X6.1417Y-2.6378
X6.1417Y-3.0378
X3.7795Y-4.0551
X3.7795Y-4.4551
X3.5433Y-4.0551
X3.5433Y-4.4551
T4
X5.3543Y-4.4882
X5.3543Y-4.5882
X5.3543Y-4.6882
X5.3543Y-4.7882
X5.3543Y-4.8882
X5.4543Y-4.4882
X5.4543Y-4.5882
X5.4543Y-4.6882
X5.4543Y-4.7882
X5.4543Y-4.8882
X4.7244Y-4.4882
X4.7244Y-4.5882
X4.7244Y-4.6882
X4.7244Y-4.7882
X4.7244Y-4.8882
X4.8244Y-4.4882
X4.8244Y-4.5882
X4.8244Y-4.6882
X4.8244Y-4.7882
X4.8244Y-4.8882
X5.9843Y-4.4882
X5.9843Y-4.5882
X5.9843Y-4.6882
X5.9843Y-4.7882
X5.9843Y-4.8882
X6.0843Y-4.4882
X6.0843Y-4.5882
X6.0843Y-4.6882
X6.0843Y-4.7882
X6.0843Y-4.8882
T5
X2.6374Y-3.5465
X2.6378Y-3.3465
X3.2677Y-4.1142
X3.2677Y-4.2142
X3.2677Y-4.3142
X3.2677Y-4.4142
X3.2677Y-4.5142
X3.2677Y-4.6142
X3.2677Y-4.7142
X3.2677Y-4.8142
X3.2677Y-4.9142
X3.2677Y-5.0142
X3.2677Y-5.1142
X3.2677Y-5.2142
X3.2677Y-5.3142
X3.2677Y-5.4142
X3.2677Y-5.5142
X3.2677Y-5.6142
X4.2677Y-4.1142
X4.2677Y-4.2142
X4.2677Y-4.3142
X4.2677Y-4.4142
X4.2677Y-4.5142
X4.2677Y-4.6142
X4.2677Y-4.7142
X4.2677Y-4.8142
X4.2677Y-4.9142
X4.2677Y-5.0142
X4.2677Y-5.1142
X4.2677Y-5.2142
X4.2677Y-5.3142
X4.2677Y-5.4142
X4.2677Y-5.5142
X4.2677Y-5.6142
X4.5669Y-5.6299
X4.5669Y-5.7299
X4.8031Y-5.6299
X4.8031Y-5.7299
X2.5984Y-4.685
X2.7953Y-4.685
X3.0512Y-3.3071
X3.1102Y-2.9134
T6
X5.Y-2.7528
X5.Y-2.8528
X5.Y-2.9528
X2.9528Y-5.0756
X2.9528Y-5.1756
X2.9528Y-5.2756
X5.9449Y-2.7528
X5.9449Y-2.8528
X5.9449Y-2.9528
X5.4724Y-2.7528
X5.4724Y-2.8528
X5.4724Y-2.9528
T7
X3.7795Y-4.7606
X3.7795Y-5.3606
X4.0157Y-4.7606
X4.0157Y-5.3606
X5.0787Y-5.748
X5.6787Y-5.748
X2.5953Y-4.0945
X2.5953Y-4.2945
X2.7953Y-4.0945
X2.7953Y-4.2945
X3.5433Y-4.7606
X3.5433Y-5.3606
X5.0787Y-5.5512
X5.6787Y-5.5512
X4.4488Y-4.715
X4.4488Y-5.315
T8
X3.189Y-2.2441
X3.4843Y-2.2441
X3.8583Y-2.2441
X4.1535Y-2.2441
X4.5276Y-2.2441
X4.8228Y-2.2441
X2.6378Y-2.6969
X2.6378Y-2.9921
T9
X3.5827Y-2.7953
X3.7795Y-3.5827
X4.1732Y-3.5827
X4.3701Y-2.7953
T0
M30
