G04 #@! TF.GenerationSoftware,KiCad,Pcbnew,5.0.1*
G04 #@! TF.CreationDate,2019-02-04T16:52:00+01:00*
G04 #@! TF.ProjectId,splitflap-berlin,73706C6974666C61702D6265726C696E,rev?*
G04 #@! TF.SameCoordinates,Original*
G04 #@! TF.FileFunction,Copper,L1,Top,Signal*
G04 #@! TF.FilePolarity,Positive*
%FSLAX46Y46*%
G04 Gerber Fmt 4.6, Leading zero omitted, Abs format (unit mm)*
G04 Created by KiCad (PCBNEW 5.0.1) date Mo 04 Feb 2019 16:52:00 CET*
%MOMM*%
%LPD*%
G01*
G04 APERTURE LIST*
G04 #@! TA.AperFunction,ViaPad*
%ADD10C,0.600000*%
G04 #@! TD*
G04 #@! TA.AperFunction,ComponentPad*
%ADD11C,2.400000*%
G04 #@! TD*
G04 #@! TA.AperFunction,ComponentPad*
%ADD12R,2.400000X2.400000*%
G04 #@! TD*
G04 #@! TA.AperFunction,ComponentPad*
%ADD13C,1.700000*%
G04 #@! TD*
G04 #@! TA.AperFunction,ComponentPad*
%ADD14C,2.000000*%
G04 #@! TD*
G04 #@! TA.AperFunction,ComponentPad*
%ADD15R,2.000000X2.000000*%
G04 #@! TD*
G04 #@! TA.AperFunction,ComponentPad*
%ADD16C,1.600000*%
G04 #@! TD*
G04 #@! TA.AperFunction,ComponentPad*
%ADD17C,1.200000*%
G04 #@! TD*
G04 #@! TA.AperFunction,ComponentPad*
%ADD18R,1.200000X1.200000*%
G04 #@! TD*
G04 #@! TA.AperFunction,ComponentPad*
%ADD19C,2.600000*%
G04 #@! TD*
G04 #@! TA.AperFunction,ComponentPad*
%ADD20R,2.600000X2.600000*%
G04 #@! TD*
G04 #@! TA.AperFunction,ComponentPad*
%ADD21O,1.700000X1.700000*%
G04 #@! TD*
G04 #@! TA.AperFunction,ComponentPad*
%ADD22R,1.700000X1.700000*%
G04 #@! TD*
G04 #@! TA.AperFunction,ComponentPad*
%ADD23O,2.000000X1.905000*%
G04 #@! TD*
G04 #@! TA.AperFunction,ComponentPad*
%ADD24R,2.000000X1.905000*%
G04 #@! TD*
G04 #@! TA.AperFunction,ComponentPad*
%ADD25O,1.600000X1.600000*%
G04 #@! TD*
G04 #@! TA.AperFunction,ComponentPad*
%ADD26C,3.000000*%
G04 #@! TD*
G04 #@! TA.AperFunction,ComponentPad*
%ADD27R,1.600000X1.600000*%
G04 #@! TD*
G04 #@! TA.AperFunction,ComponentPad*
%ADD28C,1.520000*%
G04 #@! TD*
G04 #@! TA.AperFunction,ComponentPad*
%ADD29R,1.520000X1.520000*%
G04 #@! TD*
G04 #@! TA.AperFunction,ComponentPad*
%ADD30O,2.400000X2.400000*%
G04 #@! TD*
G04 #@! TA.AperFunction,ViaPad*
%ADD31C,0.800000*%
G04 #@! TD*
G04 #@! TA.AperFunction,ViaPad*
%ADD32C,1.000000*%
G04 #@! TD*
G04 #@! TA.AperFunction,Conductor*
%ADD33C,0.250000*%
G04 #@! TD*
G04 #@! TA.AperFunction,Conductor*
%ADD34C,0.500000*%
G04 #@! TD*
G04 #@! TA.AperFunction,Conductor*
%ADD35C,0.254000*%
G04 #@! TD*
G04 APERTURE END LIST*
D10*
G04 #@! TO.N,N/C*
G04 #@! TO.C,REF\002A\002A*
X146000000Y-136000000D03*
G04 #@! TD*
G04 #@! TO.N,N/C*
G04 #@! TO.C,REF\002A\002A*
X144000000Y-136000000D03*
G04 #@! TD*
G04 #@! TO.N,N/C*
G04 #@! TO.C,REF\002A\002A*
X146000000Y-130000000D03*
G04 #@! TD*
G04 #@! TO.N,N/C*
G04 #@! TO.C,REF\002A\002A*
X146000000Y-132000000D03*
G04 #@! TD*
G04 #@! TO.N,N/C*
G04 #@! TO.C,REF\002A\002A*
X146000000Y-134000000D03*
G04 #@! TD*
G04 #@! TO.N,N/C*
G04 #@! TO.C,REF\002A\002A*
X144000000Y-134000000D03*
G04 #@! TD*
G04 #@! TO.N,N/C*
G04 #@! TO.C,REF\002A\002A*
X144000000Y-132000000D03*
G04 #@! TD*
G04 #@! TO.N,N/C*
G04 #@! TO.C,REF\002A\002A*
X144000000Y-130000000D03*
G04 #@! TD*
G04 #@! TO.N,N/C*
G04 #@! TO.C,REF\002A\002A*
X130000000Y-134000000D03*
G04 #@! TD*
G04 #@! TO.N,N/C*
G04 #@! TO.C,REF\002A\002A*
X128000000Y-134000000D03*
G04 #@! TD*
G04 #@! TO.N,N/C*
G04 #@! TO.C,REF\002A\002A*
X128000000Y-132000000D03*
G04 #@! TD*
G04 #@! TO.N,N/C*
G04 #@! TO.C,REF\002A\002A*
X130000000Y-132000000D03*
G04 #@! TD*
G04 #@! TO.N,N/C*
G04 #@! TO.C,REF\002A\002A*
X130000000Y-130000000D03*
G04 #@! TD*
G04 #@! TO.N,N/C*
G04 #@! TO.C,REF\002A\002A*
X77000000Y-107000000D03*
G04 #@! TD*
G04 #@! TO.N,N/C*
G04 #@! TO.C,REF\002A\002A*
X79000000Y-107000000D03*
G04 #@! TD*
G04 #@! TO.N,N/C*
G04 #@! TO.C,REF\002A\002A*
X79000000Y-117000000D03*
G04 #@! TD*
G04 #@! TO.N,N/C*
G04 #@! TO.C,REF\002A\002A*
X77000000Y-117000000D03*
G04 #@! TD*
G04 #@! TO.N,N/C*
G04 #@! TO.C,REF\002A\002A*
X75000000Y-115000000D03*
G04 #@! TD*
G04 #@! TO.N,N/C*
G04 #@! TO.C,REF\002A\002A*
X77000000Y-115000000D03*
G04 #@! TD*
G04 #@! TO.N,N/C*
G04 #@! TO.C,REF\002A\002A*
X79000000Y-115000000D03*
G04 #@! TD*
G04 #@! TO.N,N/C*
G04 #@! TO.C,REF\002A\002A*
X79000000Y-113000000D03*
G04 #@! TD*
G04 #@! TO.N,N/C*
G04 #@! TO.C,REF\002A\002A*
X77000000Y-113000000D03*
G04 #@! TD*
G04 #@! TO.N,N/C*
G04 #@! TO.C,REF\002A\002A*
X75000000Y-113000000D03*
G04 #@! TD*
G04 #@! TO.N,N/C*
G04 #@! TO.C,REF\002A\002A*
X75000000Y-111000000D03*
G04 #@! TD*
G04 #@! TO.N,N/C*
G04 #@! TO.C,REF\002A\002A*
X77000000Y-111000000D03*
G04 #@! TD*
G04 #@! TO.N,N/C*
G04 #@! TO.C,REF\002A\002A*
X79000000Y-111000000D03*
G04 #@! TD*
G04 #@! TO.N,N/C*
G04 #@! TO.C,REF\002A\002A*
X79000000Y-109000000D03*
G04 #@! TD*
G04 #@! TO.N,N/C*
G04 #@! TO.C,REF\002A\002A*
X77000000Y-109000000D03*
G04 #@! TD*
D11*
G04 #@! TO.P,D1,2*
G04 #@! TO.N,/GND-REGULATOR*
X65920000Y-109080000D03*
D12*
G04 #@! TO.P,D1,1*
G04 #@! TO.N,Net-(C1-Pad1)*
X71000000Y-104000000D03*
D11*
G04 #@! TO.P,D1,4*
G04 #@! TO.N,Net-(D1-Pad4)*
X65920000Y-104000000D03*
G04 #@! TO.P,D1,3*
G04 #@! TO.N,Net-(D1-Pad3)*
X71000000Y-109080000D03*
G04 #@! TD*
D13*
G04 #@! TO.P,U4,101*
G04 #@! TO.N,N/C*
X108400000Y-142600000D03*
G04 #@! TO.P,U4,100*
X83000000Y-142600000D03*
G04 #@! TO.P,U4,30*
G04 #@! TO.N,+3V3*
X108400000Y-140060000D03*
G04 #@! TO.P,U4,29*
G04 #@! TO.N,GND*
X108400000Y-137520000D03*
G04 #@! TO.P,U4,28*
G04 #@! TO.N,N/C*
X108400000Y-134980000D03*
G04 #@! TO.P,U4,27*
X108400000Y-132440000D03*
G04 #@! TO.P,U4,26*
X108400000Y-129900000D03*
G04 #@! TO.P,U4,25*
X108400000Y-127360000D03*
G04 #@! TO.P,U4,24*
X108400000Y-124820000D03*
G04 #@! TO.P,U4,23*
G04 #@! TO.N,/FLAP2*
X108400000Y-122280000D03*
G04 #@! TO.P,U4,22*
G04 #@! TO.N,/HOME2*
X108400000Y-119740000D03*
G04 #@! TO.P,U4,21*
G04 #@! TO.N,/MOTOR2*
X108400000Y-117200000D03*
G04 #@! TO.P,U4,20*
G04 #@! TO.N,/FLAP1*
X108400000Y-114660000D03*
G04 #@! TO.P,U4,19*
G04 #@! TO.N,N/C*
X108400000Y-112120000D03*
G04 #@! TO.P,U4,18*
X108400000Y-109580000D03*
G04 #@! TO.P,U4,17*
G04 #@! TO.N,/HOME1*
X108400000Y-107040000D03*
G04 #@! TO.P,U4,16*
G04 #@! TO.N,/MOTOR1*
X108400000Y-104500000D03*
G04 #@! TO.P,U4,15*
G04 #@! TO.N,N/C*
X83000000Y-140060000D03*
G04 #@! TO.P,U4,14*
G04 #@! TO.N,GND*
X83000000Y-137520000D03*
G04 #@! TO.P,U4,13*
G04 #@! TO.N,N/C*
X83000000Y-134980000D03*
G04 #@! TO.P,U4,12*
X83000000Y-132440000D03*
G04 #@! TO.P,U4,11*
X83000000Y-129900000D03*
G04 #@! TO.P,U4,10*
G04 #@! TO.N,/FLAP3*
X83000000Y-127360000D03*
G04 #@! TO.P,U4,9*
G04 #@! TO.N,/HOME3*
X83000000Y-124820000D03*
G04 #@! TO.P,U4,8*
G04 #@! TO.N,/MOTOR3*
X83000000Y-122280000D03*
G04 #@! TO.P,U4,7*
G04 #@! TO.N,N/C*
X83000000Y-119740000D03*
G04 #@! TO.P,U4,6*
X83000000Y-117200000D03*
G04 #@! TO.P,U4,5*
X83000000Y-114660000D03*
G04 #@! TO.P,U4,4*
X83000000Y-112120000D03*
G04 #@! TO.P,U4,3*
X83000000Y-109580000D03*
G04 #@! TO.P,U4,2*
X83000000Y-107040000D03*
G04 #@! TO.P,U4,1*
X83000000Y-104500000D03*
G04 #@! TD*
D14*
G04 #@! TO.P,C1,2*
G04 #@! TO.N,/GND-REGULATOR*
X66000000Y-119000000D03*
D15*
G04 #@! TO.P,C1,1*
G04 #@! TO.N,Net-(C1-Pad1)*
X71000000Y-119000000D03*
G04 #@! TD*
D16*
G04 #@! TO.P,C2,2*
G04 #@! TO.N,/GND-REGULATOR*
X66500000Y-128000000D03*
G04 #@! TO.P,C2,1*
G04 #@! TO.N,Net-(C1-Pad1)*
X69000000Y-128000000D03*
G04 #@! TD*
D17*
G04 #@! TO.P,C3,2*
G04 #@! TO.N,/GND-REGULATOR*
X76000000Y-144000000D03*
D18*
G04 #@! TO.P,C3,1*
G04 #@! TO.N,/VCC-REGULATOR*
X76000000Y-142000000D03*
G04 #@! TD*
D14*
G04 #@! TO.P,F1,2*
G04 #@! TO.N,/+230VAC-FUSED*
X66990000Y-90080000D03*
G04 #@! TO.P,F1,1*
G04 #@! TO.N,/+230VAC*
X67000000Y-85000000D03*
G04 #@! TD*
D19*
G04 #@! TO.P,J1,2*
G04 #@! TO.N,/-230VAC*
X67000000Y-68500000D03*
D20*
G04 #@! TO.P,J1,1*
G04 #@! TO.N,/+230VAC*
X67000000Y-76000000D03*
G04 #@! TD*
D21*
G04 #@! TO.P,JP1,2*
G04 #@! TO.N,/GND-REGULATOR*
X122000000Y-145540000D03*
D22*
G04 #@! TO.P,JP1,1*
G04 #@! TO.N,GND*
X122000000Y-143000000D03*
G04 #@! TD*
D21*
G04 #@! TO.P,JP2,2*
G04 #@! TO.N,/VCC-REGULATOR*
X116000000Y-145540000D03*
D22*
G04 #@! TO.P,JP2,1*
G04 #@! TO.N,+3V3*
X116000000Y-143000000D03*
G04 #@! TD*
D23*
G04 #@! TO.P,Q1,3*
G04 #@! TO.N,Net-(Q1-Pad3)*
X127000000Y-69920000D03*
G04 #@! TO.P,Q1,2*
G04 #@! TO.N,48VAC_L*
X127000000Y-72460000D03*
D24*
G04 #@! TO.P,Q1,1*
G04 #@! TO.N,/MOTOR1-AC*
X127000000Y-75000000D03*
G04 #@! TD*
D23*
G04 #@! TO.P,Q2,3*
G04 #@! TO.N,Net-(Q2-Pad3)*
X151000000Y-69920000D03*
G04 #@! TO.P,Q2,2*
G04 #@! TO.N,48VAC_L*
X151000000Y-72460000D03*
D24*
G04 #@! TO.P,Q2,1*
G04 #@! TO.N,/MOTOR3-AC*
X151000000Y-75000000D03*
G04 #@! TD*
D23*
G04 #@! TO.P,Q3,3*
G04 #@! TO.N,Net-(Q3-Pad3)*
X139000000Y-69920000D03*
G04 #@! TO.P,Q3,2*
G04 #@! TO.N,48VAC_L*
X139000000Y-72460000D03*
D24*
G04 #@! TO.P,Q3,1*
G04 #@! TO.N,/MOTOR2-AC*
X139000000Y-75000000D03*
G04 #@! TD*
D25*
G04 #@! TO.P,R1,2*
G04 #@! TO.N,/MOTOR1*
X90000000Y-113160000D03*
D16*
G04 #@! TO.P,R1,1*
G04 #@! TO.N,Net-(R1-Pad1)*
X90000000Y-103000000D03*
G04 #@! TD*
D25*
G04 #@! TO.P,R2,2*
G04 #@! TO.N,/MOTOR3*
X102000000Y-113160000D03*
D16*
G04 #@! TO.P,R2,1*
G04 #@! TO.N,Net-(R2-Pad1)*
X102000000Y-103000000D03*
G04 #@! TD*
D25*
G04 #@! TO.P,R3,2*
G04 #@! TO.N,Net-(R3-Pad2)*
X132000000Y-77160000D03*
D16*
G04 #@! TO.P,R3,1*
G04 #@! TO.N,48VAC_L*
X132000000Y-67000000D03*
G04 #@! TD*
D25*
G04 #@! TO.P,R4,2*
G04 #@! TO.N,Net-(R4-Pad2)*
X156000000Y-77160000D03*
D16*
G04 #@! TO.P,R4,1*
G04 #@! TO.N,48VAC_L*
X156000000Y-67000000D03*
G04 #@! TD*
D25*
G04 #@! TO.P,R7,2*
G04 #@! TO.N,/MOTOR2*
X96000000Y-113160000D03*
D16*
G04 #@! TO.P,R7,1*
G04 #@! TO.N,Net-(R7-Pad1)*
X96000000Y-103000000D03*
G04 #@! TD*
D25*
G04 #@! TO.P,R9,2*
G04 #@! TO.N,Net-(R9-Pad2)*
X144000000Y-77160000D03*
D16*
G04 #@! TO.P,R9,1*
G04 #@! TO.N,48VAC_L*
X144000000Y-67000000D03*
G04 #@! TD*
D14*
G04 #@! TO.P,RV1,2*
G04 #@! TO.N,/+230VAC-FUSED*
X77500000Y-84000000D03*
G04 #@! TO.P,RV1,1*
G04 #@! TO.N,/-230VAC*
X79000000Y-74000000D03*
G04 #@! TD*
D19*
G04 #@! TO.P,T1,6*
G04 #@! TO.N,48VAC_N*
X122500000Y-57000000D03*
D20*
G04 #@! TO.P,T1,5*
G04 #@! TO.N,Net-(T1-Pad4)*
X115000000Y-57000000D03*
G04 #@! TO.P,T1,3*
G04 #@! TO.N,48VAC_L*
X98000000Y-57000000D03*
D19*
G04 #@! TO.P,T1,4*
G04 #@! TO.N,Net-(T1-Pad4)*
X105500000Y-57000000D03*
G04 #@! TO.P,T1,2*
G04 #@! TO.N,/+230VAC-FUSED*
X88500000Y-57000000D03*
D20*
G04 #@! TO.P,T1,1*
G04 #@! TO.N,/-230VAC*
X81000000Y-57000000D03*
G04 #@! TD*
D26*
G04 #@! TO.P,T2,3*
G04 #@! TO.N,Net-(D1-Pad4)*
X96000000Y-91000000D03*
G04 #@! TO.P,T2,4*
G04 #@! TO.N,Net-(D1-Pad3)*
X106000000Y-91000000D03*
G04 #@! TO.P,T2,2*
G04 #@! TO.N,/+230VAC-FUSED*
X111000000Y-71000000D03*
G04 #@! TO.P,T2,1*
G04 #@! TO.N,/-230VAC*
X91000000Y-71000000D03*
G04 #@! TD*
D25*
G04 #@! TO.P,U1,6*
G04 #@! TO.N,Net-(R3-Pad2)*
X131620000Y-81000000D03*
G04 #@! TO.P,U1,3*
G04 #@! TO.N,N/C*
X124000000Y-86080000D03*
G04 #@! TO.P,U1,5*
X131620000Y-83540000D03*
G04 #@! TO.P,U1,2*
G04 #@! TO.N,GND*
X124000000Y-83540000D03*
G04 #@! TO.P,U1,4*
G04 #@! TO.N,Net-(Q1-Pad3)*
X131620000Y-86080000D03*
D27*
G04 #@! TO.P,U1,1*
G04 #@! TO.N,Net-(R1-Pad1)*
X124000000Y-81000000D03*
G04 #@! TD*
D25*
G04 #@! TO.P,U2,6*
G04 #@! TO.N,Net-(R4-Pad2)*
X155620000Y-81000000D03*
G04 #@! TO.P,U2,3*
G04 #@! TO.N,N/C*
X148000000Y-86080000D03*
G04 #@! TO.P,U2,5*
X155620000Y-83540000D03*
G04 #@! TO.P,U2,2*
G04 #@! TO.N,GND*
X148000000Y-83540000D03*
G04 #@! TO.P,U2,4*
G04 #@! TO.N,Net-(Q2-Pad3)*
X155620000Y-86080000D03*
D27*
G04 #@! TO.P,U2,1*
G04 #@! TO.N,Net-(R2-Pad1)*
X148000000Y-81000000D03*
G04 #@! TD*
D23*
G04 #@! TO.P,U3,3*
G04 #@! TO.N,Net-(C1-Pad1)*
X75000000Y-128920000D03*
G04 #@! TO.P,U3,2*
G04 #@! TO.N,/VCC-REGULATOR*
X75000000Y-131460000D03*
D24*
G04 #@! TO.P,U3,1*
G04 #@! TO.N,/GND-REGULATOR*
X75000000Y-134000000D03*
G04 #@! TD*
D25*
G04 #@! TO.P,U5,6*
G04 #@! TO.N,Net-(R9-Pad2)*
X143620000Y-81000000D03*
G04 #@! TO.P,U5,3*
G04 #@! TO.N,N/C*
X136000000Y-86080000D03*
G04 #@! TO.P,U5,5*
X143620000Y-83540000D03*
G04 #@! TO.P,U5,2*
G04 #@! TO.N,GND*
X136000000Y-83540000D03*
G04 #@! TO.P,U5,4*
G04 #@! TO.N,Net-(Q3-Pad3)*
X143620000Y-86080000D03*
D27*
G04 #@! TO.P,U5,1*
G04 #@! TO.N,Net-(R7-Pad1)*
X136000000Y-81000000D03*
G04 #@! TD*
D28*
G04 #@! TO.P,J2,2*
G04 #@! TO.N,/MOTOR1-AC*
X122540000Y-124160000D03*
G04 #@! TO.P,J2,9*
G04 #@! TO.N,N/C*
X120000000Y-114000000D03*
G04 #@! TO.P,J2,4*
G04 #@! TO.N,48VAC_N*
X122540000Y-121620000D03*
G04 #@! TO.P,J2,3*
G04 #@! TO.N,N/C*
X120000000Y-121620000D03*
G04 #@! TO.P,J2,6*
G04 #@! TO.N,+3V3*
X122540000Y-119080000D03*
G04 #@! TO.P,J2,5*
G04 #@! TO.N,N/C*
X120000000Y-119080000D03*
G04 #@! TO.P,J2,8*
G04 #@! TO.N,/HOME1*
X122540000Y-116540000D03*
G04 #@! TO.P,J2,7*
G04 #@! TO.N,N/C*
X120000000Y-116540000D03*
G04 #@! TO.P,J2,10*
G04 #@! TO.N,/FLAP1*
X122540000Y-114000000D03*
D29*
G04 #@! TO.P,J2,1*
G04 #@! TO.N,GND*
X120000000Y-124160000D03*
G04 #@! TD*
D28*
G04 #@! TO.P,J3,2*
G04 #@! TO.N,/MOTOR3-AC*
X154540000Y-124160000D03*
G04 #@! TO.P,J3,9*
G04 #@! TO.N,N/C*
X152000000Y-114000000D03*
G04 #@! TO.P,J3,4*
G04 #@! TO.N,48VAC_N*
X154540000Y-121620000D03*
G04 #@! TO.P,J3,3*
G04 #@! TO.N,N/C*
X152000000Y-121620000D03*
G04 #@! TO.P,J3,6*
G04 #@! TO.N,+3V3*
X154540000Y-119080000D03*
G04 #@! TO.P,J3,5*
G04 #@! TO.N,N/C*
X152000000Y-119080000D03*
G04 #@! TO.P,J3,8*
G04 #@! TO.N,/HOME3*
X154540000Y-116540000D03*
G04 #@! TO.P,J3,7*
G04 #@! TO.N,N/C*
X152000000Y-116540000D03*
G04 #@! TO.P,J3,10*
G04 #@! TO.N,/FLAP3*
X154540000Y-114000000D03*
D29*
G04 #@! TO.P,J3,1*
G04 #@! TO.N,GND*
X152000000Y-124160000D03*
G04 #@! TD*
D28*
G04 #@! TO.P,J4,2*
G04 #@! TO.N,/MOTOR2-AC*
X138540000Y-124160000D03*
G04 #@! TO.P,J4,9*
G04 #@! TO.N,N/C*
X136000000Y-114000000D03*
G04 #@! TO.P,J4,4*
G04 #@! TO.N,48VAC_N*
X138540000Y-121620000D03*
G04 #@! TO.P,J4,3*
G04 #@! TO.N,N/C*
X136000000Y-121620000D03*
G04 #@! TO.P,J4,6*
G04 #@! TO.N,+3V3*
X138540000Y-119080000D03*
G04 #@! TO.P,J4,5*
G04 #@! TO.N,N/C*
X136000000Y-119080000D03*
G04 #@! TO.P,J4,8*
G04 #@! TO.N,/HOME2*
X138540000Y-116540000D03*
G04 #@! TO.P,J4,7*
G04 #@! TO.N,N/C*
X136000000Y-116540000D03*
G04 #@! TO.P,J4,10*
G04 #@! TO.N,/FLAP2*
X138540000Y-114000000D03*
D29*
G04 #@! TO.P,J4,1*
G04 #@! TO.N,GND*
X136000000Y-124160000D03*
G04 #@! TD*
D11*
G04 #@! TO.P,R5,1*
G04 #@! TO.N,+3V3*
X129000000Y-146000000D03*
D30*
G04 #@! TO.P,R5,2*
G04 #@! TO.N,/FLAP3*
X144240000Y-146000000D03*
G04 #@! TD*
G04 #@! TO.P,R6,2*
G04 #@! TO.N,/HOME3*
X144240000Y-141000000D03*
D11*
G04 #@! TO.P,R6,1*
G04 #@! TO.N,+3V3*
X129000000Y-141000000D03*
G04 #@! TD*
G04 #@! TO.P,R8,1*
G04 #@! TO.N,+3V3*
X90000000Y-136160000D03*
D30*
G04 #@! TO.P,R8,2*
G04 #@! TO.N,/HOME1*
X90000000Y-120920000D03*
G04 #@! TD*
G04 #@! TO.P,R10,2*
G04 #@! TO.N,/FLAP1*
X96000000Y-120920000D03*
D11*
G04 #@! TO.P,R10,1*
G04 #@! TO.N,+3V3*
X96000000Y-136160000D03*
G04 #@! TD*
G04 #@! TO.P,R11,1*
G04 #@! TO.N,+3V3*
X102000000Y-136160000D03*
D30*
G04 #@! TO.P,R11,2*
G04 #@! TO.N,/HOME2*
X102000000Y-120920000D03*
G04 #@! TD*
G04 #@! TO.P,R12,2*
G04 #@! TO.N,/FLAP2*
X113000000Y-119760000D03*
D11*
G04 #@! TO.P,R12,1*
G04 #@! TO.N,+3V3*
X113000000Y-135000000D03*
G04 #@! TD*
D10*
G04 #@! TO.N,N/C*
G04 #@! TO.C,REF\002A\002A*
X75000000Y-109000000D03*
G04 #@! TD*
G04 #@! TO.N,N/C*
G04 #@! TO.C,REF\002A\002A*
X128000000Y-130000000D03*
G04 #@! TD*
D31*
G04 #@! TO.N,/FLAP2*
X122000000Y-109000000D03*
D32*
G04 #@! TO.N,48VAC_N*
X120000000Y-70000000D03*
G04 #@! TO.N,/MOTOR1-AC*
X127000000Y-119700000D03*
G04 #@! TO.N,/MOTOR2-AC*
X141000000Y-120000000D03*
G04 #@! TD*
D33*
G04 #@! TO.N,/FLAP1*
X109249999Y-113810001D02*
X108400000Y-114660000D01*
X121454999Y-112914999D02*
X110145001Y-112914999D01*
X110145001Y-112914999D02*
X109249999Y-113810001D01*
X122540000Y-114000000D02*
X121454999Y-112914999D01*
G04 #@! TO.N,+3V3*
X137780001Y-118320001D02*
X138540000Y-119080000D01*
X123625001Y-117994999D02*
X137454999Y-117994999D01*
X137454999Y-117994999D02*
X137780001Y-118320001D01*
X122540000Y-119080000D02*
X123625001Y-117994999D01*
X153780001Y-118320001D02*
X154540000Y-119080000D01*
X153454999Y-117994999D02*
X153780001Y-118320001D01*
X139625001Y-117994999D02*
X153454999Y-117994999D01*
X138540000Y-119080000D02*
X139625001Y-117994999D01*
G04 #@! TO.N,/HOME1*
X117185802Y-107040000D02*
X109602081Y-107040000D01*
X123625001Y-113479199D02*
X117185802Y-107040000D01*
X109602081Y-107040000D02*
X108400000Y-107040000D01*
X123625001Y-115454999D02*
X123625001Y-113479199D01*
X122540000Y-116540000D02*
X123625001Y-115454999D01*
G04 #@! TO.N,/HOME2*
X137780001Y-115780001D02*
X138540000Y-116540000D01*
X137454999Y-115454999D02*
X137780001Y-115780001D01*
X125528591Y-115454999D02*
X137454999Y-115454999D01*
X122988591Y-117994999D02*
X125528591Y-115454999D01*
X111347082Y-117994999D02*
X122988591Y-117994999D01*
X109602081Y-119740000D02*
X111347082Y-117994999D01*
X108400000Y-119740000D02*
X109602081Y-119740000D01*
G04 #@! TO.N,/FLAP2*
X138540000Y-114000000D02*
X133540000Y-109000000D01*
X133540000Y-109000000D02*
X122000000Y-109000000D01*
G04 #@! TO.N,/HOME3*
X86000000Y-137000000D02*
X86000000Y-127820000D01*
X105655001Y-136344999D02*
X103000000Y-139000000D01*
X88000000Y-139000000D02*
X86000000Y-137000000D01*
X108964001Y-136344999D02*
X105655001Y-136344999D01*
X86000000Y-127820000D02*
X83000000Y-124820000D01*
X103000000Y-139000000D02*
X88000000Y-139000000D01*
X109144003Y-136525001D02*
X108964001Y-136344999D01*
X139765001Y-136525001D02*
X109144003Y-136525001D01*
X144240000Y-141000000D02*
X139765001Y-136525001D01*
G04 #@! TO.N,/FLAP3*
X103186400Y-139450010D02*
X87450010Y-139450010D01*
X103941409Y-138695001D02*
X103186400Y-139450010D01*
X87450010Y-139450010D02*
X85000000Y-137000000D01*
X85000000Y-129360000D02*
X83000000Y-127360000D01*
X85000000Y-137000000D02*
X85000000Y-129360000D01*
X103941409Y-138695001D02*
X119304999Y-138695001D01*
X119304999Y-138695001D02*
X120000000Y-138000000D01*
X136240000Y-138000000D02*
X144240000Y-146000000D01*
X120000000Y-138000000D02*
X136240000Y-138000000D01*
G04 #@! TO.N,Net-(Q1-Pad3)*
X127047500Y-69920000D02*
X127000000Y-69920000D01*
X133125001Y-75997501D02*
X127047500Y-69920000D01*
X133125001Y-84574999D02*
X133125001Y-75997501D01*
X131620000Y-86080000D02*
X133125001Y-84574999D01*
G04 #@! TO.N,Net-(Q2-Pad3)*
X151047500Y-69920000D02*
X151000000Y-69920000D01*
X157125001Y-75997501D02*
X151047500Y-69920000D01*
X157125001Y-84574999D02*
X157125001Y-75997501D01*
X155620000Y-86080000D02*
X157125001Y-84574999D01*
G04 #@! TO.N,Net-(Q3-Pad3)*
X139047500Y-69920000D02*
X139000000Y-69920000D01*
X145125001Y-75997501D02*
X139047500Y-69920000D01*
X145125001Y-84574999D02*
X145125001Y-75997501D01*
X143620000Y-86080000D02*
X145125001Y-84574999D01*
G04 #@! TO.N,Net-(R1-Pad1)*
X122950000Y-81000000D02*
X103950000Y-100000000D01*
X124000000Y-81000000D02*
X122950000Y-81000000D01*
X93000000Y-100000000D02*
X90000000Y-103000000D01*
X103950000Y-100000000D02*
X93000000Y-100000000D01*
G04 #@! TO.N,Net-(R2-Pad1)*
X145575011Y-85789991D02*
X141365002Y-90000000D01*
X145575011Y-82374989D02*
X145575011Y-85789991D01*
X148000000Y-81000000D02*
X146950000Y-81000000D01*
X146950000Y-81000000D02*
X145575011Y-82374989D01*
X141365002Y-90000000D02*
X131000000Y-90000000D01*
X118000000Y-103000000D02*
X102000000Y-103000000D01*
X131000000Y-90000000D02*
X118000000Y-103000000D01*
G04 #@! TO.N,Net-(R7-Pad1)*
X133575011Y-85789991D02*
X118365002Y-101000000D01*
X133575011Y-82374989D02*
X133575011Y-85789991D01*
X136000000Y-81000000D02*
X134950000Y-81000000D01*
X134950000Y-81000000D02*
X133575011Y-82374989D01*
X98000000Y-101000000D02*
X96000000Y-103000000D01*
X118365002Y-101000000D02*
X98000000Y-101000000D01*
G04 #@! TO.N,/MOTOR3*
X100000000Y-113177002D02*
X95177002Y-118000000D01*
X100000000Y-113160000D02*
X100000000Y-113177002D01*
X102000000Y-113160000D02*
X100000000Y-113160000D01*
X87280000Y-118000000D02*
X83000000Y-122280000D01*
X95177002Y-118000000D02*
X87280000Y-118000000D01*
D34*
G04 #@! TO.N,48VAC_N*
X120000000Y-59500000D02*
X122500000Y-57000000D01*
X120000000Y-70000000D02*
X120000000Y-59500000D01*
G04 #@! TO.N,/MOTOR1-AC*
X123569999Y-123130001D02*
X122540000Y-124160000D01*
X127000000Y-119700000D02*
X123569999Y-123130001D01*
G04 #@! TO.N,/MOTOR2-AC*
X141000000Y-121700000D02*
X138540000Y-124160000D01*
X141000000Y-120000000D02*
X141000000Y-121700000D01*
G04 #@! TD*
D35*
G04 #@! TO.N,GND*
G36*
X154268260Y-81559909D02*
X154585423Y-82034577D01*
X154937758Y-82270000D01*
X154585423Y-82505423D01*
X154268260Y-82980091D01*
X154156887Y-83540000D01*
X154268260Y-84099909D01*
X154585423Y-84574577D01*
X154937758Y-84810000D01*
X154585423Y-85045423D01*
X154268260Y-85520091D01*
X154156887Y-86080000D01*
X154268260Y-86639909D01*
X154585423Y-87114577D01*
X155060091Y-87431740D01*
X155478667Y-87515000D01*
X155761333Y-87515000D01*
X156179909Y-87431740D01*
X156654577Y-87114577D01*
X156971740Y-86639909D01*
X157083113Y-86080000D01*
X157018688Y-85756114D01*
X157609474Y-85165328D01*
X157672930Y-85122928D01*
X157724717Y-85045423D01*
X157840905Y-84871537D01*
X157869404Y-84728260D01*
X157885001Y-84649851D01*
X157885001Y-84649847D01*
X157899889Y-84574999D01*
X157885001Y-84500151D01*
X157885001Y-81127000D01*
X158873000Y-81127000D01*
X158873000Y-137873000D01*
X148000000Y-137873000D01*
X147951399Y-137882667D01*
X147910197Y-137910197D01*
X147882667Y-137951399D01*
X147873000Y-138000000D01*
X147873000Y-148873000D01*
X72127000Y-148873000D01*
X72127000Y-145540000D01*
X114485908Y-145540000D01*
X114601161Y-146119418D01*
X114929375Y-146610625D01*
X115420582Y-146938839D01*
X115853744Y-147025000D01*
X116146256Y-147025000D01*
X116579418Y-146938839D01*
X117070625Y-146610625D01*
X117398839Y-146119418D01*
X117514092Y-145540000D01*
X120485908Y-145540000D01*
X120601161Y-146119418D01*
X120929375Y-146610625D01*
X121420582Y-146938839D01*
X121853744Y-147025000D01*
X122146256Y-147025000D01*
X122579418Y-146938839D01*
X123070625Y-146610625D01*
X123398839Y-146119418D01*
X123495196Y-145634996D01*
X127165000Y-145634996D01*
X127165000Y-146365004D01*
X127444362Y-147039444D01*
X127960556Y-147555638D01*
X128634996Y-147835000D01*
X129365004Y-147835000D01*
X130039444Y-147555638D01*
X130555638Y-147039444D01*
X130835000Y-146365004D01*
X130835000Y-145634996D01*
X130555638Y-144960556D01*
X130039444Y-144444362D01*
X129365004Y-144165000D01*
X128634996Y-144165000D01*
X127960556Y-144444362D01*
X127444362Y-144960556D01*
X127165000Y-145634996D01*
X123495196Y-145634996D01*
X123514092Y-145540000D01*
X123398839Y-144960582D01*
X123070625Y-144469375D01*
X123048967Y-144454904D01*
X123209698Y-144388327D01*
X123388327Y-144209699D01*
X123485000Y-143976310D01*
X123485000Y-143285750D01*
X123326250Y-143127000D01*
X122127000Y-143127000D01*
X122127000Y-143147000D01*
X121873000Y-143147000D01*
X121873000Y-143127000D01*
X120673750Y-143127000D01*
X120515000Y-143285750D01*
X120515000Y-143976310D01*
X120611673Y-144209699D01*
X120790302Y-144388327D01*
X120951033Y-144454904D01*
X120929375Y-144469375D01*
X120601161Y-144960582D01*
X120485908Y-145540000D01*
X117514092Y-145540000D01*
X117398839Y-144960582D01*
X117070625Y-144469375D01*
X117052381Y-144457184D01*
X117097765Y-144448157D01*
X117307809Y-144307809D01*
X117448157Y-144097765D01*
X117497440Y-143850000D01*
X117497440Y-142150000D01*
X117472316Y-142023690D01*
X120515000Y-142023690D01*
X120515000Y-142714250D01*
X120673750Y-142873000D01*
X121873000Y-142873000D01*
X121873000Y-141673750D01*
X122127000Y-141673750D01*
X122127000Y-142873000D01*
X123326250Y-142873000D01*
X123485000Y-142714250D01*
X123485000Y-142023690D01*
X123388327Y-141790301D01*
X123209698Y-141611673D01*
X122976309Y-141515000D01*
X122285750Y-141515000D01*
X122127000Y-141673750D01*
X121873000Y-141673750D01*
X121714250Y-141515000D01*
X121023691Y-141515000D01*
X120790302Y-141611673D01*
X120611673Y-141790301D01*
X120515000Y-142023690D01*
X117472316Y-142023690D01*
X117448157Y-141902235D01*
X117307809Y-141692191D01*
X117097765Y-141551843D01*
X116850000Y-141502560D01*
X115150000Y-141502560D01*
X114902235Y-141551843D01*
X114692191Y-141692191D01*
X114551843Y-141902235D01*
X114502560Y-142150000D01*
X114502560Y-143850000D01*
X114551843Y-144097765D01*
X114692191Y-144307809D01*
X114902235Y-144448157D01*
X114947619Y-144457184D01*
X114929375Y-144469375D01*
X114601161Y-144960582D01*
X114485908Y-145540000D01*
X72127000Y-145540000D01*
X72127000Y-141400000D01*
X74752560Y-141400000D01*
X74752560Y-142600000D01*
X74801843Y-142847765D01*
X74942191Y-143057809D01*
X75094121Y-143159326D01*
X74953018Y-143300429D01*
X74765000Y-143754343D01*
X74765000Y-144245657D01*
X74953018Y-144699571D01*
X75300429Y-145046982D01*
X75754343Y-145235000D01*
X76245657Y-145235000D01*
X76699571Y-145046982D01*
X77046982Y-144699571D01*
X77235000Y-144245657D01*
X77235000Y-143754343D01*
X77046982Y-143300429D01*
X76905879Y-143159326D01*
X77057809Y-143057809D01*
X77198157Y-142847765D01*
X77247440Y-142600000D01*
X77247440Y-141400000D01*
X77198157Y-141152235D01*
X77057809Y-140942191D01*
X76847765Y-140801843D01*
X76600000Y-140752560D01*
X75400000Y-140752560D01*
X75152235Y-140801843D01*
X74942191Y-140942191D01*
X74801843Y-141152235D01*
X74752560Y-141400000D01*
X72127000Y-141400000D01*
X72127000Y-139764615D01*
X81515000Y-139764615D01*
X81515000Y-140355385D01*
X81741078Y-140901185D01*
X82158815Y-141318922D01*
X82185560Y-141330000D01*
X82158815Y-141341078D01*
X81741078Y-141758815D01*
X81515000Y-142304615D01*
X81515000Y-142895385D01*
X81741078Y-143441185D01*
X82158815Y-143858922D01*
X82704615Y-144085000D01*
X83295385Y-144085000D01*
X83841185Y-143858922D01*
X84258922Y-143441185D01*
X84485000Y-142895385D01*
X84485000Y-142304615D01*
X84258922Y-141758815D01*
X83841185Y-141341078D01*
X83814440Y-141330000D01*
X83841185Y-141318922D01*
X84258922Y-140901185D01*
X84485000Y-140355385D01*
X84485000Y-139764615D01*
X84258922Y-139218815D01*
X83841185Y-138801078D01*
X83794753Y-138781845D01*
X83864353Y-138563958D01*
X83000000Y-137699605D01*
X82135647Y-138563958D01*
X82205247Y-138781845D01*
X82158815Y-138801078D01*
X81741078Y-139218815D01*
X81515000Y-139764615D01*
X72127000Y-139764615D01*
X72127000Y-138000000D01*
X72117333Y-137951399D01*
X72089803Y-137910197D01*
X72048601Y-137882667D01*
X72000000Y-137873000D01*
X61127000Y-137873000D01*
X61127000Y-137291279D01*
X81503282Y-137291279D01*
X81529685Y-137881458D01*
X81704741Y-138304080D01*
X81956042Y-138384353D01*
X82820395Y-137520000D01*
X81956042Y-136655647D01*
X81704741Y-136735920D01*
X81503282Y-137291279D01*
X61127000Y-137291279D01*
X61127000Y-127714561D01*
X65065000Y-127714561D01*
X65065000Y-128285439D01*
X65283466Y-128812862D01*
X65687138Y-129216534D01*
X66214561Y-129435000D01*
X66785439Y-129435000D01*
X67312862Y-129216534D01*
X67716534Y-128812862D01*
X67750000Y-128732068D01*
X67783466Y-128812862D01*
X68187138Y-129216534D01*
X68714561Y-129435000D01*
X69285439Y-129435000D01*
X69812862Y-129216534D01*
X70109396Y-128920000D01*
X73333900Y-128920000D01*
X73457109Y-129539411D01*
X73807977Y-130064523D01*
X73995767Y-130190000D01*
X73807977Y-130315477D01*
X73457109Y-130840589D01*
X73333900Y-131460000D01*
X73457109Y-132079411D01*
X73719088Y-132471491D01*
X73542191Y-132589691D01*
X73401843Y-132799735D01*
X73352560Y-133047500D01*
X73352560Y-134952500D01*
X73401843Y-135200265D01*
X73542191Y-135410309D01*
X73752235Y-135550657D01*
X74000000Y-135599940D01*
X76000000Y-135599940D01*
X76247765Y-135550657D01*
X76457809Y-135410309D01*
X76598157Y-135200265D01*
X76647440Y-134952500D01*
X76647440Y-133047500D01*
X76598157Y-132799735D01*
X76457809Y-132589691D01*
X76280912Y-132471491D01*
X76542891Y-132079411D01*
X76666100Y-131460000D01*
X76542891Y-130840589D01*
X76192023Y-130315477D01*
X76004233Y-130190000D01*
X76192023Y-130064523D01*
X76542891Y-129539411D01*
X76666100Y-128920000D01*
X76542891Y-128300589D01*
X76192023Y-127775477D01*
X75666911Y-127424609D01*
X75203850Y-127332500D01*
X74796150Y-127332500D01*
X74333089Y-127424609D01*
X73807977Y-127775477D01*
X73457109Y-128300589D01*
X73333900Y-128920000D01*
X70109396Y-128920000D01*
X70216534Y-128812862D01*
X70435000Y-128285439D01*
X70435000Y-127714561D01*
X70216534Y-127187138D01*
X69812862Y-126783466D01*
X69285439Y-126565000D01*
X68714561Y-126565000D01*
X68187138Y-126783466D01*
X67783466Y-127187138D01*
X67750000Y-127267932D01*
X67716534Y-127187138D01*
X67312862Y-126783466D01*
X66785439Y-126565000D01*
X66214561Y-126565000D01*
X65687138Y-126783466D01*
X65283466Y-127187138D01*
X65065000Y-127714561D01*
X61127000Y-127714561D01*
X61127000Y-118674778D01*
X64365000Y-118674778D01*
X64365000Y-119325222D01*
X64613914Y-119926153D01*
X65073847Y-120386086D01*
X65674778Y-120635000D01*
X66325222Y-120635000D01*
X66926153Y-120386086D01*
X67386086Y-119926153D01*
X67635000Y-119325222D01*
X67635000Y-118674778D01*
X67386086Y-118073847D01*
X67312239Y-118000000D01*
X69352560Y-118000000D01*
X69352560Y-120000000D01*
X69401843Y-120247765D01*
X69542191Y-120457809D01*
X69752235Y-120598157D01*
X70000000Y-120647440D01*
X72000000Y-120647440D01*
X72247765Y-120598157D01*
X72457809Y-120457809D01*
X72598157Y-120247765D01*
X72647440Y-120000000D01*
X72647440Y-118000000D01*
X72598157Y-117752235D01*
X72457809Y-117542191D01*
X72247765Y-117401843D01*
X72000000Y-117352560D01*
X70000000Y-117352560D01*
X69752235Y-117401843D01*
X69542191Y-117542191D01*
X69401843Y-117752235D01*
X69352560Y-118000000D01*
X67312239Y-118000000D01*
X66926153Y-117613914D01*
X66325222Y-117365000D01*
X65674778Y-117365000D01*
X65073847Y-117613914D01*
X64613914Y-118073847D01*
X64365000Y-118674778D01*
X61127000Y-118674778D01*
X61127000Y-116814017D01*
X76065000Y-116814017D01*
X76065000Y-117185983D01*
X76207345Y-117529635D01*
X76470365Y-117792655D01*
X76814017Y-117935000D01*
X77185983Y-117935000D01*
X77529635Y-117792655D01*
X77792655Y-117529635D01*
X77935000Y-117185983D01*
X77935000Y-116814017D01*
X78065000Y-116814017D01*
X78065000Y-117185983D01*
X78207345Y-117529635D01*
X78470365Y-117792655D01*
X78814017Y-117935000D01*
X79185983Y-117935000D01*
X79529635Y-117792655D01*
X79792655Y-117529635D01*
X79935000Y-117185983D01*
X79935000Y-116814017D01*
X79792655Y-116470365D01*
X79529635Y-116207345D01*
X79185983Y-116065000D01*
X78814017Y-116065000D01*
X78470365Y-116207345D01*
X78207345Y-116470365D01*
X78065000Y-116814017D01*
X77935000Y-116814017D01*
X77792655Y-116470365D01*
X77529635Y-116207345D01*
X77185983Y-116065000D01*
X76814017Y-116065000D01*
X76470365Y-116207345D01*
X76207345Y-116470365D01*
X76065000Y-116814017D01*
X61127000Y-116814017D01*
X61127000Y-114814017D01*
X74065000Y-114814017D01*
X74065000Y-115185983D01*
X74207345Y-115529635D01*
X74470365Y-115792655D01*
X74814017Y-115935000D01*
X75185983Y-115935000D01*
X75529635Y-115792655D01*
X75792655Y-115529635D01*
X75935000Y-115185983D01*
X75935000Y-114814017D01*
X76065000Y-114814017D01*
X76065000Y-115185983D01*
X76207345Y-115529635D01*
X76470365Y-115792655D01*
X76814017Y-115935000D01*
X77185983Y-115935000D01*
X77529635Y-115792655D01*
X77792655Y-115529635D01*
X77935000Y-115185983D01*
X77935000Y-114814017D01*
X78065000Y-114814017D01*
X78065000Y-115185983D01*
X78207345Y-115529635D01*
X78470365Y-115792655D01*
X78814017Y-115935000D01*
X79185983Y-115935000D01*
X79529635Y-115792655D01*
X79792655Y-115529635D01*
X79935000Y-115185983D01*
X79935000Y-114814017D01*
X79792655Y-114470365D01*
X79529635Y-114207345D01*
X79185983Y-114065000D01*
X78814017Y-114065000D01*
X78470365Y-114207345D01*
X78207345Y-114470365D01*
X78065000Y-114814017D01*
X77935000Y-114814017D01*
X77792655Y-114470365D01*
X77529635Y-114207345D01*
X77185983Y-114065000D01*
X76814017Y-114065000D01*
X76470365Y-114207345D01*
X76207345Y-114470365D01*
X76065000Y-114814017D01*
X75935000Y-114814017D01*
X75792655Y-114470365D01*
X75529635Y-114207345D01*
X75185983Y-114065000D01*
X74814017Y-114065000D01*
X74470365Y-114207345D01*
X74207345Y-114470365D01*
X74065000Y-114814017D01*
X61127000Y-114814017D01*
X61127000Y-112814017D01*
X74065000Y-112814017D01*
X74065000Y-113185983D01*
X74207345Y-113529635D01*
X74470365Y-113792655D01*
X74814017Y-113935000D01*
X75185983Y-113935000D01*
X75529635Y-113792655D01*
X75792655Y-113529635D01*
X75935000Y-113185983D01*
X75935000Y-112814017D01*
X76065000Y-112814017D01*
X76065000Y-113185983D01*
X76207345Y-113529635D01*
X76470365Y-113792655D01*
X76814017Y-113935000D01*
X77185983Y-113935000D01*
X77529635Y-113792655D01*
X77792655Y-113529635D01*
X77935000Y-113185983D01*
X77935000Y-112814017D01*
X78065000Y-112814017D01*
X78065000Y-113185983D01*
X78207345Y-113529635D01*
X78470365Y-113792655D01*
X78814017Y-113935000D01*
X79185983Y-113935000D01*
X79529635Y-113792655D01*
X79792655Y-113529635D01*
X79935000Y-113185983D01*
X79935000Y-112814017D01*
X79792655Y-112470365D01*
X79529635Y-112207345D01*
X79185983Y-112065000D01*
X78814017Y-112065000D01*
X78470365Y-112207345D01*
X78207345Y-112470365D01*
X78065000Y-112814017D01*
X77935000Y-112814017D01*
X77792655Y-112470365D01*
X77529635Y-112207345D01*
X77185983Y-112065000D01*
X76814017Y-112065000D01*
X76470365Y-112207345D01*
X76207345Y-112470365D01*
X76065000Y-112814017D01*
X75935000Y-112814017D01*
X75792655Y-112470365D01*
X75529635Y-112207345D01*
X75185983Y-112065000D01*
X74814017Y-112065000D01*
X74470365Y-112207345D01*
X74207345Y-112470365D01*
X74065000Y-112814017D01*
X61127000Y-112814017D01*
X61127000Y-108714996D01*
X64085000Y-108714996D01*
X64085000Y-109445004D01*
X64364362Y-110119444D01*
X64880556Y-110635638D01*
X65554996Y-110915000D01*
X66285004Y-110915000D01*
X66959444Y-110635638D01*
X67475638Y-110119444D01*
X67755000Y-109445004D01*
X67755000Y-108714996D01*
X69165000Y-108714996D01*
X69165000Y-109445004D01*
X69444362Y-110119444D01*
X69960556Y-110635638D01*
X70634996Y-110915000D01*
X71365004Y-110915000D01*
X71608798Y-110814017D01*
X74065000Y-110814017D01*
X74065000Y-111185983D01*
X74207345Y-111529635D01*
X74470365Y-111792655D01*
X74814017Y-111935000D01*
X75185983Y-111935000D01*
X75529635Y-111792655D01*
X75792655Y-111529635D01*
X75935000Y-111185983D01*
X75935000Y-110814017D01*
X76065000Y-110814017D01*
X76065000Y-111185983D01*
X76207345Y-111529635D01*
X76470365Y-111792655D01*
X76814017Y-111935000D01*
X77185983Y-111935000D01*
X77529635Y-111792655D01*
X77792655Y-111529635D01*
X77935000Y-111185983D01*
X77935000Y-110814017D01*
X78065000Y-110814017D01*
X78065000Y-111185983D01*
X78207345Y-111529635D01*
X78470365Y-111792655D01*
X78814017Y-111935000D01*
X79185983Y-111935000D01*
X79529635Y-111792655D01*
X79792655Y-111529635D01*
X79935000Y-111185983D01*
X79935000Y-110814017D01*
X79792655Y-110470365D01*
X79529635Y-110207345D01*
X79185983Y-110065000D01*
X78814017Y-110065000D01*
X78470365Y-110207345D01*
X78207345Y-110470365D01*
X78065000Y-110814017D01*
X77935000Y-110814017D01*
X77792655Y-110470365D01*
X77529635Y-110207345D01*
X77185983Y-110065000D01*
X76814017Y-110065000D01*
X76470365Y-110207345D01*
X76207345Y-110470365D01*
X76065000Y-110814017D01*
X75935000Y-110814017D01*
X75792655Y-110470365D01*
X75529635Y-110207345D01*
X75185983Y-110065000D01*
X74814017Y-110065000D01*
X74470365Y-110207345D01*
X74207345Y-110470365D01*
X74065000Y-110814017D01*
X71608798Y-110814017D01*
X72039444Y-110635638D01*
X72555638Y-110119444D01*
X72835000Y-109445004D01*
X72835000Y-108814017D01*
X74065000Y-108814017D01*
X74065000Y-109185983D01*
X74207345Y-109529635D01*
X74470365Y-109792655D01*
X74814017Y-109935000D01*
X75185983Y-109935000D01*
X75529635Y-109792655D01*
X75792655Y-109529635D01*
X75935000Y-109185983D01*
X75935000Y-108814017D01*
X76065000Y-108814017D01*
X76065000Y-109185983D01*
X76207345Y-109529635D01*
X76470365Y-109792655D01*
X76814017Y-109935000D01*
X77185983Y-109935000D01*
X77529635Y-109792655D01*
X77792655Y-109529635D01*
X77935000Y-109185983D01*
X77935000Y-108814017D01*
X78065000Y-108814017D01*
X78065000Y-109185983D01*
X78207345Y-109529635D01*
X78470365Y-109792655D01*
X78814017Y-109935000D01*
X79185983Y-109935000D01*
X79529635Y-109792655D01*
X79792655Y-109529635D01*
X79935000Y-109185983D01*
X79935000Y-108814017D01*
X79792655Y-108470365D01*
X79529635Y-108207345D01*
X79185983Y-108065000D01*
X78814017Y-108065000D01*
X78470365Y-108207345D01*
X78207345Y-108470365D01*
X78065000Y-108814017D01*
X77935000Y-108814017D01*
X77792655Y-108470365D01*
X77529635Y-108207345D01*
X77185983Y-108065000D01*
X76814017Y-108065000D01*
X76470365Y-108207345D01*
X76207345Y-108470365D01*
X76065000Y-108814017D01*
X75935000Y-108814017D01*
X75792655Y-108470365D01*
X75529635Y-108207345D01*
X75185983Y-108065000D01*
X74814017Y-108065000D01*
X74470365Y-108207345D01*
X74207345Y-108470365D01*
X74065000Y-108814017D01*
X72835000Y-108814017D01*
X72835000Y-108714996D01*
X72555638Y-108040556D01*
X72039444Y-107524362D01*
X71365004Y-107245000D01*
X70634996Y-107245000D01*
X69960556Y-107524362D01*
X69444362Y-108040556D01*
X69165000Y-108714996D01*
X67755000Y-108714996D01*
X67475638Y-108040556D01*
X66959444Y-107524362D01*
X66285004Y-107245000D01*
X65554996Y-107245000D01*
X64880556Y-107524362D01*
X64364362Y-108040556D01*
X64085000Y-108714996D01*
X61127000Y-108714996D01*
X61127000Y-106814017D01*
X76065000Y-106814017D01*
X76065000Y-107185983D01*
X76207345Y-107529635D01*
X76470365Y-107792655D01*
X76814017Y-107935000D01*
X77185983Y-107935000D01*
X77529635Y-107792655D01*
X77792655Y-107529635D01*
X77935000Y-107185983D01*
X77935000Y-106814017D01*
X78065000Y-106814017D01*
X78065000Y-107185983D01*
X78207345Y-107529635D01*
X78470365Y-107792655D01*
X78814017Y-107935000D01*
X79185983Y-107935000D01*
X79529635Y-107792655D01*
X79792655Y-107529635D01*
X79935000Y-107185983D01*
X79935000Y-106814017D01*
X79792655Y-106470365D01*
X79529635Y-106207345D01*
X79185983Y-106065000D01*
X78814017Y-106065000D01*
X78470365Y-106207345D01*
X78207345Y-106470365D01*
X78065000Y-106814017D01*
X77935000Y-106814017D01*
X77792655Y-106470365D01*
X77529635Y-106207345D01*
X77185983Y-106065000D01*
X76814017Y-106065000D01*
X76470365Y-106207345D01*
X76207345Y-106470365D01*
X76065000Y-106814017D01*
X61127000Y-106814017D01*
X61127000Y-103634996D01*
X64085000Y-103634996D01*
X64085000Y-104365004D01*
X64364362Y-105039444D01*
X64880556Y-105555638D01*
X65554996Y-105835000D01*
X66285004Y-105835000D01*
X66959444Y-105555638D01*
X67475638Y-105039444D01*
X67755000Y-104365004D01*
X67755000Y-103634996D01*
X67475638Y-102960556D01*
X67315082Y-102800000D01*
X69152560Y-102800000D01*
X69152560Y-105200000D01*
X69201843Y-105447765D01*
X69342191Y-105657809D01*
X69552235Y-105798157D01*
X69800000Y-105847440D01*
X72200000Y-105847440D01*
X72447765Y-105798157D01*
X72657809Y-105657809D01*
X72798157Y-105447765D01*
X72847440Y-105200000D01*
X72847440Y-102800000D01*
X72798157Y-102552235D01*
X72657809Y-102342191D01*
X72447765Y-102201843D01*
X72200000Y-102152560D01*
X69800000Y-102152560D01*
X69552235Y-102201843D01*
X69342191Y-102342191D01*
X69201843Y-102552235D01*
X69152560Y-102800000D01*
X67315082Y-102800000D01*
X66959444Y-102444362D01*
X66285004Y-102165000D01*
X65554996Y-102165000D01*
X64880556Y-102444362D01*
X64364362Y-102960556D01*
X64085000Y-103634996D01*
X61127000Y-103634996D01*
X61127000Y-96127000D01*
X106748199Y-96127000D01*
X103635199Y-99240000D01*
X93074848Y-99240000D01*
X93000000Y-99225112D01*
X92925152Y-99240000D01*
X92925148Y-99240000D01*
X92751605Y-99274520D01*
X92703462Y-99284096D01*
X92516418Y-99409076D01*
X92452071Y-99452071D01*
X92409671Y-99515527D01*
X90338302Y-101586897D01*
X90285439Y-101565000D01*
X89714561Y-101565000D01*
X89187138Y-101783466D01*
X88783466Y-102187138D01*
X88565000Y-102714561D01*
X88565000Y-103285439D01*
X88783466Y-103812862D01*
X89187138Y-104216534D01*
X89714561Y-104435000D01*
X90285439Y-104435000D01*
X90812862Y-104216534D01*
X91216534Y-103812862D01*
X91435000Y-103285439D01*
X91435000Y-102714561D01*
X91413103Y-102661698D01*
X93314802Y-100760000D01*
X97165198Y-100760000D01*
X96338302Y-101586897D01*
X96285439Y-101565000D01*
X95714561Y-101565000D01*
X95187138Y-101783466D01*
X94783466Y-102187138D01*
X94565000Y-102714561D01*
X94565000Y-103285439D01*
X94783466Y-103812862D01*
X95187138Y-104216534D01*
X95714561Y-104435000D01*
X96285439Y-104435000D01*
X96812862Y-104216534D01*
X97216534Y-103812862D01*
X97435000Y-103285439D01*
X97435000Y-102714561D01*
X97413103Y-102661698D01*
X98314802Y-101760000D01*
X101243790Y-101760000D01*
X101187138Y-101783466D01*
X100783466Y-102187138D01*
X100565000Y-102714561D01*
X100565000Y-103285439D01*
X100783466Y-103812862D01*
X101187138Y-104216534D01*
X101714561Y-104435000D01*
X102285439Y-104435000D01*
X102812862Y-104216534D01*
X103216534Y-103812862D01*
X103238430Y-103760000D01*
X107099166Y-103760000D01*
X106915000Y-104204615D01*
X106915000Y-104795385D01*
X107141078Y-105341185D01*
X107558815Y-105758922D01*
X107585560Y-105770000D01*
X107558815Y-105781078D01*
X107141078Y-106198815D01*
X106915000Y-106744615D01*
X106915000Y-107335385D01*
X107141078Y-107881185D01*
X107558815Y-108298922D01*
X107585560Y-108310000D01*
X107558815Y-108321078D01*
X107141078Y-108738815D01*
X106915000Y-109284615D01*
X106915000Y-109875385D01*
X107141078Y-110421185D01*
X107558815Y-110838922D01*
X107585560Y-110850000D01*
X107558815Y-110861078D01*
X107141078Y-111278815D01*
X106915000Y-111824615D01*
X106915000Y-112415385D01*
X107141078Y-112961185D01*
X107558815Y-113378922D01*
X107585560Y-113390000D01*
X107558815Y-113401078D01*
X107141078Y-113818815D01*
X106915000Y-114364615D01*
X106915000Y-114955385D01*
X107141078Y-115501185D01*
X107558815Y-115918922D01*
X107585560Y-115930000D01*
X107558815Y-115941078D01*
X107141078Y-116358815D01*
X106915000Y-116904615D01*
X106915000Y-117495385D01*
X107141078Y-118041185D01*
X107558815Y-118458922D01*
X107585560Y-118470000D01*
X107558815Y-118481078D01*
X107141078Y-118898815D01*
X106915000Y-119444615D01*
X106915000Y-120035385D01*
X107141078Y-120581185D01*
X107558815Y-120998922D01*
X107585560Y-121010000D01*
X107558815Y-121021078D01*
X107141078Y-121438815D01*
X106915000Y-121984615D01*
X106915000Y-122575385D01*
X107141078Y-123121185D01*
X107558815Y-123538922D01*
X107585560Y-123550000D01*
X107558815Y-123561078D01*
X107141078Y-123978815D01*
X106915000Y-124524615D01*
X106915000Y-125115385D01*
X107141078Y-125661185D01*
X107558815Y-126078922D01*
X107585560Y-126090000D01*
X107558815Y-126101078D01*
X107141078Y-126518815D01*
X106915000Y-127064615D01*
X106915000Y-127655385D01*
X107141078Y-128201185D01*
X107558815Y-128618922D01*
X107585560Y-128630000D01*
X107558815Y-128641078D01*
X107141078Y-129058815D01*
X106915000Y-129604615D01*
X106915000Y-130195385D01*
X107141078Y-130741185D01*
X107558815Y-131158922D01*
X107585560Y-131170000D01*
X107558815Y-131181078D01*
X107141078Y-131598815D01*
X106915000Y-132144615D01*
X106915000Y-132735385D01*
X107141078Y-133281185D01*
X107558815Y-133698922D01*
X107585560Y-133710000D01*
X107558815Y-133721078D01*
X107141078Y-134138815D01*
X106915000Y-134684615D01*
X106915000Y-135275385D01*
X107043246Y-135584999D01*
X105729847Y-135584999D01*
X105655000Y-135570111D01*
X105580153Y-135584999D01*
X105580149Y-135584999D01*
X105358464Y-135629095D01*
X105358462Y-135629096D01*
X105358463Y-135629096D01*
X105170527Y-135754670D01*
X105170525Y-135754672D01*
X105107072Y-135797070D01*
X105064674Y-135860523D01*
X102685199Y-138240000D01*
X88314802Y-138240000D01*
X86760000Y-136685199D01*
X86760000Y-135794996D01*
X88165000Y-135794996D01*
X88165000Y-136525004D01*
X88444362Y-137199444D01*
X88960556Y-137715638D01*
X89634996Y-137995000D01*
X90365004Y-137995000D01*
X91039444Y-137715638D01*
X91555638Y-137199444D01*
X91835000Y-136525004D01*
X91835000Y-135794996D01*
X94165000Y-135794996D01*
X94165000Y-136525004D01*
X94444362Y-137199444D01*
X94960556Y-137715638D01*
X95634996Y-137995000D01*
X96365004Y-137995000D01*
X97039444Y-137715638D01*
X97555638Y-137199444D01*
X97835000Y-136525004D01*
X97835000Y-135794996D01*
X100165000Y-135794996D01*
X100165000Y-136525004D01*
X100444362Y-137199444D01*
X100960556Y-137715638D01*
X101634996Y-137995000D01*
X102365004Y-137995000D01*
X103039444Y-137715638D01*
X103555638Y-137199444D01*
X103835000Y-136525004D01*
X103835000Y-135794996D01*
X103555638Y-135120556D01*
X103039444Y-134604362D01*
X102365004Y-134325000D01*
X101634996Y-134325000D01*
X100960556Y-134604362D01*
X100444362Y-135120556D01*
X100165000Y-135794996D01*
X97835000Y-135794996D01*
X97555638Y-135120556D01*
X97039444Y-134604362D01*
X96365004Y-134325000D01*
X95634996Y-134325000D01*
X94960556Y-134604362D01*
X94444362Y-135120556D01*
X94165000Y-135794996D01*
X91835000Y-135794996D01*
X91555638Y-135120556D01*
X91039444Y-134604362D01*
X90365004Y-134325000D01*
X89634996Y-134325000D01*
X88960556Y-134604362D01*
X88444362Y-135120556D01*
X88165000Y-135794996D01*
X86760000Y-135794996D01*
X86760000Y-127894848D01*
X86774888Y-127820000D01*
X86760000Y-127745152D01*
X86760000Y-127745148D01*
X86715904Y-127523463D01*
X86715904Y-127523462D01*
X86590329Y-127335527D01*
X86547929Y-127272071D01*
X86484473Y-127229671D01*
X84451372Y-125196571D01*
X84485000Y-125115385D01*
X84485000Y-124524615D01*
X84258922Y-123978815D01*
X83841185Y-123561078D01*
X83814440Y-123550000D01*
X83841185Y-123538922D01*
X84258922Y-123121185D01*
X84485000Y-122575385D01*
X84485000Y-121984615D01*
X84451372Y-121903429D01*
X85434801Y-120920000D01*
X88129051Y-120920000D01*
X88271469Y-121635981D01*
X88677039Y-122242961D01*
X89284019Y-122648531D01*
X89819273Y-122755000D01*
X90180727Y-122755000D01*
X90715981Y-122648531D01*
X91322961Y-122242961D01*
X91728531Y-121635981D01*
X91870949Y-120920000D01*
X94129051Y-120920000D01*
X94271469Y-121635981D01*
X94677039Y-122242961D01*
X95284019Y-122648531D01*
X95819273Y-122755000D01*
X96180727Y-122755000D01*
X96715981Y-122648531D01*
X97322961Y-122242961D01*
X97728531Y-121635981D01*
X97870949Y-120920000D01*
X100129051Y-120920000D01*
X100271469Y-121635981D01*
X100677039Y-122242961D01*
X101284019Y-122648531D01*
X101819273Y-122755000D01*
X102180727Y-122755000D01*
X102715981Y-122648531D01*
X103322961Y-122242961D01*
X103728531Y-121635981D01*
X103870949Y-120920000D01*
X103728531Y-120204019D01*
X103322961Y-119597039D01*
X102715981Y-119191469D01*
X102180727Y-119085000D01*
X101819273Y-119085000D01*
X101284019Y-119191469D01*
X100677039Y-119597039D01*
X100271469Y-120204019D01*
X100129051Y-120920000D01*
X97870949Y-120920000D01*
X97728531Y-120204019D01*
X97322961Y-119597039D01*
X96715981Y-119191469D01*
X96180727Y-119085000D01*
X95819273Y-119085000D01*
X95284019Y-119191469D01*
X94677039Y-119597039D01*
X94271469Y-120204019D01*
X94129051Y-120920000D01*
X91870949Y-120920000D01*
X91728531Y-120204019D01*
X91322961Y-119597039D01*
X90715981Y-119191469D01*
X90180727Y-119085000D01*
X89819273Y-119085000D01*
X89284019Y-119191469D01*
X88677039Y-119597039D01*
X88271469Y-120204019D01*
X88129051Y-120920000D01*
X85434801Y-120920000D01*
X87594802Y-118760000D01*
X95102155Y-118760000D01*
X95177002Y-118774888D01*
X95251849Y-118760000D01*
X95251854Y-118760000D01*
X95473539Y-118715904D01*
X95724931Y-118547929D01*
X95767333Y-118484470D01*
X100331804Y-113920000D01*
X100781957Y-113920000D01*
X100965423Y-114194577D01*
X101440091Y-114511740D01*
X101858667Y-114595000D01*
X102141333Y-114595000D01*
X102559909Y-114511740D01*
X103034577Y-114194577D01*
X103351740Y-113719909D01*
X103463113Y-113160000D01*
X103351740Y-112600091D01*
X103034577Y-112125423D01*
X102559909Y-111808260D01*
X102141333Y-111725000D01*
X101858667Y-111725000D01*
X101440091Y-111808260D01*
X100965423Y-112125423D01*
X100781957Y-112400000D01*
X100074852Y-112400000D01*
X100000000Y-112385111D01*
X99925148Y-112400000D01*
X99703463Y-112444096D01*
X99452071Y-112612071D01*
X99375434Y-112726766D01*
X94862201Y-117240000D01*
X87354846Y-117240000D01*
X87279999Y-117225112D01*
X87205152Y-117240000D01*
X87205148Y-117240000D01*
X86983463Y-117284096D01*
X86732071Y-117452071D01*
X86689671Y-117515527D01*
X84485000Y-119720199D01*
X84485000Y-119444615D01*
X84258922Y-118898815D01*
X83841185Y-118481078D01*
X83814440Y-118470000D01*
X83841185Y-118458922D01*
X84258922Y-118041185D01*
X84485000Y-117495385D01*
X84485000Y-116904615D01*
X84258922Y-116358815D01*
X83841185Y-115941078D01*
X83814440Y-115930000D01*
X83841185Y-115918922D01*
X84258922Y-115501185D01*
X84485000Y-114955385D01*
X84485000Y-114364615D01*
X84258922Y-113818815D01*
X83841185Y-113401078D01*
X83814440Y-113390000D01*
X83841185Y-113378922D01*
X84060107Y-113160000D01*
X88536887Y-113160000D01*
X88648260Y-113719909D01*
X88965423Y-114194577D01*
X89440091Y-114511740D01*
X89858667Y-114595000D01*
X90141333Y-114595000D01*
X90559909Y-114511740D01*
X91034577Y-114194577D01*
X91351740Y-113719909D01*
X91463113Y-113160000D01*
X94536887Y-113160000D01*
X94648260Y-113719909D01*
X94965423Y-114194577D01*
X95440091Y-114511740D01*
X95858667Y-114595000D01*
X96141333Y-114595000D01*
X96559909Y-114511740D01*
X97034577Y-114194577D01*
X97351740Y-113719909D01*
X97463113Y-113160000D01*
X97351740Y-112600091D01*
X97034577Y-112125423D01*
X96559909Y-111808260D01*
X96141333Y-111725000D01*
X95858667Y-111725000D01*
X95440091Y-111808260D01*
X94965423Y-112125423D01*
X94648260Y-112600091D01*
X94536887Y-113160000D01*
X91463113Y-113160000D01*
X91351740Y-112600091D01*
X91034577Y-112125423D01*
X90559909Y-111808260D01*
X90141333Y-111725000D01*
X89858667Y-111725000D01*
X89440091Y-111808260D01*
X88965423Y-112125423D01*
X88648260Y-112600091D01*
X88536887Y-113160000D01*
X84060107Y-113160000D01*
X84258922Y-112961185D01*
X84485000Y-112415385D01*
X84485000Y-111824615D01*
X84258922Y-111278815D01*
X83841185Y-110861078D01*
X83814440Y-110850000D01*
X83841185Y-110838922D01*
X84258922Y-110421185D01*
X84485000Y-109875385D01*
X84485000Y-109284615D01*
X84258922Y-108738815D01*
X83841185Y-108321078D01*
X83814440Y-108310000D01*
X83841185Y-108298922D01*
X84258922Y-107881185D01*
X84485000Y-107335385D01*
X84485000Y-106744615D01*
X84258922Y-106198815D01*
X83841185Y-105781078D01*
X83814440Y-105770000D01*
X83841185Y-105758922D01*
X84258922Y-105341185D01*
X84485000Y-104795385D01*
X84485000Y-104204615D01*
X84258922Y-103658815D01*
X83841185Y-103241078D01*
X83295385Y-103015000D01*
X82704615Y-103015000D01*
X82158815Y-103241078D01*
X81741078Y-103658815D01*
X81515000Y-104204615D01*
X81515000Y-104795385D01*
X81741078Y-105341185D01*
X82158815Y-105758922D01*
X82185560Y-105770000D01*
X82158815Y-105781078D01*
X81741078Y-106198815D01*
X81515000Y-106744615D01*
X81515000Y-107335385D01*
X81741078Y-107881185D01*
X82158815Y-108298922D01*
X82185560Y-108310000D01*
X82158815Y-108321078D01*
X81741078Y-108738815D01*
X81515000Y-109284615D01*
X81515000Y-109875385D01*
X81741078Y-110421185D01*
X82158815Y-110838922D01*
X82185560Y-110850000D01*
X82158815Y-110861078D01*
X81741078Y-111278815D01*
X81515000Y-111824615D01*
X81515000Y-112415385D01*
X81741078Y-112961185D01*
X82158815Y-113378922D01*
X82185560Y-113390000D01*
X82158815Y-113401078D01*
X81741078Y-113818815D01*
X81515000Y-114364615D01*
X81515000Y-114955385D01*
X81741078Y-115501185D01*
X82158815Y-115918922D01*
X82185560Y-115930000D01*
X82158815Y-115941078D01*
X81741078Y-116358815D01*
X81515000Y-116904615D01*
X81515000Y-117495385D01*
X81741078Y-118041185D01*
X82158815Y-118458922D01*
X82185560Y-118470000D01*
X82158815Y-118481078D01*
X81741078Y-118898815D01*
X81515000Y-119444615D01*
X81515000Y-120035385D01*
X81741078Y-120581185D01*
X82158815Y-120998922D01*
X82185560Y-121010000D01*
X82158815Y-121021078D01*
X81741078Y-121438815D01*
X81515000Y-121984615D01*
X81515000Y-122575385D01*
X81741078Y-123121185D01*
X82158815Y-123538922D01*
X82185560Y-123550000D01*
X82158815Y-123561078D01*
X81741078Y-123978815D01*
X81515000Y-124524615D01*
X81515000Y-125115385D01*
X81741078Y-125661185D01*
X82158815Y-126078922D01*
X82185560Y-126090000D01*
X82158815Y-126101078D01*
X81741078Y-126518815D01*
X81515000Y-127064615D01*
X81515000Y-127655385D01*
X81741078Y-128201185D01*
X82158815Y-128618922D01*
X82185560Y-128630000D01*
X82158815Y-128641078D01*
X81741078Y-129058815D01*
X81515000Y-129604615D01*
X81515000Y-130195385D01*
X81741078Y-130741185D01*
X82158815Y-131158922D01*
X82185560Y-131170000D01*
X82158815Y-131181078D01*
X81741078Y-131598815D01*
X81515000Y-132144615D01*
X81515000Y-132735385D01*
X81741078Y-133281185D01*
X82158815Y-133698922D01*
X82185560Y-133710000D01*
X82158815Y-133721078D01*
X81741078Y-134138815D01*
X81515000Y-134684615D01*
X81515000Y-135275385D01*
X81741078Y-135821185D01*
X82158815Y-136238922D01*
X82205247Y-136258155D01*
X82135647Y-136476042D01*
X83000000Y-137340395D01*
X83864353Y-136476042D01*
X83794753Y-136258155D01*
X83841185Y-136238922D01*
X84240000Y-135840107D01*
X84240000Y-136718269D01*
X84043958Y-136655647D01*
X83179605Y-137520000D01*
X84043958Y-138384353D01*
X84295259Y-138304080D01*
X84496718Y-137748721D01*
X84488834Y-137572493D01*
X84515530Y-137590331D01*
X86859683Y-139934486D01*
X86902081Y-139997939D01*
X86965534Y-140040337D01*
X86965536Y-140040339D01*
X87090912Y-140124112D01*
X87153473Y-140165914D01*
X87375158Y-140210010D01*
X87375162Y-140210010D01*
X87450009Y-140224898D01*
X87524856Y-140210010D01*
X103111553Y-140210010D01*
X103186400Y-140224898D01*
X103261247Y-140210010D01*
X103261252Y-140210010D01*
X103482937Y-140165914D01*
X103734329Y-139997939D01*
X103776731Y-139934480D01*
X104256211Y-139455001D01*
X107043246Y-139455001D01*
X106915000Y-139764615D01*
X106915000Y-140355385D01*
X107141078Y-140901185D01*
X107558815Y-141318922D01*
X107585560Y-141330000D01*
X107558815Y-141341078D01*
X107141078Y-141758815D01*
X106915000Y-142304615D01*
X106915000Y-142895385D01*
X107141078Y-143441185D01*
X107558815Y-143858922D01*
X108104615Y-144085000D01*
X108695385Y-144085000D01*
X109241185Y-143858922D01*
X109658922Y-143441185D01*
X109885000Y-142895385D01*
X109885000Y-142304615D01*
X109658922Y-141758815D01*
X109241185Y-141341078D01*
X109214440Y-141330000D01*
X109241185Y-141318922D01*
X109658922Y-140901185D01*
X109769181Y-140634996D01*
X127165000Y-140634996D01*
X127165000Y-141365004D01*
X127444362Y-142039444D01*
X127960556Y-142555638D01*
X128634996Y-142835000D01*
X129365004Y-142835000D01*
X130039444Y-142555638D01*
X130555638Y-142039444D01*
X130835000Y-141365004D01*
X130835000Y-140634996D01*
X130555638Y-139960556D01*
X130039444Y-139444362D01*
X129365004Y-139165000D01*
X128634996Y-139165000D01*
X127960556Y-139444362D01*
X127444362Y-139960556D01*
X127165000Y-140634996D01*
X109769181Y-140634996D01*
X109885000Y-140355385D01*
X109885000Y-139764615D01*
X109756754Y-139455001D01*
X119230152Y-139455001D01*
X119304999Y-139469889D01*
X119379846Y-139455001D01*
X119379851Y-139455001D01*
X119601536Y-139410905D01*
X119852928Y-139242930D01*
X119895330Y-139179471D01*
X120314802Y-138760000D01*
X135925199Y-138760000D01*
X142501141Y-145335943D01*
X142369051Y-146000000D01*
X142511469Y-146715981D01*
X142917039Y-147322961D01*
X143524019Y-147728531D01*
X144059273Y-147835000D01*
X144420727Y-147835000D01*
X144955981Y-147728531D01*
X145562961Y-147322961D01*
X145968531Y-146715981D01*
X146110949Y-146000000D01*
X145968531Y-145284019D01*
X145562961Y-144677039D01*
X144955981Y-144271469D01*
X144420727Y-144165000D01*
X144059273Y-144165000D01*
X143575943Y-144261141D01*
X136830331Y-137515530D01*
X136787929Y-137452071D01*
X136537891Y-137285001D01*
X139450200Y-137285001D01*
X142501141Y-140335942D01*
X142369051Y-141000000D01*
X142511469Y-141715981D01*
X142917039Y-142322961D01*
X143524019Y-142728531D01*
X144059273Y-142835000D01*
X144420727Y-142835000D01*
X144955981Y-142728531D01*
X145562961Y-142322961D01*
X145968531Y-141715981D01*
X146110949Y-141000000D01*
X145968531Y-140284019D01*
X145562961Y-139677039D01*
X144955981Y-139271469D01*
X144420727Y-139165000D01*
X144059273Y-139165000D01*
X143575942Y-139261141D01*
X140355332Y-136040531D01*
X140312930Y-135977072D01*
X140068902Y-135814017D01*
X143065000Y-135814017D01*
X143065000Y-136185983D01*
X143207345Y-136529635D01*
X143470365Y-136792655D01*
X143814017Y-136935000D01*
X144185983Y-136935000D01*
X144529635Y-136792655D01*
X144792655Y-136529635D01*
X144935000Y-136185983D01*
X144935000Y-135814017D01*
X145065000Y-135814017D01*
X145065000Y-136185983D01*
X145207345Y-136529635D01*
X145470365Y-136792655D01*
X145814017Y-136935000D01*
X146185983Y-136935000D01*
X146529635Y-136792655D01*
X146792655Y-136529635D01*
X146935000Y-136185983D01*
X146935000Y-135814017D01*
X146792655Y-135470365D01*
X146529635Y-135207345D01*
X146185983Y-135065000D01*
X145814017Y-135065000D01*
X145470365Y-135207345D01*
X145207345Y-135470365D01*
X145065000Y-135814017D01*
X144935000Y-135814017D01*
X144792655Y-135470365D01*
X144529635Y-135207345D01*
X144185983Y-135065000D01*
X143814017Y-135065000D01*
X143470365Y-135207345D01*
X143207345Y-135470365D01*
X143065000Y-135814017D01*
X140068902Y-135814017D01*
X140061538Y-135809097D01*
X139839853Y-135765001D01*
X139839848Y-135765001D01*
X139765001Y-135750113D01*
X139690154Y-135765001D01*
X114669316Y-135765001D01*
X114835000Y-135365004D01*
X114835000Y-134634996D01*
X114555638Y-133960556D01*
X114409099Y-133814017D01*
X127065000Y-133814017D01*
X127065000Y-134185983D01*
X127207345Y-134529635D01*
X127470365Y-134792655D01*
X127814017Y-134935000D01*
X128185983Y-134935000D01*
X128529635Y-134792655D01*
X128792655Y-134529635D01*
X128935000Y-134185983D01*
X128935000Y-133814017D01*
X129065000Y-133814017D01*
X129065000Y-134185983D01*
X129207345Y-134529635D01*
X129470365Y-134792655D01*
X129814017Y-134935000D01*
X130185983Y-134935000D01*
X130529635Y-134792655D01*
X130792655Y-134529635D01*
X130935000Y-134185983D01*
X130935000Y-133814017D01*
X143065000Y-133814017D01*
X143065000Y-134185983D01*
X143207345Y-134529635D01*
X143470365Y-134792655D01*
X143814017Y-134935000D01*
X144185983Y-134935000D01*
X144529635Y-134792655D01*
X144792655Y-134529635D01*
X144935000Y-134185983D01*
X144935000Y-133814017D01*
X145065000Y-133814017D01*
X145065000Y-134185983D01*
X145207345Y-134529635D01*
X145470365Y-134792655D01*
X145814017Y-134935000D01*
X146185983Y-134935000D01*
X146529635Y-134792655D01*
X146792655Y-134529635D01*
X146935000Y-134185983D01*
X146935000Y-133814017D01*
X146792655Y-133470365D01*
X146529635Y-133207345D01*
X146185983Y-133065000D01*
X145814017Y-133065000D01*
X145470365Y-133207345D01*
X145207345Y-133470365D01*
X145065000Y-133814017D01*
X144935000Y-133814017D01*
X144792655Y-133470365D01*
X144529635Y-133207345D01*
X144185983Y-133065000D01*
X143814017Y-133065000D01*
X143470365Y-133207345D01*
X143207345Y-133470365D01*
X143065000Y-133814017D01*
X130935000Y-133814017D01*
X130792655Y-133470365D01*
X130529635Y-133207345D01*
X130185983Y-133065000D01*
X129814017Y-133065000D01*
X129470365Y-133207345D01*
X129207345Y-133470365D01*
X129065000Y-133814017D01*
X128935000Y-133814017D01*
X128792655Y-133470365D01*
X128529635Y-133207345D01*
X128185983Y-133065000D01*
X127814017Y-133065000D01*
X127470365Y-133207345D01*
X127207345Y-133470365D01*
X127065000Y-133814017D01*
X114409099Y-133814017D01*
X114039444Y-133444362D01*
X113365004Y-133165000D01*
X112634996Y-133165000D01*
X111960556Y-133444362D01*
X111444362Y-133960556D01*
X111165000Y-134634996D01*
X111165000Y-135365004D01*
X111330684Y-135765001D01*
X109682194Y-135765001D01*
X109885000Y-135275385D01*
X109885000Y-134684615D01*
X109658922Y-134138815D01*
X109241185Y-133721078D01*
X109214440Y-133710000D01*
X109241185Y-133698922D01*
X109658922Y-133281185D01*
X109885000Y-132735385D01*
X109885000Y-132144615D01*
X109748062Y-131814017D01*
X127065000Y-131814017D01*
X127065000Y-132185983D01*
X127207345Y-132529635D01*
X127470365Y-132792655D01*
X127814017Y-132935000D01*
X128185983Y-132935000D01*
X128529635Y-132792655D01*
X128792655Y-132529635D01*
X128935000Y-132185983D01*
X128935000Y-131814017D01*
X129065000Y-131814017D01*
X129065000Y-132185983D01*
X129207345Y-132529635D01*
X129470365Y-132792655D01*
X129814017Y-132935000D01*
X130185983Y-132935000D01*
X130529635Y-132792655D01*
X130792655Y-132529635D01*
X130935000Y-132185983D01*
X130935000Y-131814017D01*
X143065000Y-131814017D01*
X143065000Y-132185983D01*
X143207345Y-132529635D01*
X143470365Y-132792655D01*
X143814017Y-132935000D01*
X144185983Y-132935000D01*
X144529635Y-132792655D01*
X144792655Y-132529635D01*
X144935000Y-132185983D01*
X144935000Y-131814017D01*
X145065000Y-131814017D01*
X145065000Y-132185983D01*
X145207345Y-132529635D01*
X145470365Y-132792655D01*
X145814017Y-132935000D01*
X146185983Y-132935000D01*
X146529635Y-132792655D01*
X146792655Y-132529635D01*
X146935000Y-132185983D01*
X146935000Y-131814017D01*
X146792655Y-131470365D01*
X146529635Y-131207345D01*
X146185983Y-131065000D01*
X145814017Y-131065000D01*
X145470365Y-131207345D01*
X145207345Y-131470365D01*
X145065000Y-131814017D01*
X144935000Y-131814017D01*
X144792655Y-131470365D01*
X144529635Y-131207345D01*
X144185983Y-131065000D01*
X143814017Y-131065000D01*
X143470365Y-131207345D01*
X143207345Y-131470365D01*
X143065000Y-131814017D01*
X130935000Y-131814017D01*
X130792655Y-131470365D01*
X130529635Y-131207345D01*
X130185983Y-131065000D01*
X129814017Y-131065000D01*
X129470365Y-131207345D01*
X129207345Y-131470365D01*
X129065000Y-131814017D01*
X128935000Y-131814017D01*
X128792655Y-131470365D01*
X128529635Y-131207345D01*
X128185983Y-131065000D01*
X127814017Y-131065000D01*
X127470365Y-131207345D01*
X127207345Y-131470365D01*
X127065000Y-131814017D01*
X109748062Y-131814017D01*
X109658922Y-131598815D01*
X109241185Y-131181078D01*
X109214440Y-131170000D01*
X109241185Y-131158922D01*
X109658922Y-130741185D01*
X109885000Y-130195385D01*
X109885000Y-129814017D01*
X127065000Y-129814017D01*
X127065000Y-130185983D01*
X127207345Y-130529635D01*
X127470365Y-130792655D01*
X127814017Y-130935000D01*
X128185983Y-130935000D01*
X128529635Y-130792655D01*
X128792655Y-130529635D01*
X128935000Y-130185983D01*
X128935000Y-129814017D01*
X129065000Y-129814017D01*
X129065000Y-130185983D01*
X129207345Y-130529635D01*
X129470365Y-130792655D01*
X129814017Y-130935000D01*
X130185983Y-130935000D01*
X130529635Y-130792655D01*
X130792655Y-130529635D01*
X130935000Y-130185983D01*
X130935000Y-129814017D01*
X143065000Y-129814017D01*
X143065000Y-130185983D01*
X143207345Y-130529635D01*
X143470365Y-130792655D01*
X143814017Y-130935000D01*
X144185983Y-130935000D01*
X144529635Y-130792655D01*
X144792655Y-130529635D01*
X144935000Y-130185983D01*
X144935000Y-129814017D01*
X145065000Y-129814017D01*
X145065000Y-130185983D01*
X145207345Y-130529635D01*
X145470365Y-130792655D01*
X145814017Y-130935000D01*
X146185983Y-130935000D01*
X146529635Y-130792655D01*
X146792655Y-130529635D01*
X146935000Y-130185983D01*
X146935000Y-129814017D01*
X146792655Y-129470365D01*
X146529635Y-129207345D01*
X146185983Y-129065000D01*
X145814017Y-129065000D01*
X145470365Y-129207345D01*
X145207345Y-129470365D01*
X145065000Y-129814017D01*
X144935000Y-129814017D01*
X144792655Y-129470365D01*
X144529635Y-129207345D01*
X144185983Y-129065000D01*
X143814017Y-129065000D01*
X143470365Y-129207345D01*
X143207345Y-129470365D01*
X143065000Y-129814017D01*
X130935000Y-129814017D01*
X130792655Y-129470365D01*
X130529635Y-129207345D01*
X130185983Y-129065000D01*
X129814017Y-129065000D01*
X129470365Y-129207345D01*
X129207345Y-129470365D01*
X129065000Y-129814017D01*
X128935000Y-129814017D01*
X128792655Y-129470365D01*
X128529635Y-129207345D01*
X128185983Y-129065000D01*
X127814017Y-129065000D01*
X127470365Y-129207345D01*
X127207345Y-129470365D01*
X127065000Y-129814017D01*
X109885000Y-129814017D01*
X109885000Y-129604615D01*
X109658922Y-129058815D01*
X109241185Y-128641078D01*
X109214440Y-128630000D01*
X109241185Y-128618922D01*
X109658922Y-128201185D01*
X109885000Y-127655385D01*
X109885000Y-127064615D01*
X109658922Y-126518815D01*
X109241185Y-126101078D01*
X109214440Y-126090000D01*
X109241185Y-126078922D01*
X109658922Y-125661185D01*
X109885000Y-125115385D01*
X109885000Y-124524615D01*
X109852334Y-124445750D01*
X118605000Y-124445750D01*
X118605000Y-125046309D01*
X118701673Y-125279698D01*
X118880301Y-125458327D01*
X119113690Y-125555000D01*
X119714250Y-125555000D01*
X119873000Y-125396250D01*
X119873000Y-124287000D01*
X118763750Y-124287000D01*
X118605000Y-124445750D01*
X109852334Y-124445750D01*
X109658922Y-123978815D01*
X109241185Y-123561078D01*
X109214440Y-123550000D01*
X109241185Y-123538922D01*
X109658922Y-123121185D01*
X109885000Y-122575385D01*
X109885000Y-121984615D01*
X109658922Y-121438815D01*
X109241185Y-121021078D01*
X109214440Y-121010000D01*
X109241185Y-120998922D01*
X109658922Y-120581185D01*
X109693952Y-120496615D01*
X109898618Y-120455904D01*
X110150010Y-120287929D01*
X110192412Y-120224470D01*
X111246292Y-119170590D01*
X111129051Y-119760000D01*
X111271469Y-120475981D01*
X111677039Y-121082961D01*
X112284019Y-121488531D01*
X112819273Y-121595000D01*
X113180727Y-121595000D01*
X113715981Y-121488531D01*
X114322961Y-121082961D01*
X114728531Y-120475981D01*
X114870949Y-119760000D01*
X114728531Y-119044019D01*
X114535415Y-118754999D01*
X118624683Y-118754999D01*
X118605000Y-118802517D01*
X118605000Y-119357483D01*
X118817376Y-119870204D01*
X119209796Y-120262624D01*
X119420740Y-120350000D01*
X119209796Y-120437376D01*
X118817376Y-120829796D01*
X118605000Y-121342517D01*
X118605000Y-121897483D01*
X118817376Y-122410204D01*
X119172172Y-122765000D01*
X119113690Y-122765000D01*
X118880301Y-122861673D01*
X118701673Y-123040302D01*
X118605000Y-123273691D01*
X118605000Y-123874250D01*
X118763750Y-124033000D01*
X119873000Y-124033000D01*
X119873000Y-124013000D01*
X120127000Y-124013000D01*
X120127000Y-124033000D01*
X120147000Y-124033000D01*
X120147000Y-124287000D01*
X120127000Y-124287000D01*
X120127000Y-125396250D01*
X120285750Y-125555000D01*
X120886310Y-125555000D01*
X121119699Y-125458327D01*
X121298327Y-125279698D01*
X121395000Y-125046309D01*
X121395000Y-124987828D01*
X121749796Y-125342624D01*
X122262517Y-125555000D01*
X122817483Y-125555000D01*
X123330204Y-125342624D01*
X123722624Y-124950204D01*
X123931575Y-124445750D01*
X134605000Y-124445750D01*
X134605000Y-125046309D01*
X134701673Y-125279698D01*
X134880301Y-125458327D01*
X135113690Y-125555000D01*
X135714250Y-125555000D01*
X135873000Y-125396250D01*
X135873000Y-124287000D01*
X134763750Y-124287000D01*
X134605000Y-124445750D01*
X123931575Y-124445750D01*
X123935000Y-124437483D01*
X123935000Y-124016579D01*
X124257423Y-123694156D01*
X124257425Y-123694153D01*
X127116579Y-120835000D01*
X127225766Y-120835000D01*
X127642926Y-120662207D01*
X127962207Y-120342926D01*
X128135000Y-119925766D01*
X128135000Y-119474234D01*
X127962207Y-119057074D01*
X127660132Y-118754999D01*
X134624683Y-118754999D01*
X134605000Y-118802517D01*
X134605000Y-119357483D01*
X134817376Y-119870204D01*
X135209796Y-120262624D01*
X135420740Y-120350000D01*
X135209796Y-120437376D01*
X134817376Y-120829796D01*
X134605000Y-121342517D01*
X134605000Y-121897483D01*
X134817376Y-122410204D01*
X135172172Y-122765000D01*
X135113690Y-122765000D01*
X134880301Y-122861673D01*
X134701673Y-123040302D01*
X134605000Y-123273691D01*
X134605000Y-123874250D01*
X134763750Y-124033000D01*
X135873000Y-124033000D01*
X135873000Y-124013000D01*
X136127000Y-124013000D01*
X136127000Y-124033000D01*
X136147000Y-124033000D01*
X136147000Y-124287000D01*
X136127000Y-124287000D01*
X136127000Y-125396250D01*
X136285750Y-125555000D01*
X136886310Y-125555000D01*
X137119699Y-125458327D01*
X137298327Y-125279698D01*
X137395000Y-125046309D01*
X137395000Y-124987828D01*
X137749796Y-125342624D01*
X138262517Y-125555000D01*
X138817483Y-125555000D01*
X139330204Y-125342624D01*
X139722624Y-124950204D01*
X139931575Y-124445750D01*
X150605000Y-124445750D01*
X150605000Y-125046309D01*
X150701673Y-125279698D01*
X150880301Y-125458327D01*
X151113690Y-125555000D01*
X151714250Y-125555000D01*
X151873000Y-125396250D01*
X151873000Y-124287000D01*
X150763750Y-124287000D01*
X150605000Y-124445750D01*
X139931575Y-124445750D01*
X139935000Y-124437483D01*
X139935000Y-124016578D01*
X141564156Y-122387423D01*
X141638049Y-122338049D01*
X141711807Y-122227664D01*
X141833651Y-122045311D01*
X141833652Y-122045310D01*
X141885000Y-121787165D01*
X141885000Y-121787161D01*
X141902337Y-121700001D01*
X141885000Y-121612841D01*
X141885000Y-120720133D01*
X141962207Y-120642926D01*
X142135000Y-120225766D01*
X142135000Y-119774234D01*
X141962207Y-119357074D01*
X141642926Y-119037793D01*
X141225766Y-118865000D01*
X140774234Y-118865000D01*
X140357074Y-119037793D01*
X140037793Y-119357074D01*
X139865000Y-119774234D01*
X139865000Y-120225766D01*
X140037793Y-120642926D01*
X140115000Y-120720133D01*
X140115001Y-121333420D01*
X139935000Y-121513421D01*
X139935000Y-121342517D01*
X139722624Y-120829796D01*
X139330204Y-120437376D01*
X139119260Y-120350000D01*
X139330204Y-120262624D01*
X139722624Y-119870204D01*
X139935000Y-119357483D01*
X139935000Y-118802517D01*
X139922489Y-118772313D01*
X139939803Y-118754999D01*
X150624683Y-118754999D01*
X150605000Y-118802517D01*
X150605000Y-119357483D01*
X150817376Y-119870204D01*
X151209796Y-120262624D01*
X151420740Y-120350000D01*
X151209796Y-120437376D01*
X150817376Y-120829796D01*
X150605000Y-121342517D01*
X150605000Y-121897483D01*
X150817376Y-122410204D01*
X151172172Y-122765000D01*
X151113690Y-122765000D01*
X150880301Y-122861673D01*
X150701673Y-123040302D01*
X150605000Y-123273691D01*
X150605000Y-123874250D01*
X150763750Y-124033000D01*
X151873000Y-124033000D01*
X151873000Y-124013000D01*
X152127000Y-124013000D01*
X152127000Y-124033000D01*
X152147000Y-124033000D01*
X152147000Y-124287000D01*
X152127000Y-124287000D01*
X152127000Y-125396250D01*
X152285750Y-125555000D01*
X152886310Y-125555000D01*
X153119699Y-125458327D01*
X153298327Y-125279698D01*
X153395000Y-125046309D01*
X153395000Y-124987828D01*
X153749796Y-125342624D01*
X154262517Y-125555000D01*
X154817483Y-125555000D01*
X155330204Y-125342624D01*
X155722624Y-124950204D01*
X155935000Y-124437483D01*
X155935000Y-123882517D01*
X155722624Y-123369796D01*
X155330204Y-122977376D01*
X155119260Y-122890000D01*
X155330204Y-122802624D01*
X155722624Y-122410204D01*
X155935000Y-121897483D01*
X155935000Y-121342517D01*
X155722624Y-120829796D01*
X155330204Y-120437376D01*
X155119260Y-120350000D01*
X155330204Y-120262624D01*
X155722624Y-119870204D01*
X155935000Y-119357483D01*
X155935000Y-118802517D01*
X155722624Y-118289796D01*
X155330204Y-117897376D01*
X155119260Y-117810000D01*
X155330204Y-117722624D01*
X155722624Y-117330204D01*
X155935000Y-116817483D01*
X155935000Y-116262517D01*
X155722624Y-115749796D01*
X155330204Y-115357376D01*
X155119260Y-115270000D01*
X155330204Y-115182624D01*
X155722624Y-114790204D01*
X155935000Y-114277483D01*
X155935000Y-113722517D01*
X155722624Y-113209796D01*
X155330204Y-112817376D01*
X154817483Y-112605000D01*
X154262517Y-112605000D01*
X153749796Y-112817376D01*
X153357376Y-113209796D01*
X153270000Y-113420740D01*
X153182624Y-113209796D01*
X152790204Y-112817376D01*
X152277483Y-112605000D01*
X151722517Y-112605000D01*
X151209796Y-112817376D01*
X150817376Y-113209796D01*
X150605000Y-113722517D01*
X150605000Y-114277483D01*
X150817376Y-114790204D01*
X151209796Y-115182624D01*
X151420740Y-115270000D01*
X151209796Y-115357376D01*
X150817376Y-115749796D01*
X150605000Y-116262517D01*
X150605000Y-116817483D01*
X150777941Y-117234999D01*
X139762059Y-117234999D01*
X139935000Y-116817483D01*
X139935000Y-116262517D01*
X139722624Y-115749796D01*
X139330204Y-115357376D01*
X139119260Y-115270000D01*
X139330204Y-115182624D01*
X139722624Y-114790204D01*
X139935000Y-114277483D01*
X139935000Y-113722517D01*
X139722624Y-113209796D01*
X139330204Y-112817376D01*
X138817483Y-112605000D01*
X138262517Y-112605000D01*
X138232313Y-112617511D01*
X134130331Y-108515530D01*
X134087929Y-108452071D01*
X133836537Y-108284096D01*
X133614852Y-108240000D01*
X133614847Y-108240000D01*
X133540000Y-108225112D01*
X133465153Y-108240000D01*
X122703711Y-108240000D01*
X122586280Y-108122569D01*
X122205874Y-107965000D01*
X121794126Y-107965000D01*
X121413720Y-108122569D01*
X121122569Y-108413720D01*
X120965000Y-108794126D01*
X120965000Y-109205874D01*
X121122569Y-109586280D01*
X121413720Y-109877431D01*
X121794126Y-110035000D01*
X122205874Y-110035000D01*
X122586280Y-109877431D01*
X122703711Y-109760000D01*
X133225199Y-109760000D01*
X136070198Y-112605000D01*
X135722517Y-112605000D01*
X135209796Y-112817376D01*
X134817376Y-113209796D01*
X134605000Y-113722517D01*
X134605000Y-114277483D01*
X134777941Y-114694999D01*
X125603437Y-114694999D01*
X125528590Y-114680111D01*
X125453743Y-114694999D01*
X125453739Y-114694999D01*
X125232054Y-114739095D01*
X125232052Y-114739096D01*
X125232053Y-114739096D01*
X125044117Y-114864670D01*
X125044115Y-114864672D01*
X124980662Y-114907070D01*
X124938264Y-114970523D01*
X124386506Y-115522282D01*
X124399889Y-115455000D01*
X124385001Y-115380153D01*
X124385001Y-113554047D01*
X124399889Y-113479199D01*
X124385001Y-113404351D01*
X124385001Y-113404347D01*
X124340905Y-113182662D01*
X124172930Y-112931270D01*
X124109474Y-112888870D01*
X117776133Y-106555530D01*
X117733731Y-106492071D01*
X117482339Y-106324096D01*
X117260654Y-106280000D01*
X117260649Y-106280000D01*
X117185802Y-106265112D01*
X117110955Y-106280000D01*
X109692550Y-106280000D01*
X109658922Y-106198815D01*
X109241185Y-105781078D01*
X109214440Y-105770000D01*
X109241185Y-105758922D01*
X109658922Y-105341185D01*
X109885000Y-104795385D01*
X109885000Y-104204615D01*
X109700834Y-103760000D01*
X117925153Y-103760000D01*
X118000000Y-103774888D01*
X118074847Y-103760000D01*
X118074852Y-103760000D01*
X118296537Y-103715904D01*
X118547929Y-103547929D01*
X118590331Y-103484470D01*
X131314803Y-90760000D01*
X141290155Y-90760000D01*
X141365002Y-90774888D01*
X141439849Y-90760000D01*
X141439854Y-90760000D01*
X141661539Y-90715904D01*
X141912931Y-90547929D01*
X141955333Y-90484470D01*
X146059484Y-86380320D01*
X146122940Y-86337920D01*
X146165935Y-86273573D01*
X146290915Y-86086529D01*
X146292213Y-86080000D01*
X146536887Y-86080000D01*
X146648260Y-86639909D01*
X146965423Y-87114577D01*
X147440091Y-87431740D01*
X147858667Y-87515000D01*
X148141333Y-87515000D01*
X148559909Y-87431740D01*
X149034577Y-87114577D01*
X149351740Y-86639909D01*
X149463113Y-86080000D01*
X149351740Y-85520091D01*
X149034577Y-85045423D01*
X148650892Y-84789053D01*
X148855134Y-84692389D01*
X149231041Y-84277423D01*
X149391904Y-83889039D01*
X149269915Y-83667000D01*
X148127000Y-83667000D01*
X148127000Y-83687000D01*
X147873000Y-83687000D01*
X147873000Y-83667000D01*
X146730085Y-83667000D01*
X146608096Y-83889039D01*
X146768959Y-84277423D01*
X147144866Y-84692389D01*
X147349108Y-84789053D01*
X146965423Y-85045423D01*
X146648260Y-85520091D01*
X146536887Y-86080000D01*
X146292213Y-86080000D01*
X146300491Y-86038386D01*
X146335011Y-85864843D01*
X146335011Y-85864839D01*
X146349899Y-85789991D01*
X146335011Y-85715143D01*
X146335011Y-82689790D01*
X146757058Y-82267743D01*
X146952235Y-82398157D01*
X147107361Y-82429013D01*
X146768959Y-82802577D01*
X146608096Y-83190961D01*
X146730085Y-83413000D01*
X147873000Y-83413000D01*
X147873000Y-83393000D01*
X148127000Y-83393000D01*
X148127000Y-83413000D01*
X149269915Y-83413000D01*
X149391904Y-83190961D01*
X149231041Y-82802577D01*
X148892639Y-82429013D01*
X149047765Y-82398157D01*
X149257809Y-82257809D01*
X149398157Y-82047765D01*
X149447440Y-81800000D01*
X149447440Y-81127000D01*
X154182149Y-81127000D01*
X154268260Y-81559909D01*
X154268260Y-81559909D01*
G37*
X154268260Y-81559909D02*
X154585423Y-82034577D01*
X154937758Y-82270000D01*
X154585423Y-82505423D01*
X154268260Y-82980091D01*
X154156887Y-83540000D01*
X154268260Y-84099909D01*
X154585423Y-84574577D01*
X154937758Y-84810000D01*
X154585423Y-85045423D01*
X154268260Y-85520091D01*
X154156887Y-86080000D01*
X154268260Y-86639909D01*
X154585423Y-87114577D01*
X155060091Y-87431740D01*
X155478667Y-87515000D01*
X155761333Y-87515000D01*
X156179909Y-87431740D01*
X156654577Y-87114577D01*
X156971740Y-86639909D01*
X157083113Y-86080000D01*
X157018688Y-85756114D01*
X157609474Y-85165328D01*
X157672930Y-85122928D01*
X157724717Y-85045423D01*
X157840905Y-84871537D01*
X157869404Y-84728260D01*
X157885001Y-84649851D01*
X157885001Y-84649847D01*
X157899889Y-84574999D01*
X157885001Y-84500151D01*
X157885001Y-81127000D01*
X158873000Y-81127000D01*
X158873000Y-137873000D01*
X148000000Y-137873000D01*
X147951399Y-137882667D01*
X147910197Y-137910197D01*
X147882667Y-137951399D01*
X147873000Y-138000000D01*
X147873000Y-148873000D01*
X72127000Y-148873000D01*
X72127000Y-145540000D01*
X114485908Y-145540000D01*
X114601161Y-146119418D01*
X114929375Y-146610625D01*
X115420582Y-146938839D01*
X115853744Y-147025000D01*
X116146256Y-147025000D01*
X116579418Y-146938839D01*
X117070625Y-146610625D01*
X117398839Y-146119418D01*
X117514092Y-145540000D01*
X120485908Y-145540000D01*
X120601161Y-146119418D01*
X120929375Y-146610625D01*
X121420582Y-146938839D01*
X121853744Y-147025000D01*
X122146256Y-147025000D01*
X122579418Y-146938839D01*
X123070625Y-146610625D01*
X123398839Y-146119418D01*
X123495196Y-145634996D01*
X127165000Y-145634996D01*
X127165000Y-146365004D01*
X127444362Y-147039444D01*
X127960556Y-147555638D01*
X128634996Y-147835000D01*
X129365004Y-147835000D01*
X130039444Y-147555638D01*
X130555638Y-147039444D01*
X130835000Y-146365004D01*
X130835000Y-145634996D01*
X130555638Y-144960556D01*
X130039444Y-144444362D01*
X129365004Y-144165000D01*
X128634996Y-144165000D01*
X127960556Y-144444362D01*
X127444362Y-144960556D01*
X127165000Y-145634996D01*
X123495196Y-145634996D01*
X123514092Y-145540000D01*
X123398839Y-144960582D01*
X123070625Y-144469375D01*
X123048967Y-144454904D01*
X123209698Y-144388327D01*
X123388327Y-144209699D01*
X123485000Y-143976310D01*
X123485000Y-143285750D01*
X123326250Y-143127000D01*
X122127000Y-143127000D01*
X122127000Y-143147000D01*
X121873000Y-143147000D01*
X121873000Y-143127000D01*
X120673750Y-143127000D01*
X120515000Y-143285750D01*
X120515000Y-143976310D01*
X120611673Y-144209699D01*
X120790302Y-144388327D01*
X120951033Y-144454904D01*
X120929375Y-144469375D01*
X120601161Y-144960582D01*
X120485908Y-145540000D01*
X117514092Y-145540000D01*
X117398839Y-144960582D01*
X117070625Y-144469375D01*
X117052381Y-144457184D01*
X117097765Y-144448157D01*
X117307809Y-144307809D01*
X117448157Y-144097765D01*
X117497440Y-143850000D01*
X117497440Y-142150000D01*
X117472316Y-142023690D01*
X120515000Y-142023690D01*
X120515000Y-142714250D01*
X120673750Y-142873000D01*
X121873000Y-142873000D01*
X121873000Y-141673750D01*
X122127000Y-141673750D01*
X122127000Y-142873000D01*
X123326250Y-142873000D01*
X123485000Y-142714250D01*
X123485000Y-142023690D01*
X123388327Y-141790301D01*
X123209698Y-141611673D01*
X122976309Y-141515000D01*
X122285750Y-141515000D01*
X122127000Y-141673750D01*
X121873000Y-141673750D01*
X121714250Y-141515000D01*
X121023691Y-141515000D01*
X120790302Y-141611673D01*
X120611673Y-141790301D01*
X120515000Y-142023690D01*
X117472316Y-142023690D01*
X117448157Y-141902235D01*
X117307809Y-141692191D01*
X117097765Y-141551843D01*
X116850000Y-141502560D01*
X115150000Y-141502560D01*
X114902235Y-141551843D01*
X114692191Y-141692191D01*
X114551843Y-141902235D01*
X114502560Y-142150000D01*
X114502560Y-143850000D01*
X114551843Y-144097765D01*
X114692191Y-144307809D01*
X114902235Y-144448157D01*
X114947619Y-144457184D01*
X114929375Y-144469375D01*
X114601161Y-144960582D01*
X114485908Y-145540000D01*
X72127000Y-145540000D01*
X72127000Y-141400000D01*
X74752560Y-141400000D01*
X74752560Y-142600000D01*
X74801843Y-142847765D01*
X74942191Y-143057809D01*
X75094121Y-143159326D01*
X74953018Y-143300429D01*
X74765000Y-143754343D01*
X74765000Y-144245657D01*
X74953018Y-144699571D01*
X75300429Y-145046982D01*
X75754343Y-145235000D01*
X76245657Y-145235000D01*
X76699571Y-145046982D01*
X77046982Y-144699571D01*
X77235000Y-144245657D01*
X77235000Y-143754343D01*
X77046982Y-143300429D01*
X76905879Y-143159326D01*
X77057809Y-143057809D01*
X77198157Y-142847765D01*
X77247440Y-142600000D01*
X77247440Y-141400000D01*
X77198157Y-141152235D01*
X77057809Y-140942191D01*
X76847765Y-140801843D01*
X76600000Y-140752560D01*
X75400000Y-140752560D01*
X75152235Y-140801843D01*
X74942191Y-140942191D01*
X74801843Y-141152235D01*
X74752560Y-141400000D01*
X72127000Y-141400000D01*
X72127000Y-139764615D01*
X81515000Y-139764615D01*
X81515000Y-140355385D01*
X81741078Y-140901185D01*
X82158815Y-141318922D01*
X82185560Y-141330000D01*
X82158815Y-141341078D01*
X81741078Y-141758815D01*
X81515000Y-142304615D01*
X81515000Y-142895385D01*
X81741078Y-143441185D01*
X82158815Y-143858922D01*
X82704615Y-144085000D01*
X83295385Y-144085000D01*
X83841185Y-143858922D01*
X84258922Y-143441185D01*
X84485000Y-142895385D01*
X84485000Y-142304615D01*
X84258922Y-141758815D01*
X83841185Y-141341078D01*
X83814440Y-141330000D01*
X83841185Y-141318922D01*
X84258922Y-140901185D01*
X84485000Y-140355385D01*
X84485000Y-139764615D01*
X84258922Y-139218815D01*
X83841185Y-138801078D01*
X83794753Y-138781845D01*
X83864353Y-138563958D01*
X83000000Y-137699605D01*
X82135647Y-138563958D01*
X82205247Y-138781845D01*
X82158815Y-138801078D01*
X81741078Y-139218815D01*
X81515000Y-139764615D01*
X72127000Y-139764615D01*
X72127000Y-138000000D01*
X72117333Y-137951399D01*
X72089803Y-137910197D01*
X72048601Y-137882667D01*
X72000000Y-137873000D01*
X61127000Y-137873000D01*
X61127000Y-137291279D01*
X81503282Y-137291279D01*
X81529685Y-137881458D01*
X81704741Y-138304080D01*
X81956042Y-138384353D01*
X82820395Y-137520000D01*
X81956042Y-136655647D01*
X81704741Y-136735920D01*
X81503282Y-137291279D01*
X61127000Y-137291279D01*
X61127000Y-127714561D01*
X65065000Y-127714561D01*
X65065000Y-128285439D01*
X65283466Y-128812862D01*
X65687138Y-129216534D01*
X66214561Y-129435000D01*
X66785439Y-129435000D01*
X67312862Y-129216534D01*
X67716534Y-128812862D01*
X67750000Y-128732068D01*
X67783466Y-128812862D01*
X68187138Y-129216534D01*
X68714561Y-129435000D01*
X69285439Y-129435000D01*
X69812862Y-129216534D01*
X70109396Y-128920000D01*
X73333900Y-128920000D01*
X73457109Y-129539411D01*
X73807977Y-130064523D01*
X73995767Y-130190000D01*
X73807977Y-130315477D01*
X73457109Y-130840589D01*
X73333900Y-131460000D01*
X73457109Y-132079411D01*
X73719088Y-132471491D01*
X73542191Y-132589691D01*
X73401843Y-132799735D01*
X73352560Y-133047500D01*
X73352560Y-134952500D01*
X73401843Y-135200265D01*
X73542191Y-135410309D01*
X73752235Y-135550657D01*
X74000000Y-135599940D01*
X76000000Y-135599940D01*
X76247765Y-135550657D01*
X76457809Y-135410309D01*
X76598157Y-135200265D01*
X76647440Y-134952500D01*
X76647440Y-133047500D01*
X76598157Y-132799735D01*
X76457809Y-132589691D01*
X76280912Y-132471491D01*
X76542891Y-132079411D01*
X76666100Y-131460000D01*
X76542891Y-130840589D01*
X76192023Y-130315477D01*
X76004233Y-130190000D01*
X76192023Y-130064523D01*
X76542891Y-129539411D01*
X76666100Y-128920000D01*
X76542891Y-128300589D01*
X76192023Y-127775477D01*
X75666911Y-127424609D01*
X75203850Y-127332500D01*
X74796150Y-127332500D01*
X74333089Y-127424609D01*
X73807977Y-127775477D01*
X73457109Y-128300589D01*
X73333900Y-128920000D01*
X70109396Y-128920000D01*
X70216534Y-128812862D01*
X70435000Y-128285439D01*
X70435000Y-127714561D01*
X70216534Y-127187138D01*
X69812862Y-126783466D01*
X69285439Y-126565000D01*
X68714561Y-126565000D01*
X68187138Y-126783466D01*
X67783466Y-127187138D01*
X67750000Y-127267932D01*
X67716534Y-127187138D01*
X67312862Y-126783466D01*
X66785439Y-126565000D01*
X66214561Y-126565000D01*
X65687138Y-126783466D01*
X65283466Y-127187138D01*
X65065000Y-127714561D01*
X61127000Y-127714561D01*
X61127000Y-118674778D01*
X64365000Y-118674778D01*
X64365000Y-119325222D01*
X64613914Y-119926153D01*
X65073847Y-120386086D01*
X65674778Y-120635000D01*
X66325222Y-120635000D01*
X66926153Y-120386086D01*
X67386086Y-119926153D01*
X67635000Y-119325222D01*
X67635000Y-118674778D01*
X67386086Y-118073847D01*
X67312239Y-118000000D01*
X69352560Y-118000000D01*
X69352560Y-120000000D01*
X69401843Y-120247765D01*
X69542191Y-120457809D01*
X69752235Y-120598157D01*
X70000000Y-120647440D01*
X72000000Y-120647440D01*
X72247765Y-120598157D01*
X72457809Y-120457809D01*
X72598157Y-120247765D01*
X72647440Y-120000000D01*
X72647440Y-118000000D01*
X72598157Y-117752235D01*
X72457809Y-117542191D01*
X72247765Y-117401843D01*
X72000000Y-117352560D01*
X70000000Y-117352560D01*
X69752235Y-117401843D01*
X69542191Y-117542191D01*
X69401843Y-117752235D01*
X69352560Y-118000000D01*
X67312239Y-118000000D01*
X66926153Y-117613914D01*
X66325222Y-117365000D01*
X65674778Y-117365000D01*
X65073847Y-117613914D01*
X64613914Y-118073847D01*
X64365000Y-118674778D01*
X61127000Y-118674778D01*
X61127000Y-116814017D01*
X76065000Y-116814017D01*
X76065000Y-117185983D01*
X76207345Y-117529635D01*
X76470365Y-117792655D01*
X76814017Y-117935000D01*
X77185983Y-117935000D01*
X77529635Y-117792655D01*
X77792655Y-117529635D01*
X77935000Y-117185983D01*
X77935000Y-116814017D01*
X78065000Y-116814017D01*
X78065000Y-117185983D01*
X78207345Y-117529635D01*
X78470365Y-117792655D01*
X78814017Y-117935000D01*
X79185983Y-117935000D01*
X79529635Y-117792655D01*
X79792655Y-117529635D01*
X79935000Y-117185983D01*
X79935000Y-116814017D01*
X79792655Y-116470365D01*
X79529635Y-116207345D01*
X79185983Y-116065000D01*
X78814017Y-116065000D01*
X78470365Y-116207345D01*
X78207345Y-116470365D01*
X78065000Y-116814017D01*
X77935000Y-116814017D01*
X77792655Y-116470365D01*
X77529635Y-116207345D01*
X77185983Y-116065000D01*
X76814017Y-116065000D01*
X76470365Y-116207345D01*
X76207345Y-116470365D01*
X76065000Y-116814017D01*
X61127000Y-116814017D01*
X61127000Y-114814017D01*
X74065000Y-114814017D01*
X74065000Y-115185983D01*
X74207345Y-115529635D01*
X74470365Y-115792655D01*
X74814017Y-115935000D01*
X75185983Y-115935000D01*
X75529635Y-115792655D01*
X75792655Y-115529635D01*
X75935000Y-115185983D01*
X75935000Y-114814017D01*
X76065000Y-114814017D01*
X76065000Y-115185983D01*
X76207345Y-115529635D01*
X76470365Y-115792655D01*
X76814017Y-115935000D01*
X77185983Y-115935000D01*
X77529635Y-115792655D01*
X77792655Y-115529635D01*
X77935000Y-115185983D01*
X77935000Y-114814017D01*
X78065000Y-114814017D01*
X78065000Y-115185983D01*
X78207345Y-115529635D01*
X78470365Y-115792655D01*
X78814017Y-115935000D01*
X79185983Y-115935000D01*
X79529635Y-115792655D01*
X79792655Y-115529635D01*
X79935000Y-115185983D01*
X79935000Y-114814017D01*
X79792655Y-114470365D01*
X79529635Y-114207345D01*
X79185983Y-114065000D01*
X78814017Y-114065000D01*
X78470365Y-114207345D01*
X78207345Y-114470365D01*
X78065000Y-114814017D01*
X77935000Y-114814017D01*
X77792655Y-114470365D01*
X77529635Y-114207345D01*
X77185983Y-114065000D01*
X76814017Y-114065000D01*
X76470365Y-114207345D01*
X76207345Y-114470365D01*
X76065000Y-114814017D01*
X75935000Y-114814017D01*
X75792655Y-114470365D01*
X75529635Y-114207345D01*
X75185983Y-114065000D01*
X74814017Y-114065000D01*
X74470365Y-114207345D01*
X74207345Y-114470365D01*
X74065000Y-114814017D01*
X61127000Y-114814017D01*
X61127000Y-112814017D01*
X74065000Y-112814017D01*
X74065000Y-113185983D01*
X74207345Y-113529635D01*
X74470365Y-113792655D01*
X74814017Y-113935000D01*
X75185983Y-113935000D01*
X75529635Y-113792655D01*
X75792655Y-113529635D01*
X75935000Y-113185983D01*
X75935000Y-112814017D01*
X76065000Y-112814017D01*
X76065000Y-113185983D01*
X76207345Y-113529635D01*
X76470365Y-113792655D01*
X76814017Y-113935000D01*
X77185983Y-113935000D01*
X77529635Y-113792655D01*
X77792655Y-113529635D01*
X77935000Y-113185983D01*
X77935000Y-112814017D01*
X78065000Y-112814017D01*
X78065000Y-113185983D01*
X78207345Y-113529635D01*
X78470365Y-113792655D01*
X78814017Y-113935000D01*
X79185983Y-113935000D01*
X79529635Y-113792655D01*
X79792655Y-113529635D01*
X79935000Y-113185983D01*
X79935000Y-112814017D01*
X79792655Y-112470365D01*
X79529635Y-112207345D01*
X79185983Y-112065000D01*
X78814017Y-112065000D01*
X78470365Y-112207345D01*
X78207345Y-112470365D01*
X78065000Y-112814017D01*
X77935000Y-112814017D01*
X77792655Y-112470365D01*
X77529635Y-112207345D01*
X77185983Y-112065000D01*
X76814017Y-112065000D01*
X76470365Y-112207345D01*
X76207345Y-112470365D01*
X76065000Y-112814017D01*
X75935000Y-112814017D01*
X75792655Y-112470365D01*
X75529635Y-112207345D01*
X75185983Y-112065000D01*
X74814017Y-112065000D01*
X74470365Y-112207345D01*
X74207345Y-112470365D01*
X74065000Y-112814017D01*
X61127000Y-112814017D01*
X61127000Y-108714996D01*
X64085000Y-108714996D01*
X64085000Y-109445004D01*
X64364362Y-110119444D01*
X64880556Y-110635638D01*
X65554996Y-110915000D01*
X66285004Y-110915000D01*
X66959444Y-110635638D01*
X67475638Y-110119444D01*
X67755000Y-109445004D01*
X67755000Y-108714996D01*
X69165000Y-108714996D01*
X69165000Y-109445004D01*
X69444362Y-110119444D01*
X69960556Y-110635638D01*
X70634996Y-110915000D01*
X71365004Y-110915000D01*
X71608798Y-110814017D01*
X74065000Y-110814017D01*
X74065000Y-111185983D01*
X74207345Y-111529635D01*
X74470365Y-111792655D01*
X74814017Y-111935000D01*
X75185983Y-111935000D01*
X75529635Y-111792655D01*
X75792655Y-111529635D01*
X75935000Y-111185983D01*
X75935000Y-110814017D01*
X76065000Y-110814017D01*
X76065000Y-111185983D01*
X76207345Y-111529635D01*
X76470365Y-111792655D01*
X76814017Y-111935000D01*
X77185983Y-111935000D01*
X77529635Y-111792655D01*
X77792655Y-111529635D01*
X77935000Y-111185983D01*
X77935000Y-110814017D01*
X78065000Y-110814017D01*
X78065000Y-111185983D01*
X78207345Y-111529635D01*
X78470365Y-111792655D01*
X78814017Y-111935000D01*
X79185983Y-111935000D01*
X79529635Y-111792655D01*
X79792655Y-111529635D01*
X79935000Y-111185983D01*
X79935000Y-110814017D01*
X79792655Y-110470365D01*
X79529635Y-110207345D01*
X79185983Y-110065000D01*
X78814017Y-110065000D01*
X78470365Y-110207345D01*
X78207345Y-110470365D01*
X78065000Y-110814017D01*
X77935000Y-110814017D01*
X77792655Y-110470365D01*
X77529635Y-110207345D01*
X77185983Y-110065000D01*
X76814017Y-110065000D01*
X76470365Y-110207345D01*
X76207345Y-110470365D01*
X76065000Y-110814017D01*
X75935000Y-110814017D01*
X75792655Y-110470365D01*
X75529635Y-110207345D01*
X75185983Y-110065000D01*
X74814017Y-110065000D01*
X74470365Y-110207345D01*
X74207345Y-110470365D01*
X74065000Y-110814017D01*
X71608798Y-110814017D01*
X72039444Y-110635638D01*
X72555638Y-110119444D01*
X72835000Y-109445004D01*
X72835000Y-108814017D01*
X74065000Y-108814017D01*
X74065000Y-109185983D01*
X74207345Y-109529635D01*
X74470365Y-109792655D01*
X74814017Y-109935000D01*
X75185983Y-109935000D01*
X75529635Y-109792655D01*
X75792655Y-109529635D01*
X75935000Y-109185983D01*
X75935000Y-108814017D01*
X76065000Y-108814017D01*
X76065000Y-109185983D01*
X76207345Y-109529635D01*
X76470365Y-109792655D01*
X76814017Y-109935000D01*
X77185983Y-109935000D01*
X77529635Y-109792655D01*
X77792655Y-109529635D01*
X77935000Y-109185983D01*
X77935000Y-108814017D01*
X78065000Y-108814017D01*
X78065000Y-109185983D01*
X78207345Y-109529635D01*
X78470365Y-109792655D01*
X78814017Y-109935000D01*
X79185983Y-109935000D01*
X79529635Y-109792655D01*
X79792655Y-109529635D01*
X79935000Y-109185983D01*
X79935000Y-108814017D01*
X79792655Y-108470365D01*
X79529635Y-108207345D01*
X79185983Y-108065000D01*
X78814017Y-108065000D01*
X78470365Y-108207345D01*
X78207345Y-108470365D01*
X78065000Y-108814017D01*
X77935000Y-108814017D01*
X77792655Y-108470365D01*
X77529635Y-108207345D01*
X77185983Y-108065000D01*
X76814017Y-108065000D01*
X76470365Y-108207345D01*
X76207345Y-108470365D01*
X76065000Y-108814017D01*
X75935000Y-108814017D01*
X75792655Y-108470365D01*
X75529635Y-108207345D01*
X75185983Y-108065000D01*
X74814017Y-108065000D01*
X74470365Y-108207345D01*
X74207345Y-108470365D01*
X74065000Y-108814017D01*
X72835000Y-108814017D01*
X72835000Y-108714996D01*
X72555638Y-108040556D01*
X72039444Y-107524362D01*
X71365004Y-107245000D01*
X70634996Y-107245000D01*
X69960556Y-107524362D01*
X69444362Y-108040556D01*
X69165000Y-108714996D01*
X67755000Y-108714996D01*
X67475638Y-108040556D01*
X66959444Y-107524362D01*
X66285004Y-107245000D01*
X65554996Y-107245000D01*
X64880556Y-107524362D01*
X64364362Y-108040556D01*
X64085000Y-108714996D01*
X61127000Y-108714996D01*
X61127000Y-106814017D01*
X76065000Y-106814017D01*
X76065000Y-107185983D01*
X76207345Y-107529635D01*
X76470365Y-107792655D01*
X76814017Y-107935000D01*
X77185983Y-107935000D01*
X77529635Y-107792655D01*
X77792655Y-107529635D01*
X77935000Y-107185983D01*
X77935000Y-106814017D01*
X78065000Y-106814017D01*
X78065000Y-107185983D01*
X78207345Y-107529635D01*
X78470365Y-107792655D01*
X78814017Y-107935000D01*
X79185983Y-107935000D01*
X79529635Y-107792655D01*
X79792655Y-107529635D01*
X79935000Y-107185983D01*
X79935000Y-106814017D01*
X79792655Y-106470365D01*
X79529635Y-106207345D01*
X79185983Y-106065000D01*
X78814017Y-106065000D01*
X78470365Y-106207345D01*
X78207345Y-106470365D01*
X78065000Y-106814017D01*
X77935000Y-106814017D01*
X77792655Y-106470365D01*
X77529635Y-106207345D01*
X77185983Y-106065000D01*
X76814017Y-106065000D01*
X76470365Y-106207345D01*
X76207345Y-106470365D01*
X76065000Y-106814017D01*
X61127000Y-106814017D01*
X61127000Y-103634996D01*
X64085000Y-103634996D01*
X64085000Y-104365004D01*
X64364362Y-105039444D01*
X64880556Y-105555638D01*
X65554996Y-105835000D01*
X66285004Y-105835000D01*
X66959444Y-105555638D01*
X67475638Y-105039444D01*
X67755000Y-104365004D01*
X67755000Y-103634996D01*
X67475638Y-102960556D01*
X67315082Y-102800000D01*
X69152560Y-102800000D01*
X69152560Y-105200000D01*
X69201843Y-105447765D01*
X69342191Y-105657809D01*
X69552235Y-105798157D01*
X69800000Y-105847440D01*
X72200000Y-105847440D01*
X72447765Y-105798157D01*
X72657809Y-105657809D01*
X72798157Y-105447765D01*
X72847440Y-105200000D01*
X72847440Y-102800000D01*
X72798157Y-102552235D01*
X72657809Y-102342191D01*
X72447765Y-102201843D01*
X72200000Y-102152560D01*
X69800000Y-102152560D01*
X69552235Y-102201843D01*
X69342191Y-102342191D01*
X69201843Y-102552235D01*
X69152560Y-102800000D01*
X67315082Y-102800000D01*
X66959444Y-102444362D01*
X66285004Y-102165000D01*
X65554996Y-102165000D01*
X64880556Y-102444362D01*
X64364362Y-102960556D01*
X64085000Y-103634996D01*
X61127000Y-103634996D01*
X61127000Y-96127000D01*
X106748199Y-96127000D01*
X103635199Y-99240000D01*
X93074848Y-99240000D01*
X93000000Y-99225112D01*
X92925152Y-99240000D01*
X92925148Y-99240000D01*
X92751605Y-99274520D01*
X92703462Y-99284096D01*
X92516418Y-99409076D01*
X92452071Y-99452071D01*
X92409671Y-99515527D01*
X90338302Y-101586897D01*
X90285439Y-101565000D01*
X89714561Y-101565000D01*
X89187138Y-101783466D01*
X88783466Y-102187138D01*
X88565000Y-102714561D01*
X88565000Y-103285439D01*
X88783466Y-103812862D01*
X89187138Y-104216534D01*
X89714561Y-104435000D01*
X90285439Y-104435000D01*
X90812862Y-104216534D01*
X91216534Y-103812862D01*
X91435000Y-103285439D01*
X91435000Y-102714561D01*
X91413103Y-102661698D01*
X93314802Y-100760000D01*
X97165198Y-100760000D01*
X96338302Y-101586897D01*
X96285439Y-101565000D01*
X95714561Y-101565000D01*
X95187138Y-101783466D01*
X94783466Y-102187138D01*
X94565000Y-102714561D01*
X94565000Y-103285439D01*
X94783466Y-103812862D01*
X95187138Y-104216534D01*
X95714561Y-104435000D01*
X96285439Y-104435000D01*
X96812862Y-104216534D01*
X97216534Y-103812862D01*
X97435000Y-103285439D01*
X97435000Y-102714561D01*
X97413103Y-102661698D01*
X98314802Y-101760000D01*
X101243790Y-101760000D01*
X101187138Y-101783466D01*
X100783466Y-102187138D01*
X100565000Y-102714561D01*
X100565000Y-103285439D01*
X100783466Y-103812862D01*
X101187138Y-104216534D01*
X101714561Y-104435000D01*
X102285439Y-104435000D01*
X102812862Y-104216534D01*
X103216534Y-103812862D01*
X103238430Y-103760000D01*
X107099166Y-103760000D01*
X106915000Y-104204615D01*
X106915000Y-104795385D01*
X107141078Y-105341185D01*
X107558815Y-105758922D01*
X107585560Y-105770000D01*
X107558815Y-105781078D01*
X107141078Y-106198815D01*
X106915000Y-106744615D01*
X106915000Y-107335385D01*
X107141078Y-107881185D01*
X107558815Y-108298922D01*
X107585560Y-108310000D01*
X107558815Y-108321078D01*
X107141078Y-108738815D01*
X106915000Y-109284615D01*
X106915000Y-109875385D01*
X107141078Y-110421185D01*
X107558815Y-110838922D01*
X107585560Y-110850000D01*
X107558815Y-110861078D01*
X107141078Y-111278815D01*
X106915000Y-111824615D01*
X106915000Y-112415385D01*
X107141078Y-112961185D01*
X107558815Y-113378922D01*
X107585560Y-113390000D01*
X107558815Y-113401078D01*
X107141078Y-113818815D01*
X106915000Y-114364615D01*
X106915000Y-114955385D01*
X107141078Y-115501185D01*
X107558815Y-115918922D01*
X107585560Y-115930000D01*
X107558815Y-115941078D01*
X107141078Y-116358815D01*
X106915000Y-116904615D01*
X106915000Y-117495385D01*
X107141078Y-118041185D01*
X107558815Y-118458922D01*
X107585560Y-118470000D01*
X107558815Y-118481078D01*
X107141078Y-118898815D01*
X106915000Y-119444615D01*
X106915000Y-120035385D01*
X107141078Y-120581185D01*
X107558815Y-120998922D01*
X107585560Y-121010000D01*
X107558815Y-121021078D01*
X107141078Y-121438815D01*
X106915000Y-121984615D01*
X106915000Y-122575385D01*
X107141078Y-123121185D01*
X107558815Y-123538922D01*
X107585560Y-123550000D01*
X107558815Y-123561078D01*
X107141078Y-123978815D01*
X106915000Y-124524615D01*
X106915000Y-125115385D01*
X107141078Y-125661185D01*
X107558815Y-126078922D01*
X107585560Y-126090000D01*
X107558815Y-126101078D01*
X107141078Y-126518815D01*
X106915000Y-127064615D01*
X106915000Y-127655385D01*
X107141078Y-128201185D01*
X107558815Y-128618922D01*
X107585560Y-128630000D01*
X107558815Y-128641078D01*
X107141078Y-129058815D01*
X106915000Y-129604615D01*
X106915000Y-130195385D01*
X107141078Y-130741185D01*
X107558815Y-131158922D01*
X107585560Y-131170000D01*
X107558815Y-131181078D01*
X107141078Y-131598815D01*
X106915000Y-132144615D01*
X106915000Y-132735385D01*
X107141078Y-133281185D01*
X107558815Y-133698922D01*
X107585560Y-133710000D01*
X107558815Y-133721078D01*
X107141078Y-134138815D01*
X106915000Y-134684615D01*
X106915000Y-135275385D01*
X107043246Y-135584999D01*
X105729847Y-135584999D01*
X105655000Y-135570111D01*
X105580153Y-135584999D01*
X105580149Y-135584999D01*
X105358464Y-135629095D01*
X105358462Y-135629096D01*
X105358463Y-135629096D01*
X105170527Y-135754670D01*
X105170525Y-135754672D01*
X105107072Y-135797070D01*
X105064674Y-135860523D01*
X102685199Y-138240000D01*
X88314802Y-138240000D01*
X86760000Y-136685199D01*
X86760000Y-135794996D01*
X88165000Y-135794996D01*
X88165000Y-136525004D01*
X88444362Y-137199444D01*
X88960556Y-137715638D01*
X89634996Y-137995000D01*
X90365004Y-137995000D01*
X91039444Y-137715638D01*
X91555638Y-137199444D01*
X91835000Y-136525004D01*
X91835000Y-135794996D01*
X94165000Y-135794996D01*
X94165000Y-136525004D01*
X94444362Y-137199444D01*
X94960556Y-137715638D01*
X95634996Y-137995000D01*
X96365004Y-137995000D01*
X97039444Y-137715638D01*
X97555638Y-137199444D01*
X97835000Y-136525004D01*
X97835000Y-135794996D01*
X100165000Y-135794996D01*
X100165000Y-136525004D01*
X100444362Y-137199444D01*
X100960556Y-137715638D01*
X101634996Y-137995000D01*
X102365004Y-137995000D01*
X103039444Y-137715638D01*
X103555638Y-137199444D01*
X103835000Y-136525004D01*
X103835000Y-135794996D01*
X103555638Y-135120556D01*
X103039444Y-134604362D01*
X102365004Y-134325000D01*
X101634996Y-134325000D01*
X100960556Y-134604362D01*
X100444362Y-135120556D01*
X100165000Y-135794996D01*
X97835000Y-135794996D01*
X97555638Y-135120556D01*
X97039444Y-134604362D01*
X96365004Y-134325000D01*
X95634996Y-134325000D01*
X94960556Y-134604362D01*
X94444362Y-135120556D01*
X94165000Y-135794996D01*
X91835000Y-135794996D01*
X91555638Y-135120556D01*
X91039444Y-134604362D01*
X90365004Y-134325000D01*
X89634996Y-134325000D01*
X88960556Y-134604362D01*
X88444362Y-135120556D01*
X88165000Y-135794996D01*
X86760000Y-135794996D01*
X86760000Y-127894848D01*
X86774888Y-127820000D01*
X86760000Y-127745152D01*
X86760000Y-127745148D01*
X86715904Y-127523463D01*
X86715904Y-127523462D01*
X86590329Y-127335527D01*
X86547929Y-127272071D01*
X86484473Y-127229671D01*
X84451372Y-125196571D01*
X84485000Y-125115385D01*
X84485000Y-124524615D01*
X84258922Y-123978815D01*
X83841185Y-123561078D01*
X83814440Y-123550000D01*
X83841185Y-123538922D01*
X84258922Y-123121185D01*
X84485000Y-122575385D01*
X84485000Y-121984615D01*
X84451372Y-121903429D01*
X85434801Y-120920000D01*
X88129051Y-120920000D01*
X88271469Y-121635981D01*
X88677039Y-122242961D01*
X89284019Y-122648531D01*
X89819273Y-122755000D01*
X90180727Y-122755000D01*
X90715981Y-122648531D01*
X91322961Y-122242961D01*
X91728531Y-121635981D01*
X91870949Y-120920000D01*
X94129051Y-120920000D01*
X94271469Y-121635981D01*
X94677039Y-122242961D01*
X95284019Y-122648531D01*
X95819273Y-122755000D01*
X96180727Y-122755000D01*
X96715981Y-122648531D01*
X97322961Y-122242961D01*
X97728531Y-121635981D01*
X97870949Y-120920000D01*
X100129051Y-120920000D01*
X100271469Y-121635981D01*
X100677039Y-122242961D01*
X101284019Y-122648531D01*
X101819273Y-122755000D01*
X102180727Y-122755000D01*
X102715981Y-122648531D01*
X103322961Y-122242961D01*
X103728531Y-121635981D01*
X103870949Y-120920000D01*
X103728531Y-120204019D01*
X103322961Y-119597039D01*
X102715981Y-119191469D01*
X102180727Y-119085000D01*
X101819273Y-119085000D01*
X101284019Y-119191469D01*
X100677039Y-119597039D01*
X100271469Y-120204019D01*
X100129051Y-120920000D01*
X97870949Y-120920000D01*
X97728531Y-120204019D01*
X97322961Y-119597039D01*
X96715981Y-119191469D01*
X96180727Y-119085000D01*
X95819273Y-119085000D01*
X95284019Y-119191469D01*
X94677039Y-119597039D01*
X94271469Y-120204019D01*
X94129051Y-120920000D01*
X91870949Y-120920000D01*
X91728531Y-120204019D01*
X91322961Y-119597039D01*
X90715981Y-119191469D01*
X90180727Y-119085000D01*
X89819273Y-119085000D01*
X89284019Y-119191469D01*
X88677039Y-119597039D01*
X88271469Y-120204019D01*
X88129051Y-120920000D01*
X85434801Y-120920000D01*
X87594802Y-118760000D01*
X95102155Y-118760000D01*
X95177002Y-118774888D01*
X95251849Y-118760000D01*
X95251854Y-118760000D01*
X95473539Y-118715904D01*
X95724931Y-118547929D01*
X95767333Y-118484470D01*
X100331804Y-113920000D01*
X100781957Y-113920000D01*
X100965423Y-114194577D01*
X101440091Y-114511740D01*
X101858667Y-114595000D01*
X102141333Y-114595000D01*
X102559909Y-114511740D01*
X103034577Y-114194577D01*
X103351740Y-113719909D01*
X103463113Y-113160000D01*
X103351740Y-112600091D01*
X103034577Y-112125423D01*
X102559909Y-111808260D01*
X102141333Y-111725000D01*
X101858667Y-111725000D01*
X101440091Y-111808260D01*
X100965423Y-112125423D01*
X100781957Y-112400000D01*
X100074852Y-112400000D01*
X100000000Y-112385111D01*
X99925148Y-112400000D01*
X99703463Y-112444096D01*
X99452071Y-112612071D01*
X99375434Y-112726766D01*
X94862201Y-117240000D01*
X87354846Y-117240000D01*
X87279999Y-117225112D01*
X87205152Y-117240000D01*
X87205148Y-117240000D01*
X86983463Y-117284096D01*
X86732071Y-117452071D01*
X86689671Y-117515527D01*
X84485000Y-119720199D01*
X84485000Y-119444615D01*
X84258922Y-118898815D01*
X83841185Y-118481078D01*
X83814440Y-118470000D01*
X83841185Y-118458922D01*
X84258922Y-118041185D01*
X84485000Y-117495385D01*
X84485000Y-116904615D01*
X84258922Y-116358815D01*
X83841185Y-115941078D01*
X83814440Y-115930000D01*
X83841185Y-115918922D01*
X84258922Y-115501185D01*
X84485000Y-114955385D01*
X84485000Y-114364615D01*
X84258922Y-113818815D01*
X83841185Y-113401078D01*
X83814440Y-113390000D01*
X83841185Y-113378922D01*
X84060107Y-113160000D01*
X88536887Y-113160000D01*
X88648260Y-113719909D01*
X88965423Y-114194577D01*
X89440091Y-114511740D01*
X89858667Y-114595000D01*
X90141333Y-114595000D01*
X90559909Y-114511740D01*
X91034577Y-114194577D01*
X91351740Y-113719909D01*
X91463113Y-113160000D01*
X94536887Y-113160000D01*
X94648260Y-113719909D01*
X94965423Y-114194577D01*
X95440091Y-114511740D01*
X95858667Y-114595000D01*
X96141333Y-114595000D01*
X96559909Y-114511740D01*
X97034577Y-114194577D01*
X97351740Y-113719909D01*
X97463113Y-113160000D01*
X97351740Y-112600091D01*
X97034577Y-112125423D01*
X96559909Y-111808260D01*
X96141333Y-111725000D01*
X95858667Y-111725000D01*
X95440091Y-111808260D01*
X94965423Y-112125423D01*
X94648260Y-112600091D01*
X94536887Y-113160000D01*
X91463113Y-113160000D01*
X91351740Y-112600091D01*
X91034577Y-112125423D01*
X90559909Y-111808260D01*
X90141333Y-111725000D01*
X89858667Y-111725000D01*
X89440091Y-111808260D01*
X88965423Y-112125423D01*
X88648260Y-112600091D01*
X88536887Y-113160000D01*
X84060107Y-113160000D01*
X84258922Y-112961185D01*
X84485000Y-112415385D01*
X84485000Y-111824615D01*
X84258922Y-111278815D01*
X83841185Y-110861078D01*
X83814440Y-110850000D01*
X83841185Y-110838922D01*
X84258922Y-110421185D01*
X84485000Y-109875385D01*
X84485000Y-109284615D01*
X84258922Y-108738815D01*
X83841185Y-108321078D01*
X83814440Y-108310000D01*
X83841185Y-108298922D01*
X84258922Y-107881185D01*
X84485000Y-107335385D01*
X84485000Y-106744615D01*
X84258922Y-106198815D01*
X83841185Y-105781078D01*
X83814440Y-105770000D01*
X83841185Y-105758922D01*
X84258922Y-105341185D01*
X84485000Y-104795385D01*
X84485000Y-104204615D01*
X84258922Y-103658815D01*
X83841185Y-103241078D01*
X83295385Y-103015000D01*
X82704615Y-103015000D01*
X82158815Y-103241078D01*
X81741078Y-103658815D01*
X81515000Y-104204615D01*
X81515000Y-104795385D01*
X81741078Y-105341185D01*
X82158815Y-105758922D01*
X82185560Y-105770000D01*
X82158815Y-105781078D01*
X81741078Y-106198815D01*
X81515000Y-106744615D01*
X81515000Y-107335385D01*
X81741078Y-107881185D01*
X82158815Y-108298922D01*
X82185560Y-108310000D01*
X82158815Y-108321078D01*
X81741078Y-108738815D01*
X81515000Y-109284615D01*
X81515000Y-109875385D01*
X81741078Y-110421185D01*
X82158815Y-110838922D01*
X82185560Y-110850000D01*
X82158815Y-110861078D01*
X81741078Y-111278815D01*
X81515000Y-111824615D01*
X81515000Y-112415385D01*
X81741078Y-112961185D01*
X82158815Y-113378922D01*
X82185560Y-113390000D01*
X82158815Y-113401078D01*
X81741078Y-113818815D01*
X81515000Y-114364615D01*
X81515000Y-114955385D01*
X81741078Y-115501185D01*
X82158815Y-115918922D01*
X82185560Y-115930000D01*
X82158815Y-115941078D01*
X81741078Y-116358815D01*
X81515000Y-116904615D01*
X81515000Y-117495385D01*
X81741078Y-118041185D01*
X82158815Y-118458922D01*
X82185560Y-118470000D01*
X82158815Y-118481078D01*
X81741078Y-118898815D01*
X81515000Y-119444615D01*
X81515000Y-120035385D01*
X81741078Y-120581185D01*
X82158815Y-120998922D01*
X82185560Y-121010000D01*
X82158815Y-121021078D01*
X81741078Y-121438815D01*
X81515000Y-121984615D01*
X81515000Y-122575385D01*
X81741078Y-123121185D01*
X82158815Y-123538922D01*
X82185560Y-123550000D01*
X82158815Y-123561078D01*
X81741078Y-123978815D01*
X81515000Y-124524615D01*
X81515000Y-125115385D01*
X81741078Y-125661185D01*
X82158815Y-126078922D01*
X82185560Y-126090000D01*
X82158815Y-126101078D01*
X81741078Y-126518815D01*
X81515000Y-127064615D01*
X81515000Y-127655385D01*
X81741078Y-128201185D01*
X82158815Y-128618922D01*
X82185560Y-128630000D01*
X82158815Y-128641078D01*
X81741078Y-129058815D01*
X81515000Y-129604615D01*
X81515000Y-130195385D01*
X81741078Y-130741185D01*
X82158815Y-131158922D01*
X82185560Y-131170000D01*
X82158815Y-131181078D01*
X81741078Y-131598815D01*
X81515000Y-132144615D01*
X81515000Y-132735385D01*
X81741078Y-133281185D01*
X82158815Y-133698922D01*
X82185560Y-133710000D01*
X82158815Y-133721078D01*
X81741078Y-134138815D01*
X81515000Y-134684615D01*
X81515000Y-135275385D01*
X81741078Y-135821185D01*
X82158815Y-136238922D01*
X82205247Y-136258155D01*
X82135647Y-136476042D01*
X83000000Y-137340395D01*
X83864353Y-136476042D01*
X83794753Y-136258155D01*
X83841185Y-136238922D01*
X84240000Y-135840107D01*
X84240000Y-136718269D01*
X84043958Y-136655647D01*
X83179605Y-137520000D01*
X84043958Y-138384353D01*
X84295259Y-138304080D01*
X84496718Y-137748721D01*
X84488834Y-137572493D01*
X84515530Y-137590331D01*
X86859683Y-139934486D01*
X86902081Y-139997939D01*
X86965534Y-140040337D01*
X86965536Y-140040339D01*
X87090912Y-140124112D01*
X87153473Y-140165914D01*
X87375158Y-140210010D01*
X87375162Y-140210010D01*
X87450009Y-140224898D01*
X87524856Y-140210010D01*
X103111553Y-140210010D01*
X103186400Y-140224898D01*
X103261247Y-140210010D01*
X103261252Y-140210010D01*
X103482937Y-140165914D01*
X103734329Y-139997939D01*
X103776731Y-139934480D01*
X104256211Y-139455001D01*
X107043246Y-139455001D01*
X106915000Y-139764615D01*
X106915000Y-140355385D01*
X107141078Y-140901185D01*
X107558815Y-141318922D01*
X107585560Y-141330000D01*
X107558815Y-141341078D01*
X107141078Y-141758815D01*
X106915000Y-142304615D01*
X106915000Y-142895385D01*
X107141078Y-143441185D01*
X107558815Y-143858922D01*
X108104615Y-144085000D01*
X108695385Y-144085000D01*
X109241185Y-143858922D01*
X109658922Y-143441185D01*
X109885000Y-142895385D01*
X109885000Y-142304615D01*
X109658922Y-141758815D01*
X109241185Y-141341078D01*
X109214440Y-141330000D01*
X109241185Y-141318922D01*
X109658922Y-140901185D01*
X109769181Y-140634996D01*
X127165000Y-140634996D01*
X127165000Y-141365004D01*
X127444362Y-142039444D01*
X127960556Y-142555638D01*
X128634996Y-142835000D01*
X129365004Y-142835000D01*
X130039444Y-142555638D01*
X130555638Y-142039444D01*
X130835000Y-141365004D01*
X130835000Y-140634996D01*
X130555638Y-139960556D01*
X130039444Y-139444362D01*
X129365004Y-139165000D01*
X128634996Y-139165000D01*
X127960556Y-139444362D01*
X127444362Y-139960556D01*
X127165000Y-140634996D01*
X109769181Y-140634996D01*
X109885000Y-140355385D01*
X109885000Y-139764615D01*
X109756754Y-139455001D01*
X119230152Y-139455001D01*
X119304999Y-139469889D01*
X119379846Y-139455001D01*
X119379851Y-139455001D01*
X119601536Y-139410905D01*
X119852928Y-139242930D01*
X119895330Y-139179471D01*
X120314802Y-138760000D01*
X135925199Y-138760000D01*
X142501141Y-145335943D01*
X142369051Y-146000000D01*
X142511469Y-146715981D01*
X142917039Y-147322961D01*
X143524019Y-147728531D01*
X144059273Y-147835000D01*
X144420727Y-147835000D01*
X144955981Y-147728531D01*
X145562961Y-147322961D01*
X145968531Y-146715981D01*
X146110949Y-146000000D01*
X145968531Y-145284019D01*
X145562961Y-144677039D01*
X144955981Y-144271469D01*
X144420727Y-144165000D01*
X144059273Y-144165000D01*
X143575943Y-144261141D01*
X136830331Y-137515530D01*
X136787929Y-137452071D01*
X136537891Y-137285001D01*
X139450200Y-137285001D01*
X142501141Y-140335942D01*
X142369051Y-141000000D01*
X142511469Y-141715981D01*
X142917039Y-142322961D01*
X143524019Y-142728531D01*
X144059273Y-142835000D01*
X144420727Y-142835000D01*
X144955981Y-142728531D01*
X145562961Y-142322961D01*
X145968531Y-141715981D01*
X146110949Y-141000000D01*
X145968531Y-140284019D01*
X145562961Y-139677039D01*
X144955981Y-139271469D01*
X144420727Y-139165000D01*
X144059273Y-139165000D01*
X143575942Y-139261141D01*
X140355332Y-136040531D01*
X140312930Y-135977072D01*
X140068902Y-135814017D01*
X143065000Y-135814017D01*
X143065000Y-136185983D01*
X143207345Y-136529635D01*
X143470365Y-136792655D01*
X143814017Y-136935000D01*
X144185983Y-136935000D01*
X144529635Y-136792655D01*
X144792655Y-136529635D01*
X144935000Y-136185983D01*
X144935000Y-135814017D01*
X145065000Y-135814017D01*
X145065000Y-136185983D01*
X145207345Y-136529635D01*
X145470365Y-136792655D01*
X145814017Y-136935000D01*
X146185983Y-136935000D01*
X146529635Y-136792655D01*
X146792655Y-136529635D01*
X146935000Y-136185983D01*
X146935000Y-135814017D01*
X146792655Y-135470365D01*
X146529635Y-135207345D01*
X146185983Y-135065000D01*
X145814017Y-135065000D01*
X145470365Y-135207345D01*
X145207345Y-135470365D01*
X145065000Y-135814017D01*
X144935000Y-135814017D01*
X144792655Y-135470365D01*
X144529635Y-135207345D01*
X144185983Y-135065000D01*
X143814017Y-135065000D01*
X143470365Y-135207345D01*
X143207345Y-135470365D01*
X143065000Y-135814017D01*
X140068902Y-135814017D01*
X140061538Y-135809097D01*
X139839853Y-135765001D01*
X139839848Y-135765001D01*
X139765001Y-135750113D01*
X139690154Y-135765001D01*
X114669316Y-135765001D01*
X114835000Y-135365004D01*
X114835000Y-134634996D01*
X114555638Y-133960556D01*
X114409099Y-133814017D01*
X127065000Y-133814017D01*
X127065000Y-134185983D01*
X127207345Y-134529635D01*
X127470365Y-134792655D01*
X127814017Y-134935000D01*
X128185983Y-134935000D01*
X128529635Y-134792655D01*
X128792655Y-134529635D01*
X128935000Y-134185983D01*
X128935000Y-133814017D01*
X129065000Y-133814017D01*
X129065000Y-134185983D01*
X129207345Y-134529635D01*
X129470365Y-134792655D01*
X129814017Y-134935000D01*
X130185983Y-134935000D01*
X130529635Y-134792655D01*
X130792655Y-134529635D01*
X130935000Y-134185983D01*
X130935000Y-133814017D01*
X143065000Y-133814017D01*
X143065000Y-134185983D01*
X143207345Y-134529635D01*
X143470365Y-134792655D01*
X143814017Y-134935000D01*
X144185983Y-134935000D01*
X144529635Y-134792655D01*
X144792655Y-134529635D01*
X144935000Y-134185983D01*
X144935000Y-133814017D01*
X145065000Y-133814017D01*
X145065000Y-134185983D01*
X145207345Y-134529635D01*
X145470365Y-134792655D01*
X145814017Y-134935000D01*
X146185983Y-134935000D01*
X146529635Y-134792655D01*
X146792655Y-134529635D01*
X146935000Y-134185983D01*
X146935000Y-133814017D01*
X146792655Y-133470365D01*
X146529635Y-133207345D01*
X146185983Y-133065000D01*
X145814017Y-133065000D01*
X145470365Y-133207345D01*
X145207345Y-133470365D01*
X145065000Y-133814017D01*
X144935000Y-133814017D01*
X144792655Y-133470365D01*
X144529635Y-133207345D01*
X144185983Y-133065000D01*
X143814017Y-133065000D01*
X143470365Y-133207345D01*
X143207345Y-133470365D01*
X143065000Y-133814017D01*
X130935000Y-133814017D01*
X130792655Y-133470365D01*
X130529635Y-133207345D01*
X130185983Y-133065000D01*
X129814017Y-133065000D01*
X129470365Y-133207345D01*
X129207345Y-133470365D01*
X129065000Y-133814017D01*
X128935000Y-133814017D01*
X128792655Y-133470365D01*
X128529635Y-133207345D01*
X128185983Y-133065000D01*
X127814017Y-133065000D01*
X127470365Y-133207345D01*
X127207345Y-133470365D01*
X127065000Y-133814017D01*
X114409099Y-133814017D01*
X114039444Y-133444362D01*
X113365004Y-133165000D01*
X112634996Y-133165000D01*
X111960556Y-133444362D01*
X111444362Y-133960556D01*
X111165000Y-134634996D01*
X111165000Y-135365004D01*
X111330684Y-135765001D01*
X109682194Y-135765001D01*
X109885000Y-135275385D01*
X109885000Y-134684615D01*
X109658922Y-134138815D01*
X109241185Y-133721078D01*
X109214440Y-133710000D01*
X109241185Y-133698922D01*
X109658922Y-133281185D01*
X109885000Y-132735385D01*
X109885000Y-132144615D01*
X109748062Y-131814017D01*
X127065000Y-131814017D01*
X127065000Y-132185983D01*
X127207345Y-132529635D01*
X127470365Y-132792655D01*
X127814017Y-132935000D01*
X128185983Y-132935000D01*
X128529635Y-132792655D01*
X128792655Y-132529635D01*
X128935000Y-132185983D01*
X128935000Y-131814017D01*
X129065000Y-131814017D01*
X129065000Y-132185983D01*
X129207345Y-132529635D01*
X129470365Y-132792655D01*
X129814017Y-132935000D01*
X130185983Y-132935000D01*
X130529635Y-132792655D01*
X130792655Y-132529635D01*
X130935000Y-132185983D01*
X130935000Y-131814017D01*
X143065000Y-131814017D01*
X143065000Y-132185983D01*
X143207345Y-132529635D01*
X143470365Y-132792655D01*
X143814017Y-132935000D01*
X144185983Y-132935000D01*
X144529635Y-132792655D01*
X144792655Y-132529635D01*
X144935000Y-132185983D01*
X144935000Y-131814017D01*
X145065000Y-131814017D01*
X145065000Y-132185983D01*
X145207345Y-132529635D01*
X145470365Y-132792655D01*
X145814017Y-132935000D01*
X146185983Y-132935000D01*
X146529635Y-132792655D01*
X146792655Y-132529635D01*
X146935000Y-132185983D01*
X146935000Y-131814017D01*
X146792655Y-131470365D01*
X146529635Y-131207345D01*
X146185983Y-131065000D01*
X145814017Y-131065000D01*
X145470365Y-131207345D01*
X145207345Y-131470365D01*
X145065000Y-131814017D01*
X144935000Y-131814017D01*
X144792655Y-131470365D01*
X144529635Y-131207345D01*
X144185983Y-131065000D01*
X143814017Y-131065000D01*
X143470365Y-131207345D01*
X143207345Y-131470365D01*
X143065000Y-131814017D01*
X130935000Y-131814017D01*
X130792655Y-131470365D01*
X130529635Y-131207345D01*
X130185983Y-131065000D01*
X129814017Y-131065000D01*
X129470365Y-131207345D01*
X129207345Y-131470365D01*
X129065000Y-131814017D01*
X128935000Y-131814017D01*
X128792655Y-131470365D01*
X128529635Y-131207345D01*
X128185983Y-131065000D01*
X127814017Y-131065000D01*
X127470365Y-131207345D01*
X127207345Y-131470365D01*
X127065000Y-131814017D01*
X109748062Y-131814017D01*
X109658922Y-131598815D01*
X109241185Y-131181078D01*
X109214440Y-131170000D01*
X109241185Y-131158922D01*
X109658922Y-130741185D01*
X109885000Y-130195385D01*
X109885000Y-129814017D01*
X127065000Y-129814017D01*
X127065000Y-130185983D01*
X127207345Y-130529635D01*
X127470365Y-130792655D01*
X127814017Y-130935000D01*
X128185983Y-130935000D01*
X128529635Y-130792655D01*
X128792655Y-130529635D01*
X128935000Y-130185983D01*
X128935000Y-129814017D01*
X129065000Y-129814017D01*
X129065000Y-130185983D01*
X129207345Y-130529635D01*
X129470365Y-130792655D01*
X129814017Y-130935000D01*
X130185983Y-130935000D01*
X130529635Y-130792655D01*
X130792655Y-130529635D01*
X130935000Y-130185983D01*
X130935000Y-129814017D01*
X143065000Y-129814017D01*
X143065000Y-130185983D01*
X143207345Y-130529635D01*
X143470365Y-130792655D01*
X143814017Y-130935000D01*
X144185983Y-130935000D01*
X144529635Y-130792655D01*
X144792655Y-130529635D01*
X144935000Y-130185983D01*
X144935000Y-129814017D01*
X145065000Y-129814017D01*
X145065000Y-130185983D01*
X145207345Y-130529635D01*
X145470365Y-130792655D01*
X145814017Y-130935000D01*
X146185983Y-130935000D01*
X146529635Y-130792655D01*
X146792655Y-130529635D01*
X146935000Y-130185983D01*
X146935000Y-129814017D01*
X146792655Y-129470365D01*
X146529635Y-129207345D01*
X146185983Y-129065000D01*
X145814017Y-129065000D01*
X145470365Y-129207345D01*
X145207345Y-129470365D01*
X145065000Y-129814017D01*
X144935000Y-129814017D01*
X144792655Y-129470365D01*
X144529635Y-129207345D01*
X144185983Y-129065000D01*
X143814017Y-129065000D01*
X143470365Y-129207345D01*
X143207345Y-129470365D01*
X143065000Y-129814017D01*
X130935000Y-129814017D01*
X130792655Y-129470365D01*
X130529635Y-129207345D01*
X130185983Y-129065000D01*
X129814017Y-129065000D01*
X129470365Y-129207345D01*
X129207345Y-129470365D01*
X129065000Y-129814017D01*
X128935000Y-129814017D01*
X128792655Y-129470365D01*
X128529635Y-129207345D01*
X128185983Y-129065000D01*
X127814017Y-129065000D01*
X127470365Y-129207345D01*
X127207345Y-129470365D01*
X127065000Y-129814017D01*
X109885000Y-129814017D01*
X109885000Y-129604615D01*
X109658922Y-129058815D01*
X109241185Y-128641078D01*
X109214440Y-128630000D01*
X109241185Y-128618922D01*
X109658922Y-128201185D01*
X109885000Y-127655385D01*
X109885000Y-127064615D01*
X109658922Y-126518815D01*
X109241185Y-126101078D01*
X109214440Y-126090000D01*
X109241185Y-126078922D01*
X109658922Y-125661185D01*
X109885000Y-125115385D01*
X109885000Y-124524615D01*
X109852334Y-124445750D01*
X118605000Y-124445750D01*
X118605000Y-125046309D01*
X118701673Y-125279698D01*
X118880301Y-125458327D01*
X119113690Y-125555000D01*
X119714250Y-125555000D01*
X119873000Y-125396250D01*
X119873000Y-124287000D01*
X118763750Y-124287000D01*
X118605000Y-124445750D01*
X109852334Y-124445750D01*
X109658922Y-123978815D01*
X109241185Y-123561078D01*
X109214440Y-123550000D01*
X109241185Y-123538922D01*
X109658922Y-123121185D01*
X109885000Y-122575385D01*
X109885000Y-121984615D01*
X109658922Y-121438815D01*
X109241185Y-121021078D01*
X109214440Y-121010000D01*
X109241185Y-120998922D01*
X109658922Y-120581185D01*
X109693952Y-120496615D01*
X109898618Y-120455904D01*
X110150010Y-120287929D01*
X110192412Y-120224470D01*
X111246292Y-119170590D01*
X111129051Y-119760000D01*
X111271469Y-120475981D01*
X111677039Y-121082961D01*
X112284019Y-121488531D01*
X112819273Y-121595000D01*
X113180727Y-121595000D01*
X113715981Y-121488531D01*
X114322961Y-121082961D01*
X114728531Y-120475981D01*
X114870949Y-119760000D01*
X114728531Y-119044019D01*
X114535415Y-118754999D01*
X118624683Y-118754999D01*
X118605000Y-118802517D01*
X118605000Y-119357483D01*
X118817376Y-119870204D01*
X119209796Y-120262624D01*
X119420740Y-120350000D01*
X119209796Y-120437376D01*
X118817376Y-120829796D01*
X118605000Y-121342517D01*
X118605000Y-121897483D01*
X118817376Y-122410204D01*
X119172172Y-122765000D01*
X119113690Y-122765000D01*
X118880301Y-122861673D01*
X118701673Y-123040302D01*
X118605000Y-123273691D01*
X118605000Y-123874250D01*
X118763750Y-124033000D01*
X119873000Y-124033000D01*
X119873000Y-124013000D01*
X120127000Y-124013000D01*
X120127000Y-124033000D01*
X120147000Y-124033000D01*
X120147000Y-124287000D01*
X120127000Y-124287000D01*
X120127000Y-125396250D01*
X120285750Y-125555000D01*
X120886310Y-125555000D01*
X121119699Y-125458327D01*
X121298327Y-125279698D01*
X121395000Y-125046309D01*
X121395000Y-124987828D01*
X121749796Y-125342624D01*
X122262517Y-125555000D01*
X122817483Y-125555000D01*
X123330204Y-125342624D01*
X123722624Y-124950204D01*
X123931575Y-124445750D01*
X134605000Y-124445750D01*
X134605000Y-125046309D01*
X134701673Y-125279698D01*
X134880301Y-125458327D01*
X135113690Y-125555000D01*
X135714250Y-125555000D01*
X135873000Y-125396250D01*
X135873000Y-124287000D01*
X134763750Y-124287000D01*
X134605000Y-124445750D01*
X123931575Y-124445750D01*
X123935000Y-124437483D01*
X123935000Y-124016579D01*
X124257423Y-123694156D01*
X124257425Y-123694153D01*
X127116579Y-120835000D01*
X127225766Y-120835000D01*
X127642926Y-120662207D01*
X127962207Y-120342926D01*
X128135000Y-119925766D01*
X128135000Y-119474234D01*
X127962207Y-119057074D01*
X127660132Y-118754999D01*
X134624683Y-118754999D01*
X134605000Y-118802517D01*
X134605000Y-119357483D01*
X134817376Y-119870204D01*
X135209796Y-120262624D01*
X135420740Y-120350000D01*
X135209796Y-120437376D01*
X134817376Y-120829796D01*
X134605000Y-121342517D01*
X134605000Y-121897483D01*
X134817376Y-122410204D01*
X135172172Y-122765000D01*
X135113690Y-122765000D01*
X134880301Y-122861673D01*
X134701673Y-123040302D01*
X134605000Y-123273691D01*
X134605000Y-123874250D01*
X134763750Y-124033000D01*
X135873000Y-124033000D01*
X135873000Y-124013000D01*
X136127000Y-124013000D01*
X136127000Y-124033000D01*
X136147000Y-124033000D01*
X136147000Y-124287000D01*
X136127000Y-124287000D01*
X136127000Y-125396250D01*
X136285750Y-125555000D01*
X136886310Y-125555000D01*
X137119699Y-125458327D01*
X137298327Y-125279698D01*
X137395000Y-125046309D01*
X137395000Y-124987828D01*
X137749796Y-125342624D01*
X138262517Y-125555000D01*
X138817483Y-125555000D01*
X139330204Y-125342624D01*
X139722624Y-124950204D01*
X139931575Y-124445750D01*
X150605000Y-124445750D01*
X150605000Y-125046309D01*
X150701673Y-125279698D01*
X150880301Y-125458327D01*
X151113690Y-125555000D01*
X151714250Y-125555000D01*
X151873000Y-125396250D01*
X151873000Y-124287000D01*
X150763750Y-124287000D01*
X150605000Y-124445750D01*
X139931575Y-124445750D01*
X139935000Y-124437483D01*
X139935000Y-124016578D01*
X141564156Y-122387423D01*
X141638049Y-122338049D01*
X141711807Y-122227664D01*
X141833651Y-122045311D01*
X141833652Y-122045310D01*
X141885000Y-121787165D01*
X141885000Y-121787161D01*
X141902337Y-121700001D01*
X141885000Y-121612841D01*
X141885000Y-120720133D01*
X141962207Y-120642926D01*
X142135000Y-120225766D01*
X142135000Y-119774234D01*
X141962207Y-119357074D01*
X141642926Y-119037793D01*
X141225766Y-118865000D01*
X140774234Y-118865000D01*
X140357074Y-119037793D01*
X140037793Y-119357074D01*
X139865000Y-119774234D01*
X139865000Y-120225766D01*
X140037793Y-120642926D01*
X140115000Y-120720133D01*
X140115001Y-121333420D01*
X139935000Y-121513421D01*
X139935000Y-121342517D01*
X139722624Y-120829796D01*
X139330204Y-120437376D01*
X139119260Y-120350000D01*
X139330204Y-120262624D01*
X139722624Y-119870204D01*
X139935000Y-119357483D01*
X139935000Y-118802517D01*
X139922489Y-118772313D01*
X139939803Y-118754999D01*
X150624683Y-118754999D01*
X150605000Y-118802517D01*
X150605000Y-119357483D01*
X150817376Y-119870204D01*
X151209796Y-120262624D01*
X151420740Y-120350000D01*
X151209796Y-120437376D01*
X150817376Y-120829796D01*
X150605000Y-121342517D01*
X150605000Y-121897483D01*
X150817376Y-122410204D01*
X151172172Y-122765000D01*
X151113690Y-122765000D01*
X150880301Y-122861673D01*
X150701673Y-123040302D01*
X150605000Y-123273691D01*
X150605000Y-123874250D01*
X150763750Y-124033000D01*
X151873000Y-124033000D01*
X151873000Y-124013000D01*
X152127000Y-124013000D01*
X152127000Y-124033000D01*
X152147000Y-124033000D01*
X152147000Y-124287000D01*
X152127000Y-124287000D01*
X152127000Y-125396250D01*
X152285750Y-125555000D01*
X152886310Y-125555000D01*
X153119699Y-125458327D01*
X153298327Y-125279698D01*
X153395000Y-125046309D01*
X153395000Y-124987828D01*
X153749796Y-125342624D01*
X154262517Y-125555000D01*
X154817483Y-125555000D01*
X155330204Y-125342624D01*
X155722624Y-124950204D01*
X155935000Y-124437483D01*
X155935000Y-123882517D01*
X155722624Y-123369796D01*
X155330204Y-122977376D01*
X155119260Y-122890000D01*
X155330204Y-122802624D01*
X155722624Y-122410204D01*
X155935000Y-121897483D01*
X155935000Y-121342517D01*
X155722624Y-120829796D01*
X155330204Y-120437376D01*
X155119260Y-120350000D01*
X155330204Y-120262624D01*
X155722624Y-119870204D01*
X155935000Y-119357483D01*
X155935000Y-118802517D01*
X155722624Y-118289796D01*
X155330204Y-117897376D01*
X155119260Y-117810000D01*
X155330204Y-117722624D01*
X155722624Y-117330204D01*
X155935000Y-116817483D01*
X155935000Y-116262517D01*
X155722624Y-115749796D01*
X155330204Y-115357376D01*
X155119260Y-115270000D01*
X155330204Y-115182624D01*
X155722624Y-114790204D01*
X155935000Y-114277483D01*
X155935000Y-113722517D01*
X155722624Y-113209796D01*
X155330204Y-112817376D01*
X154817483Y-112605000D01*
X154262517Y-112605000D01*
X153749796Y-112817376D01*
X153357376Y-113209796D01*
X153270000Y-113420740D01*
X153182624Y-113209796D01*
X152790204Y-112817376D01*
X152277483Y-112605000D01*
X151722517Y-112605000D01*
X151209796Y-112817376D01*
X150817376Y-113209796D01*
X150605000Y-113722517D01*
X150605000Y-114277483D01*
X150817376Y-114790204D01*
X151209796Y-115182624D01*
X151420740Y-115270000D01*
X151209796Y-115357376D01*
X150817376Y-115749796D01*
X150605000Y-116262517D01*
X150605000Y-116817483D01*
X150777941Y-117234999D01*
X139762059Y-117234999D01*
X139935000Y-116817483D01*
X139935000Y-116262517D01*
X139722624Y-115749796D01*
X139330204Y-115357376D01*
X139119260Y-115270000D01*
X139330204Y-115182624D01*
X139722624Y-114790204D01*
X139935000Y-114277483D01*
X139935000Y-113722517D01*
X139722624Y-113209796D01*
X139330204Y-112817376D01*
X138817483Y-112605000D01*
X138262517Y-112605000D01*
X138232313Y-112617511D01*
X134130331Y-108515530D01*
X134087929Y-108452071D01*
X133836537Y-108284096D01*
X133614852Y-108240000D01*
X133614847Y-108240000D01*
X133540000Y-108225112D01*
X133465153Y-108240000D01*
X122703711Y-108240000D01*
X122586280Y-108122569D01*
X122205874Y-107965000D01*
X121794126Y-107965000D01*
X121413720Y-108122569D01*
X121122569Y-108413720D01*
X120965000Y-108794126D01*
X120965000Y-109205874D01*
X121122569Y-109586280D01*
X121413720Y-109877431D01*
X121794126Y-110035000D01*
X122205874Y-110035000D01*
X122586280Y-109877431D01*
X122703711Y-109760000D01*
X133225199Y-109760000D01*
X136070198Y-112605000D01*
X135722517Y-112605000D01*
X135209796Y-112817376D01*
X134817376Y-113209796D01*
X134605000Y-113722517D01*
X134605000Y-114277483D01*
X134777941Y-114694999D01*
X125603437Y-114694999D01*
X125528590Y-114680111D01*
X125453743Y-114694999D01*
X125453739Y-114694999D01*
X125232054Y-114739095D01*
X125232052Y-114739096D01*
X125232053Y-114739096D01*
X125044117Y-114864670D01*
X125044115Y-114864672D01*
X124980662Y-114907070D01*
X124938264Y-114970523D01*
X124386506Y-115522282D01*
X124399889Y-115455000D01*
X124385001Y-115380153D01*
X124385001Y-113554047D01*
X124399889Y-113479199D01*
X124385001Y-113404351D01*
X124385001Y-113404347D01*
X124340905Y-113182662D01*
X124172930Y-112931270D01*
X124109474Y-112888870D01*
X117776133Y-106555530D01*
X117733731Y-106492071D01*
X117482339Y-106324096D01*
X117260654Y-106280000D01*
X117260649Y-106280000D01*
X117185802Y-106265112D01*
X117110955Y-106280000D01*
X109692550Y-106280000D01*
X109658922Y-106198815D01*
X109241185Y-105781078D01*
X109214440Y-105770000D01*
X109241185Y-105758922D01*
X109658922Y-105341185D01*
X109885000Y-104795385D01*
X109885000Y-104204615D01*
X109700834Y-103760000D01*
X117925153Y-103760000D01*
X118000000Y-103774888D01*
X118074847Y-103760000D01*
X118074852Y-103760000D01*
X118296537Y-103715904D01*
X118547929Y-103547929D01*
X118590331Y-103484470D01*
X131314803Y-90760000D01*
X141290155Y-90760000D01*
X141365002Y-90774888D01*
X141439849Y-90760000D01*
X141439854Y-90760000D01*
X141661539Y-90715904D01*
X141912931Y-90547929D01*
X141955333Y-90484470D01*
X146059484Y-86380320D01*
X146122940Y-86337920D01*
X146165935Y-86273573D01*
X146290915Y-86086529D01*
X146292213Y-86080000D01*
X146536887Y-86080000D01*
X146648260Y-86639909D01*
X146965423Y-87114577D01*
X147440091Y-87431740D01*
X147858667Y-87515000D01*
X148141333Y-87515000D01*
X148559909Y-87431740D01*
X149034577Y-87114577D01*
X149351740Y-86639909D01*
X149463113Y-86080000D01*
X149351740Y-85520091D01*
X149034577Y-85045423D01*
X148650892Y-84789053D01*
X148855134Y-84692389D01*
X149231041Y-84277423D01*
X149391904Y-83889039D01*
X149269915Y-83667000D01*
X148127000Y-83667000D01*
X148127000Y-83687000D01*
X147873000Y-83687000D01*
X147873000Y-83667000D01*
X146730085Y-83667000D01*
X146608096Y-83889039D01*
X146768959Y-84277423D01*
X147144866Y-84692389D01*
X147349108Y-84789053D01*
X146965423Y-85045423D01*
X146648260Y-85520091D01*
X146536887Y-86080000D01*
X146292213Y-86080000D01*
X146300491Y-86038386D01*
X146335011Y-85864843D01*
X146335011Y-85864839D01*
X146349899Y-85789991D01*
X146335011Y-85715143D01*
X146335011Y-82689790D01*
X146757058Y-82267743D01*
X146952235Y-82398157D01*
X147107361Y-82429013D01*
X146768959Y-82802577D01*
X146608096Y-83190961D01*
X146730085Y-83413000D01*
X147873000Y-83413000D01*
X147873000Y-83393000D01*
X148127000Y-83393000D01*
X148127000Y-83413000D01*
X149269915Y-83413000D01*
X149391904Y-83190961D01*
X149231041Y-82802577D01*
X148892639Y-82429013D01*
X149047765Y-82398157D01*
X149257809Y-82257809D01*
X149398157Y-82047765D01*
X149447440Y-81800000D01*
X149447440Y-81127000D01*
X154182149Y-81127000D01*
X154268260Y-81559909D01*
G36*
X108593748Y-137505858D02*
X108579605Y-137520000D01*
X108593748Y-137534143D01*
X108414143Y-137713748D01*
X108400000Y-137699605D01*
X108385858Y-137713748D01*
X108206253Y-137534143D01*
X108220395Y-137520000D01*
X108206253Y-137505858D01*
X108385858Y-137326253D01*
X108400000Y-137340395D01*
X108414143Y-137326253D01*
X108593748Y-137505858D01*
X108593748Y-137505858D01*
G37*
X108593748Y-137505858D02*
X108579605Y-137520000D01*
X108593748Y-137534143D01*
X108414143Y-137713748D01*
X108400000Y-137699605D01*
X108385858Y-137713748D01*
X108206253Y-137534143D01*
X108220395Y-137520000D01*
X108206253Y-137505858D01*
X108385858Y-137326253D01*
X108400000Y-137340395D01*
X108414143Y-137326253D01*
X108593748Y-137505858D01*
G36*
X130268260Y-81559909D02*
X130585423Y-82034577D01*
X130937758Y-82270000D01*
X130585423Y-82505423D01*
X130268260Y-82980091D01*
X130156887Y-83540000D01*
X130268260Y-84099909D01*
X130585423Y-84574577D01*
X130937758Y-84810000D01*
X130585423Y-85045423D01*
X130268260Y-85520091D01*
X130156887Y-86080000D01*
X130268260Y-86639909D01*
X130585423Y-87114577D01*
X130939222Y-87350978D01*
X118050201Y-100240000D01*
X104784801Y-100240000D01*
X108897801Y-96127000D01*
X122000000Y-96127000D01*
X122048601Y-96117333D01*
X122089803Y-96089803D01*
X122117333Y-96048601D01*
X122127000Y-96000000D01*
X122127000Y-86080000D01*
X122536887Y-86080000D01*
X122648260Y-86639909D01*
X122965423Y-87114577D01*
X123440091Y-87431740D01*
X123858667Y-87515000D01*
X124141333Y-87515000D01*
X124559909Y-87431740D01*
X125034577Y-87114577D01*
X125351740Y-86639909D01*
X125463113Y-86080000D01*
X125351740Y-85520091D01*
X125034577Y-85045423D01*
X124650892Y-84789053D01*
X124855134Y-84692389D01*
X125231041Y-84277423D01*
X125391904Y-83889039D01*
X125269915Y-83667000D01*
X124127000Y-83667000D01*
X124127000Y-83687000D01*
X123873000Y-83687000D01*
X123873000Y-83667000D01*
X122730085Y-83667000D01*
X122608096Y-83889039D01*
X122768959Y-84277423D01*
X123144866Y-84692389D01*
X123349108Y-84789053D01*
X122965423Y-85045423D01*
X122648260Y-85520091D01*
X122536887Y-86080000D01*
X122127000Y-86080000D01*
X122127000Y-82897802D01*
X122757059Y-82267743D01*
X122952235Y-82398157D01*
X123107361Y-82429013D01*
X122768959Y-82802577D01*
X122608096Y-83190961D01*
X122730085Y-83413000D01*
X123873000Y-83413000D01*
X123873000Y-83393000D01*
X124127000Y-83393000D01*
X124127000Y-83413000D01*
X125269915Y-83413000D01*
X125391904Y-83190961D01*
X125231041Y-82802577D01*
X124892639Y-82429013D01*
X125047765Y-82398157D01*
X125257809Y-82257809D01*
X125398157Y-82047765D01*
X125447440Y-81800000D01*
X125447440Y-81127000D01*
X130182149Y-81127000D01*
X130268260Y-81559909D01*
X130268260Y-81559909D01*
G37*
X130268260Y-81559909D02*
X130585423Y-82034577D01*
X130937758Y-82270000D01*
X130585423Y-82505423D01*
X130268260Y-82980091D01*
X130156887Y-83540000D01*
X130268260Y-84099909D01*
X130585423Y-84574577D01*
X130937758Y-84810000D01*
X130585423Y-85045423D01*
X130268260Y-85520091D01*
X130156887Y-86080000D01*
X130268260Y-86639909D01*
X130585423Y-87114577D01*
X130939222Y-87350978D01*
X118050201Y-100240000D01*
X104784801Y-100240000D01*
X108897801Y-96127000D01*
X122000000Y-96127000D01*
X122048601Y-96117333D01*
X122089803Y-96089803D01*
X122117333Y-96048601D01*
X122127000Y-96000000D01*
X122127000Y-86080000D01*
X122536887Y-86080000D01*
X122648260Y-86639909D01*
X122965423Y-87114577D01*
X123440091Y-87431740D01*
X123858667Y-87515000D01*
X124141333Y-87515000D01*
X124559909Y-87431740D01*
X125034577Y-87114577D01*
X125351740Y-86639909D01*
X125463113Y-86080000D01*
X125351740Y-85520091D01*
X125034577Y-85045423D01*
X124650892Y-84789053D01*
X124855134Y-84692389D01*
X125231041Y-84277423D01*
X125391904Y-83889039D01*
X125269915Y-83667000D01*
X124127000Y-83667000D01*
X124127000Y-83687000D01*
X123873000Y-83687000D01*
X123873000Y-83667000D01*
X122730085Y-83667000D01*
X122608096Y-83889039D01*
X122768959Y-84277423D01*
X123144866Y-84692389D01*
X123349108Y-84789053D01*
X122965423Y-85045423D01*
X122648260Y-85520091D01*
X122536887Y-86080000D01*
X122127000Y-86080000D01*
X122127000Y-82897802D01*
X122757059Y-82267743D01*
X122952235Y-82398157D01*
X123107361Y-82429013D01*
X122768959Y-82802577D01*
X122608096Y-83190961D01*
X122730085Y-83413000D01*
X123873000Y-83413000D01*
X123873000Y-83393000D01*
X124127000Y-83393000D01*
X124127000Y-83413000D01*
X125269915Y-83413000D01*
X125391904Y-83190961D01*
X125231041Y-82802577D01*
X124892639Y-82429013D01*
X125047765Y-82398157D01*
X125257809Y-82257809D01*
X125398157Y-82047765D01*
X125447440Y-81800000D01*
X125447440Y-81127000D01*
X130182149Y-81127000D01*
X130268260Y-81559909D01*
G36*
X142268260Y-81559909D02*
X142585423Y-82034577D01*
X142937758Y-82270000D01*
X142585423Y-82505423D01*
X142268260Y-82980091D01*
X142156887Y-83540000D01*
X142268260Y-84099909D01*
X142585423Y-84574577D01*
X142937758Y-84810000D01*
X142585423Y-85045423D01*
X142268260Y-85520091D01*
X142156887Y-86080000D01*
X142268260Y-86639909D01*
X142585423Y-87114577D01*
X142939222Y-87350978D01*
X141050201Y-89240000D01*
X131199804Y-89240000D01*
X134059484Y-86380320D01*
X134122940Y-86337920D01*
X134290915Y-86086528D01*
X134292213Y-86080000D01*
X134536887Y-86080000D01*
X134648260Y-86639909D01*
X134965423Y-87114577D01*
X135440091Y-87431740D01*
X135858667Y-87515000D01*
X136141333Y-87515000D01*
X136559909Y-87431740D01*
X137034577Y-87114577D01*
X137351740Y-86639909D01*
X137463113Y-86080000D01*
X137351740Y-85520091D01*
X137034577Y-85045423D01*
X136650892Y-84789053D01*
X136855134Y-84692389D01*
X137231041Y-84277423D01*
X137391904Y-83889039D01*
X137269915Y-83667000D01*
X136127000Y-83667000D01*
X136127000Y-83687000D01*
X135873000Y-83687000D01*
X135873000Y-83667000D01*
X134730085Y-83667000D01*
X134608096Y-83889039D01*
X134768959Y-84277423D01*
X135144866Y-84692389D01*
X135349108Y-84789053D01*
X134965423Y-85045423D01*
X134648260Y-85520091D01*
X134536887Y-86080000D01*
X134292213Y-86080000D01*
X134335011Y-85864843D01*
X134335011Y-85864839D01*
X134349899Y-85789992D01*
X134335011Y-85715145D01*
X134335011Y-82689790D01*
X134757058Y-82267743D01*
X134952235Y-82398157D01*
X135107361Y-82429013D01*
X134768959Y-82802577D01*
X134608096Y-83190961D01*
X134730085Y-83413000D01*
X135873000Y-83413000D01*
X135873000Y-83393000D01*
X136127000Y-83393000D01*
X136127000Y-83413000D01*
X137269915Y-83413000D01*
X137391904Y-83190961D01*
X137231041Y-82802577D01*
X136892639Y-82429013D01*
X137047765Y-82398157D01*
X137257809Y-82257809D01*
X137398157Y-82047765D01*
X137447440Y-81800000D01*
X137447440Y-81127000D01*
X142182149Y-81127000D01*
X142268260Y-81559909D01*
X142268260Y-81559909D01*
G37*
X142268260Y-81559909D02*
X142585423Y-82034577D01*
X142937758Y-82270000D01*
X142585423Y-82505423D01*
X142268260Y-82980091D01*
X142156887Y-83540000D01*
X142268260Y-84099909D01*
X142585423Y-84574577D01*
X142937758Y-84810000D01*
X142585423Y-85045423D01*
X142268260Y-85520091D01*
X142156887Y-86080000D01*
X142268260Y-86639909D01*
X142585423Y-87114577D01*
X142939222Y-87350978D01*
X141050201Y-89240000D01*
X131199804Y-89240000D01*
X134059484Y-86380320D01*
X134122940Y-86337920D01*
X134290915Y-86086528D01*
X134292213Y-86080000D01*
X134536887Y-86080000D01*
X134648260Y-86639909D01*
X134965423Y-87114577D01*
X135440091Y-87431740D01*
X135858667Y-87515000D01*
X136141333Y-87515000D01*
X136559909Y-87431740D01*
X137034577Y-87114577D01*
X137351740Y-86639909D01*
X137463113Y-86080000D01*
X137351740Y-85520091D01*
X137034577Y-85045423D01*
X136650892Y-84789053D01*
X136855134Y-84692389D01*
X137231041Y-84277423D01*
X137391904Y-83889039D01*
X137269915Y-83667000D01*
X136127000Y-83667000D01*
X136127000Y-83687000D01*
X135873000Y-83687000D01*
X135873000Y-83667000D01*
X134730085Y-83667000D01*
X134608096Y-83889039D01*
X134768959Y-84277423D01*
X135144866Y-84692389D01*
X135349108Y-84789053D01*
X134965423Y-85045423D01*
X134648260Y-85520091D01*
X134536887Y-86080000D01*
X134292213Y-86080000D01*
X134335011Y-85864843D01*
X134335011Y-85864839D01*
X134349899Y-85789992D01*
X134335011Y-85715145D01*
X134335011Y-82689790D01*
X134757058Y-82267743D01*
X134952235Y-82398157D01*
X135107361Y-82429013D01*
X134768959Y-82802577D01*
X134608096Y-83190961D01*
X134730085Y-83413000D01*
X135873000Y-83413000D01*
X135873000Y-83393000D01*
X136127000Y-83393000D01*
X136127000Y-83413000D01*
X137269915Y-83413000D01*
X137391904Y-83190961D01*
X137231041Y-82802577D01*
X136892639Y-82429013D01*
X137047765Y-82398157D01*
X137257809Y-82257809D01*
X137398157Y-82047765D01*
X137447440Y-81800000D01*
X137447440Y-81127000D01*
X142182149Y-81127000D01*
X142268260Y-81559909D01*
G04 #@! TD*
M02*
