G04 #@! TF.GenerationSoftware,KiCad,Pcbnew,5.0.1*
G04 #@! TF.CreationDate,2019-02-04T16:52:00+01:00*
G04 #@! TF.ProjectId,splitflap-berlin,73706C6974666C61702D6265726C696E,rev?*
G04 #@! TF.SameCoordinates,Original*
G04 #@! TF.FileFunction,Legend,Top*
G04 #@! TF.FilePolarity,Positive*
%FSLAX46Y46*%
G04 Gerber Fmt 4.6, Leading zero omitted, Abs format (unit mm)*
G04 Created by KiCad (PCBNEW 5.0.1) date Mo 04 Feb 2019 16:52:00 CET*
%MOMM*%
%LPD*%
G01*
G04 APERTURE LIST*
%ADD10C,0.180000*%
%ADD11C,0.300000*%
%ADD12C,0.220000*%
%ADD13C,0.250000*%
%ADD14C,0.120000*%
%ADD15C,0.150000*%
G04 APERTURE END LIST*
D10*
X85212238Y-142772380D02*
X85545571Y-143772380D01*
X85878904Y-142772380D01*
X86355095Y-143772380D02*
X86259857Y-143724761D01*
X86212238Y-143677142D01*
X86164619Y-143581904D01*
X86164619Y-143296190D01*
X86212238Y-143200952D01*
X86259857Y-143153333D01*
X86355095Y-143105714D01*
X86497952Y-143105714D01*
X86593190Y-143153333D01*
X86640809Y-143200952D01*
X86688428Y-143296190D01*
X86688428Y-143581904D01*
X86640809Y-143677142D01*
X86593190Y-143724761D01*
X86497952Y-143772380D01*
X86355095Y-143772380D01*
X87117000Y-143772380D02*
X87117000Y-143105714D01*
X87117000Y-143296190D02*
X87164619Y-143200952D01*
X87212238Y-143153333D01*
X87307476Y-143105714D01*
X87402714Y-143105714D01*
X88926523Y-143772380D02*
X88926523Y-142772380D01*
X88926523Y-143724761D02*
X88831285Y-143772380D01*
X88640809Y-143772380D01*
X88545571Y-143724761D01*
X88497952Y-143677142D01*
X88450333Y-143581904D01*
X88450333Y-143296190D01*
X88497952Y-143200952D01*
X88545571Y-143153333D01*
X88640809Y-143105714D01*
X88831285Y-143105714D01*
X88926523Y-143153333D01*
X89783666Y-143724761D02*
X89688428Y-143772380D01*
X89497952Y-143772380D01*
X89402714Y-143724761D01*
X89355095Y-143629523D01*
X89355095Y-143248571D01*
X89402714Y-143153333D01*
X89497952Y-143105714D01*
X89688428Y-143105714D01*
X89783666Y-143153333D01*
X89831285Y-143248571D01*
X89831285Y-143343809D01*
X89355095Y-143439047D01*
X90259857Y-143772380D02*
X90259857Y-143105714D01*
X90259857Y-143200952D02*
X90307476Y-143153333D01*
X90402714Y-143105714D01*
X90545571Y-143105714D01*
X90640809Y-143153333D01*
X90688428Y-143248571D01*
X90688428Y-143772380D01*
X90688428Y-143248571D02*
X90736047Y-143153333D01*
X90831285Y-143105714D01*
X90974142Y-143105714D01*
X91069380Y-143153333D01*
X91117000Y-143248571D01*
X91117000Y-143772380D01*
X92307476Y-143486666D02*
X92783666Y-143486666D01*
X92212238Y-143772380D02*
X92545571Y-142772380D01*
X92878904Y-143772380D01*
X93212238Y-143105714D02*
X93212238Y-143772380D01*
X93212238Y-143200952D02*
X93259857Y-143153333D01*
X93355095Y-143105714D01*
X93497952Y-143105714D01*
X93593190Y-143153333D01*
X93640809Y-143248571D01*
X93640809Y-143772380D01*
X94069380Y-143724761D02*
X94164619Y-143772380D01*
X94355095Y-143772380D01*
X94450333Y-143724761D01*
X94497952Y-143629523D01*
X94497952Y-143581904D01*
X94450333Y-143486666D01*
X94355095Y-143439047D01*
X94212238Y-143439047D01*
X94117000Y-143391428D01*
X94069380Y-143296190D01*
X94069380Y-143248571D01*
X94117000Y-143153333D01*
X94212238Y-143105714D01*
X94355095Y-143105714D01*
X94450333Y-143153333D01*
X95355095Y-143724761D02*
X95259857Y-143772380D01*
X95069380Y-143772380D01*
X94974142Y-143724761D01*
X94926523Y-143677142D01*
X94878904Y-143581904D01*
X94878904Y-143296190D01*
X94926523Y-143200952D01*
X94974142Y-143153333D01*
X95069380Y-143105714D01*
X95259857Y-143105714D01*
X95355095Y-143153333D01*
X95783666Y-143772380D02*
X95783666Y-142772380D01*
X96212238Y-143772380D02*
X96212238Y-143248571D01*
X96164619Y-143153333D01*
X96069380Y-143105714D01*
X95926523Y-143105714D01*
X95831285Y-143153333D01*
X95783666Y-143200952D01*
X96831285Y-143772380D02*
X96736047Y-143724761D01*
X96688428Y-143629523D01*
X96688428Y-142772380D01*
X97640809Y-143105714D02*
X97640809Y-143772380D01*
X97212238Y-143105714D02*
X97212238Y-143629523D01*
X97259857Y-143724761D01*
X97355095Y-143772380D01*
X97497952Y-143772380D01*
X97593190Y-143724761D01*
X97640809Y-143677142D01*
X98069380Y-143724761D02*
X98164619Y-143772380D01*
X98355095Y-143772380D01*
X98450333Y-143724761D01*
X98497952Y-143629523D01*
X98497952Y-143581904D01*
X98450333Y-143486666D01*
X98355095Y-143439047D01*
X98212238Y-143439047D01*
X98117000Y-143391428D01*
X98069380Y-143296190D01*
X98069380Y-143248571D01*
X98117000Y-143153333D01*
X98212238Y-143105714D01*
X98355095Y-143105714D01*
X98450333Y-143153333D01*
X98878904Y-143724761D02*
X98974142Y-143772380D01*
X99164619Y-143772380D01*
X99259857Y-143724761D01*
X99307476Y-143629523D01*
X99307476Y-143581904D01*
X99259857Y-143486666D01*
X99164619Y-143439047D01*
X99021761Y-143439047D01*
X98926523Y-143391428D01*
X98878904Y-143296190D01*
X98878904Y-143248571D01*
X98926523Y-143153333D01*
X99021761Y-143105714D01*
X99164619Y-143105714D01*
X99259857Y-143153333D01*
X100497952Y-143105714D02*
X100497952Y-144105714D01*
X100497952Y-143153333D02*
X100593190Y-143105714D01*
X100783666Y-143105714D01*
X100878904Y-143153333D01*
X100926523Y-143200952D01*
X100974142Y-143296190D01*
X100974142Y-143581904D01*
X100926523Y-143677142D01*
X100878904Y-143724761D01*
X100783666Y-143772380D01*
X100593190Y-143772380D01*
X100497952Y-143724761D01*
X101783666Y-143724761D02*
X101688428Y-143772380D01*
X101497952Y-143772380D01*
X101402714Y-143724761D01*
X101355095Y-143629523D01*
X101355095Y-143248571D01*
X101402714Y-143153333D01*
X101497952Y-143105714D01*
X101688428Y-143105714D01*
X101783666Y-143153333D01*
X101831285Y-143248571D01*
X101831285Y-143343809D01*
X101355095Y-143439047D01*
X102259857Y-143772380D02*
X102259857Y-143105714D01*
X102259857Y-143296190D02*
X102307476Y-143200952D01*
X102355095Y-143153333D01*
X102450333Y-143105714D01*
X102545571Y-143105714D01*
X103640809Y-142772380D02*
X103640809Y-143581904D01*
X103688428Y-143677142D01*
X103736047Y-143724761D01*
X103831285Y-143772380D01*
X104021761Y-143772380D01*
X104117000Y-143724761D01*
X104164619Y-143677142D01*
X104212238Y-143581904D01*
X104212238Y-142772380D01*
X104640809Y-143724761D02*
X104783666Y-143772380D01*
X105021761Y-143772380D01*
X105117000Y-143724761D01*
X105164619Y-143677142D01*
X105212238Y-143581904D01*
X105212238Y-143486666D01*
X105164619Y-143391428D01*
X105117000Y-143343809D01*
X105021761Y-143296190D01*
X104831285Y-143248571D01*
X104736047Y-143200952D01*
X104688428Y-143153333D01*
X104640809Y-143058095D01*
X104640809Y-142962857D01*
X104688428Y-142867619D01*
X104736047Y-142820000D01*
X104831285Y-142772380D01*
X105069380Y-142772380D01*
X105212238Y-142820000D01*
X105974142Y-143248571D02*
X106117000Y-143296190D01*
X106164619Y-143343809D01*
X106212238Y-143439047D01*
X106212238Y-143581904D01*
X106164619Y-143677142D01*
X106117000Y-143724761D01*
X106021761Y-143772380D01*
X105640809Y-143772380D01*
X105640809Y-142772380D01*
X105974142Y-142772380D01*
X106069380Y-142820000D01*
X106117000Y-142867619D01*
X106164619Y-142962857D01*
X106164619Y-143058095D01*
X106117000Y-143153333D01*
X106069380Y-143200952D01*
X105974142Y-143248571D01*
X105640809Y-143248571D01*
X85736047Y-145404761D02*
X85640809Y-145452380D01*
X85450333Y-145452380D01*
X85355095Y-145404761D01*
X85307476Y-145309523D01*
X85307476Y-144928571D01*
X85355095Y-144833333D01*
X85450333Y-144785714D01*
X85640809Y-144785714D01*
X85736047Y-144833333D01*
X85783666Y-144928571D01*
X85783666Y-145023809D01*
X85307476Y-145119047D01*
X86117000Y-145452380D02*
X86640809Y-144785714D01*
X86117000Y-144785714D02*
X86640809Y-145452380D01*
X86878904Y-144785714D02*
X87259857Y-144785714D01*
X87021761Y-144452380D02*
X87021761Y-145309523D01*
X87069380Y-145404761D01*
X87164619Y-145452380D01*
X87259857Y-145452380D01*
X87974142Y-145404761D02*
X87878904Y-145452380D01*
X87688428Y-145452380D01*
X87593190Y-145404761D01*
X87545571Y-145309523D01*
X87545571Y-144928571D01*
X87593190Y-144833333D01*
X87688428Y-144785714D01*
X87878904Y-144785714D01*
X87974142Y-144833333D01*
X88021761Y-144928571D01*
X88021761Y-145023809D01*
X87545571Y-145119047D01*
X88450333Y-145452380D02*
X88450333Y-144785714D01*
X88450333Y-144976190D02*
X88497952Y-144880952D01*
X88545571Y-144833333D01*
X88640809Y-144785714D01*
X88736047Y-144785714D01*
X89069380Y-144785714D02*
X89069380Y-145452380D01*
X89069380Y-144880952D02*
X89117000Y-144833333D01*
X89212238Y-144785714D01*
X89355095Y-144785714D01*
X89450333Y-144833333D01*
X89497952Y-144928571D01*
X89497952Y-145452380D01*
X90355095Y-145404761D02*
X90259857Y-145452380D01*
X90069380Y-145452380D01*
X89974142Y-145404761D01*
X89926523Y-145309523D01*
X89926523Y-144928571D01*
X89974142Y-144833333D01*
X90069380Y-144785714D01*
X90259857Y-144785714D01*
X90355095Y-144833333D01*
X90402714Y-144928571D01*
X90402714Y-145023809D01*
X89926523Y-145119047D01*
X91545571Y-145404761D02*
X91688428Y-145452380D01*
X91926523Y-145452380D01*
X92021761Y-145404761D01*
X92069380Y-145357142D01*
X92117000Y-145261904D01*
X92117000Y-145166666D01*
X92069380Y-145071428D01*
X92021761Y-145023809D01*
X91926523Y-144976190D01*
X91736047Y-144928571D01*
X91640809Y-144880952D01*
X91593190Y-144833333D01*
X91545571Y-144738095D01*
X91545571Y-144642857D01*
X91593190Y-144547619D01*
X91640809Y-144500000D01*
X91736047Y-144452380D01*
X91974142Y-144452380D01*
X92117000Y-144500000D01*
X92402714Y-144785714D02*
X92783666Y-144785714D01*
X92545571Y-144452380D02*
X92545571Y-145309523D01*
X92593190Y-145404761D01*
X92688428Y-145452380D01*
X92783666Y-145452380D01*
X93117000Y-145452380D02*
X93117000Y-144785714D01*
X93117000Y-144976190D02*
X93164619Y-144880952D01*
X93212238Y-144833333D01*
X93307476Y-144785714D01*
X93402714Y-144785714D01*
X93878904Y-145452380D02*
X93783666Y-145404761D01*
X93736047Y-145357142D01*
X93688428Y-145261904D01*
X93688428Y-144976190D01*
X93736047Y-144880952D01*
X93783666Y-144833333D01*
X93878904Y-144785714D01*
X94021761Y-144785714D01*
X94117000Y-144833333D01*
X94164619Y-144880952D01*
X94212238Y-144976190D01*
X94212238Y-145261904D01*
X94164619Y-145357142D01*
X94117000Y-145404761D01*
X94021761Y-145452380D01*
X93878904Y-145452380D01*
X94640809Y-145452380D02*
X94640809Y-144785714D01*
X94640809Y-144880952D02*
X94688428Y-144833333D01*
X94783666Y-144785714D01*
X94926523Y-144785714D01*
X95021761Y-144833333D01*
X95069380Y-144928571D01*
X95069380Y-145452380D01*
X95069380Y-144928571D02*
X95117000Y-144833333D01*
X95212238Y-144785714D01*
X95355095Y-144785714D01*
X95450333Y-144833333D01*
X95497952Y-144928571D01*
X95497952Y-145452380D01*
X95878904Y-144785714D02*
X96117000Y-145452380D01*
X96355095Y-144785714D01*
X97117000Y-145404761D02*
X97021761Y-145452380D01*
X96831285Y-145452380D01*
X96736047Y-145404761D01*
X96688428Y-145309523D01*
X96688428Y-144928571D01*
X96736047Y-144833333D01*
X96831285Y-144785714D01*
X97021761Y-144785714D01*
X97117000Y-144833333D01*
X97164619Y-144928571D01*
X97164619Y-145023809D01*
X96688428Y-145119047D01*
X97593190Y-145452380D02*
X97593190Y-144785714D01*
X97593190Y-144976190D02*
X97640809Y-144880952D01*
X97688428Y-144833333D01*
X97783666Y-144785714D01*
X97878904Y-144785714D01*
X98164619Y-145404761D02*
X98259857Y-145452380D01*
X98450333Y-145452380D01*
X98545571Y-145404761D01*
X98593190Y-145309523D01*
X98593190Y-145261904D01*
X98545571Y-145166666D01*
X98450333Y-145119047D01*
X98307476Y-145119047D01*
X98212238Y-145071428D01*
X98164619Y-144976190D01*
X98164619Y-144928571D01*
X98212238Y-144833333D01*
X98307476Y-144785714D01*
X98450333Y-144785714D01*
X98545571Y-144833333D01*
X99164619Y-145452380D02*
X99069380Y-145404761D01*
X99021761Y-145357142D01*
X98974142Y-145261904D01*
X98974142Y-144976190D01*
X99021761Y-144880952D01*
X99069380Y-144833333D01*
X99164619Y-144785714D01*
X99307476Y-144785714D01*
X99402714Y-144833333D01*
X99450333Y-144880952D01*
X99497952Y-144976190D01*
X99497952Y-145261904D01*
X99450333Y-145357142D01*
X99402714Y-145404761D01*
X99307476Y-145452380D01*
X99164619Y-145452380D01*
X99926523Y-145452380D02*
X99926523Y-144785714D01*
X99926523Y-144976190D02*
X99974142Y-144880952D01*
X100021761Y-144833333D01*
X100117000Y-144785714D01*
X100212238Y-144785714D01*
X100974142Y-144785714D02*
X100974142Y-145595238D01*
X100926523Y-145690476D01*
X100878904Y-145738095D01*
X100783666Y-145785714D01*
X100640809Y-145785714D01*
X100545571Y-145738095D01*
X100974142Y-145404761D02*
X100878904Y-145452380D01*
X100688428Y-145452380D01*
X100593190Y-145404761D01*
X100545571Y-145357142D01*
X100497952Y-145261904D01*
X100497952Y-144976190D01*
X100545571Y-144880952D01*
X100593190Y-144833333D01*
X100688428Y-144785714D01*
X100878904Y-144785714D01*
X100974142Y-144833333D01*
X101878904Y-144785714D02*
X101878904Y-145452380D01*
X101450333Y-144785714D02*
X101450333Y-145309523D01*
X101497952Y-145404761D01*
X101593190Y-145452380D01*
X101736047Y-145452380D01*
X101831285Y-145404761D01*
X101878904Y-145357142D01*
X102355095Y-144785714D02*
X102355095Y-145452380D01*
X102355095Y-144880952D02*
X102402714Y-144833333D01*
X102497952Y-144785714D01*
X102640809Y-144785714D01*
X102736047Y-144833333D01*
X102783666Y-144928571D01*
X102783666Y-145452380D01*
X103688428Y-144785714D02*
X103688428Y-145595238D01*
X103640809Y-145690476D01*
X103593190Y-145738095D01*
X103497952Y-145785714D01*
X103355095Y-145785714D01*
X103259857Y-145738095D01*
X103688428Y-145404761D02*
X103593190Y-145452380D01*
X103402714Y-145452380D01*
X103307476Y-145404761D01*
X103259857Y-145357142D01*
X103212238Y-145261904D01*
X103212238Y-144976190D01*
X103259857Y-144880952D01*
X103307476Y-144833333D01*
X103402714Y-144785714D01*
X103593190Y-144785714D01*
X103688428Y-144833333D01*
X85355095Y-147132380D02*
X85355095Y-146465714D01*
X85355095Y-146560952D02*
X85402714Y-146513333D01*
X85497952Y-146465714D01*
X85640809Y-146465714D01*
X85736047Y-146513333D01*
X85783666Y-146608571D01*
X85783666Y-147132380D01*
X85783666Y-146608571D02*
X85831285Y-146513333D01*
X85926523Y-146465714D01*
X86069380Y-146465714D01*
X86164619Y-146513333D01*
X86212238Y-146608571D01*
X86212238Y-147132380D01*
X86688428Y-147132380D02*
X86688428Y-146465714D01*
X86688428Y-146132380D02*
X86640809Y-146180000D01*
X86688428Y-146227619D01*
X86736047Y-146180000D01*
X86688428Y-146132380D01*
X86688428Y-146227619D01*
X87021761Y-146465714D02*
X87402714Y-146465714D01*
X87164619Y-146132380D02*
X87164619Y-146989523D01*
X87212238Y-147084761D01*
X87307476Y-147132380D01*
X87402714Y-147132380D01*
X88783666Y-146132380D02*
X88783666Y-146846666D01*
X88736047Y-146989523D01*
X88640809Y-147084761D01*
X88497952Y-147132380D01*
X88402714Y-147132380D01*
X89259857Y-147132380D02*
X89259857Y-146132380D01*
X89640809Y-146132380D01*
X89736047Y-146180000D01*
X89783666Y-146227619D01*
X89831285Y-146322857D01*
X89831285Y-146465714D01*
X89783666Y-146560952D01*
X89736047Y-146608571D01*
X89640809Y-146656190D01*
X89259857Y-146656190D01*
X90783666Y-147132380D02*
X90212238Y-147132380D01*
X90497952Y-147132380D02*
X90497952Y-146132380D01*
X90402714Y-146275238D01*
X90307476Y-146370476D01*
X90212238Y-146418095D01*
X92402714Y-146465714D02*
X92402714Y-147132380D01*
X91974142Y-146465714D02*
X91974142Y-146989523D01*
X92021761Y-147084761D01*
X92117000Y-147132380D01*
X92259857Y-147132380D01*
X92355095Y-147084761D01*
X92402714Y-147037142D01*
X92878904Y-146465714D02*
X92878904Y-147132380D01*
X92878904Y-146560952D02*
X92926523Y-146513333D01*
X93021761Y-146465714D01*
X93164619Y-146465714D01*
X93259857Y-146513333D01*
X93307476Y-146608571D01*
X93307476Y-147132380D01*
X94212238Y-147132380D02*
X94212238Y-146132380D01*
X94212238Y-147084761D02*
X94117000Y-147132380D01*
X93926523Y-147132380D01*
X93831285Y-147084761D01*
X93783666Y-147037142D01*
X93736047Y-146941904D01*
X93736047Y-146656190D01*
X93783666Y-146560952D01*
X93831285Y-146513333D01*
X93926523Y-146465714D01*
X94117000Y-146465714D01*
X94212238Y-146513333D01*
X95736047Y-146132380D02*
X95736047Y-146846666D01*
X95688428Y-146989523D01*
X95593190Y-147084761D01*
X95450333Y-147132380D01*
X95355095Y-147132380D01*
X96212238Y-147132380D02*
X96212238Y-146132380D01*
X96593190Y-146132380D01*
X96688428Y-146180000D01*
X96736047Y-146227619D01*
X96783666Y-146322857D01*
X96783666Y-146465714D01*
X96736047Y-146560952D01*
X96688428Y-146608571D01*
X96593190Y-146656190D01*
X96212238Y-146656190D01*
X97164619Y-146227619D02*
X97212238Y-146180000D01*
X97307476Y-146132380D01*
X97545571Y-146132380D01*
X97640809Y-146180000D01*
X97688428Y-146227619D01*
X97736047Y-146322857D01*
X97736047Y-146418095D01*
X97688428Y-146560952D01*
X97117000Y-147132380D01*
X97736047Y-147132380D01*
X98783666Y-146465714D02*
X99164619Y-146465714D01*
X98926523Y-146132380D02*
X98926523Y-146989523D01*
X98974142Y-147084761D01*
X99069380Y-147132380D01*
X99164619Y-147132380D01*
X99497952Y-147132380D02*
X99497952Y-146465714D01*
X99497952Y-146656190D02*
X99545571Y-146560952D01*
X99593190Y-146513333D01*
X99688428Y-146465714D01*
X99783666Y-146465714D01*
X100497952Y-147084761D02*
X100402714Y-147132380D01*
X100212238Y-147132380D01*
X100117000Y-147084761D01*
X100069380Y-146989523D01*
X100069380Y-146608571D01*
X100117000Y-146513333D01*
X100212238Y-146465714D01*
X100402714Y-146465714D01*
X100497952Y-146513333D01*
X100545571Y-146608571D01*
X100545571Y-146703809D01*
X100069380Y-146799047D01*
X100974142Y-146465714D02*
X100974142Y-147132380D01*
X100974142Y-146560952D02*
X101021761Y-146513333D01*
X101117000Y-146465714D01*
X101259857Y-146465714D01*
X101355095Y-146513333D01*
X101402714Y-146608571D01*
X101402714Y-147132380D01*
X101878904Y-146465714D02*
X101878904Y-147132380D01*
X101878904Y-146560952D02*
X101926523Y-146513333D01*
X102021761Y-146465714D01*
X102164619Y-146465714D01*
X102259857Y-146513333D01*
X102307476Y-146608571D01*
X102307476Y-147132380D01*
X103164619Y-147084761D02*
X103069380Y-147132380D01*
X102878904Y-147132380D01*
X102783666Y-147084761D01*
X102736047Y-146989523D01*
X102736047Y-146608571D01*
X102783666Y-146513333D01*
X102878904Y-146465714D01*
X103069380Y-146465714D01*
X103164619Y-146513333D01*
X103212238Y-146608571D01*
X103212238Y-146703809D01*
X102736047Y-146799047D01*
X103640809Y-146465714D02*
X103640809Y-147132380D01*
X103640809Y-146560952D02*
X103688428Y-146513333D01*
X103783666Y-146465714D01*
X103926523Y-146465714D01*
X104021761Y-146513333D01*
X104069380Y-146608571D01*
X104069380Y-147132380D01*
X104545571Y-147037142D02*
X104593190Y-147084761D01*
X104545571Y-147132380D01*
X104497952Y-147084761D01*
X104545571Y-147037142D01*
X104545571Y-147132380D01*
D11*
X110000000Y-142178571D02*
X111000000Y-143678571D01*
X111000000Y-142178571D02*
X110000000Y-143678571D01*
X80500000Y-142178571D02*
X81500000Y-143678571D01*
X81500000Y-142178571D02*
X80500000Y-143678571D01*
D10*
X61355095Y-62112380D02*
X61355095Y-61112380D01*
X61926523Y-62112380D01*
X61926523Y-61112380D01*
X62783666Y-62064761D02*
X62688428Y-62112380D01*
X62497952Y-62112380D01*
X62402714Y-62064761D01*
X62355095Y-61969523D01*
X62355095Y-61588571D01*
X62402714Y-61493333D01*
X62497952Y-61445714D01*
X62688428Y-61445714D01*
X62783666Y-61493333D01*
X62831285Y-61588571D01*
X62831285Y-61683809D01*
X62355095Y-61779047D01*
X63117000Y-61445714D02*
X63497952Y-61445714D01*
X63259857Y-61112380D02*
X63259857Y-61969523D01*
X63307476Y-62064761D01*
X63402714Y-62112380D01*
X63497952Y-62112380D01*
X63736047Y-61445714D02*
X64259857Y-61445714D01*
X63736047Y-62112380D01*
X64259857Y-62112380D01*
X65355095Y-61207619D02*
X65402714Y-61160000D01*
X65497952Y-61112380D01*
X65736047Y-61112380D01*
X65831285Y-61160000D01*
X65878904Y-61207619D01*
X65926523Y-61302857D01*
X65926523Y-61398095D01*
X65878904Y-61540952D01*
X65307476Y-62112380D01*
X65926523Y-62112380D01*
X66259857Y-61112380D02*
X66878904Y-61112380D01*
X66545571Y-61493333D01*
X66688428Y-61493333D01*
X66783666Y-61540952D01*
X66831285Y-61588571D01*
X66878904Y-61683809D01*
X66878904Y-61921904D01*
X66831285Y-62017142D01*
X66783666Y-62064761D01*
X66688428Y-62112380D01*
X66402714Y-62112380D01*
X66307476Y-62064761D01*
X66259857Y-62017142D01*
X67497952Y-61112380D02*
X67593190Y-61112380D01*
X67688428Y-61160000D01*
X67736047Y-61207619D01*
X67783666Y-61302857D01*
X67831285Y-61493333D01*
X67831285Y-61731428D01*
X67783666Y-61921904D01*
X67736047Y-62017142D01*
X67688428Y-62064761D01*
X67593190Y-62112380D01*
X67497952Y-62112380D01*
X67402714Y-62064761D01*
X67355095Y-62017142D01*
X67307476Y-61921904D01*
X67259857Y-61731428D01*
X67259857Y-61493333D01*
X67307476Y-61302857D01*
X67355095Y-61207619D01*
X67402714Y-61160000D01*
X67497952Y-61112380D01*
X68878904Y-61112380D02*
X69212238Y-62112380D01*
X69545571Y-61112380D01*
X70593190Y-61826666D02*
X71069380Y-61826666D01*
X70497952Y-62112380D02*
X70831285Y-61112380D01*
X71164619Y-62112380D01*
X72069380Y-62017142D02*
X72021761Y-62064761D01*
X71878904Y-62112380D01*
X71783666Y-62112380D01*
X71640809Y-62064761D01*
X71545571Y-61969523D01*
X71497952Y-61874285D01*
X71450333Y-61683809D01*
X71450333Y-61540952D01*
X71497952Y-61350476D01*
X71545571Y-61255238D01*
X71640809Y-61160000D01*
X71783666Y-61112380D01*
X71878904Y-61112380D01*
X72021761Y-61160000D01*
X72069380Y-61207619D01*
X61831285Y-62792380D02*
X61355095Y-62792380D01*
X61307476Y-63268571D01*
X61355095Y-63220952D01*
X61450333Y-63173333D01*
X61688428Y-63173333D01*
X61783666Y-63220952D01*
X61831285Y-63268571D01*
X61878904Y-63363809D01*
X61878904Y-63601904D01*
X61831285Y-63697142D01*
X61783666Y-63744761D01*
X61688428Y-63792380D01*
X61450333Y-63792380D01*
X61355095Y-63744761D01*
X61307476Y-63697142D01*
X62497952Y-62792380D02*
X62593190Y-62792380D01*
X62688428Y-62840000D01*
X62736047Y-62887619D01*
X62783666Y-62982857D01*
X62831285Y-63173333D01*
X62831285Y-63411428D01*
X62783666Y-63601904D01*
X62736047Y-63697142D01*
X62688428Y-63744761D01*
X62593190Y-63792380D01*
X62497952Y-63792380D01*
X62402714Y-63744761D01*
X62355095Y-63697142D01*
X62307476Y-63601904D01*
X62259857Y-63411428D01*
X62259857Y-63173333D01*
X62307476Y-62982857D01*
X62355095Y-62887619D01*
X62402714Y-62840000D01*
X62497952Y-62792380D01*
X64021761Y-63792380D02*
X64021761Y-62792380D01*
X64021761Y-63268571D02*
X64593190Y-63268571D01*
X64593190Y-63792380D02*
X64593190Y-62792380D01*
X64974142Y-63125714D02*
X65497952Y-63125714D01*
X64974142Y-63792380D01*
X65497952Y-63792380D01*
D12*
X62371571Y-94485714D02*
X62543000Y-94542857D01*
X62828714Y-94542857D01*
X62943000Y-94485714D01*
X63000142Y-94428571D01*
X63057285Y-94314285D01*
X63057285Y-94200000D01*
X63000142Y-94085714D01*
X62943000Y-94028571D01*
X62828714Y-93971428D01*
X62600142Y-93914285D01*
X62485857Y-93857142D01*
X62428714Y-93800000D01*
X62371571Y-93685714D01*
X62371571Y-93571428D01*
X62428714Y-93457142D01*
X62485857Y-93400000D01*
X62600142Y-93342857D01*
X62885857Y-93342857D01*
X63057285Y-93400000D01*
X63571571Y-94542857D02*
X63571571Y-93742857D01*
X63571571Y-93342857D02*
X63514428Y-93400000D01*
X63571571Y-93457142D01*
X63628714Y-93400000D01*
X63571571Y-93342857D01*
X63571571Y-93457142D01*
X64657285Y-94485714D02*
X64543000Y-94542857D01*
X64314428Y-94542857D01*
X64200142Y-94485714D01*
X64143000Y-94428571D01*
X64085857Y-94314285D01*
X64085857Y-93971428D01*
X64143000Y-93857142D01*
X64200142Y-93800000D01*
X64314428Y-93742857D01*
X64543000Y-93742857D01*
X64657285Y-93800000D01*
X65171571Y-94542857D02*
X65171571Y-93342857D01*
X65685857Y-94542857D02*
X65685857Y-93914285D01*
X65628714Y-93800000D01*
X65514428Y-93742857D01*
X65343000Y-93742857D01*
X65228714Y-93800000D01*
X65171571Y-93857142D01*
X66714428Y-94485714D02*
X66600142Y-94542857D01*
X66371571Y-94542857D01*
X66257285Y-94485714D01*
X66200142Y-94371428D01*
X66200142Y-93914285D01*
X66257285Y-93800000D01*
X66371571Y-93742857D01*
X66600142Y-93742857D01*
X66714428Y-93800000D01*
X66771571Y-93914285D01*
X66771571Y-94028571D01*
X66200142Y-94142857D01*
X67285857Y-94542857D02*
X67285857Y-93742857D01*
X67285857Y-93971428D02*
X67343000Y-93857142D01*
X67400142Y-93800000D01*
X67514428Y-93742857D01*
X67628714Y-93742857D01*
X68543000Y-93742857D02*
X68543000Y-94542857D01*
X68028714Y-93742857D02*
X68028714Y-94371428D01*
X68085857Y-94485714D01*
X68200142Y-94542857D01*
X68371571Y-94542857D01*
X68485857Y-94485714D01*
X68543000Y-94428571D01*
X69114428Y-93742857D02*
X69114428Y-94542857D01*
X69114428Y-93857142D02*
X69171571Y-93800000D01*
X69285857Y-93742857D01*
X69457285Y-93742857D01*
X69571571Y-93800000D01*
X69628714Y-93914285D01*
X69628714Y-94542857D01*
X70714428Y-93742857D02*
X70714428Y-94714285D01*
X70657285Y-94828571D01*
X70600142Y-94885714D01*
X70485857Y-94942857D01*
X70314428Y-94942857D01*
X70200142Y-94885714D01*
X70714428Y-94485714D02*
X70600142Y-94542857D01*
X70371571Y-94542857D01*
X70257285Y-94485714D01*
X70200142Y-94428571D01*
X70143000Y-94314285D01*
X70143000Y-93971428D01*
X70200142Y-93857142D01*
X70257285Y-93800000D01*
X70371571Y-93742857D01*
X70600142Y-93742857D01*
X70714428Y-93800000D01*
X72200142Y-94542857D02*
X72200142Y-93742857D01*
X72200142Y-93857142D02*
X72257285Y-93800000D01*
X72371571Y-93742857D01*
X72543000Y-93742857D01*
X72657285Y-93800000D01*
X72714428Y-93914285D01*
X72714428Y-94542857D01*
X72714428Y-93914285D02*
X72771571Y-93800000D01*
X72885857Y-93742857D01*
X73057285Y-93742857D01*
X73171571Y-93800000D01*
X73228714Y-93914285D01*
X73228714Y-94542857D01*
X74314428Y-94542857D02*
X74314428Y-93914285D01*
X74257285Y-93800000D01*
X74143000Y-93742857D01*
X73914428Y-93742857D01*
X73800142Y-93800000D01*
X74314428Y-94485714D02*
X74200142Y-94542857D01*
X73914428Y-94542857D01*
X73800142Y-94485714D01*
X73743000Y-94371428D01*
X73743000Y-94257142D01*
X73800142Y-94142857D01*
X73914428Y-94085714D01*
X74200142Y-94085714D01*
X74314428Y-94028571D01*
X74771571Y-94542857D02*
X75400142Y-93742857D01*
X74771571Y-93742857D02*
X75400142Y-94542857D01*
X75857285Y-94428571D02*
X75914428Y-94485714D01*
X75857285Y-94542857D01*
X75800142Y-94485714D01*
X75857285Y-94428571D01*
X75857285Y-94542857D01*
X77971571Y-94542857D02*
X77285857Y-94542857D01*
X77628714Y-94542857D02*
X77628714Y-93342857D01*
X77514428Y-93514285D01*
X77400142Y-93628571D01*
X77285857Y-93685714D01*
X78428714Y-94200000D02*
X79000142Y-94200000D01*
X78314428Y-94542857D02*
X78714428Y-93342857D01*
X79114428Y-94542857D01*
X128257285Y-53342857D02*
X128943000Y-53342857D01*
X128600142Y-54542857D02*
X128600142Y-53342857D01*
X129343000Y-54542857D02*
X129343000Y-53742857D01*
X129343000Y-53971428D02*
X129400142Y-53857142D01*
X129457285Y-53800000D01*
X129571571Y-53742857D01*
X129685857Y-53742857D01*
X130600142Y-54542857D02*
X130600142Y-53914285D01*
X130543000Y-53800000D01*
X130428714Y-53742857D01*
X130200142Y-53742857D01*
X130085857Y-53800000D01*
X130600142Y-54485714D02*
X130485857Y-54542857D01*
X130200142Y-54542857D01*
X130085857Y-54485714D01*
X130028714Y-54371428D01*
X130028714Y-54257142D01*
X130085857Y-54142857D01*
X130200142Y-54085714D01*
X130485857Y-54085714D01*
X130600142Y-54028571D01*
X131000142Y-53742857D02*
X131457285Y-53742857D01*
X131171571Y-54542857D02*
X131171571Y-53514285D01*
X131228714Y-53400000D01*
X131343000Y-53342857D01*
X131457285Y-53342857D01*
X132028714Y-54542857D02*
X131914428Y-54485714D01*
X131857285Y-54428571D01*
X131800142Y-54314285D01*
X131800142Y-53971428D01*
X131857285Y-53857142D01*
X131914428Y-53800000D01*
X132028714Y-53742857D01*
X132200142Y-53742857D01*
X132314428Y-53800000D01*
X132371571Y-53857142D01*
X132428714Y-53971428D01*
X132428714Y-54314285D01*
X132371571Y-54428571D01*
X132314428Y-54485714D01*
X132200142Y-54542857D01*
X132028714Y-54542857D01*
X133857285Y-54542857D02*
X133857285Y-53742857D01*
X133857285Y-53857142D02*
X133914428Y-53800000D01*
X134028714Y-53742857D01*
X134200142Y-53742857D01*
X134314428Y-53800000D01*
X134371571Y-53914285D01*
X134371571Y-54542857D01*
X134371571Y-53914285D02*
X134428714Y-53800000D01*
X134543000Y-53742857D01*
X134714428Y-53742857D01*
X134828714Y-53800000D01*
X134885857Y-53914285D01*
X134885857Y-54542857D01*
X135457285Y-54542857D02*
X135457285Y-53742857D01*
X135457285Y-53342857D02*
X135400142Y-53400000D01*
X135457285Y-53457142D01*
X135514428Y-53400000D01*
X135457285Y-53342857D01*
X135457285Y-53457142D01*
X136028714Y-53742857D02*
X136028714Y-54542857D01*
X136028714Y-53857142D02*
X136085857Y-53800000D01*
X136200142Y-53742857D01*
X136371571Y-53742857D01*
X136485857Y-53800000D01*
X136543000Y-53914285D01*
X136543000Y-54542857D01*
X137628714Y-54542857D02*
X137628714Y-53342857D01*
X137628714Y-54485714D02*
X137514428Y-54542857D01*
X137285857Y-54542857D01*
X137171571Y-54485714D01*
X137114428Y-54428571D01*
X137057285Y-54314285D01*
X137057285Y-53971428D01*
X137114428Y-53857142D01*
X137171571Y-53800000D01*
X137285857Y-53742857D01*
X137514428Y-53742857D01*
X137628714Y-53800000D01*
X138200142Y-54428571D02*
X138257285Y-54485714D01*
X138200142Y-54542857D01*
X138143000Y-54485714D01*
X138200142Y-54428571D01*
X138200142Y-54542857D01*
X139571571Y-53342857D02*
X140314428Y-53342857D01*
X139914428Y-53800000D01*
X140085857Y-53800000D01*
X140200142Y-53857142D01*
X140257285Y-53914285D01*
X140314428Y-54028571D01*
X140314428Y-54314285D01*
X140257285Y-54428571D01*
X140200142Y-54485714D01*
X140085857Y-54542857D01*
X139743000Y-54542857D01*
X139628714Y-54485714D01*
X139571571Y-54428571D01*
X141057285Y-53342857D02*
X141171571Y-53342857D01*
X141285857Y-53400000D01*
X141343000Y-53457142D01*
X141400142Y-53571428D01*
X141457285Y-53800000D01*
X141457285Y-54085714D01*
X141400142Y-54314285D01*
X141343000Y-54428571D01*
X141285857Y-54485714D01*
X141171571Y-54542857D01*
X141057285Y-54542857D01*
X140943000Y-54485714D01*
X140885857Y-54428571D01*
X140828714Y-54314285D01*
X140771571Y-54085714D01*
X140771571Y-53800000D01*
X140828714Y-53571428D01*
X140885857Y-53457142D01*
X140943000Y-53400000D01*
X141057285Y-53342857D01*
X142714428Y-53342857D02*
X143114428Y-54542857D01*
X143514428Y-53342857D01*
X143857285Y-54200000D02*
X144428714Y-54200000D01*
X143743000Y-54542857D02*
X144143000Y-53342857D01*
X144543000Y-54542857D01*
D10*
X128307476Y-57326666D02*
X128783666Y-57326666D01*
X128212238Y-57612380D02*
X128545571Y-56612380D01*
X128878904Y-57612380D01*
X129640809Y-56945714D02*
X129640809Y-57612380D01*
X129212238Y-56945714D02*
X129212238Y-57469523D01*
X129259857Y-57564761D01*
X129355095Y-57612380D01*
X129497952Y-57612380D01*
X129593190Y-57564761D01*
X129640809Y-57517142D01*
X129974142Y-56945714D02*
X130355095Y-56945714D01*
X130117000Y-57612380D02*
X130117000Y-56755238D01*
X130164619Y-56660000D01*
X130259857Y-56612380D01*
X130355095Y-56612380D01*
X131355095Y-56612380D02*
X131593190Y-57612380D01*
X131783666Y-56898095D01*
X131974142Y-57612380D01*
X132212238Y-56612380D01*
X132593190Y-57612380D02*
X132593190Y-56945714D01*
X132593190Y-56612380D02*
X132545571Y-56660000D01*
X132593190Y-56707619D01*
X132640809Y-56660000D01*
X132593190Y-56612380D01*
X132593190Y-56707619D01*
X133497952Y-57564761D02*
X133402714Y-57612380D01*
X133212238Y-57612380D01*
X133117000Y-57564761D01*
X133069380Y-57517142D01*
X133021761Y-57421904D01*
X133021761Y-57136190D01*
X133069380Y-57040952D01*
X133117000Y-56993333D01*
X133212238Y-56945714D01*
X133402714Y-56945714D01*
X133497952Y-56993333D01*
X133926523Y-57612380D02*
X133926523Y-56612380D01*
X134021761Y-57231428D02*
X134307476Y-57612380D01*
X134307476Y-56945714D02*
X133926523Y-57326666D01*
X134878904Y-57612380D02*
X134783666Y-57564761D01*
X134736047Y-57469523D01*
X134736047Y-56612380D01*
X135688428Y-56945714D02*
X135688428Y-57612380D01*
X135259857Y-56945714D02*
X135259857Y-57469523D01*
X135307476Y-57564761D01*
X135402714Y-57612380D01*
X135545571Y-57612380D01*
X135640809Y-57564761D01*
X135688428Y-57517142D01*
X136164619Y-56945714D02*
X136164619Y-57612380D01*
X136164619Y-57040952D02*
X136212238Y-56993333D01*
X136307476Y-56945714D01*
X136450333Y-56945714D01*
X136545571Y-56993333D01*
X136593190Y-57088571D01*
X136593190Y-57612380D01*
X137497952Y-56945714D02*
X137497952Y-57755238D01*
X137450333Y-57850476D01*
X137402714Y-57898095D01*
X137307476Y-57945714D01*
X137164619Y-57945714D01*
X137069380Y-57898095D01*
X137497952Y-57564761D02*
X137402714Y-57612380D01*
X137212238Y-57612380D01*
X137117000Y-57564761D01*
X137069380Y-57517142D01*
X137021761Y-57421904D01*
X137021761Y-57136190D01*
X137069380Y-57040952D01*
X137117000Y-56993333D01*
X137212238Y-56945714D01*
X137402714Y-56945714D01*
X137497952Y-56993333D01*
X137926523Y-57564761D02*
X138021761Y-57612380D01*
X138212238Y-57612380D01*
X138307476Y-57564761D01*
X138355095Y-57469523D01*
X138355095Y-57421904D01*
X138307476Y-57326666D01*
X138212238Y-57279047D01*
X138069380Y-57279047D01*
X137974142Y-57231428D01*
X137926523Y-57136190D01*
X137926523Y-57088571D01*
X137974142Y-56993333D01*
X138069380Y-56945714D01*
X138212238Y-56945714D01*
X138307476Y-56993333D01*
X138783666Y-57612380D02*
X138783666Y-56945714D01*
X138783666Y-57136190D02*
X138831285Y-57040952D01*
X138878904Y-56993333D01*
X138974142Y-56945714D01*
X139069380Y-56945714D01*
X139402714Y-57612380D02*
X139402714Y-56945714D01*
X139402714Y-56612380D02*
X139355095Y-56660000D01*
X139402714Y-56707619D01*
X139450333Y-56660000D01*
X139402714Y-56612380D01*
X139402714Y-56707619D01*
X140307476Y-57564761D02*
X140212238Y-57612380D01*
X140021761Y-57612380D01*
X139926523Y-57564761D01*
X139878904Y-57517142D01*
X139831285Y-57421904D01*
X139831285Y-57136190D01*
X139878904Y-57040952D01*
X139926523Y-56993333D01*
X140021761Y-56945714D01*
X140212238Y-56945714D01*
X140307476Y-56993333D01*
X140736047Y-57612380D02*
X140736047Y-56612380D01*
X141164619Y-57612380D02*
X141164619Y-57088571D01*
X141117000Y-56993333D01*
X141021761Y-56945714D01*
X140878904Y-56945714D01*
X140783666Y-56993333D01*
X140736047Y-57040952D01*
X141497952Y-56945714D02*
X141878904Y-56945714D01*
X141640809Y-56612380D02*
X141640809Y-57469523D01*
X141688428Y-57564761D01*
X141783666Y-57612380D01*
X141878904Y-57612380D01*
X142640809Y-56945714D02*
X142640809Y-57612380D01*
X142212238Y-56945714D02*
X142212238Y-57469523D01*
X142259857Y-57564761D01*
X142355095Y-57612380D01*
X142497952Y-57612380D01*
X142593190Y-57564761D01*
X142640809Y-57517142D01*
X143117000Y-56945714D02*
X143117000Y-57612380D01*
X143117000Y-57040952D02*
X143164619Y-56993333D01*
X143259857Y-56945714D01*
X143402714Y-56945714D01*
X143497952Y-56993333D01*
X143545571Y-57088571D01*
X143545571Y-57612380D01*
X144450333Y-56945714D02*
X144450333Y-57755238D01*
X144402714Y-57850476D01*
X144355095Y-57898095D01*
X144259857Y-57945714D01*
X144117000Y-57945714D01*
X144021761Y-57898095D01*
X144450333Y-57564761D02*
X144355095Y-57612380D01*
X144164619Y-57612380D01*
X144069380Y-57564761D01*
X144021761Y-57517142D01*
X143974142Y-57421904D01*
X143974142Y-57136190D01*
X144021761Y-57040952D01*
X144069380Y-56993333D01*
X144164619Y-56945714D01*
X144355095Y-56945714D01*
X144450333Y-56993333D01*
X128783666Y-59292380D02*
X128783666Y-58292380D01*
X128783666Y-59244761D02*
X128688428Y-59292380D01*
X128497952Y-59292380D01*
X128402714Y-59244761D01*
X128355095Y-59197142D01*
X128307476Y-59101904D01*
X128307476Y-58816190D01*
X128355095Y-58720952D01*
X128402714Y-58673333D01*
X128497952Y-58625714D01*
X128688428Y-58625714D01*
X128783666Y-58673333D01*
X129640809Y-59244761D02*
X129545571Y-59292380D01*
X129355095Y-59292380D01*
X129259857Y-59244761D01*
X129212238Y-59149523D01*
X129212238Y-58768571D01*
X129259857Y-58673333D01*
X129355095Y-58625714D01*
X129545571Y-58625714D01*
X129640809Y-58673333D01*
X129688428Y-58768571D01*
X129688428Y-58863809D01*
X129212238Y-58959047D01*
X130117000Y-59292380D02*
X130117000Y-58625714D01*
X130117000Y-58816190D02*
X130164619Y-58720952D01*
X130212238Y-58673333D01*
X130307476Y-58625714D01*
X130402714Y-58625714D01*
X131450333Y-59244761D02*
X131593190Y-59292380D01*
X131831285Y-59292380D01*
X131926523Y-59244761D01*
X131974142Y-59197142D01*
X132021761Y-59101904D01*
X132021761Y-59006666D01*
X131974142Y-58911428D01*
X131926523Y-58863809D01*
X131831285Y-58816190D01*
X131640809Y-58768571D01*
X131545571Y-58720952D01*
X131497952Y-58673333D01*
X131450333Y-58578095D01*
X131450333Y-58482857D01*
X131497952Y-58387619D01*
X131545571Y-58340000D01*
X131640809Y-58292380D01*
X131878904Y-58292380D01*
X132021761Y-58340000D01*
X132831285Y-59244761D02*
X132736047Y-59292380D01*
X132545571Y-59292380D01*
X132450333Y-59244761D01*
X132402714Y-59149523D01*
X132402714Y-58768571D01*
X132450333Y-58673333D01*
X132545571Y-58625714D01*
X132736047Y-58625714D01*
X132831285Y-58673333D01*
X132878904Y-58768571D01*
X132878904Y-58863809D01*
X132402714Y-58959047D01*
X133307476Y-59292380D02*
X133307476Y-58292380D01*
X133402714Y-58911428D02*
X133688428Y-59292380D01*
X133688428Y-58625714D02*
X133307476Y-59006666D01*
X134545571Y-58625714D02*
X134545571Y-59292380D01*
X134117000Y-58625714D02*
X134117000Y-59149523D01*
X134164619Y-59244761D01*
X134259857Y-59292380D01*
X134402714Y-59292380D01*
X134497952Y-59244761D01*
X134545571Y-59197142D01*
X135021761Y-58625714D02*
X135021761Y-59292380D01*
X135021761Y-58720952D02*
X135069380Y-58673333D01*
X135164619Y-58625714D01*
X135307476Y-58625714D01*
X135402714Y-58673333D01*
X135450333Y-58768571D01*
X135450333Y-59292380D01*
X136355095Y-59292380D02*
X136355095Y-58292380D01*
X136355095Y-59244761D02*
X136259857Y-59292380D01*
X136069380Y-59292380D01*
X135974142Y-59244761D01*
X135926523Y-59197142D01*
X135878904Y-59101904D01*
X135878904Y-58816190D01*
X135926523Y-58720952D01*
X135974142Y-58673333D01*
X136069380Y-58625714D01*
X136259857Y-58625714D01*
X136355095Y-58673333D01*
X137259857Y-59292380D02*
X137259857Y-58768571D01*
X137212238Y-58673333D01*
X137117000Y-58625714D01*
X136926523Y-58625714D01*
X136831285Y-58673333D01*
X137259857Y-59244761D02*
X137164619Y-59292380D01*
X136926523Y-59292380D01*
X136831285Y-59244761D01*
X136783666Y-59149523D01*
X136783666Y-59054285D01*
X136831285Y-58959047D01*
X136926523Y-58911428D01*
X137164619Y-58911428D01*
X137259857Y-58863809D01*
X136831285Y-58292380D02*
X136878904Y-58340000D01*
X136831285Y-58387619D01*
X136783666Y-58340000D01*
X136831285Y-58292380D01*
X136831285Y-58387619D01*
X137212238Y-58292380D02*
X137259857Y-58340000D01*
X137212238Y-58387619D01*
X137164619Y-58340000D01*
X137212238Y-58292380D01*
X137212238Y-58387619D01*
X137736047Y-59292380D02*
X137736047Y-58625714D01*
X137736047Y-58816190D02*
X137783666Y-58720952D01*
X137831285Y-58673333D01*
X137926523Y-58625714D01*
X138021761Y-58625714D01*
X138307476Y-59244761D02*
X138402714Y-59292380D01*
X138593190Y-59292380D01*
X138688428Y-59244761D01*
X138736047Y-59149523D01*
X138736047Y-59101904D01*
X138688428Y-59006666D01*
X138593190Y-58959047D01*
X138450333Y-58959047D01*
X138355095Y-58911428D01*
X138307476Y-58816190D01*
X138307476Y-58768571D01*
X138355095Y-58673333D01*
X138450333Y-58625714D01*
X138593190Y-58625714D01*
X138688428Y-58673333D01*
X139164619Y-58625714D02*
X139164619Y-59625714D01*
X139164619Y-58673333D02*
X139259857Y-58625714D01*
X139450333Y-58625714D01*
X139545571Y-58673333D01*
X139593190Y-58720952D01*
X139640809Y-58816190D01*
X139640809Y-59101904D01*
X139593190Y-59197142D01*
X139545571Y-59244761D01*
X139450333Y-59292380D01*
X139259857Y-59292380D01*
X139164619Y-59244761D01*
X140497952Y-58625714D02*
X140497952Y-59292380D01*
X140069380Y-58625714D02*
X140069380Y-59149523D01*
X140117000Y-59244761D01*
X140212238Y-59292380D01*
X140355095Y-59292380D01*
X140450333Y-59244761D01*
X140497952Y-59197142D01*
X141117000Y-59292380D02*
X141021761Y-59244761D01*
X140974142Y-59149523D01*
X140974142Y-58292380D01*
X141878904Y-59244761D02*
X141783666Y-59292380D01*
X141593190Y-59292380D01*
X141497952Y-59244761D01*
X141450333Y-59149523D01*
X141450333Y-58768571D01*
X141497952Y-58673333D01*
X141593190Y-58625714D01*
X141783666Y-58625714D01*
X141878904Y-58673333D01*
X141926523Y-58768571D01*
X141926523Y-58863809D01*
X141450333Y-58959047D01*
X142355095Y-58625714D02*
X142355095Y-59292380D01*
X142355095Y-58720952D02*
X142402714Y-58673333D01*
X142497952Y-58625714D01*
X142640809Y-58625714D01*
X142736047Y-58673333D01*
X142783666Y-58768571D01*
X142783666Y-59292380D01*
X144450333Y-59292380D02*
X144450333Y-58768571D01*
X144402714Y-58673333D01*
X144307476Y-58625714D01*
X144117000Y-58625714D01*
X144021761Y-58673333D01*
X144450333Y-59244761D02*
X144355095Y-59292380D01*
X144117000Y-59292380D01*
X144021761Y-59244761D01*
X143974142Y-59149523D01*
X143974142Y-59054285D01*
X144021761Y-58959047D01*
X144117000Y-58911428D01*
X144355095Y-58911428D01*
X144450333Y-58863809D01*
X145355095Y-59244761D02*
X145259857Y-59292380D01*
X145069380Y-59292380D01*
X144974142Y-59244761D01*
X144926523Y-59197142D01*
X144878904Y-59101904D01*
X144878904Y-58816190D01*
X144926523Y-58720952D01*
X144974142Y-58673333D01*
X145069380Y-58625714D01*
X145259857Y-58625714D01*
X145355095Y-58673333D01*
X145783666Y-59292380D02*
X145783666Y-58292380D01*
X146212238Y-59292380D02*
X146212238Y-58768571D01*
X146164619Y-58673333D01*
X146069380Y-58625714D01*
X145926523Y-58625714D01*
X145831285Y-58673333D01*
X145783666Y-58720952D01*
X146545571Y-58625714D02*
X146926523Y-58625714D01*
X146688428Y-58292380D02*
X146688428Y-59149523D01*
X146736047Y-59244761D01*
X146831285Y-59292380D01*
X146926523Y-59292380D01*
X147640809Y-59244761D02*
X147545571Y-59292380D01*
X147355095Y-59292380D01*
X147259857Y-59244761D01*
X147212238Y-59149523D01*
X147212238Y-58768571D01*
X147259857Y-58673333D01*
X147355095Y-58625714D01*
X147545571Y-58625714D01*
X147640809Y-58673333D01*
X147688428Y-58768571D01*
X147688428Y-58863809D01*
X147212238Y-58959047D01*
X148117000Y-58625714D02*
X148117000Y-59292380D01*
X148117000Y-58720952D02*
X148164619Y-58673333D01*
X148259857Y-58625714D01*
X148402714Y-58625714D01*
X148497952Y-58673333D01*
X148545571Y-58768571D01*
X148545571Y-59292380D01*
X149021761Y-59197142D02*
X149069380Y-59244761D01*
X149021761Y-59292380D01*
X148974142Y-59244761D01*
X149021761Y-59197142D01*
X149021761Y-59292380D01*
X149021761Y-58911428D02*
X148974142Y-58340000D01*
X149021761Y-58292380D01*
X149069380Y-58340000D01*
X149021761Y-58911428D01*
X149021761Y-58292380D01*
X131259857Y-95772380D02*
X131878904Y-95772380D01*
X131545571Y-96153333D01*
X131688428Y-96153333D01*
X131783666Y-96200952D01*
X131831285Y-96248571D01*
X131878904Y-96343809D01*
X131878904Y-96581904D01*
X131831285Y-96677142D01*
X131783666Y-96724761D01*
X131688428Y-96772380D01*
X131402714Y-96772380D01*
X131307476Y-96724761D01*
X131259857Y-96677142D01*
X132307476Y-96391428D02*
X133069380Y-96391428D01*
X133878904Y-96248571D02*
X133545571Y-96248571D01*
X133545571Y-96772380D02*
X133545571Y-95772380D01*
X134021761Y-95772380D01*
X134831285Y-96772380D02*
X134831285Y-96248571D01*
X134783666Y-96153333D01*
X134688428Y-96105714D01*
X134497952Y-96105714D01*
X134402714Y-96153333D01*
X134831285Y-96724761D02*
X134736047Y-96772380D01*
X134497952Y-96772380D01*
X134402714Y-96724761D01*
X134355095Y-96629523D01*
X134355095Y-96534285D01*
X134402714Y-96439047D01*
X134497952Y-96391428D01*
X134736047Y-96391428D01*
X134831285Y-96343809D01*
X135736047Y-96724761D02*
X135640809Y-96772380D01*
X135450333Y-96772380D01*
X135355095Y-96724761D01*
X135307476Y-96677142D01*
X135259857Y-96581904D01*
X135259857Y-96296190D01*
X135307476Y-96200952D01*
X135355095Y-96153333D01*
X135450333Y-96105714D01*
X135640809Y-96105714D01*
X135736047Y-96153333D01*
X136164619Y-96772380D02*
X136164619Y-95772380D01*
X136593190Y-96772380D02*
X136593190Y-96248571D01*
X136545571Y-96153333D01*
X136450333Y-96105714D01*
X136307476Y-96105714D01*
X136212238Y-96153333D01*
X136164619Y-96200952D01*
X137069380Y-96391428D02*
X137831285Y-96391428D01*
X138259857Y-96486666D02*
X138736047Y-96486666D01*
X138164619Y-96772380D02*
X138497952Y-95772380D01*
X138831285Y-96772380D01*
X139164619Y-96105714D02*
X139164619Y-96772380D01*
X139164619Y-96200952D02*
X139212238Y-96153333D01*
X139307476Y-96105714D01*
X139450333Y-96105714D01*
X139545571Y-96153333D01*
X139593190Y-96248571D01*
X139593190Y-96772380D01*
X140021761Y-96724761D02*
X140117000Y-96772380D01*
X140307476Y-96772380D01*
X140402714Y-96724761D01*
X140450333Y-96629523D01*
X140450333Y-96581904D01*
X140402714Y-96486666D01*
X140307476Y-96439047D01*
X140164619Y-96439047D01*
X140069380Y-96391428D01*
X140021761Y-96296190D01*
X140021761Y-96248571D01*
X140069380Y-96153333D01*
X140164619Y-96105714D01*
X140307476Y-96105714D01*
X140402714Y-96153333D01*
X140736047Y-96105714D02*
X141117000Y-96105714D01*
X140878904Y-95772380D02*
X140878904Y-96629523D01*
X140926523Y-96724761D01*
X141021761Y-96772380D01*
X141117000Y-96772380D01*
X141831285Y-96724761D02*
X141736047Y-96772380D01*
X141545571Y-96772380D01*
X141450333Y-96724761D01*
X141402714Y-96629523D01*
X141402714Y-96248571D01*
X141450333Y-96153333D01*
X141545571Y-96105714D01*
X141736047Y-96105714D01*
X141831285Y-96153333D01*
X141878904Y-96248571D01*
X141878904Y-96343809D01*
X141402714Y-96439047D01*
X142736047Y-96105714D02*
X142736047Y-96772380D01*
X142307476Y-96105714D02*
X142307476Y-96629523D01*
X142355095Y-96724761D01*
X142450333Y-96772380D01*
X142593190Y-96772380D01*
X142688428Y-96724761D01*
X142736047Y-96677142D01*
X143593190Y-96724761D02*
X143497952Y-96772380D01*
X143307476Y-96772380D01*
X143212238Y-96724761D01*
X143164619Y-96629523D01*
X143164619Y-96248571D01*
X143212238Y-96153333D01*
X143307476Y-96105714D01*
X143497952Y-96105714D01*
X143593190Y-96153333D01*
X143640809Y-96248571D01*
X143640809Y-96343809D01*
X143164619Y-96439047D01*
X144069380Y-96772380D02*
X144069380Y-96105714D01*
X144069380Y-96296190D02*
X144117000Y-96200952D01*
X144164619Y-96153333D01*
X144259857Y-96105714D01*
X144355095Y-96105714D01*
X145117000Y-96105714D02*
X145117000Y-96772380D01*
X144688428Y-96105714D02*
X144688428Y-96629523D01*
X144736047Y-96724761D01*
X144831285Y-96772380D01*
X144974142Y-96772380D01*
X145069380Y-96724761D01*
X145117000Y-96677142D01*
X145593190Y-96105714D02*
X145593190Y-96772380D01*
X145593190Y-96200952D02*
X145640809Y-96153333D01*
X145736047Y-96105714D01*
X145878904Y-96105714D01*
X145974142Y-96153333D01*
X146021761Y-96248571D01*
X146021761Y-96772380D01*
X146926523Y-96105714D02*
X146926523Y-96915238D01*
X146878904Y-97010476D01*
X146831285Y-97058095D01*
X146736047Y-97105714D01*
X146593190Y-97105714D01*
X146497952Y-97058095D01*
X146926523Y-96724761D02*
X146831285Y-96772380D01*
X146640809Y-96772380D01*
X146545571Y-96724761D01*
X146497952Y-96677142D01*
X146450333Y-96581904D01*
X146450333Y-96296190D01*
X146497952Y-96200952D01*
X146545571Y-96153333D01*
X146640809Y-96105714D01*
X146831285Y-96105714D01*
X146926523Y-96153333D01*
X147355095Y-96724761D02*
X147450333Y-96772380D01*
X147640809Y-96772380D01*
X147736047Y-96724761D01*
X147783666Y-96629523D01*
X147783666Y-96581904D01*
X147736047Y-96486666D01*
X147640809Y-96439047D01*
X147497952Y-96439047D01*
X147402714Y-96391428D01*
X147355095Y-96296190D01*
X147355095Y-96248571D01*
X147402714Y-96153333D01*
X147497952Y-96105714D01*
X147640809Y-96105714D01*
X147736047Y-96153333D01*
X148593190Y-96724761D02*
X148497952Y-96772380D01*
X148307476Y-96772380D01*
X148212238Y-96724761D01*
X148164619Y-96629523D01*
X148164619Y-96248571D01*
X148212238Y-96153333D01*
X148307476Y-96105714D01*
X148497952Y-96105714D01*
X148593190Y-96153333D01*
X148640809Y-96248571D01*
X148640809Y-96343809D01*
X148164619Y-96439047D01*
X149069380Y-96772380D02*
X149069380Y-96105714D01*
X149069380Y-95772380D02*
X149021761Y-95820000D01*
X149069380Y-95867619D01*
X149117000Y-95820000D01*
X149069380Y-95772380D01*
X149069380Y-95867619D01*
X149545571Y-96105714D02*
X149545571Y-96772380D01*
X149545571Y-96200952D02*
X149593190Y-96153333D01*
X149688428Y-96105714D01*
X149831285Y-96105714D01*
X149926523Y-96153333D01*
X149974142Y-96248571D01*
X149974142Y-96772380D01*
X150450333Y-96772380D02*
X150450333Y-95772380D01*
X150878904Y-96772380D02*
X150878904Y-96248571D01*
X150831285Y-96153333D01*
X150736047Y-96105714D01*
X150593190Y-96105714D01*
X150497952Y-96153333D01*
X150450333Y-96200952D01*
X151736047Y-96724761D02*
X151640809Y-96772380D01*
X151450333Y-96772380D01*
X151355095Y-96724761D01*
X151307476Y-96629523D01*
X151307476Y-96248571D01*
X151355095Y-96153333D01*
X151450333Y-96105714D01*
X151640809Y-96105714D01*
X151736047Y-96153333D01*
X151783666Y-96248571D01*
X151783666Y-96343809D01*
X151307476Y-96439047D01*
X152212238Y-96772380D02*
X152212238Y-96105714D01*
X152212238Y-95772380D02*
X152164619Y-95820000D01*
X152212238Y-95867619D01*
X152259857Y-95820000D01*
X152212238Y-95772380D01*
X152212238Y-95867619D01*
X152545571Y-96105714D02*
X152926523Y-96105714D01*
X152688428Y-95772380D02*
X152688428Y-96629523D01*
X152736047Y-96724761D01*
X152831285Y-96772380D01*
X152926523Y-96772380D01*
X131259857Y-97452380D02*
X131926523Y-97452380D01*
X131259857Y-98452380D01*
X131926523Y-98452380D01*
X132736047Y-97785714D02*
X132736047Y-98452380D01*
X132307476Y-97785714D02*
X132307476Y-98309523D01*
X132355095Y-98404761D01*
X132450333Y-98452380D01*
X132593190Y-98452380D01*
X132688428Y-98404761D01*
X132736047Y-98357142D01*
X133640809Y-97785714D02*
X133640809Y-98595238D01*
X133593190Y-98690476D01*
X133545571Y-98738095D01*
X133450333Y-98785714D01*
X133307476Y-98785714D01*
X133212238Y-98738095D01*
X133640809Y-98404761D02*
X133545571Y-98452380D01*
X133355095Y-98452380D01*
X133259857Y-98404761D01*
X133212238Y-98357142D01*
X133164619Y-98261904D01*
X133164619Y-97976190D01*
X133212238Y-97880952D01*
X133259857Y-97833333D01*
X133355095Y-97785714D01*
X133545571Y-97785714D01*
X133640809Y-97833333D01*
X134021761Y-97785714D02*
X134545571Y-97785714D01*
X134021761Y-98452380D01*
X134545571Y-98452380D01*
X134926523Y-98452380D02*
X134926523Y-97785714D01*
X134926523Y-97452380D02*
X134878904Y-97500000D01*
X134926523Y-97547619D01*
X134974142Y-97500000D01*
X134926523Y-97452380D01*
X134926523Y-97547619D01*
X135783666Y-98404761D02*
X135688428Y-98452380D01*
X135497952Y-98452380D01*
X135402714Y-98404761D01*
X135355095Y-98309523D01*
X135355095Y-97928571D01*
X135402714Y-97833333D01*
X135497952Y-97785714D01*
X135688428Y-97785714D01*
X135783666Y-97833333D01*
X135831285Y-97928571D01*
X135831285Y-98023809D01*
X135355095Y-98119047D01*
X136402714Y-98452380D02*
X136307476Y-98404761D01*
X136259857Y-98309523D01*
X136259857Y-97452380D01*
X137212238Y-98452380D02*
X137212238Y-97928571D01*
X137164619Y-97833333D01*
X137069380Y-97785714D01*
X136878904Y-97785714D01*
X136783666Y-97833333D01*
X137212238Y-98404761D02*
X137117000Y-98452380D01*
X136878904Y-98452380D01*
X136783666Y-98404761D01*
X136736047Y-98309523D01*
X136736047Y-98214285D01*
X136783666Y-98119047D01*
X136878904Y-98071428D01*
X137117000Y-98071428D01*
X137212238Y-98023809D01*
X137688428Y-97785714D02*
X137688428Y-98452380D01*
X137688428Y-97880952D02*
X137736047Y-97833333D01*
X137831285Y-97785714D01*
X137974142Y-97785714D01*
X138069380Y-97833333D01*
X138117000Y-97928571D01*
X138117000Y-98452380D01*
X138497952Y-97785714D02*
X139021761Y-97785714D01*
X138497952Y-98452380D01*
X139021761Y-98452380D01*
X139783666Y-98404761D02*
X139688428Y-98452380D01*
X139497952Y-98452380D01*
X139402714Y-98404761D01*
X139355095Y-98309523D01*
X139355095Y-97928571D01*
X139402714Y-97833333D01*
X139497952Y-97785714D01*
X139688428Y-97785714D01*
X139783666Y-97833333D01*
X139831285Y-97928571D01*
X139831285Y-98023809D01*
X139355095Y-98119047D01*
X140259857Y-98452380D02*
X140259857Y-97785714D01*
X140259857Y-97452380D02*
X140212238Y-97500000D01*
X140259857Y-97547619D01*
X140307476Y-97500000D01*
X140259857Y-97452380D01*
X140259857Y-97547619D01*
X141164619Y-97785714D02*
X141164619Y-98595238D01*
X141117000Y-98690476D01*
X141069380Y-98738095D01*
X140974142Y-98785714D01*
X140831285Y-98785714D01*
X140736047Y-98738095D01*
X141164619Y-98404761D02*
X141069380Y-98452380D01*
X140878904Y-98452380D01*
X140783666Y-98404761D01*
X140736047Y-98357142D01*
X140688428Y-98261904D01*
X140688428Y-97976190D01*
X140736047Y-97880952D01*
X140783666Y-97833333D01*
X140878904Y-97785714D01*
X141069380Y-97785714D01*
X141164619Y-97833333D01*
X142021761Y-98404761D02*
X141926523Y-98452380D01*
X141736047Y-98452380D01*
X141640809Y-98404761D01*
X141593190Y-98309523D01*
X141593190Y-97928571D01*
X141640809Y-97833333D01*
X141736047Y-97785714D01*
X141926523Y-97785714D01*
X142021761Y-97833333D01*
X142069380Y-97928571D01*
X142069380Y-98023809D01*
X141593190Y-98119047D01*
X142497952Y-98452380D02*
X142497952Y-97785714D01*
X142497952Y-97976190D02*
X142545571Y-97880952D01*
X142593190Y-97833333D01*
X142688428Y-97785714D01*
X142783666Y-97785714D01*
X131640809Y-100513333D02*
X131593190Y-100465714D01*
X131497952Y-100322857D01*
X131450333Y-100227619D01*
X131402714Y-100084761D01*
X131355095Y-99846666D01*
X131355095Y-99656190D01*
X131402714Y-99418095D01*
X131450333Y-99275238D01*
X131497952Y-99180000D01*
X131593190Y-99037142D01*
X131640809Y-98989523D01*
X132497952Y-100132380D02*
X132021761Y-100132380D01*
X132021761Y-99132380D01*
X132831285Y-100132380D02*
X132831285Y-99465714D01*
X132831285Y-99132380D02*
X132783666Y-99180000D01*
X132831285Y-99227619D01*
X132878904Y-99180000D01*
X132831285Y-99132380D01*
X132831285Y-99227619D01*
X133307476Y-99465714D02*
X133307476Y-100132380D01*
X133307476Y-99560952D02*
X133355095Y-99513333D01*
X133450333Y-99465714D01*
X133593190Y-99465714D01*
X133688428Y-99513333D01*
X133736047Y-99608571D01*
X133736047Y-100132380D01*
X134212238Y-100132380D02*
X134212238Y-99465714D01*
X134212238Y-99132380D02*
X134164619Y-99180000D01*
X134212238Y-99227619D01*
X134259857Y-99180000D01*
X134212238Y-99132380D01*
X134212238Y-99227619D01*
X135069380Y-100084761D02*
X134974142Y-100132380D01*
X134783666Y-100132380D01*
X134688428Y-100084761D01*
X134640809Y-99989523D01*
X134640809Y-99608571D01*
X134688428Y-99513333D01*
X134783666Y-99465714D01*
X134974142Y-99465714D01*
X135069380Y-99513333D01*
X135117000Y-99608571D01*
X135117000Y-99703809D01*
X134640809Y-99799047D01*
X137021761Y-99084761D02*
X136164619Y-100370476D01*
X138021761Y-99132380D02*
X138688428Y-99132380D01*
X138021761Y-100132380D01*
X138688428Y-100132380D01*
X139069380Y-100132380D02*
X139069380Y-99465714D01*
X139069380Y-99132380D02*
X139021761Y-99180000D01*
X139069380Y-99227619D01*
X139117000Y-99180000D01*
X139069380Y-99132380D01*
X139069380Y-99227619D01*
X139926523Y-100084761D02*
X139831285Y-100132380D01*
X139640809Y-100132380D01*
X139545571Y-100084761D01*
X139497952Y-99989523D01*
X139497952Y-99608571D01*
X139545571Y-99513333D01*
X139640809Y-99465714D01*
X139831285Y-99465714D01*
X139926523Y-99513333D01*
X139974142Y-99608571D01*
X139974142Y-99703809D01*
X139497952Y-99799047D01*
X140545571Y-100132380D02*
X140450333Y-100084761D01*
X140402714Y-99989523D01*
X140402714Y-99132380D01*
X140926523Y-100132380D02*
X140926523Y-99132380D01*
X140926523Y-99513333D02*
X141021761Y-99465714D01*
X141212238Y-99465714D01*
X141307476Y-99513333D01*
X141355095Y-99560952D01*
X141402714Y-99656190D01*
X141402714Y-99941904D01*
X141355095Y-100037142D01*
X141307476Y-100084761D01*
X141212238Y-100132380D01*
X141021761Y-100132380D01*
X140926523Y-100084761D01*
X142259857Y-100132380D02*
X142259857Y-99608571D01*
X142212238Y-99513333D01*
X142117000Y-99465714D01*
X141926523Y-99465714D01*
X141831285Y-99513333D01*
X142259857Y-100084761D02*
X142164619Y-100132380D01*
X141926523Y-100132380D01*
X141831285Y-100084761D01*
X141783666Y-99989523D01*
X141783666Y-99894285D01*
X141831285Y-99799047D01*
X141926523Y-99751428D01*
X142164619Y-99751428D01*
X142259857Y-99703809D01*
X142736047Y-100132380D02*
X142736047Y-99132380D01*
X143164619Y-100132380D02*
X143164619Y-99608571D01*
X143117000Y-99513333D01*
X143021761Y-99465714D01*
X142878904Y-99465714D01*
X142783666Y-99513333D01*
X142736047Y-99560952D01*
X143640809Y-99465714D02*
X143640809Y-100132380D01*
X143640809Y-99560952D02*
X143688428Y-99513333D01*
X143783666Y-99465714D01*
X143926523Y-99465714D01*
X144021761Y-99513333D01*
X144069380Y-99608571D01*
X144069380Y-100132380D01*
X144545571Y-100132380D02*
X144545571Y-99132380D01*
X144974142Y-100132380D02*
X144974142Y-99608571D01*
X144926523Y-99513333D01*
X144831285Y-99465714D01*
X144688428Y-99465714D01*
X144593190Y-99513333D01*
X144545571Y-99560952D01*
X145593190Y-100132380D02*
X145497952Y-100084761D01*
X145450333Y-100037142D01*
X145402714Y-99941904D01*
X145402714Y-99656190D01*
X145450333Y-99560952D01*
X145497952Y-99513333D01*
X145593190Y-99465714D01*
X145736047Y-99465714D01*
X145831285Y-99513333D01*
X145878904Y-99560952D01*
X145926523Y-99656190D01*
X145926523Y-99941904D01*
X145878904Y-100037142D01*
X145831285Y-100084761D01*
X145736047Y-100132380D01*
X145593190Y-100132380D01*
X146212238Y-99465714D02*
X146593190Y-99465714D01*
X146355095Y-100132380D02*
X146355095Y-99275238D01*
X146402714Y-99180000D01*
X146497952Y-99132380D01*
X146593190Y-99132380D01*
X148402714Y-99084761D02*
X147545571Y-100370476D01*
X149402714Y-99132380D02*
X150069380Y-99132380D01*
X149402714Y-100132380D01*
X150069380Y-100132380D01*
X150878904Y-99465714D02*
X150878904Y-100132380D01*
X150450333Y-99465714D02*
X150450333Y-99989523D01*
X150497952Y-100084761D01*
X150593190Y-100132380D01*
X150736047Y-100132380D01*
X150831285Y-100084761D01*
X150878904Y-100037142D01*
X151783666Y-99465714D02*
X151783666Y-100275238D01*
X151736047Y-100370476D01*
X151688428Y-100418095D01*
X151593190Y-100465714D01*
X151450333Y-100465714D01*
X151355095Y-100418095D01*
X151783666Y-100084761D02*
X151688428Y-100132380D01*
X151497952Y-100132380D01*
X151402714Y-100084761D01*
X151355095Y-100037142D01*
X151307476Y-99941904D01*
X151307476Y-99656190D01*
X151355095Y-99560952D01*
X151402714Y-99513333D01*
X151497952Y-99465714D01*
X151688428Y-99465714D01*
X151783666Y-99513333D01*
X152402714Y-100132380D02*
X152307476Y-100084761D01*
X152259857Y-99989523D01*
X152259857Y-99132380D01*
X153212238Y-100132380D02*
X153212238Y-99608571D01*
X153164619Y-99513333D01*
X153069380Y-99465714D01*
X152878904Y-99465714D01*
X152783666Y-99513333D01*
X153212238Y-100084761D02*
X153117000Y-100132380D01*
X152878904Y-100132380D01*
X152783666Y-100084761D01*
X152736047Y-99989523D01*
X152736047Y-99894285D01*
X152783666Y-99799047D01*
X152878904Y-99751428D01*
X153117000Y-99751428D01*
X153212238Y-99703809D01*
X154117000Y-99465714D02*
X154117000Y-100132380D01*
X153688428Y-99465714D02*
X153688428Y-99989523D01*
X153736047Y-100084761D01*
X153831285Y-100132380D01*
X153974142Y-100132380D01*
X154069380Y-100084761D01*
X154117000Y-100037142D01*
X154450333Y-99465714D02*
X154831285Y-99465714D01*
X154593190Y-100132380D02*
X154593190Y-99275238D01*
X154640809Y-99180000D01*
X154736047Y-99132380D01*
X154831285Y-99132380D01*
X155069380Y-100513333D02*
X155117000Y-100465714D01*
X155212238Y-100322857D01*
X155259857Y-100227619D01*
X155307476Y-100084761D01*
X155355095Y-99846666D01*
X155355095Y-99656190D01*
X155307476Y-99418095D01*
X155259857Y-99275238D01*
X155212238Y-99180000D01*
X155117000Y-99037142D01*
X155069380Y-98989523D01*
D13*
X132019642Y-92892857D02*
X131519642Y-92892857D01*
X131519642Y-93678571D02*
X131519642Y-92178571D01*
X132233928Y-92178571D01*
X133448214Y-93678571D02*
X133448214Y-92892857D01*
X133376785Y-92750000D01*
X133233928Y-92678571D01*
X132948214Y-92678571D01*
X132805357Y-92750000D01*
X133448214Y-93607142D02*
X133305357Y-93678571D01*
X132948214Y-93678571D01*
X132805357Y-93607142D01*
X132733928Y-93464285D01*
X132733928Y-93321428D01*
X132805357Y-93178571D01*
X132948214Y-93107142D01*
X133305357Y-93107142D01*
X133448214Y-93035714D01*
X134376785Y-93678571D02*
X134233928Y-93607142D01*
X134162500Y-93464285D01*
X134162500Y-92178571D01*
X135162500Y-93678571D02*
X135019642Y-93607142D01*
X134948214Y-93464285D01*
X134948214Y-92178571D01*
X135733928Y-93678571D02*
X135733928Y-92178571D01*
X135733928Y-92750000D02*
X135876785Y-92678571D01*
X136162500Y-92678571D01*
X136305357Y-92750000D01*
X136376785Y-92821428D01*
X136448214Y-92964285D01*
X136448214Y-93392857D01*
X136376785Y-93535714D01*
X136305357Y-93607142D01*
X136162500Y-93678571D01*
X135876785Y-93678571D01*
X135733928Y-93607142D01*
X137305357Y-93678571D02*
X137162500Y-93607142D01*
X137091071Y-93464285D01*
X137091071Y-92178571D01*
X138519642Y-93678571D02*
X138519642Y-92892857D01*
X138448214Y-92750000D01*
X138305357Y-92678571D01*
X138019642Y-92678571D01*
X137876785Y-92750000D01*
X138519642Y-93607142D02*
X138376785Y-93678571D01*
X138019642Y-93678571D01*
X137876785Y-93607142D01*
X137805357Y-93464285D01*
X137805357Y-93321428D01*
X137876785Y-93178571D01*
X138019642Y-93107142D01*
X138376785Y-93107142D01*
X138519642Y-93035714D01*
X139019642Y-92678571D02*
X139591071Y-92678571D01*
X139233928Y-92178571D02*
X139233928Y-93464285D01*
X139305357Y-93607142D01*
X139448214Y-93678571D01*
X139591071Y-93678571D01*
X139876785Y-92678571D02*
X140448214Y-92678571D01*
X140091071Y-92178571D02*
X140091071Y-93464285D01*
X140162500Y-93607142D01*
X140305357Y-93678571D01*
X140448214Y-93678571D01*
X142591071Y-92892857D02*
X142805357Y-92964285D01*
X142876785Y-93035714D01*
X142948214Y-93178571D01*
X142948214Y-93392857D01*
X142876785Y-93535714D01*
X142805357Y-93607142D01*
X142662500Y-93678571D01*
X142091071Y-93678571D01*
X142091071Y-92178571D01*
X142591071Y-92178571D01*
X142733928Y-92250000D01*
X142805357Y-92321428D01*
X142876785Y-92464285D01*
X142876785Y-92607142D01*
X142805357Y-92750000D01*
X142733928Y-92821428D01*
X142591071Y-92892857D01*
X142091071Y-92892857D01*
X144162500Y-93607142D02*
X144019642Y-93678571D01*
X143733928Y-93678571D01*
X143591071Y-93607142D01*
X143519642Y-93464285D01*
X143519642Y-92892857D01*
X143591071Y-92750000D01*
X143733928Y-92678571D01*
X144019642Y-92678571D01*
X144162500Y-92750000D01*
X144233928Y-92892857D01*
X144233928Y-93035714D01*
X143519642Y-93178571D01*
X144876785Y-93678571D02*
X144876785Y-92678571D01*
X144876785Y-92964285D02*
X144948214Y-92821428D01*
X145019642Y-92750000D01*
X145162500Y-92678571D01*
X145305357Y-92678571D01*
X146019642Y-93678571D02*
X145876785Y-93607142D01*
X145805357Y-93464285D01*
X145805357Y-92178571D01*
X146591071Y-93678571D02*
X146591071Y-92678571D01*
X146591071Y-92178571D02*
X146519642Y-92250000D01*
X146591071Y-92321428D01*
X146662500Y-92250000D01*
X146591071Y-92178571D01*
X146591071Y-92321428D01*
X147305357Y-92678571D02*
X147305357Y-93678571D01*
X147305357Y-92821428D02*
X147376785Y-92750000D01*
X147519642Y-92678571D01*
X147733928Y-92678571D01*
X147876785Y-92750000D01*
X147948214Y-92892857D01*
X147948214Y-93678571D01*
X149662500Y-92678571D02*
X150019642Y-93678571D01*
X150376785Y-92678571D01*
X151733928Y-93678571D02*
X150876785Y-93678571D01*
X151305357Y-93678571D02*
X151305357Y-92178571D01*
X151162500Y-92392857D01*
X151019642Y-92535714D01*
X150876785Y-92607142D01*
X152376785Y-93535714D02*
X152448214Y-93607142D01*
X152376785Y-93678571D01*
X152305357Y-93607142D01*
X152376785Y-93535714D01*
X152376785Y-93678571D01*
X153376785Y-92178571D02*
X153519642Y-92178571D01*
X153662500Y-92250000D01*
X153733928Y-92321428D01*
X153805357Y-92464285D01*
X153876785Y-92750000D01*
X153876785Y-93107142D01*
X153805357Y-93392857D01*
X153733928Y-93535714D01*
X153662500Y-93607142D01*
X153519642Y-93678571D01*
X153376785Y-93678571D01*
X153233928Y-93607142D01*
X153162500Y-93535714D01*
X153091071Y-93392857D01*
X153019642Y-93107142D01*
X153019642Y-92750000D01*
X153091071Y-92464285D01*
X153162500Y-92321428D01*
X153233928Y-92250000D01*
X153376785Y-92178571D01*
D14*
G04 #@! TO.C,D1*
X73310000Y-103190000D02*
X72710000Y-102590000D01*
X72410000Y-102290000D02*
X71810000Y-101690000D01*
X71810000Y-101690000D02*
X63610000Y-101690000D01*
X63610000Y-101690000D02*
X63610000Y-111390000D01*
X63610000Y-111390000D02*
X73310000Y-111390000D01*
X73310000Y-111390000D02*
X73310000Y-103190000D01*
G04 #@! TO.C,C1*
X73479646Y-122375000D02*
X73479646Y-121375000D01*
X73979646Y-121875000D02*
X72979646Y-121875000D01*
X63419000Y-119599000D02*
X63419000Y-118401000D01*
X63459000Y-119862000D02*
X63459000Y-118138000D01*
X63499000Y-120062000D02*
X63499000Y-117938000D01*
X63539000Y-120230000D02*
X63539000Y-117770000D01*
X63579000Y-120378000D02*
X63579000Y-117622000D01*
X63619000Y-120510000D02*
X63619000Y-117490000D01*
X63659000Y-120630000D02*
X63659000Y-117370000D01*
X63699000Y-120742000D02*
X63699000Y-117258000D01*
X63739000Y-120846000D02*
X63739000Y-117154000D01*
X63779000Y-120944000D02*
X63779000Y-117056000D01*
X63819000Y-121037000D02*
X63819000Y-116963000D01*
X63859000Y-121125000D02*
X63859000Y-116875000D01*
X63899000Y-121209000D02*
X63899000Y-116791000D01*
X63939000Y-121289000D02*
X63939000Y-116711000D01*
X63979000Y-121365000D02*
X63979000Y-116635000D01*
X64019000Y-121439000D02*
X64019000Y-116561000D01*
X64059000Y-121510000D02*
X64059000Y-116490000D01*
X64099000Y-121579000D02*
X64099000Y-116421000D01*
X64139000Y-121645000D02*
X64139000Y-116355000D01*
X64179000Y-121709000D02*
X64179000Y-116291000D01*
X64219000Y-121770000D02*
X64219000Y-116230000D01*
X64259000Y-121830000D02*
X64259000Y-116170000D01*
X64299000Y-121889000D02*
X64299000Y-116111000D01*
X64339000Y-121945000D02*
X64339000Y-116055000D01*
X64379000Y-122000000D02*
X64379000Y-116000000D01*
X64419000Y-122054000D02*
X64419000Y-115946000D01*
X64459000Y-122106000D02*
X64459000Y-115894000D01*
X64499000Y-122156000D02*
X64499000Y-115844000D01*
X64539000Y-122206000D02*
X64539000Y-115794000D01*
X64579000Y-122254000D02*
X64579000Y-115746000D01*
X64619000Y-122301000D02*
X64619000Y-115699000D01*
X64659000Y-122347000D02*
X64659000Y-115653000D01*
X64699000Y-122392000D02*
X64699000Y-115608000D01*
X64739000Y-122436000D02*
X64739000Y-115564000D01*
X64779000Y-117759000D02*
X64779000Y-115522000D01*
X64779000Y-122478000D02*
X64779000Y-120241000D01*
X64819000Y-117759000D02*
X64819000Y-115480000D01*
X64819000Y-122520000D02*
X64819000Y-120241000D01*
X64859000Y-117759000D02*
X64859000Y-115439000D01*
X64859000Y-122561000D02*
X64859000Y-120241000D01*
X64899000Y-117759000D02*
X64899000Y-115399000D01*
X64899000Y-122601000D02*
X64899000Y-120241000D01*
X64939000Y-117759000D02*
X64939000Y-115360000D01*
X64939000Y-122640000D02*
X64939000Y-120241000D01*
X64979000Y-117759000D02*
X64979000Y-115321000D01*
X64979000Y-122679000D02*
X64979000Y-120241000D01*
X65019000Y-117759000D02*
X65019000Y-115284000D01*
X65019000Y-122716000D02*
X65019000Y-120241000D01*
X65059000Y-117759000D02*
X65059000Y-115247000D01*
X65059000Y-122753000D02*
X65059000Y-120241000D01*
X65099000Y-117759000D02*
X65099000Y-115211000D01*
X65099000Y-122789000D02*
X65099000Y-120241000D01*
X65139000Y-117759000D02*
X65139000Y-115176000D01*
X65139000Y-122824000D02*
X65139000Y-120241000D01*
X65179000Y-117759000D02*
X65179000Y-115142000D01*
X65179000Y-122858000D02*
X65179000Y-120241000D01*
X65219000Y-117759000D02*
X65219000Y-115108000D01*
X65219000Y-122892000D02*
X65219000Y-120241000D01*
X65259000Y-117759000D02*
X65259000Y-115075000D01*
X65259000Y-122925000D02*
X65259000Y-120241000D01*
X65299000Y-117759000D02*
X65299000Y-115043000D01*
X65299000Y-122957000D02*
X65299000Y-120241000D01*
X65339000Y-117759000D02*
X65339000Y-115011000D01*
X65339000Y-122989000D02*
X65339000Y-120241000D01*
X65379000Y-117759000D02*
X65379000Y-114980000D01*
X65379000Y-123020000D02*
X65379000Y-120241000D01*
X65419000Y-117759000D02*
X65419000Y-114950000D01*
X65419000Y-123050000D02*
X65419000Y-120241000D01*
X65459000Y-117759000D02*
X65459000Y-114920000D01*
X65459000Y-123080000D02*
X65459000Y-120241000D01*
X65499000Y-117759000D02*
X65499000Y-114890000D01*
X65499000Y-123110000D02*
X65499000Y-120241000D01*
X65539000Y-117759000D02*
X65539000Y-114862000D01*
X65539000Y-123138000D02*
X65539000Y-120241000D01*
X65579000Y-117759000D02*
X65579000Y-114834000D01*
X65579000Y-123166000D02*
X65579000Y-120241000D01*
X65619000Y-117759000D02*
X65619000Y-114806000D01*
X65619000Y-123194000D02*
X65619000Y-120241000D01*
X65659000Y-117759000D02*
X65659000Y-114779000D01*
X65659000Y-123221000D02*
X65659000Y-120241000D01*
X65699000Y-117759000D02*
X65699000Y-114753000D01*
X65699000Y-123247000D02*
X65699000Y-120241000D01*
X65739000Y-117759000D02*
X65739000Y-114727000D01*
X65739000Y-123273000D02*
X65739000Y-120241000D01*
X65779000Y-117759000D02*
X65779000Y-114702000D01*
X65779000Y-123298000D02*
X65779000Y-120241000D01*
X65819000Y-117759000D02*
X65819000Y-114677000D01*
X65819000Y-123323000D02*
X65819000Y-120241000D01*
X65859000Y-117759000D02*
X65859000Y-114653000D01*
X65859000Y-123347000D02*
X65859000Y-120241000D01*
X65899000Y-117759000D02*
X65899000Y-114629000D01*
X65899000Y-123371000D02*
X65899000Y-120241000D01*
X65939000Y-117759000D02*
X65939000Y-114605000D01*
X65939000Y-123395000D02*
X65939000Y-120241000D01*
X65979000Y-117759000D02*
X65979000Y-114583000D01*
X65979000Y-123417000D02*
X65979000Y-120241000D01*
X66019000Y-117759000D02*
X66019000Y-114560000D01*
X66019000Y-123440000D02*
X66019000Y-120241000D01*
X66059000Y-117759000D02*
X66059000Y-114538000D01*
X66059000Y-123462000D02*
X66059000Y-120241000D01*
X66099000Y-117759000D02*
X66099000Y-114517000D01*
X66099000Y-123483000D02*
X66099000Y-120241000D01*
X66139000Y-117759000D02*
X66139000Y-114496000D01*
X66139000Y-123504000D02*
X66139000Y-120241000D01*
X66179000Y-117759000D02*
X66179000Y-114475000D01*
X66179000Y-123525000D02*
X66179000Y-120241000D01*
X66219000Y-117759000D02*
X66219000Y-114455000D01*
X66219000Y-123545000D02*
X66219000Y-120241000D01*
X66259000Y-117759000D02*
X66259000Y-114436000D01*
X66259000Y-123564000D02*
X66259000Y-120241000D01*
X66299000Y-117759000D02*
X66299000Y-114416000D01*
X66299000Y-123584000D02*
X66299000Y-120241000D01*
X66339000Y-117759000D02*
X66339000Y-114397000D01*
X66339000Y-123603000D02*
X66339000Y-120241000D01*
X66379000Y-117759000D02*
X66379000Y-114379000D01*
X66379000Y-123621000D02*
X66379000Y-120241000D01*
X66419000Y-117759000D02*
X66419000Y-114361000D01*
X66419000Y-123639000D02*
X66419000Y-120241000D01*
X66459000Y-117759000D02*
X66459000Y-114343000D01*
X66459000Y-123657000D02*
X66459000Y-120241000D01*
X66499000Y-117759000D02*
X66499000Y-114326000D01*
X66499000Y-123674000D02*
X66499000Y-120241000D01*
X66539000Y-117759000D02*
X66539000Y-114310000D01*
X66539000Y-123690000D02*
X66539000Y-120241000D01*
X66579000Y-117759000D02*
X66579000Y-114293000D01*
X66579000Y-123707000D02*
X66579000Y-120241000D01*
X66619000Y-117759000D02*
X66619000Y-114277000D01*
X66619000Y-123723000D02*
X66619000Y-120241000D01*
X66659000Y-117759000D02*
X66659000Y-114262000D01*
X66659000Y-123738000D02*
X66659000Y-120241000D01*
X66699000Y-117759000D02*
X66699000Y-114246000D01*
X66699000Y-123754000D02*
X66699000Y-120241000D01*
X66739000Y-117759000D02*
X66739000Y-114232000D01*
X66739000Y-123768000D02*
X66739000Y-120241000D01*
X66779000Y-117759000D02*
X66779000Y-114217000D01*
X66779000Y-123783000D02*
X66779000Y-120241000D01*
X66819000Y-117759000D02*
X66819000Y-114203000D01*
X66819000Y-123797000D02*
X66819000Y-120241000D01*
X66859000Y-117759000D02*
X66859000Y-114189000D01*
X66859000Y-123811000D02*
X66859000Y-120241000D01*
X66899000Y-117759000D02*
X66899000Y-114176000D01*
X66899000Y-123824000D02*
X66899000Y-120241000D01*
X66939000Y-117759000D02*
X66939000Y-114163000D01*
X66939000Y-123837000D02*
X66939000Y-120241000D01*
X66979000Y-117759000D02*
X66979000Y-114150000D01*
X66979000Y-123850000D02*
X66979000Y-120241000D01*
X67019000Y-117759000D02*
X67019000Y-114138000D01*
X67019000Y-123862000D02*
X67019000Y-120241000D01*
X67059000Y-117759000D02*
X67059000Y-114126000D01*
X67059000Y-123874000D02*
X67059000Y-120241000D01*
X67099000Y-117759000D02*
X67099000Y-114115000D01*
X67099000Y-123885000D02*
X67099000Y-120241000D01*
X67139000Y-117759000D02*
X67139000Y-114103000D01*
X67139000Y-123897000D02*
X67139000Y-120241000D01*
X67179000Y-117759000D02*
X67179000Y-114093000D01*
X67179000Y-123907000D02*
X67179000Y-120241000D01*
X67219000Y-117759000D02*
X67219000Y-114082000D01*
X67219000Y-123918000D02*
X67219000Y-120241000D01*
X67259000Y-123928000D02*
X67259000Y-114072000D01*
X67299000Y-123938000D02*
X67299000Y-114062000D01*
X67339000Y-123947000D02*
X67339000Y-114053000D01*
X67379000Y-123956000D02*
X67379000Y-114044000D01*
X67419000Y-123965000D02*
X67419000Y-114035000D01*
X67459000Y-123974000D02*
X67459000Y-114026000D01*
X67499000Y-123982000D02*
X67499000Y-114018000D01*
X67539000Y-123990000D02*
X67539000Y-114010000D01*
X67579000Y-123997000D02*
X67579000Y-114003000D01*
X67619000Y-124004000D02*
X67619000Y-113996000D01*
X67659000Y-124011000D02*
X67659000Y-113989000D01*
X67699000Y-124018000D02*
X67699000Y-113982000D01*
X67739000Y-124024000D02*
X67739000Y-113976000D01*
X67779000Y-124030000D02*
X67779000Y-113970000D01*
X67820000Y-124035000D02*
X67820000Y-113965000D01*
X67860000Y-124040000D02*
X67860000Y-113960000D01*
X67900000Y-124045000D02*
X67900000Y-113955000D01*
X67940000Y-124050000D02*
X67940000Y-113950000D01*
X67980000Y-124054000D02*
X67980000Y-113946000D01*
X68020000Y-124058000D02*
X68020000Y-113942000D01*
X68060000Y-124062000D02*
X68060000Y-113938000D01*
X68100000Y-124065000D02*
X68100000Y-113935000D01*
X68140000Y-124068000D02*
X68140000Y-113932000D01*
X68180000Y-124070000D02*
X68180000Y-113930000D01*
X68220000Y-124073000D02*
X68220000Y-113927000D01*
X68260000Y-124075000D02*
X68260000Y-113925000D01*
X68300000Y-124077000D02*
X68300000Y-113923000D01*
X68340000Y-124078000D02*
X68340000Y-113922000D01*
X68380000Y-124079000D02*
X68380000Y-113921000D01*
X68420000Y-124080000D02*
X68420000Y-113920000D01*
X68460000Y-124080000D02*
X68460000Y-113920000D01*
X68500000Y-124080000D02*
X68500000Y-113920000D01*
X73620000Y-119000000D02*
G75*
G03X73620000Y-119000000I-5120000J0D01*
G01*
G04 #@! TO.C,C2*
X68379000Y-127080000D02*
X67121000Y-127080000D01*
X68379000Y-128920000D02*
X67121000Y-128920000D01*
G04 #@! TO.C,C3*
X77395000Y-140930199D02*
X76995000Y-140930199D01*
X77195000Y-140730199D02*
X77195000Y-141130199D01*
X76370000Y-145081000D02*
X75630000Y-145081000D01*
X76537000Y-145041000D02*
X75463000Y-145041000D01*
X76664000Y-145001000D02*
X75336000Y-145001000D01*
X76768000Y-144961000D02*
X75232000Y-144961000D01*
X76859000Y-144921000D02*
X75141000Y-144921000D01*
X76940000Y-144881000D02*
X75060000Y-144881000D01*
X77013000Y-144841000D02*
X74987000Y-144841000D01*
X75160000Y-144801000D02*
X74920000Y-144801000D01*
X77080000Y-144801000D02*
X76840000Y-144801000D01*
X75160000Y-144761000D02*
X74858000Y-144761000D01*
X77142000Y-144761000D02*
X76840000Y-144761000D01*
X75160000Y-144721000D02*
X74800000Y-144721000D01*
X77200000Y-144721000D02*
X76840000Y-144721000D01*
X75160000Y-144681000D02*
X74746000Y-144681000D01*
X77254000Y-144681000D02*
X76840000Y-144681000D01*
X75160000Y-144641000D02*
X74696000Y-144641000D01*
X77304000Y-144641000D02*
X76840000Y-144641000D01*
X75160000Y-144601000D02*
X74649000Y-144601000D01*
X77351000Y-144601000D02*
X76840000Y-144601000D01*
X75160000Y-144561000D02*
X74604000Y-144561000D01*
X77396000Y-144561000D02*
X76840000Y-144561000D01*
X75160000Y-144521000D02*
X74562000Y-144521000D01*
X77438000Y-144521000D02*
X76840000Y-144521000D01*
X75160000Y-144481000D02*
X74522000Y-144481000D01*
X77478000Y-144481000D02*
X76840000Y-144481000D01*
X75160000Y-144441000D02*
X74484000Y-144441000D01*
X77516000Y-144441000D02*
X76840000Y-144441000D01*
X75160000Y-144401000D02*
X74448000Y-144401000D01*
X77552000Y-144401000D02*
X76840000Y-144401000D01*
X75160000Y-144361000D02*
X74413000Y-144361000D01*
X77587000Y-144361000D02*
X76840000Y-144361000D01*
X75160000Y-144321000D02*
X74381000Y-144321000D01*
X77619000Y-144321000D02*
X76840000Y-144321000D01*
X75160000Y-144281000D02*
X74350000Y-144281000D01*
X77650000Y-144281000D02*
X76840000Y-144281000D01*
X75160000Y-144241000D02*
X74320000Y-144241000D01*
X77680000Y-144241000D02*
X76840000Y-144241000D01*
X75160000Y-144201000D02*
X74292000Y-144201000D01*
X77708000Y-144201000D02*
X76840000Y-144201000D01*
X75160000Y-144161000D02*
X74265000Y-144161000D01*
X77735000Y-144161000D02*
X76840000Y-144161000D01*
X75160000Y-144121000D02*
X74240000Y-144121000D01*
X77760000Y-144121000D02*
X76840000Y-144121000D01*
X75160000Y-144081000D02*
X74215000Y-144081000D01*
X77785000Y-144081000D02*
X76840000Y-144081000D01*
X75160000Y-144041000D02*
X74192000Y-144041000D01*
X77808000Y-144041000D02*
X76840000Y-144041000D01*
X75160000Y-144001000D02*
X74170000Y-144001000D01*
X77830000Y-144001000D02*
X76840000Y-144001000D01*
X75160000Y-143961000D02*
X74149000Y-143961000D01*
X77851000Y-143961000D02*
X76840000Y-143961000D01*
X75160000Y-143921000D02*
X74130000Y-143921000D01*
X77870000Y-143921000D02*
X76840000Y-143921000D01*
X75160000Y-143881000D02*
X74111000Y-143881000D01*
X77889000Y-143881000D02*
X76840000Y-143881000D01*
X75160000Y-143841000D02*
X74093000Y-143841000D01*
X77907000Y-143841000D02*
X76840000Y-143841000D01*
X75160000Y-143801000D02*
X74076000Y-143801000D01*
X77924000Y-143801000D02*
X76840000Y-143801000D01*
X75160000Y-143761000D02*
X74060000Y-143761000D01*
X77940000Y-143761000D02*
X76840000Y-143761000D01*
X75160000Y-143721000D02*
X74046000Y-143721000D01*
X77954000Y-143721000D02*
X76840000Y-143721000D01*
X75160000Y-143680000D02*
X74032000Y-143680000D01*
X77968000Y-143680000D02*
X76840000Y-143680000D01*
X75160000Y-143640000D02*
X74018000Y-143640000D01*
X77982000Y-143640000D02*
X76840000Y-143640000D01*
X75160000Y-143600000D02*
X74006000Y-143600000D01*
X77994000Y-143600000D02*
X76840000Y-143600000D01*
X75160000Y-143560000D02*
X73995000Y-143560000D01*
X78005000Y-143560000D02*
X76840000Y-143560000D01*
X75160000Y-143520000D02*
X73984000Y-143520000D01*
X78016000Y-143520000D02*
X76840000Y-143520000D01*
X75160000Y-143480000D02*
X73975000Y-143480000D01*
X78025000Y-143480000D02*
X76840000Y-143480000D01*
X75160000Y-143440000D02*
X73966000Y-143440000D01*
X78034000Y-143440000D02*
X76840000Y-143440000D01*
X75160000Y-143400000D02*
X73958000Y-143400000D01*
X78042000Y-143400000D02*
X76840000Y-143400000D01*
X75160000Y-143360000D02*
X73950000Y-143360000D01*
X78050000Y-143360000D02*
X76840000Y-143360000D01*
X75160000Y-143320000D02*
X73944000Y-143320000D01*
X78056000Y-143320000D02*
X76840000Y-143320000D01*
X75160000Y-143280000D02*
X73938000Y-143280000D01*
X78062000Y-143280000D02*
X76840000Y-143280000D01*
X75160000Y-143240000D02*
X73933000Y-143240000D01*
X78067000Y-143240000D02*
X76840000Y-143240000D01*
X75160000Y-143200000D02*
X73929000Y-143200000D01*
X78071000Y-143200000D02*
X76840000Y-143200000D01*
X78074000Y-143160000D02*
X73926000Y-143160000D01*
X78077000Y-143120000D02*
X73923000Y-143120000D01*
X78079000Y-143080000D02*
X73921000Y-143080000D01*
X78080000Y-143040000D02*
X73920000Y-143040000D01*
X78080000Y-143000000D02*
X73920000Y-143000000D01*
X78120000Y-143000000D02*
G75*
G03X78120000Y-143000000I-2120000J0D01*
G01*
G04 #@! TO.C,F1*
X71740000Y-87540000D02*
G75*
G03X71740000Y-87540000I-4750000J0D01*
G01*
X63010000Y-90490000D02*
X63160000Y-90360000D01*
X62930000Y-90670000D02*
X63010000Y-90490000D01*
X62890000Y-90960000D02*
X62930000Y-90670000D01*
X62970000Y-91250000D02*
X62890000Y-90960000D01*
X63140000Y-91470000D02*
X62970000Y-91250000D01*
X63400000Y-91620000D02*
X63140000Y-91470000D01*
X63660000Y-91650000D02*
X63400000Y-91620000D01*
X63910000Y-91600000D02*
X63660000Y-91650000D01*
X64070000Y-91510000D02*
X63910000Y-91600000D01*
X64210000Y-91390000D02*
X64070000Y-91510000D01*
G04 #@! TO.C,J1*
X72800000Y-80050000D02*
X72800000Y-79450000D01*
X71960000Y-80050000D02*
X72800000Y-80050000D01*
X68023000Y-69727000D02*
X68069000Y-69774000D01*
X65725000Y-67430000D02*
X65761000Y-67465000D01*
X68239000Y-69534000D02*
X68274000Y-69569000D01*
X65931000Y-67225000D02*
X65977000Y-67272000D01*
X61440000Y-64690000D02*
X72560000Y-64690000D01*
X61440000Y-79810000D02*
X72560000Y-79810000D01*
X72560000Y-79810000D02*
X72560000Y-64690000D01*
X61440000Y-79810000D02*
X61440000Y-64690000D01*
X63400000Y-79810000D02*
X63400000Y-64690000D01*
X70000000Y-79810000D02*
X70000000Y-64690000D01*
X71900000Y-79810000D02*
X71900000Y-64690000D01*
X68680000Y-68500000D02*
G75*
G03X68680000Y-68500000I-1680000J0D01*
G01*
X68680253Y-75971195D02*
G75*
G02X68535000Y-76684000I-1680253J-28805D01*
G01*
X67683042Y-77535426D02*
G75*
G02X66316000Y-77535000I-683042J1535426D01*
G01*
X65464574Y-76683042D02*
G75*
G02X65465000Y-75316000I1535426J683042D01*
G01*
X66316958Y-74464574D02*
G75*
G02X67684000Y-74465000I683042J-1535426D01*
G01*
X68534756Y-75316682D02*
G75*
G02X68680000Y-76000000I-1534756J-683318D01*
G01*
G04 #@! TO.C,JP1*
X120670000Y-141670000D02*
X122000000Y-141670000D01*
X120670000Y-143000000D02*
X120670000Y-141670000D01*
X120670000Y-144270000D02*
X123330000Y-144270000D01*
X123330000Y-144270000D02*
X123330000Y-146870000D01*
X120670000Y-144270000D02*
X120670000Y-146870000D01*
X120670000Y-146870000D02*
X123330000Y-146870000D01*
G04 #@! TO.C,JP2*
X114670000Y-141670000D02*
X116000000Y-141670000D01*
X114670000Y-143000000D02*
X114670000Y-141670000D01*
X114670000Y-144270000D02*
X117330000Y-144270000D01*
X117330000Y-144270000D02*
X117330000Y-146870000D01*
X114670000Y-144270000D02*
X114670000Y-146870000D01*
X114670000Y-146870000D02*
X117330000Y-146870000D01*
G04 #@! TO.C,Q1*
X123730000Y-70609000D02*
X125240000Y-70609000D01*
X123730000Y-74310000D02*
X125240000Y-74310000D01*
X125240000Y-77580000D02*
X125240000Y-67340000D01*
X123730000Y-67340000D02*
X128371000Y-67340000D01*
X123730000Y-77580000D02*
X128371000Y-77580000D01*
X128371000Y-77580000D02*
X128371000Y-67340000D01*
X123730000Y-77580000D02*
X123730000Y-67340000D01*
G04 #@! TO.C,Q2*
X147730000Y-70609000D02*
X149240000Y-70609000D01*
X147730000Y-74310000D02*
X149240000Y-74310000D01*
X149240000Y-77580000D02*
X149240000Y-67340000D01*
X147730000Y-67340000D02*
X152371000Y-67340000D01*
X147730000Y-77580000D02*
X152371000Y-77580000D01*
X152371000Y-77580000D02*
X152371000Y-67340000D01*
X147730000Y-77580000D02*
X147730000Y-67340000D01*
G04 #@! TO.C,Q3*
X135730000Y-70609000D02*
X137240000Y-70609000D01*
X135730000Y-74310000D02*
X137240000Y-74310000D01*
X137240000Y-77580000D02*
X137240000Y-67340000D01*
X135730000Y-67340000D02*
X140371000Y-67340000D01*
X135730000Y-77580000D02*
X140371000Y-77580000D01*
X140371000Y-77580000D02*
X140371000Y-67340000D01*
X135730000Y-77580000D02*
X135730000Y-67340000D01*
G04 #@! TO.C,R1*
X90000000Y-112120000D02*
X90000000Y-111350000D01*
X90000000Y-104040000D02*
X90000000Y-104810000D01*
X91370000Y-111350000D02*
X91370000Y-104810000D01*
X88630000Y-111350000D02*
X91370000Y-111350000D01*
X88630000Y-104810000D02*
X88630000Y-111350000D01*
X91370000Y-104810000D02*
X88630000Y-104810000D01*
G04 #@! TO.C,R2*
X102000000Y-112120000D02*
X102000000Y-111350000D01*
X102000000Y-104040000D02*
X102000000Y-104810000D01*
X103370000Y-111350000D02*
X103370000Y-104810000D01*
X100630000Y-111350000D02*
X103370000Y-111350000D01*
X100630000Y-104810000D02*
X100630000Y-111350000D01*
X103370000Y-104810000D02*
X100630000Y-104810000D01*
G04 #@! TO.C,R3*
X132000000Y-76120000D02*
X132000000Y-75350000D01*
X132000000Y-68040000D02*
X132000000Y-68810000D01*
X133370000Y-75350000D02*
X133370000Y-68810000D01*
X130630000Y-75350000D02*
X133370000Y-75350000D01*
X130630000Y-68810000D02*
X130630000Y-75350000D01*
X133370000Y-68810000D02*
X130630000Y-68810000D01*
G04 #@! TO.C,R4*
X156000000Y-76120000D02*
X156000000Y-75350000D01*
X156000000Y-68040000D02*
X156000000Y-68810000D01*
X157370000Y-75350000D02*
X157370000Y-68810000D01*
X154630000Y-75350000D02*
X157370000Y-75350000D01*
X154630000Y-68810000D02*
X154630000Y-75350000D01*
X157370000Y-68810000D02*
X154630000Y-68810000D01*
G04 #@! TO.C,R7*
X96000000Y-112120000D02*
X96000000Y-111350000D01*
X96000000Y-104040000D02*
X96000000Y-104810000D01*
X97370000Y-111350000D02*
X97370000Y-104810000D01*
X94630000Y-111350000D02*
X97370000Y-111350000D01*
X94630000Y-104810000D02*
X94630000Y-111350000D01*
X97370000Y-104810000D02*
X94630000Y-104810000D01*
G04 #@! TO.C,R9*
X144000000Y-76120000D02*
X144000000Y-75350000D01*
X144000000Y-68040000D02*
X144000000Y-68810000D01*
X145370000Y-75350000D02*
X145370000Y-68810000D01*
X142630000Y-75350000D02*
X145370000Y-75350000D01*
X142630000Y-68810000D02*
X142630000Y-75350000D01*
X145370000Y-68810000D02*
X142630000Y-68810000D01*
D15*
G04 #@! TO.C,RV1*
X80400000Y-68250000D02*
X76100000Y-68250000D01*
X80400000Y-89750000D02*
X76100000Y-89750000D01*
X80400000Y-68250000D02*
X80400000Y-89750000D01*
X76100000Y-68250000D02*
X76100000Y-89750000D01*
G04 #@! TO.C,T1*
X122500000Y-63500000D02*
X123000000Y-64000000D01*
X122000000Y-64000000D02*
X122500000Y-63500000D01*
X122500000Y-63500000D02*
X122000000Y-64000000D01*
X122500000Y-65000000D02*
X122500000Y-63500000D01*
X115000000Y-65000000D02*
X122500000Y-65000000D01*
X115000000Y-63500000D02*
X115000000Y-65000000D01*
X106000000Y-64000000D02*
X105500000Y-63500000D01*
X105000000Y-64000000D02*
X105500000Y-63500000D01*
X105500000Y-65000000D02*
X105500000Y-63500000D01*
X98000000Y-65000000D02*
X105500000Y-65000000D01*
X98000000Y-63500000D02*
X98000000Y-65000000D01*
X88500000Y-63500000D02*
X89000000Y-64000000D01*
X88000000Y-64000000D02*
X88500000Y-63500000D01*
X88500000Y-63500000D02*
X88000000Y-64000000D01*
X88500000Y-64000000D02*
X88500000Y-63500000D01*
X88500000Y-63500000D02*
X88500000Y-64000000D01*
X88500000Y-65000000D02*
X88500000Y-63500000D01*
X81000000Y-65000000D02*
X88500000Y-65000000D01*
X81000000Y-63500000D02*
X81000000Y-65000000D01*
D14*
X115683318Y-58534756D02*
G75*
G02X115000000Y-58680000I-683318J1534756D01*
G01*
X121466000Y-58239000D02*
X121431000Y-58274000D01*
X111190000Y-51440000D02*
X126310000Y-51440000D01*
X123570000Y-55725000D02*
X123535000Y-55761000D01*
X124180000Y-57000000D02*
G75*
G03X124180000Y-57000000I-1680000J0D01*
G01*
X113464574Y-57683042D02*
G75*
G02X113465000Y-56316000I1535426J683042D01*
G01*
X110950000Y-61960000D02*
X110950000Y-62800000D01*
X110950000Y-62800000D02*
X111550000Y-62800000D01*
X111190000Y-60000000D02*
X126310000Y-60000000D01*
X121273000Y-58023000D02*
X121226000Y-58069000D01*
X116535426Y-56316958D02*
G75*
G02X116535000Y-57684000I-1535426J-683042D01*
G01*
X114316958Y-55464574D02*
G75*
G02X115684000Y-55465000I683042J-1535426D01*
G01*
X115028805Y-58680253D02*
G75*
G02X114316000Y-58535000I-28805J1680253D01*
G01*
X111190000Y-51440000D02*
X111190000Y-62560000D01*
X123775000Y-55931000D02*
X123728000Y-55977000D01*
X111190000Y-62560000D02*
X126310000Y-62560000D01*
X126310000Y-51440000D02*
X126310000Y-62560000D01*
X111190000Y-53400000D02*
X126310000Y-53400000D01*
X111190000Y-61900000D02*
X126310000Y-61900000D01*
X107180000Y-57000000D02*
G75*
G03X107180000Y-57000000I-1680000J0D01*
G01*
X98028805Y-58680253D02*
G75*
G02X97316000Y-58535000I-28805J1680253D01*
G01*
X104273000Y-58023000D02*
X104226000Y-58069000D01*
X104466000Y-58239000D02*
X104431000Y-58274000D01*
X93950000Y-61960000D02*
X93950000Y-62800000D01*
X93950000Y-62800000D02*
X94550000Y-62800000D01*
X96464574Y-57683042D02*
G75*
G02X96465000Y-56316000I1535426J683042D01*
G01*
X94190000Y-51440000D02*
X109310000Y-51440000D01*
X99535426Y-56316958D02*
G75*
G02X99535000Y-57684000I-1535426J-683042D01*
G01*
X106775000Y-55931000D02*
X106728000Y-55977000D01*
X106570000Y-55725000D02*
X106535000Y-55761000D01*
X94190000Y-53400000D02*
X109310000Y-53400000D01*
X94190000Y-62560000D02*
X109310000Y-62560000D01*
X94190000Y-61900000D02*
X109310000Y-61900000D01*
X94190000Y-60000000D02*
X109310000Y-60000000D01*
X109310000Y-51440000D02*
X109310000Y-62560000D01*
X94190000Y-51440000D02*
X94190000Y-62560000D01*
X98683318Y-58534756D02*
G75*
G02X98000000Y-58680000I-683318J1534756D01*
G01*
X97316958Y-55464574D02*
G75*
G02X98684000Y-55465000I683042J-1535426D01*
G01*
X76950000Y-62800000D02*
X77550000Y-62800000D01*
X76950000Y-61960000D02*
X76950000Y-62800000D01*
X87273000Y-58023000D02*
X87226000Y-58069000D01*
X89570000Y-55725000D02*
X89535000Y-55761000D01*
X87466000Y-58239000D02*
X87431000Y-58274000D01*
X89775000Y-55931000D02*
X89728000Y-55977000D01*
X92310000Y-51440000D02*
X92310000Y-62560000D01*
X77190000Y-51440000D02*
X77190000Y-62560000D01*
X77190000Y-62560000D02*
X92310000Y-62560000D01*
X77190000Y-51440000D02*
X92310000Y-51440000D01*
X77190000Y-53400000D02*
X92310000Y-53400000D01*
X77190000Y-60000000D02*
X92310000Y-60000000D01*
X77190000Y-61900000D02*
X92310000Y-61900000D01*
X90180000Y-57000000D02*
G75*
G03X90180000Y-57000000I-1680000J0D01*
G01*
X81028805Y-58680253D02*
G75*
G02X80316000Y-58535000I-28805J1680253D01*
G01*
X79464574Y-57683042D02*
G75*
G02X79465000Y-56316000I1535426J683042D01*
G01*
X80316958Y-55464574D02*
G75*
G02X81684000Y-55465000I683042J-1535426D01*
G01*
X82535426Y-56316958D02*
G75*
G02X82535000Y-57684000I-1535426J-683042D01*
G01*
X81683318Y-58534756D02*
G75*
G02X81000000Y-58680000I-683318J1534756D01*
G01*
G04 #@! TO.C,T2*
X84880000Y-94620000D02*
X84880000Y-67380000D01*
X84880000Y-94620000D02*
X117120000Y-94620000D01*
X117120000Y-67380000D02*
X84880000Y-67380000D01*
X117120000Y-67380000D02*
X117120000Y-94620000D01*
G04 #@! TO.C,U1*
X130460000Y-79670000D02*
X128810000Y-79670000D01*
X130460000Y-87410000D02*
X130460000Y-79670000D01*
X125160000Y-87410000D02*
X130460000Y-87410000D01*
X125160000Y-79670000D02*
X125160000Y-87410000D01*
X126810000Y-79670000D02*
X125160000Y-79670000D01*
X128810000Y-79670000D02*
G75*
G02X126810000Y-79670000I-1000000J0D01*
G01*
G04 #@! TO.C,U2*
X154460000Y-79670000D02*
X152810000Y-79670000D01*
X154460000Y-87410000D02*
X154460000Y-79670000D01*
X149160000Y-87410000D02*
X154460000Y-87410000D01*
X149160000Y-79670000D02*
X149160000Y-87410000D01*
X150810000Y-79670000D02*
X149160000Y-79670000D01*
X152810000Y-79670000D02*
G75*
G02X150810000Y-79670000I-1000000J0D01*
G01*
G04 #@! TO.C,U3*
X71730000Y-129609000D02*
X73240000Y-129609000D01*
X71730000Y-133310000D02*
X73240000Y-133310000D01*
X73240000Y-136580000D02*
X73240000Y-126340000D01*
X71730000Y-126340000D02*
X76371000Y-126340000D01*
X71730000Y-136580000D02*
X76371000Y-136580000D01*
X76371000Y-136580000D02*
X76371000Y-126340000D01*
X71730000Y-136580000D02*
X71730000Y-126340000D01*
G04 #@! TO.C,U5*
X142460000Y-79670000D02*
X140810000Y-79670000D01*
X142460000Y-87410000D02*
X142460000Y-79670000D01*
X137160000Y-87410000D02*
X142460000Y-87410000D01*
X137160000Y-79670000D02*
X137160000Y-87410000D01*
X138810000Y-79670000D02*
X137160000Y-79670000D01*
X140810000Y-79670000D02*
G75*
G02X138810000Y-79670000I-1000000J0D01*
G01*
G04 #@! TO.C,J2*
X116830000Y-135900000D02*
X116830000Y-102260000D01*
X116830000Y-135900000D02*
X125710000Y-135900000D01*
X125710000Y-102260000D02*
X116830000Y-102260000D01*
X125710000Y-102260000D02*
X125710000Y-135900000D01*
X116190000Y-114000000D02*
X115682000Y-113746000D01*
X115682000Y-113746000D02*
X115682000Y-114254000D01*
X115682000Y-114254000D02*
X116190000Y-114000000D01*
G04 #@! TO.C,J3*
X148830000Y-135900000D02*
X148830000Y-102260000D01*
X148830000Y-135900000D02*
X157710000Y-135900000D01*
X157710000Y-102260000D02*
X148830000Y-102260000D01*
X157710000Y-102260000D02*
X157710000Y-135900000D01*
X148190000Y-114000000D02*
X147682000Y-113746000D01*
X147682000Y-113746000D02*
X147682000Y-114254000D01*
X147682000Y-114254000D02*
X148190000Y-114000000D01*
G04 #@! TO.C,J4*
X132830000Y-135900000D02*
X132830000Y-102260000D01*
X132830000Y-135900000D02*
X141710000Y-135900000D01*
X141710000Y-102260000D02*
X132830000Y-102260000D01*
X141710000Y-102260000D02*
X141710000Y-135900000D01*
X132190000Y-114000000D02*
X131682000Y-113746000D01*
X131682000Y-113746000D02*
X131682000Y-114254000D01*
X131682000Y-114254000D02*
X132190000Y-114000000D01*
G04 #@! TO.C,R5*
X131550000Y-144080000D02*
X131550000Y-147920000D01*
X131550000Y-147920000D02*
X141690000Y-147920000D01*
X141690000Y-147920000D02*
X141690000Y-144080000D01*
X141690000Y-144080000D02*
X131550000Y-144080000D01*
X130440000Y-146000000D02*
X131550000Y-146000000D01*
X142800000Y-146000000D02*
X141690000Y-146000000D01*
G04 #@! TO.C,R6*
X142800000Y-141000000D02*
X141690000Y-141000000D01*
X130440000Y-141000000D02*
X131550000Y-141000000D01*
X141690000Y-139080000D02*
X131550000Y-139080000D01*
X141690000Y-142920000D02*
X141690000Y-139080000D01*
X131550000Y-142920000D02*
X141690000Y-142920000D01*
X131550000Y-139080000D02*
X131550000Y-142920000D01*
G04 #@! TO.C,R8*
X88080000Y-133610000D02*
X91920000Y-133610000D01*
X91920000Y-133610000D02*
X91920000Y-123470000D01*
X91920000Y-123470000D02*
X88080000Y-123470000D01*
X88080000Y-123470000D02*
X88080000Y-133610000D01*
X90000000Y-134720000D02*
X90000000Y-133610000D01*
X90000000Y-122360000D02*
X90000000Y-123470000D01*
G04 #@! TO.C,R10*
X96000000Y-122360000D02*
X96000000Y-123470000D01*
X96000000Y-134720000D02*
X96000000Y-133610000D01*
X94080000Y-123470000D02*
X94080000Y-133610000D01*
X97920000Y-123470000D02*
X94080000Y-123470000D01*
X97920000Y-133610000D02*
X97920000Y-123470000D01*
X94080000Y-133610000D02*
X97920000Y-133610000D01*
G04 #@! TO.C,R11*
X100080000Y-133610000D02*
X103920000Y-133610000D01*
X103920000Y-133610000D02*
X103920000Y-123470000D01*
X103920000Y-123470000D02*
X100080000Y-123470000D01*
X100080000Y-123470000D02*
X100080000Y-133610000D01*
X102000000Y-134720000D02*
X102000000Y-133610000D01*
X102000000Y-122360000D02*
X102000000Y-123470000D01*
G04 #@! TO.C,R12*
X113000000Y-121200000D02*
X113000000Y-122310000D01*
X113000000Y-133560000D02*
X113000000Y-132450000D01*
X111080000Y-122310000D02*
X111080000Y-132450000D01*
X114920000Y-122310000D02*
X111080000Y-122310000D01*
X114920000Y-132450000D02*
X114920000Y-122310000D01*
X111080000Y-132450000D02*
X114920000Y-132450000D01*
G04 #@! TO.C,D1*
D15*
X67771904Y-113142380D02*
X67771904Y-112142380D01*
X68010000Y-112142380D01*
X68152857Y-112190000D01*
X68248095Y-112285238D01*
X68295714Y-112380476D01*
X68343333Y-112570952D01*
X68343333Y-112713809D01*
X68295714Y-112904285D01*
X68248095Y-112999523D01*
X68152857Y-113094761D01*
X68010000Y-113142380D01*
X67771904Y-113142380D01*
X69295714Y-113142380D02*
X68724285Y-113142380D01*
X69010000Y-113142380D02*
X69010000Y-112142380D01*
X68914761Y-112285238D01*
X68819523Y-112380476D01*
X68724285Y-112428095D01*
G04 #@! TO.C,U4*
X94938095Y-114112380D02*
X94938095Y-114921904D01*
X94985714Y-115017142D01*
X95033333Y-115064761D01*
X95128571Y-115112380D01*
X95319047Y-115112380D01*
X95414285Y-115064761D01*
X95461904Y-115017142D01*
X95509523Y-114921904D01*
X95509523Y-114112380D01*
X96414285Y-114445714D02*
X96414285Y-115112380D01*
X96176190Y-114064761D02*
X95938095Y-114779047D01*
X96557142Y-114779047D01*
G04 #@! TO.C,C1*
X68333333Y-125607142D02*
X68285714Y-125654761D01*
X68142857Y-125702380D01*
X68047619Y-125702380D01*
X67904761Y-125654761D01*
X67809523Y-125559523D01*
X67761904Y-125464285D01*
X67714285Y-125273809D01*
X67714285Y-125130952D01*
X67761904Y-124940476D01*
X67809523Y-124845238D01*
X67904761Y-124750000D01*
X68047619Y-124702380D01*
X68142857Y-124702380D01*
X68285714Y-124750000D01*
X68333333Y-124797619D01*
X69285714Y-125702380D02*
X68714285Y-125702380D01*
X69000000Y-125702380D02*
X69000000Y-124702380D01*
X68904761Y-124845238D01*
X68809523Y-124940476D01*
X68714285Y-124988095D01*
G04 #@! TO.C,C2*
X67583333Y-130407142D02*
X67535714Y-130454761D01*
X67392857Y-130502380D01*
X67297619Y-130502380D01*
X67154761Y-130454761D01*
X67059523Y-130359523D01*
X67011904Y-130264285D01*
X66964285Y-130073809D01*
X66964285Y-129930952D01*
X67011904Y-129740476D01*
X67059523Y-129645238D01*
X67154761Y-129550000D01*
X67297619Y-129502380D01*
X67392857Y-129502380D01*
X67535714Y-129550000D01*
X67583333Y-129597619D01*
X67964285Y-129597619D02*
X68011904Y-129550000D01*
X68107142Y-129502380D01*
X68345238Y-129502380D01*
X68440476Y-129550000D01*
X68488095Y-129597619D01*
X68535714Y-129692857D01*
X68535714Y-129788095D01*
X68488095Y-129930952D01*
X67916666Y-130502380D01*
X68535714Y-130502380D01*
G04 #@! TO.C,C3*
X75833333Y-146857142D02*
X75785714Y-146904761D01*
X75642857Y-146952380D01*
X75547619Y-146952380D01*
X75404761Y-146904761D01*
X75309523Y-146809523D01*
X75261904Y-146714285D01*
X75214285Y-146523809D01*
X75214285Y-146380952D01*
X75261904Y-146190476D01*
X75309523Y-146095238D01*
X75404761Y-146000000D01*
X75547619Y-145952380D01*
X75642857Y-145952380D01*
X75785714Y-146000000D01*
X75833333Y-146047619D01*
X76166666Y-145952380D02*
X76785714Y-145952380D01*
X76452380Y-146333333D01*
X76595238Y-146333333D01*
X76690476Y-146380952D01*
X76738095Y-146428571D01*
X76785714Y-146523809D01*
X76785714Y-146761904D01*
X76738095Y-146857142D01*
X76690476Y-146904761D01*
X76595238Y-146952380D01*
X76309523Y-146952380D01*
X76214285Y-146904761D01*
X76166666Y-146857142D01*
G04 #@! TO.C,F1*
X73818571Y-87723333D02*
X73818571Y-88056666D01*
X74342380Y-88056666D02*
X73342380Y-88056666D01*
X73342380Y-87580476D01*
X74342380Y-86675714D02*
X74342380Y-87247142D01*
X74342380Y-86961428D02*
X73342380Y-86961428D01*
X73485238Y-87056666D01*
X73580476Y-87151904D01*
X73628095Y-87247142D01*
G04 #@! TO.C,J1*
X66452380Y-72583333D02*
X67166666Y-72583333D01*
X67309523Y-72630952D01*
X67404761Y-72726190D01*
X67452380Y-72869047D01*
X67452380Y-72964285D01*
X67452380Y-71583333D02*
X67452380Y-72154761D01*
X67452380Y-71869047D02*
X66452380Y-71869047D01*
X66595238Y-71964285D01*
X66690476Y-72059523D01*
X66738095Y-72154761D01*
G04 #@! TO.C,JP1*
X121166666Y-147952380D02*
X121166666Y-148666666D01*
X121119047Y-148809523D01*
X121023809Y-148904761D01*
X120880952Y-148952380D01*
X120785714Y-148952380D01*
X121642857Y-148952380D02*
X121642857Y-147952380D01*
X122023809Y-147952380D01*
X122119047Y-148000000D01*
X122166666Y-148047619D01*
X122214285Y-148142857D01*
X122214285Y-148285714D01*
X122166666Y-148380952D01*
X122119047Y-148428571D01*
X122023809Y-148476190D01*
X121642857Y-148476190D01*
X123166666Y-148952380D02*
X122595238Y-148952380D01*
X122880952Y-148952380D02*
X122880952Y-147952380D01*
X122785714Y-148095238D01*
X122690476Y-148190476D01*
X122595238Y-148238095D01*
G04 #@! TO.C,JP2*
X115166666Y-147952380D02*
X115166666Y-148666666D01*
X115119047Y-148809523D01*
X115023809Y-148904761D01*
X114880952Y-148952380D01*
X114785714Y-148952380D01*
X115642857Y-148952380D02*
X115642857Y-147952380D01*
X116023809Y-147952380D01*
X116119047Y-148000000D01*
X116166666Y-148047619D01*
X116214285Y-148142857D01*
X116214285Y-148285714D01*
X116166666Y-148380952D01*
X116119047Y-148428571D01*
X116023809Y-148476190D01*
X115642857Y-148476190D01*
X116595238Y-148047619D02*
X116642857Y-148000000D01*
X116738095Y-147952380D01*
X116976190Y-147952380D01*
X117071428Y-148000000D01*
X117119047Y-148047619D01*
X117166666Y-148142857D01*
X117166666Y-148238095D01*
X117119047Y-148380952D01*
X116547619Y-148952380D01*
X117166666Y-148952380D01*
G04 #@! TO.C,Q1*
X126904761Y-66547619D02*
X126809523Y-66500000D01*
X126714285Y-66404761D01*
X126571428Y-66261904D01*
X126476190Y-66214285D01*
X126380952Y-66214285D01*
X126428571Y-66452380D02*
X126333333Y-66404761D01*
X126238095Y-66309523D01*
X126190476Y-66119047D01*
X126190476Y-65785714D01*
X126238095Y-65595238D01*
X126333333Y-65500000D01*
X126428571Y-65452380D01*
X126619047Y-65452380D01*
X126714285Y-65500000D01*
X126809523Y-65595238D01*
X126857142Y-65785714D01*
X126857142Y-66119047D01*
X126809523Y-66309523D01*
X126714285Y-66404761D01*
X126619047Y-66452380D01*
X126428571Y-66452380D01*
X127809523Y-66452380D02*
X127238095Y-66452380D01*
X127523809Y-66452380D02*
X127523809Y-65452380D01*
X127428571Y-65595238D01*
X127333333Y-65690476D01*
X127238095Y-65738095D01*
G04 #@! TO.C,Q2*
X150904761Y-66547619D02*
X150809523Y-66500000D01*
X150714285Y-66404761D01*
X150571428Y-66261904D01*
X150476190Y-66214285D01*
X150380952Y-66214285D01*
X150428571Y-66452380D02*
X150333333Y-66404761D01*
X150238095Y-66309523D01*
X150190476Y-66119047D01*
X150190476Y-65785714D01*
X150238095Y-65595238D01*
X150333333Y-65500000D01*
X150428571Y-65452380D01*
X150619047Y-65452380D01*
X150714285Y-65500000D01*
X150809523Y-65595238D01*
X150857142Y-65785714D01*
X150857142Y-66119047D01*
X150809523Y-66309523D01*
X150714285Y-66404761D01*
X150619047Y-66452380D01*
X150428571Y-66452380D01*
X151238095Y-65547619D02*
X151285714Y-65500000D01*
X151380952Y-65452380D01*
X151619047Y-65452380D01*
X151714285Y-65500000D01*
X151761904Y-65547619D01*
X151809523Y-65642857D01*
X151809523Y-65738095D01*
X151761904Y-65880952D01*
X151190476Y-66452380D01*
X151809523Y-66452380D01*
G04 #@! TO.C,Q3*
X138904761Y-66547619D02*
X138809523Y-66500000D01*
X138714285Y-66404761D01*
X138571428Y-66261904D01*
X138476190Y-66214285D01*
X138380952Y-66214285D01*
X138428571Y-66452380D02*
X138333333Y-66404761D01*
X138238095Y-66309523D01*
X138190476Y-66119047D01*
X138190476Y-65785714D01*
X138238095Y-65595238D01*
X138333333Y-65500000D01*
X138428571Y-65452380D01*
X138619047Y-65452380D01*
X138714285Y-65500000D01*
X138809523Y-65595238D01*
X138857142Y-65785714D01*
X138857142Y-66119047D01*
X138809523Y-66309523D01*
X138714285Y-66404761D01*
X138619047Y-66452380D01*
X138428571Y-66452380D01*
X139190476Y-65452380D02*
X139809523Y-65452380D01*
X139476190Y-65833333D01*
X139619047Y-65833333D01*
X139714285Y-65880952D01*
X139761904Y-65928571D01*
X139809523Y-66023809D01*
X139809523Y-66261904D01*
X139761904Y-66357142D01*
X139714285Y-66404761D01*
X139619047Y-66452380D01*
X139333333Y-66452380D01*
X139238095Y-66404761D01*
X139190476Y-66357142D01*
G04 #@! TO.C,R1*
X92822380Y-108246666D02*
X92346190Y-108580000D01*
X92822380Y-108818095D02*
X91822380Y-108818095D01*
X91822380Y-108437142D01*
X91870000Y-108341904D01*
X91917619Y-108294285D01*
X92012857Y-108246666D01*
X92155714Y-108246666D01*
X92250952Y-108294285D01*
X92298571Y-108341904D01*
X92346190Y-108437142D01*
X92346190Y-108818095D01*
X92822380Y-107294285D02*
X92822380Y-107865714D01*
X92822380Y-107580000D02*
X91822380Y-107580000D01*
X91965238Y-107675238D01*
X92060476Y-107770476D01*
X92108095Y-107865714D01*
G04 #@! TO.C,R2*
X104822380Y-108246666D02*
X104346190Y-108580000D01*
X104822380Y-108818095D02*
X103822380Y-108818095D01*
X103822380Y-108437142D01*
X103870000Y-108341904D01*
X103917619Y-108294285D01*
X104012857Y-108246666D01*
X104155714Y-108246666D01*
X104250952Y-108294285D01*
X104298571Y-108341904D01*
X104346190Y-108437142D01*
X104346190Y-108818095D01*
X103917619Y-107865714D02*
X103870000Y-107818095D01*
X103822380Y-107722857D01*
X103822380Y-107484761D01*
X103870000Y-107389523D01*
X103917619Y-107341904D01*
X104012857Y-107294285D01*
X104108095Y-107294285D01*
X104250952Y-107341904D01*
X104822380Y-107913333D01*
X104822380Y-107294285D01*
G04 #@! TO.C,R3*
X131833333Y-65452380D02*
X131500000Y-64976190D01*
X131261904Y-65452380D02*
X131261904Y-64452380D01*
X131642857Y-64452380D01*
X131738095Y-64500000D01*
X131785714Y-64547619D01*
X131833333Y-64642857D01*
X131833333Y-64785714D01*
X131785714Y-64880952D01*
X131738095Y-64928571D01*
X131642857Y-64976190D01*
X131261904Y-64976190D01*
X132166666Y-64452380D02*
X132785714Y-64452380D01*
X132452380Y-64833333D01*
X132595238Y-64833333D01*
X132690476Y-64880952D01*
X132738095Y-64928571D01*
X132785714Y-65023809D01*
X132785714Y-65261904D01*
X132738095Y-65357142D01*
X132690476Y-65404761D01*
X132595238Y-65452380D01*
X132309523Y-65452380D01*
X132214285Y-65404761D01*
X132166666Y-65357142D01*
G04 #@! TO.C,R4*
X155833333Y-65452380D02*
X155500000Y-64976190D01*
X155261904Y-65452380D02*
X155261904Y-64452380D01*
X155642857Y-64452380D01*
X155738095Y-64500000D01*
X155785714Y-64547619D01*
X155833333Y-64642857D01*
X155833333Y-64785714D01*
X155785714Y-64880952D01*
X155738095Y-64928571D01*
X155642857Y-64976190D01*
X155261904Y-64976190D01*
X156690476Y-64785714D02*
X156690476Y-65452380D01*
X156452380Y-64404761D02*
X156214285Y-65119047D01*
X156833333Y-65119047D01*
G04 #@! TO.C,R7*
X98822380Y-108246666D02*
X98346190Y-108580000D01*
X98822380Y-108818095D02*
X97822380Y-108818095D01*
X97822380Y-108437142D01*
X97870000Y-108341904D01*
X97917619Y-108294285D01*
X98012857Y-108246666D01*
X98155714Y-108246666D01*
X98250952Y-108294285D01*
X98298571Y-108341904D01*
X98346190Y-108437142D01*
X98346190Y-108818095D01*
X97822380Y-107913333D02*
X97822380Y-107246666D01*
X98822380Y-107675238D01*
G04 #@! TO.C,R9*
X143833333Y-65452380D02*
X143500000Y-64976190D01*
X143261904Y-65452380D02*
X143261904Y-64452380D01*
X143642857Y-64452380D01*
X143738095Y-64500000D01*
X143785714Y-64547619D01*
X143833333Y-64642857D01*
X143833333Y-64785714D01*
X143785714Y-64880952D01*
X143738095Y-64928571D01*
X143642857Y-64976190D01*
X143261904Y-64976190D01*
X144309523Y-65452380D02*
X144500000Y-65452380D01*
X144595238Y-65404761D01*
X144642857Y-65357142D01*
X144738095Y-65214285D01*
X144785714Y-65023809D01*
X144785714Y-64642857D01*
X144738095Y-64547619D01*
X144690476Y-64500000D01*
X144595238Y-64452380D01*
X144404761Y-64452380D01*
X144309523Y-64500000D01*
X144261904Y-64547619D01*
X144214285Y-64642857D01*
X144214285Y-64880952D01*
X144261904Y-64976190D01*
X144309523Y-65023809D01*
X144404761Y-65071428D01*
X144595238Y-65071428D01*
X144690476Y-65023809D01*
X144738095Y-64976190D01*
X144785714Y-64880952D01*
G04 #@! TO.C,RV1*
X75552380Y-79595238D02*
X75076190Y-79928571D01*
X75552380Y-80166666D02*
X74552380Y-80166666D01*
X74552380Y-79785714D01*
X74600000Y-79690476D01*
X74647619Y-79642857D01*
X74742857Y-79595238D01*
X74885714Y-79595238D01*
X74980952Y-79642857D01*
X75028571Y-79690476D01*
X75076190Y-79785714D01*
X75076190Y-80166666D01*
X74552380Y-79309523D02*
X75552380Y-78976190D01*
X74552380Y-78642857D01*
X75552380Y-77785714D02*
X75552380Y-78357142D01*
X75552380Y-78071428D02*
X74552380Y-78071428D01*
X74695238Y-78166666D01*
X74790476Y-78261904D01*
X74838095Y-78357142D01*
G04 #@! TO.C,T1*
X101302095Y-53912380D02*
X101873523Y-53912380D01*
X101587809Y-54912380D02*
X101587809Y-53912380D01*
X102730666Y-54912380D02*
X102159238Y-54912380D01*
X102444952Y-54912380D02*
X102444952Y-53912380D01*
X102349714Y-54055238D01*
X102254476Y-54150476D01*
X102159238Y-54198095D01*
X117511904Y-64654761D02*
X117654761Y-64702380D01*
X117892857Y-64702380D01*
X117988095Y-64654761D01*
X118035714Y-64607142D01*
X118083333Y-64511904D01*
X118083333Y-64416666D01*
X118035714Y-64321428D01*
X117988095Y-64273809D01*
X117892857Y-64226190D01*
X117702380Y-64178571D01*
X117607142Y-64130952D01*
X117559523Y-64083333D01*
X117511904Y-63988095D01*
X117511904Y-63892857D01*
X117559523Y-63797619D01*
X117607142Y-63750000D01*
X117702380Y-63702380D01*
X117940476Y-63702380D01*
X118083333Y-63750000D01*
X118511904Y-64178571D02*
X118845238Y-64178571D01*
X118988095Y-64702380D02*
X118511904Y-64702380D01*
X118511904Y-63702380D01*
X118988095Y-63702380D01*
X119988095Y-64607142D02*
X119940476Y-64654761D01*
X119797619Y-64702380D01*
X119702380Y-64702380D01*
X119559523Y-64654761D01*
X119464285Y-64559523D01*
X119416666Y-64464285D01*
X119369047Y-64273809D01*
X119369047Y-64130952D01*
X119416666Y-63940476D01*
X119464285Y-63845238D01*
X119559523Y-63750000D01*
X119702380Y-63702380D01*
X119797619Y-63702380D01*
X119940476Y-63750000D01*
X119988095Y-63797619D01*
X100511904Y-64654761D02*
X100654761Y-64702380D01*
X100892857Y-64702380D01*
X100988095Y-64654761D01*
X101035714Y-64607142D01*
X101083333Y-64511904D01*
X101083333Y-64416666D01*
X101035714Y-64321428D01*
X100988095Y-64273809D01*
X100892857Y-64226190D01*
X100702380Y-64178571D01*
X100607142Y-64130952D01*
X100559523Y-64083333D01*
X100511904Y-63988095D01*
X100511904Y-63892857D01*
X100559523Y-63797619D01*
X100607142Y-63750000D01*
X100702380Y-63702380D01*
X100940476Y-63702380D01*
X101083333Y-63750000D01*
X101511904Y-64178571D02*
X101845238Y-64178571D01*
X101988095Y-64702380D02*
X101511904Y-64702380D01*
X101511904Y-63702380D01*
X101988095Y-63702380D01*
X102988095Y-64607142D02*
X102940476Y-64654761D01*
X102797619Y-64702380D01*
X102702380Y-64702380D01*
X102559523Y-64654761D01*
X102464285Y-64559523D01*
X102416666Y-64464285D01*
X102369047Y-64273809D01*
X102369047Y-64130952D01*
X102416666Y-63940476D01*
X102464285Y-63845238D01*
X102559523Y-63750000D01*
X102702380Y-63702380D01*
X102797619Y-63702380D01*
X102940476Y-63750000D01*
X102988095Y-63797619D01*
X83750000Y-64702380D02*
X83750000Y-63702380D01*
X84130952Y-63702380D01*
X84226190Y-63750000D01*
X84273809Y-63797619D01*
X84321428Y-63892857D01*
X84321428Y-64035714D01*
X84273809Y-64130952D01*
X84226190Y-64178571D01*
X84130952Y-64226190D01*
X83750000Y-64226190D01*
X85321428Y-64702380D02*
X84988095Y-64226190D01*
X84750000Y-64702380D02*
X84750000Y-63702380D01*
X85130952Y-63702380D01*
X85226190Y-63750000D01*
X85273809Y-63797619D01*
X85321428Y-63892857D01*
X85321428Y-64035714D01*
X85273809Y-64130952D01*
X85226190Y-64178571D01*
X85130952Y-64226190D01*
X84750000Y-64226190D01*
X85750000Y-64702380D02*
X85750000Y-63702380D01*
G04 #@! TO.C,T2*
X118232380Y-81761904D02*
X118232380Y-81190476D01*
X119232380Y-81476190D02*
X118232380Y-81476190D01*
X118327619Y-80904761D02*
X118280000Y-80857142D01*
X118232380Y-80761904D01*
X118232380Y-80523809D01*
X118280000Y-80428571D01*
X118327619Y-80380952D01*
X118422857Y-80333333D01*
X118518095Y-80333333D01*
X118660952Y-80380952D01*
X119232380Y-80952380D01*
X119232380Y-80333333D01*
X89285714Y-74452380D02*
X88714285Y-74452380D01*
X89000000Y-74452380D02*
X89000000Y-73452380D01*
X88904761Y-73595238D01*
X88809523Y-73690476D01*
X88714285Y-73738095D01*
X100190476Y-74452380D02*
X100190476Y-73452380D01*
X100571428Y-73452380D01*
X100666666Y-73500000D01*
X100714285Y-73547619D01*
X100761904Y-73642857D01*
X100761904Y-73785714D01*
X100714285Y-73880952D01*
X100666666Y-73928571D01*
X100571428Y-73976190D01*
X100190476Y-73976190D01*
X101190476Y-74452380D02*
X101190476Y-73785714D01*
X101190476Y-73976190D02*
X101238095Y-73880952D01*
X101285714Y-73833333D01*
X101380952Y-73785714D01*
X101476190Y-73785714D01*
X101809523Y-74452380D02*
X101809523Y-73785714D01*
X101809523Y-73452380D02*
X101761904Y-73500000D01*
X101809523Y-73547619D01*
X101857142Y-73500000D01*
X101809523Y-73452380D01*
X101809523Y-73547619D01*
X99857142Y-88404761D02*
X100000000Y-88452380D01*
X100238095Y-88452380D01*
X100333333Y-88404761D01*
X100380952Y-88357142D01*
X100428571Y-88261904D01*
X100428571Y-88166666D01*
X100380952Y-88071428D01*
X100333333Y-88023809D01*
X100238095Y-87976190D01*
X100047619Y-87928571D01*
X99952380Y-87880952D01*
X99904761Y-87833333D01*
X99857142Y-87738095D01*
X99857142Y-87642857D01*
X99904761Y-87547619D01*
X99952380Y-87500000D01*
X100047619Y-87452380D01*
X100285714Y-87452380D01*
X100428571Y-87500000D01*
X101238095Y-88404761D02*
X101142857Y-88452380D01*
X100952380Y-88452380D01*
X100857142Y-88404761D01*
X100809523Y-88309523D01*
X100809523Y-87928571D01*
X100857142Y-87833333D01*
X100952380Y-87785714D01*
X101142857Y-87785714D01*
X101238095Y-87833333D01*
X101285714Y-87928571D01*
X101285714Y-88023809D01*
X100809523Y-88119047D01*
X102142857Y-88404761D02*
X102047619Y-88452380D01*
X101857142Y-88452380D01*
X101761904Y-88404761D01*
X101714285Y-88357142D01*
X101666666Y-88261904D01*
X101666666Y-87976190D01*
X101714285Y-87880952D01*
X101761904Y-87833333D01*
X101857142Y-87785714D01*
X102047619Y-87785714D01*
X102142857Y-87833333D01*
G04 #@! TO.C,U1*
X127048095Y-78122380D02*
X127048095Y-78931904D01*
X127095714Y-79027142D01*
X127143333Y-79074761D01*
X127238571Y-79122380D01*
X127429047Y-79122380D01*
X127524285Y-79074761D01*
X127571904Y-79027142D01*
X127619523Y-78931904D01*
X127619523Y-78122380D01*
X128619523Y-79122380D02*
X128048095Y-79122380D01*
X128333809Y-79122380D02*
X128333809Y-78122380D01*
X128238571Y-78265238D01*
X128143333Y-78360476D01*
X128048095Y-78408095D01*
G04 #@! TO.C,U2*
X151048095Y-78122380D02*
X151048095Y-78931904D01*
X151095714Y-79027142D01*
X151143333Y-79074761D01*
X151238571Y-79122380D01*
X151429047Y-79122380D01*
X151524285Y-79074761D01*
X151571904Y-79027142D01*
X151619523Y-78931904D01*
X151619523Y-78122380D01*
X152048095Y-78217619D02*
X152095714Y-78170000D01*
X152190952Y-78122380D01*
X152429047Y-78122380D01*
X152524285Y-78170000D01*
X152571904Y-78217619D01*
X152619523Y-78312857D01*
X152619523Y-78408095D01*
X152571904Y-78550952D01*
X152000476Y-79122380D01*
X152619523Y-79122380D01*
G04 #@! TO.C,U3*
X70182380Y-132221904D02*
X70991904Y-132221904D01*
X71087142Y-132174285D01*
X71134761Y-132126666D01*
X71182380Y-132031428D01*
X71182380Y-131840952D01*
X71134761Y-131745714D01*
X71087142Y-131698095D01*
X70991904Y-131650476D01*
X70182380Y-131650476D01*
X70182380Y-131269523D02*
X70182380Y-130650476D01*
X70563333Y-130983809D01*
X70563333Y-130840952D01*
X70610952Y-130745714D01*
X70658571Y-130698095D01*
X70753809Y-130650476D01*
X70991904Y-130650476D01*
X71087142Y-130698095D01*
X71134761Y-130745714D01*
X71182380Y-130840952D01*
X71182380Y-131126666D01*
X71134761Y-131221904D01*
X71087142Y-131269523D01*
G04 #@! TO.C,U5*
X139048095Y-78122380D02*
X139048095Y-78931904D01*
X139095714Y-79027142D01*
X139143333Y-79074761D01*
X139238571Y-79122380D01*
X139429047Y-79122380D01*
X139524285Y-79074761D01*
X139571904Y-79027142D01*
X139619523Y-78931904D01*
X139619523Y-78122380D01*
X140571904Y-78122380D02*
X140095714Y-78122380D01*
X140048095Y-78598571D01*
X140095714Y-78550952D01*
X140190952Y-78503333D01*
X140429047Y-78503333D01*
X140524285Y-78550952D01*
X140571904Y-78598571D01*
X140619523Y-78693809D01*
X140619523Y-78931904D01*
X140571904Y-79027142D01*
X140524285Y-79074761D01*
X140429047Y-79122380D01*
X140190952Y-79122380D01*
X140095714Y-79074761D01*
X140048095Y-79027142D01*
G04 #@! TO.C,J2*
X126818380Y-119159333D02*
X127532666Y-119159333D01*
X127675523Y-119206952D01*
X127770761Y-119302190D01*
X127818380Y-119445047D01*
X127818380Y-119540285D01*
X126913619Y-118730761D02*
X126866000Y-118683142D01*
X126818380Y-118587904D01*
X126818380Y-118349809D01*
X126866000Y-118254571D01*
X126913619Y-118206952D01*
X127008857Y-118159333D01*
X127104095Y-118159333D01*
X127246952Y-118206952D01*
X127818380Y-118778380D01*
X127818380Y-118159333D01*
G04 #@! TO.C,J3*
X158818380Y-119159333D02*
X159532666Y-119159333D01*
X159675523Y-119206952D01*
X159770761Y-119302190D01*
X159818380Y-119445047D01*
X159818380Y-119540285D01*
X158818380Y-118778380D02*
X158818380Y-118159333D01*
X159199333Y-118492666D01*
X159199333Y-118349809D01*
X159246952Y-118254571D01*
X159294571Y-118206952D01*
X159389809Y-118159333D01*
X159627904Y-118159333D01*
X159723142Y-118206952D01*
X159770761Y-118254571D01*
X159818380Y-118349809D01*
X159818380Y-118635523D01*
X159770761Y-118730761D01*
X159723142Y-118778380D01*
G04 #@! TO.C,J4*
X142818380Y-119159333D02*
X143532666Y-119159333D01*
X143675523Y-119206952D01*
X143770761Y-119302190D01*
X143818380Y-119445047D01*
X143818380Y-119540285D01*
X143151714Y-118254571D02*
X143818380Y-118254571D01*
X142770761Y-118492666D02*
X143485047Y-118730761D01*
X143485047Y-118111714D01*
G04 #@! TO.C,R5*
X125833333Y-146452380D02*
X125500000Y-145976190D01*
X125261904Y-146452380D02*
X125261904Y-145452380D01*
X125642857Y-145452380D01*
X125738095Y-145500000D01*
X125785714Y-145547619D01*
X125833333Y-145642857D01*
X125833333Y-145785714D01*
X125785714Y-145880952D01*
X125738095Y-145928571D01*
X125642857Y-145976190D01*
X125261904Y-145976190D01*
X126738095Y-145452380D02*
X126261904Y-145452380D01*
X126214285Y-145928571D01*
X126261904Y-145880952D01*
X126357142Y-145833333D01*
X126595238Y-145833333D01*
X126690476Y-145880952D01*
X126738095Y-145928571D01*
X126785714Y-146023809D01*
X126785714Y-146261904D01*
X126738095Y-146357142D01*
X126690476Y-146404761D01*
X126595238Y-146452380D01*
X126357142Y-146452380D01*
X126261904Y-146404761D01*
X126214285Y-146357142D01*
G04 #@! TO.C,R6*
X125833333Y-141452380D02*
X125500000Y-140976190D01*
X125261904Y-141452380D02*
X125261904Y-140452380D01*
X125642857Y-140452380D01*
X125738095Y-140500000D01*
X125785714Y-140547619D01*
X125833333Y-140642857D01*
X125833333Y-140785714D01*
X125785714Y-140880952D01*
X125738095Y-140928571D01*
X125642857Y-140976190D01*
X125261904Y-140976190D01*
X126690476Y-140452380D02*
X126500000Y-140452380D01*
X126404761Y-140500000D01*
X126357142Y-140547619D01*
X126261904Y-140690476D01*
X126214285Y-140880952D01*
X126214285Y-141261904D01*
X126261904Y-141357142D01*
X126309523Y-141404761D01*
X126404761Y-141452380D01*
X126595238Y-141452380D01*
X126690476Y-141404761D01*
X126738095Y-141357142D01*
X126785714Y-141261904D01*
X126785714Y-141023809D01*
X126738095Y-140928571D01*
X126690476Y-140880952D01*
X126595238Y-140833333D01*
X126404761Y-140833333D01*
X126309523Y-140880952D01*
X126261904Y-140928571D01*
X126214285Y-141023809D01*
G04 #@! TO.C,R8*
X87532380Y-128706666D02*
X87056190Y-129040000D01*
X87532380Y-129278095D02*
X86532380Y-129278095D01*
X86532380Y-128897142D01*
X86580000Y-128801904D01*
X86627619Y-128754285D01*
X86722857Y-128706666D01*
X86865714Y-128706666D01*
X86960952Y-128754285D01*
X87008571Y-128801904D01*
X87056190Y-128897142D01*
X87056190Y-129278095D01*
X86960952Y-128135238D02*
X86913333Y-128230476D01*
X86865714Y-128278095D01*
X86770476Y-128325714D01*
X86722857Y-128325714D01*
X86627619Y-128278095D01*
X86580000Y-128230476D01*
X86532380Y-128135238D01*
X86532380Y-127944761D01*
X86580000Y-127849523D01*
X86627619Y-127801904D01*
X86722857Y-127754285D01*
X86770476Y-127754285D01*
X86865714Y-127801904D01*
X86913333Y-127849523D01*
X86960952Y-127944761D01*
X86960952Y-128135238D01*
X87008571Y-128230476D01*
X87056190Y-128278095D01*
X87151428Y-128325714D01*
X87341904Y-128325714D01*
X87437142Y-128278095D01*
X87484761Y-128230476D01*
X87532380Y-128135238D01*
X87532380Y-127944761D01*
X87484761Y-127849523D01*
X87437142Y-127801904D01*
X87341904Y-127754285D01*
X87151428Y-127754285D01*
X87056190Y-127801904D01*
X87008571Y-127849523D01*
X86960952Y-127944761D01*
G04 #@! TO.C,R10*
X93532380Y-129182857D02*
X93056190Y-129516190D01*
X93532380Y-129754285D02*
X92532380Y-129754285D01*
X92532380Y-129373333D01*
X92580000Y-129278095D01*
X92627619Y-129230476D01*
X92722857Y-129182857D01*
X92865714Y-129182857D01*
X92960952Y-129230476D01*
X93008571Y-129278095D01*
X93056190Y-129373333D01*
X93056190Y-129754285D01*
X93532380Y-128230476D02*
X93532380Y-128801904D01*
X93532380Y-128516190D02*
X92532380Y-128516190D01*
X92675238Y-128611428D01*
X92770476Y-128706666D01*
X92818095Y-128801904D01*
X92532380Y-127611428D02*
X92532380Y-127516190D01*
X92580000Y-127420952D01*
X92627619Y-127373333D01*
X92722857Y-127325714D01*
X92913333Y-127278095D01*
X93151428Y-127278095D01*
X93341904Y-127325714D01*
X93437142Y-127373333D01*
X93484761Y-127420952D01*
X93532380Y-127516190D01*
X93532380Y-127611428D01*
X93484761Y-127706666D01*
X93437142Y-127754285D01*
X93341904Y-127801904D01*
X93151428Y-127849523D01*
X92913333Y-127849523D01*
X92722857Y-127801904D01*
X92627619Y-127754285D01*
X92580000Y-127706666D01*
X92532380Y-127611428D01*
G04 #@! TO.C,R11*
X99532380Y-129182857D02*
X99056190Y-129516190D01*
X99532380Y-129754285D02*
X98532380Y-129754285D01*
X98532380Y-129373333D01*
X98580000Y-129278095D01*
X98627619Y-129230476D01*
X98722857Y-129182857D01*
X98865714Y-129182857D01*
X98960952Y-129230476D01*
X99008571Y-129278095D01*
X99056190Y-129373333D01*
X99056190Y-129754285D01*
X99532380Y-128230476D02*
X99532380Y-128801904D01*
X99532380Y-128516190D02*
X98532380Y-128516190D01*
X98675238Y-128611428D01*
X98770476Y-128706666D01*
X98818095Y-128801904D01*
X99532380Y-127278095D02*
X99532380Y-127849523D01*
X99532380Y-127563809D02*
X98532380Y-127563809D01*
X98675238Y-127659047D01*
X98770476Y-127754285D01*
X98818095Y-127849523D01*
G04 #@! TO.C,R12*
X112357142Y-117452380D02*
X112023809Y-116976190D01*
X111785714Y-117452380D02*
X111785714Y-116452380D01*
X112166666Y-116452380D01*
X112261904Y-116500000D01*
X112309523Y-116547619D01*
X112357142Y-116642857D01*
X112357142Y-116785714D01*
X112309523Y-116880952D01*
X112261904Y-116928571D01*
X112166666Y-116976190D01*
X111785714Y-116976190D01*
X113309523Y-117452380D02*
X112738095Y-117452380D01*
X113023809Y-117452380D02*
X113023809Y-116452380D01*
X112928571Y-116595238D01*
X112833333Y-116690476D01*
X112738095Y-116738095D01*
X113690476Y-116547619D02*
X113738095Y-116500000D01*
X113833333Y-116452380D01*
X114071428Y-116452380D01*
X114166666Y-116500000D01*
X114214285Y-116547619D01*
X114261904Y-116642857D01*
X114261904Y-116738095D01*
X114214285Y-116880952D01*
X113642857Y-117452380D01*
X114261904Y-117452380D01*
G04 #@! TD*
M02*
