G04 #@! TF.GenerationSoftware,KiCad,Pcbnew,5.0.1*
G04 #@! TF.CreationDate,2019-02-04T16:52:00+01:00*
G04 #@! TF.ProjectId,splitflap-berlin,73706C6974666C61702D6265726C696E,rev?*
G04 #@! TF.SameCoordinates,Original*
G04 #@! TF.FileFunction,Soldermask,Top*
G04 #@! TF.FilePolarity,Negative*
%FSLAX46Y46*%
G04 Gerber Fmt 4.6, Leading zero omitted, Abs format (unit mm)*
G04 Created by KiCad (PCBNEW 5.0.1) date Mo 04 Feb 2019 16:52:00 CET*
%MOMM*%
%LPD*%
G01*
G04 APERTURE LIST*
%ADD10C,0.100000*%
G04 APERTURE END LIST*
D10*
G36*
X144485239Y-144767101D02*
X144721053Y-144838634D01*
X144938381Y-144954799D01*
X145128871Y-145111129D01*
X145285201Y-145301619D01*
X145401366Y-145518947D01*
X145472899Y-145754761D01*
X145497053Y-146000000D01*
X145472899Y-146245239D01*
X145401366Y-146481053D01*
X145285201Y-146698381D01*
X145128871Y-146888871D01*
X144938381Y-147045201D01*
X144721053Y-147161366D01*
X144485239Y-147232899D01*
X144301457Y-147251000D01*
X144178543Y-147251000D01*
X143994761Y-147232899D01*
X143758947Y-147161366D01*
X143541619Y-147045201D01*
X143351129Y-146888871D01*
X143194799Y-146698381D01*
X143078634Y-146481053D01*
X143007101Y-146245239D01*
X142982947Y-146000000D01*
X143007101Y-145754761D01*
X143078634Y-145518947D01*
X143194799Y-145301619D01*
X143351129Y-145111129D01*
X143541619Y-144954799D01*
X143758947Y-144838634D01*
X143994761Y-144767101D01*
X144178543Y-144749000D01*
X144301457Y-144749000D01*
X144485239Y-144767101D01*
X144485239Y-144767101D01*
G37*
G36*
X129183636Y-144761019D02*
X129364903Y-144797075D01*
X129592571Y-144891378D01*
X129687488Y-144954800D01*
X129797469Y-145028287D01*
X129971713Y-145202531D01*
X129971715Y-145202534D01*
X130108622Y-145407429D01*
X130202925Y-145635097D01*
X130251000Y-145876787D01*
X130251000Y-146123213D01*
X130202925Y-146364903D01*
X130108622Y-146592571D01*
X130037921Y-146698382D01*
X129971713Y-146797469D01*
X129797469Y-146971713D01*
X129797466Y-146971715D01*
X129592571Y-147108622D01*
X129364903Y-147202925D01*
X129214213Y-147232899D01*
X129123214Y-147251000D01*
X128876786Y-147251000D01*
X128785787Y-147232899D01*
X128635097Y-147202925D01*
X128407429Y-147108622D01*
X128202534Y-146971715D01*
X128202531Y-146971713D01*
X128028287Y-146797469D01*
X127962079Y-146698382D01*
X127891378Y-146592571D01*
X127797075Y-146364903D01*
X127749000Y-146123213D01*
X127749000Y-145876787D01*
X127797075Y-145635097D01*
X127891378Y-145407429D01*
X128028285Y-145202534D01*
X128028287Y-145202531D01*
X128202531Y-145028287D01*
X128312512Y-144954800D01*
X128407429Y-144891378D01*
X128635097Y-144797075D01*
X128816364Y-144761019D01*
X128876786Y-144749000D01*
X129123214Y-144749000D01*
X129183636Y-144761019D01*
X129183636Y-144761019D01*
G37*
G36*
X116110442Y-144645518D02*
X116176627Y-144652037D01*
X116289853Y-144686384D01*
X116346467Y-144703557D01*
X116465348Y-144767101D01*
X116502991Y-144787222D01*
X116538729Y-144816552D01*
X116640186Y-144899814D01*
X116723448Y-145001271D01*
X116752778Y-145037009D01*
X116752779Y-145037011D01*
X116836443Y-145193533D01*
X116836443Y-145193534D01*
X116887963Y-145363373D01*
X116905359Y-145540000D01*
X116887963Y-145716627D01*
X116876395Y-145754761D01*
X116836443Y-145886467D01*
X116775757Y-146000000D01*
X116752778Y-146042991D01*
X116723448Y-146078729D01*
X116640186Y-146180186D01*
X116538729Y-146263448D01*
X116502991Y-146292778D01*
X116502989Y-146292779D01*
X116346467Y-146376443D01*
X116289853Y-146393616D01*
X116176627Y-146427963D01*
X116110442Y-146434482D01*
X116044260Y-146441000D01*
X115955740Y-146441000D01*
X115889558Y-146434482D01*
X115823373Y-146427963D01*
X115710147Y-146393616D01*
X115653533Y-146376443D01*
X115497011Y-146292779D01*
X115497009Y-146292778D01*
X115461271Y-146263448D01*
X115359814Y-146180186D01*
X115276552Y-146078729D01*
X115247222Y-146042991D01*
X115224243Y-146000000D01*
X115163557Y-145886467D01*
X115123605Y-145754761D01*
X115112037Y-145716627D01*
X115094641Y-145540000D01*
X115112037Y-145363373D01*
X115163557Y-145193534D01*
X115163557Y-145193533D01*
X115247221Y-145037011D01*
X115247222Y-145037009D01*
X115276552Y-145001271D01*
X115359814Y-144899814D01*
X115461271Y-144816552D01*
X115497009Y-144787222D01*
X115534652Y-144767101D01*
X115653533Y-144703557D01*
X115710147Y-144686384D01*
X115823373Y-144652037D01*
X115889558Y-144645518D01*
X115955740Y-144639000D01*
X116044260Y-144639000D01*
X116110442Y-144645518D01*
X116110442Y-144645518D01*
G37*
G36*
X122110442Y-144645518D02*
X122176627Y-144652037D01*
X122289853Y-144686384D01*
X122346467Y-144703557D01*
X122465348Y-144767101D01*
X122502991Y-144787222D01*
X122538729Y-144816552D01*
X122640186Y-144899814D01*
X122723448Y-145001271D01*
X122752778Y-145037009D01*
X122752779Y-145037011D01*
X122836443Y-145193533D01*
X122836443Y-145193534D01*
X122887963Y-145363373D01*
X122905359Y-145540000D01*
X122887963Y-145716627D01*
X122876395Y-145754761D01*
X122836443Y-145886467D01*
X122775757Y-146000000D01*
X122752778Y-146042991D01*
X122723448Y-146078729D01*
X122640186Y-146180186D01*
X122538729Y-146263448D01*
X122502991Y-146292778D01*
X122502989Y-146292779D01*
X122346467Y-146376443D01*
X122289853Y-146393616D01*
X122176627Y-146427963D01*
X122110442Y-146434482D01*
X122044260Y-146441000D01*
X121955740Y-146441000D01*
X121889558Y-146434482D01*
X121823373Y-146427963D01*
X121710147Y-146393616D01*
X121653533Y-146376443D01*
X121497011Y-146292779D01*
X121497009Y-146292778D01*
X121461271Y-146263448D01*
X121359814Y-146180186D01*
X121276552Y-146078729D01*
X121247222Y-146042991D01*
X121224243Y-146000000D01*
X121163557Y-145886467D01*
X121123605Y-145754761D01*
X121112037Y-145716627D01*
X121094641Y-145540000D01*
X121112037Y-145363373D01*
X121163557Y-145193534D01*
X121163557Y-145193533D01*
X121247221Y-145037011D01*
X121247222Y-145037009D01*
X121276552Y-145001271D01*
X121359814Y-144899814D01*
X121461271Y-144816552D01*
X121497009Y-144787222D01*
X121534652Y-144767101D01*
X121653533Y-144703557D01*
X121710147Y-144686384D01*
X121823373Y-144652037D01*
X121889558Y-144645518D01*
X121955740Y-144639000D01*
X122044260Y-144639000D01*
X122110442Y-144645518D01*
X122110442Y-144645518D01*
G37*
G36*
X66642006Y-141883582D02*
X67042565Y-142049499D01*
X67403059Y-142290373D01*
X67709627Y-142596941D01*
X67950501Y-142957435D01*
X68116418Y-143357994D01*
X68201000Y-143783219D01*
X68201000Y-144216781D01*
X68116418Y-144642006D01*
X67950501Y-145042565D01*
X67709627Y-145403059D01*
X67403059Y-145709627D01*
X67042565Y-145950501D01*
X66642006Y-146116418D01*
X66216781Y-146201000D01*
X65783219Y-146201000D01*
X65357994Y-146116418D01*
X64957435Y-145950501D01*
X64596941Y-145709627D01*
X64290373Y-145403059D01*
X64049499Y-145042565D01*
X63883582Y-144642006D01*
X63799000Y-144216781D01*
X63799000Y-143783219D01*
X63883582Y-143357994D01*
X64049499Y-142957435D01*
X64290373Y-142596941D01*
X64596941Y-142290373D01*
X64957435Y-142049499D01*
X65357994Y-141883582D01*
X65783219Y-141799000D01*
X66216781Y-141799000D01*
X66642006Y-141883582D01*
X66642006Y-141883582D01*
G37*
G36*
X154642006Y-141883582D02*
X155042565Y-142049499D01*
X155403059Y-142290373D01*
X155709627Y-142596941D01*
X155950501Y-142957435D01*
X156116418Y-143357994D01*
X156201000Y-143783219D01*
X156201000Y-144216781D01*
X156116418Y-144642006D01*
X155950501Y-145042565D01*
X155709627Y-145403059D01*
X155403059Y-145709627D01*
X155042565Y-145950501D01*
X154642006Y-146116418D01*
X154216781Y-146201000D01*
X153783219Y-146201000D01*
X153357994Y-146116418D01*
X152957435Y-145950501D01*
X152596941Y-145709627D01*
X152290373Y-145403059D01*
X152049499Y-145042565D01*
X151883582Y-144642006D01*
X151799000Y-144216781D01*
X151799000Y-143783219D01*
X151883582Y-143357994D01*
X152049499Y-142957435D01*
X152290373Y-142596941D01*
X152596941Y-142290373D01*
X152957435Y-142049499D01*
X153357994Y-141883582D01*
X153783219Y-141799000D01*
X154216781Y-141799000D01*
X154642006Y-141883582D01*
X154642006Y-141883582D01*
G37*
G36*
X76189890Y-143374017D02*
X76308361Y-143423089D01*
X76414992Y-143494338D01*
X76505662Y-143585008D01*
X76576911Y-143691639D01*
X76625983Y-143810110D01*
X76651000Y-143935881D01*
X76651000Y-144064119D01*
X76625983Y-144189890D01*
X76576911Y-144308361D01*
X76505662Y-144414992D01*
X76414992Y-144505662D01*
X76308361Y-144576911D01*
X76189890Y-144625983D01*
X76064119Y-144651000D01*
X75935881Y-144651000D01*
X75810110Y-144625983D01*
X75691639Y-144576911D01*
X75585008Y-144505662D01*
X75494338Y-144414992D01*
X75423089Y-144308361D01*
X75374017Y-144189890D01*
X75349000Y-144064119D01*
X75349000Y-143935881D01*
X75374017Y-143810110D01*
X75423089Y-143691639D01*
X75494338Y-143585008D01*
X75585008Y-143494338D01*
X75691639Y-143423089D01*
X75810110Y-143374017D01*
X75935881Y-143349000D01*
X76064119Y-143349000D01*
X76189890Y-143374017D01*
X76189890Y-143374017D01*
G37*
G36*
X122901000Y-143901000D02*
X121099000Y-143901000D01*
X121099000Y-142099000D01*
X122901000Y-142099000D01*
X122901000Y-143901000D01*
X122901000Y-143901000D01*
G37*
G36*
X116901000Y-143901000D02*
X115099000Y-143901000D01*
X115099000Y-142099000D01*
X116901000Y-142099000D01*
X116901000Y-143901000D01*
X116901000Y-143901000D01*
G37*
G36*
X83262812Y-141733624D02*
X83426784Y-141801544D01*
X83574354Y-141900147D01*
X83699853Y-142025646D01*
X83798456Y-142173216D01*
X83866376Y-142337188D01*
X83901000Y-142511259D01*
X83901000Y-142688741D01*
X83866376Y-142862812D01*
X83798456Y-143026784D01*
X83699853Y-143174354D01*
X83574354Y-143299853D01*
X83426784Y-143398456D01*
X83262812Y-143466376D01*
X83088741Y-143501000D01*
X82911259Y-143501000D01*
X82737188Y-143466376D01*
X82573216Y-143398456D01*
X82425646Y-143299853D01*
X82300147Y-143174354D01*
X82201544Y-143026784D01*
X82133624Y-142862812D01*
X82099000Y-142688741D01*
X82099000Y-142511259D01*
X82133624Y-142337188D01*
X82201544Y-142173216D01*
X82300147Y-142025646D01*
X82425646Y-141900147D01*
X82573216Y-141801544D01*
X82737188Y-141733624D01*
X82911259Y-141699000D01*
X83088741Y-141699000D01*
X83262812Y-141733624D01*
X83262812Y-141733624D01*
G37*
G36*
X108662812Y-141733624D02*
X108826784Y-141801544D01*
X108974354Y-141900147D01*
X109099853Y-142025646D01*
X109198456Y-142173216D01*
X109266376Y-142337188D01*
X109301000Y-142511259D01*
X109301000Y-142688741D01*
X109266376Y-142862812D01*
X109198456Y-143026784D01*
X109099853Y-143174354D01*
X108974354Y-143299853D01*
X108826784Y-143398456D01*
X108662812Y-143466376D01*
X108488741Y-143501000D01*
X108311259Y-143501000D01*
X108137188Y-143466376D01*
X107973216Y-143398456D01*
X107825646Y-143299853D01*
X107700147Y-143174354D01*
X107601544Y-143026784D01*
X107533624Y-142862812D01*
X107499000Y-142688741D01*
X107499000Y-142511259D01*
X107533624Y-142337188D01*
X107601544Y-142173216D01*
X107700147Y-142025646D01*
X107825646Y-141900147D01*
X107973216Y-141801544D01*
X108137188Y-141733624D01*
X108311259Y-141699000D01*
X108488741Y-141699000D01*
X108662812Y-141733624D01*
X108662812Y-141733624D01*
G37*
G36*
X76651000Y-142651000D02*
X75349000Y-142651000D01*
X75349000Y-141349000D01*
X76651000Y-141349000D01*
X76651000Y-142651000D01*
X76651000Y-142651000D01*
G37*
G36*
X129183635Y-139761019D02*
X129364903Y-139797075D01*
X129592571Y-139891378D01*
X129796542Y-140027668D01*
X129797469Y-140028287D01*
X129971713Y-140202531D01*
X129971715Y-140202534D01*
X130108622Y-140407429D01*
X130202925Y-140635097D01*
X130251000Y-140876787D01*
X130251000Y-141123213D01*
X130202925Y-141364903D01*
X130108622Y-141592571D01*
X130037921Y-141698382D01*
X129971713Y-141797469D01*
X129797469Y-141971713D01*
X129797466Y-141971715D01*
X129592571Y-142108622D01*
X129364903Y-142202925D01*
X129214213Y-142232899D01*
X129123214Y-142251000D01*
X128876786Y-142251000D01*
X128785787Y-142232899D01*
X128635097Y-142202925D01*
X128407429Y-142108622D01*
X128202534Y-141971715D01*
X128202531Y-141971713D01*
X128028287Y-141797469D01*
X127962079Y-141698382D01*
X127891378Y-141592571D01*
X127797075Y-141364903D01*
X127749000Y-141123213D01*
X127749000Y-140876787D01*
X127797075Y-140635097D01*
X127891378Y-140407429D01*
X128028285Y-140202534D01*
X128028287Y-140202531D01*
X128202531Y-140028287D01*
X128203458Y-140027668D01*
X128407429Y-139891378D01*
X128635097Y-139797075D01*
X128816365Y-139761019D01*
X128876786Y-139749000D01*
X129123214Y-139749000D01*
X129183635Y-139761019D01*
X129183635Y-139761019D01*
G37*
G36*
X144485239Y-139767101D02*
X144721053Y-139838634D01*
X144938381Y-139954799D01*
X145128871Y-140111129D01*
X145285201Y-140301619D01*
X145401366Y-140518947D01*
X145472899Y-140754761D01*
X145497053Y-141000000D01*
X145472899Y-141245239D01*
X145401366Y-141481053D01*
X145285201Y-141698381D01*
X145128871Y-141888871D01*
X144938381Y-142045201D01*
X144721053Y-142161366D01*
X144485239Y-142232899D01*
X144301457Y-142251000D01*
X144178543Y-142251000D01*
X143994761Y-142232899D01*
X143758947Y-142161366D01*
X143541619Y-142045201D01*
X143351129Y-141888871D01*
X143194799Y-141698381D01*
X143078634Y-141481053D01*
X143007101Y-141245239D01*
X142982947Y-141000000D01*
X143007101Y-140754761D01*
X143078634Y-140518947D01*
X143194799Y-140301619D01*
X143351129Y-140111129D01*
X143541619Y-139954799D01*
X143758947Y-139838634D01*
X143994761Y-139767101D01*
X144178543Y-139749000D01*
X144301457Y-139749000D01*
X144485239Y-139767101D01*
X144485239Y-139767101D01*
G37*
G36*
X83262812Y-139193624D02*
X83426784Y-139261544D01*
X83574354Y-139360147D01*
X83699853Y-139485646D01*
X83798456Y-139633216D01*
X83866376Y-139797188D01*
X83901000Y-139971259D01*
X83901000Y-140148741D01*
X83866376Y-140322812D01*
X83798456Y-140486784D01*
X83699853Y-140634354D01*
X83574354Y-140759853D01*
X83426784Y-140858456D01*
X83262812Y-140926376D01*
X83088741Y-140961000D01*
X82911259Y-140961000D01*
X82737188Y-140926376D01*
X82573216Y-140858456D01*
X82425646Y-140759853D01*
X82300147Y-140634354D01*
X82201544Y-140486784D01*
X82133624Y-140322812D01*
X82099000Y-140148741D01*
X82099000Y-139971259D01*
X82133624Y-139797188D01*
X82201544Y-139633216D01*
X82300147Y-139485646D01*
X82425646Y-139360147D01*
X82573216Y-139261544D01*
X82737188Y-139193624D01*
X82911259Y-139159000D01*
X83088741Y-139159000D01*
X83262812Y-139193624D01*
X83262812Y-139193624D01*
G37*
G36*
X108662812Y-139193624D02*
X108826784Y-139261544D01*
X108974354Y-139360147D01*
X109099853Y-139485646D01*
X109198456Y-139633216D01*
X109266376Y-139797188D01*
X109301000Y-139971259D01*
X109301000Y-140148741D01*
X109266376Y-140322812D01*
X109198456Y-140486784D01*
X109099853Y-140634354D01*
X108974354Y-140759853D01*
X108826784Y-140858456D01*
X108662812Y-140926376D01*
X108488741Y-140961000D01*
X108311259Y-140961000D01*
X108137188Y-140926376D01*
X107973216Y-140858456D01*
X107825646Y-140759853D01*
X107700147Y-140634354D01*
X107601544Y-140486784D01*
X107533624Y-140322812D01*
X107499000Y-140148741D01*
X107499000Y-139971259D01*
X107533624Y-139797188D01*
X107601544Y-139633216D01*
X107700147Y-139485646D01*
X107825646Y-139360147D01*
X107973216Y-139261544D01*
X108137188Y-139193624D01*
X108311259Y-139159000D01*
X108488741Y-139159000D01*
X108662812Y-139193624D01*
X108662812Y-139193624D01*
G37*
G36*
X108662812Y-136653624D02*
X108826784Y-136721544D01*
X108974354Y-136820147D01*
X109099853Y-136945646D01*
X109198456Y-137093216D01*
X109266376Y-137257188D01*
X109301000Y-137431259D01*
X109301000Y-137608741D01*
X109266376Y-137782812D01*
X109198456Y-137946784D01*
X109099853Y-138094354D01*
X108974354Y-138219853D01*
X108826784Y-138318456D01*
X108662812Y-138386376D01*
X108488741Y-138421000D01*
X108311259Y-138421000D01*
X108137188Y-138386376D01*
X107973216Y-138318456D01*
X107825646Y-138219853D01*
X107700147Y-138094354D01*
X107601544Y-137946784D01*
X107533624Y-137782812D01*
X107499000Y-137608741D01*
X107499000Y-137431259D01*
X107533624Y-137257188D01*
X107601544Y-137093216D01*
X107700147Y-136945646D01*
X107825646Y-136820147D01*
X107973216Y-136721544D01*
X108137188Y-136653624D01*
X108311259Y-136619000D01*
X108488741Y-136619000D01*
X108662812Y-136653624D01*
X108662812Y-136653624D01*
G37*
G36*
X83262812Y-136653624D02*
X83426784Y-136721544D01*
X83574354Y-136820147D01*
X83699853Y-136945646D01*
X83798456Y-137093216D01*
X83866376Y-137257188D01*
X83901000Y-137431259D01*
X83901000Y-137608741D01*
X83866376Y-137782812D01*
X83798456Y-137946784D01*
X83699853Y-138094354D01*
X83574354Y-138219853D01*
X83426784Y-138318456D01*
X83262812Y-138386376D01*
X83088741Y-138421000D01*
X82911259Y-138421000D01*
X82737188Y-138386376D01*
X82573216Y-138318456D01*
X82425646Y-138219853D01*
X82300147Y-138094354D01*
X82201544Y-137946784D01*
X82133624Y-137782812D01*
X82099000Y-137608741D01*
X82099000Y-137431259D01*
X82133624Y-137257188D01*
X82201544Y-137093216D01*
X82300147Y-136945646D01*
X82425646Y-136820147D01*
X82573216Y-136721544D01*
X82737188Y-136653624D01*
X82911259Y-136619000D01*
X83088741Y-136619000D01*
X83262812Y-136653624D01*
X83262812Y-136653624D01*
G37*
G36*
X96183635Y-134921019D02*
X96364903Y-134957075D01*
X96592571Y-135051378D01*
X96796542Y-135187668D01*
X96797469Y-135188287D01*
X96971713Y-135362531D01*
X96971715Y-135362534D01*
X97108622Y-135567429D01*
X97202925Y-135795097D01*
X97251000Y-136036787D01*
X97251000Y-136283213D01*
X97202925Y-136524903D01*
X97108622Y-136752571D01*
X96979615Y-136945643D01*
X96971713Y-136957469D01*
X96797469Y-137131713D01*
X96797466Y-137131715D01*
X96592571Y-137268622D01*
X96364903Y-137362925D01*
X96183635Y-137398981D01*
X96123214Y-137411000D01*
X95876786Y-137411000D01*
X95816365Y-137398981D01*
X95635097Y-137362925D01*
X95407429Y-137268622D01*
X95202534Y-137131715D01*
X95202531Y-137131713D01*
X95028287Y-136957469D01*
X95020385Y-136945643D01*
X94891378Y-136752571D01*
X94797075Y-136524903D01*
X94749000Y-136283213D01*
X94749000Y-136036787D01*
X94797075Y-135795097D01*
X94891378Y-135567429D01*
X95028285Y-135362534D01*
X95028287Y-135362531D01*
X95202531Y-135188287D01*
X95203458Y-135187668D01*
X95407429Y-135051378D01*
X95635097Y-134957075D01*
X95816365Y-134921019D01*
X95876786Y-134909000D01*
X96123214Y-134909000D01*
X96183635Y-134921019D01*
X96183635Y-134921019D01*
G37*
G36*
X102183635Y-134921019D02*
X102364903Y-134957075D01*
X102592571Y-135051378D01*
X102796542Y-135187668D01*
X102797469Y-135188287D01*
X102971713Y-135362531D01*
X102971715Y-135362534D01*
X103108622Y-135567429D01*
X103202925Y-135795097D01*
X103251000Y-136036787D01*
X103251000Y-136283213D01*
X103202925Y-136524903D01*
X103108622Y-136752571D01*
X102979615Y-136945643D01*
X102971713Y-136957469D01*
X102797469Y-137131713D01*
X102797466Y-137131715D01*
X102592571Y-137268622D01*
X102364903Y-137362925D01*
X102183635Y-137398981D01*
X102123214Y-137411000D01*
X101876786Y-137411000D01*
X101816365Y-137398981D01*
X101635097Y-137362925D01*
X101407429Y-137268622D01*
X101202534Y-137131715D01*
X101202531Y-137131713D01*
X101028287Y-136957469D01*
X101020385Y-136945643D01*
X100891378Y-136752571D01*
X100797075Y-136524903D01*
X100749000Y-136283213D01*
X100749000Y-136036787D01*
X100797075Y-135795097D01*
X100891378Y-135567429D01*
X101028285Y-135362534D01*
X101028287Y-135362531D01*
X101202531Y-135188287D01*
X101203458Y-135187668D01*
X101407429Y-135051378D01*
X101635097Y-134957075D01*
X101816365Y-134921019D01*
X101876786Y-134909000D01*
X102123214Y-134909000D01*
X102183635Y-134921019D01*
X102183635Y-134921019D01*
G37*
G36*
X90183635Y-134921019D02*
X90364903Y-134957075D01*
X90592571Y-135051378D01*
X90796542Y-135187668D01*
X90797469Y-135188287D01*
X90971713Y-135362531D01*
X90971715Y-135362534D01*
X91108622Y-135567429D01*
X91202925Y-135795097D01*
X91251000Y-136036787D01*
X91251000Y-136283213D01*
X91202925Y-136524903D01*
X91108622Y-136752571D01*
X90979615Y-136945643D01*
X90971713Y-136957469D01*
X90797469Y-137131713D01*
X90797466Y-137131715D01*
X90592571Y-137268622D01*
X90364903Y-137362925D01*
X90183635Y-137398981D01*
X90123214Y-137411000D01*
X89876786Y-137411000D01*
X89816365Y-137398981D01*
X89635097Y-137362925D01*
X89407429Y-137268622D01*
X89202534Y-137131715D01*
X89202531Y-137131713D01*
X89028287Y-136957469D01*
X89020385Y-136945643D01*
X88891378Y-136752571D01*
X88797075Y-136524903D01*
X88749000Y-136283213D01*
X88749000Y-136036787D01*
X88797075Y-135795097D01*
X88891378Y-135567429D01*
X89028285Y-135362534D01*
X89028287Y-135362531D01*
X89202531Y-135188287D01*
X89203458Y-135187668D01*
X89407429Y-135051378D01*
X89635097Y-134957075D01*
X89816365Y-134921019D01*
X89876786Y-134909000D01*
X90123214Y-134909000D01*
X90183635Y-134921019D01*
X90183635Y-134921019D01*
G37*
G36*
X113183636Y-133761019D02*
X113364903Y-133797075D01*
X113592571Y-133891378D01*
X113796542Y-134027668D01*
X113797469Y-134028287D01*
X113971713Y-134202531D01*
X113971715Y-134202534D01*
X114108622Y-134407429D01*
X114202925Y-134635097D01*
X114251000Y-134876787D01*
X114251000Y-135123213D01*
X114202925Y-135364903D01*
X114108622Y-135592571D01*
X113984417Y-135778456D01*
X113971713Y-135797469D01*
X113797469Y-135971713D01*
X113797466Y-135971715D01*
X113592571Y-136108622D01*
X113364903Y-136202925D01*
X113183635Y-136238981D01*
X113123214Y-136251000D01*
X112876786Y-136251000D01*
X112816365Y-136238981D01*
X112635097Y-136202925D01*
X112407429Y-136108622D01*
X112202534Y-135971715D01*
X112202531Y-135971713D01*
X112028287Y-135797469D01*
X112015583Y-135778456D01*
X111891378Y-135592571D01*
X111797075Y-135364903D01*
X111749000Y-135123213D01*
X111749000Y-134876787D01*
X111797075Y-134635097D01*
X111891378Y-134407429D01*
X112028285Y-134202534D01*
X112028287Y-134202531D01*
X112202531Y-134028287D01*
X112203458Y-134027668D01*
X112407429Y-133891378D01*
X112635097Y-133797075D01*
X112816364Y-133761019D01*
X112876786Y-133749000D01*
X113123214Y-133749000D01*
X113183636Y-133761019D01*
X113183636Y-133761019D01*
G37*
G36*
X108662812Y-134113624D02*
X108826784Y-134181544D01*
X108974354Y-134280147D01*
X109099853Y-134405646D01*
X109198456Y-134553216D01*
X109266376Y-134717188D01*
X109301000Y-134891259D01*
X109301000Y-135068741D01*
X109266376Y-135242812D01*
X109198456Y-135406784D01*
X109099853Y-135554354D01*
X108974354Y-135679853D01*
X108826784Y-135778456D01*
X108662812Y-135846376D01*
X108488741Y-135881000D01*
X108311259Y-135881000D01*
X108137188Y-135846376D01*
X107973216Y-135778456D01*
X107825646Y-135679853D01*
X107700147Y-135554354D01*
X107601544Y-135406784D01*
X107533624Y-135242812D01*
X107499000Y-135068741D01*
X107499000Y-134891259D01*
X107533624Y-134717188D01*
X107601544Y-134553216D01*
X107700147Y-134405646D01*
X107825646Y-134280147D01*
X107973216Y-134181544D01*
X108137188Y-134113624D01*
X108311259Y-134079000D01*
X108488741Y-134079000D01*
X108662812Y-134113624D01*
X108662812Y-134113624D01*
G37*
G36*
X83262812Y-134113624D02*
X83426784Y-134181544D01*
X83574354Y-134280147D01*
X83699853Y-134405646D01*
X83798456Y-134553216D01*
X83866376Y-134717188D01*
X83901000Y-134891259D01*
X83901000Y-135068741D01*
X83866376Y-135242812D01*
X83798456Y-135406784D01*
X83699853Y-135554354D01*
X83574354Y-135679853D01*
X83426784Y-135778456D01*
X83262812Y-135846376D01*
X83088741Y-135881000D01*
X82911259Y-135881000D01*
X82737188Y-135846376D01*
X82573216Y-135778456D01*
X82425646Y-135679853D01*
X82300147Y-135554354D01*
X82201544Y-135406784D01*
X82133624Y-135242812D01*
X82099000Y-135068741D01*
X82099000Y-134891259D01*
X82133624Y-134717188D01*
X82201544Y-134553216D01*
X82300147Y-134405646D01*
X82425646Y-134280147D01*
X82573216Y-134181544D01*
X82737188Y-134113624D01*
X82911259Y-134079000D01*
X83088741Y-134079000D01*
X83262812Y-134113624D01*
X83262812Y-134113624D01*
G37*
G36*
X76051000Y-135003500D02*
X73949000Y-135003500D01*
X73949000Y-132996500D01*
X76051000Y-132996500D01*
X76051000Y-135003500D01*
X76051000Y-135003500D01*
G37*
G36*
X108662812Y-131573624D02*
X108826784Y-131641544D01*
X108974354Y-131740147D01*
X109099853Y-131865646D01*
X109198456Y-132013216D01*
X109266376Y-132177188D01*
X109301000Y-132351259D01*
X109301000Y-132528741D01*
X109266376Y-132702812D01*
X109198456Y-132866784D01*
X109099853Y-133014354D01*
X108974354Y-133139853D01*
X108826784Y-133238456D01*
X108662812Y-133306376D01*
X108488741Y-133341000D01*
X108311259Y-133341000D01*
X108137188Y-133306376D01*
X107973216Y-133238456D01*
X107825646Y-133139853D01*
X107700147Y-133014354D01*
X107601544Y-132866784D01*
X107533624Y-132702812D01*
X107499000Y-132528741D01*
X107499000Y-132351259D01*
X107533624Y-132177188D01*
X107601544Y-132013216D01*
X107700147Y-131865646D01*
X107825646Y-131740147D01*
X107973216Y-131641544D01*
X108137188Y-131573624D01*
X108311259Y-131539000D01*
X108488741Y-131539000D01*
X108662812Y-131573624D01*
X108662812Y-131573624D01*
G37*
G36*
X83262812Y-131573624D02*
X83426784Y-131641544D01*
X83574354Y-131740147D01*
X83699853Y-131865646D01*
X83798456Y-132013216D01*
X83866376Y-132177188D01*
X83901000Y-132351259D01*
X83901000Y-132528741D01*
X83866376Y-132702812D01*
X83798456Y-132866784D01*
X83699853Y-133014354D01*
X83574354Y-133139853D01*
X83426784Y-133238456D01*
X83262812Y-133306376D01*
X83088741Y-133341000D01*
X82911259Y-133341000D01*
X82737188Y-133306376D01*
X82573216Y-133238456D01*
X82425646Y-133139853D01*
X82300147Y-133014354D01*
X82201544Y-132866784D01*
X82133624Y-132702812D01*
X82099000Y-132528741D01*
X82099000Y-132351259D01*
X82133624Y-132177188D01*
X82201544Y-132013216D01*
X82300147Y-131865646D01*
X82425646Y-131740147D01*
X82573216Y-131641544D01*
X82737188Y-131573624D01*
X82911259Y-131539000D01*
X83088741Y-131539000D01*
X83262812Y-131573624D01*
X83262812Y-131573624D01*
G37*
G36*
X75155764Y-130462308D02*
X75244220Y-130471020D01*
X75433381Y-130528401D01*
X75607712Y-130621583D01*
X75760515Y-130746985D01*
X75885917Y-130899788D01*
X75979099Y-131074119D01*
X76036480Y-131263280D01*
X76055855Y-131460000D01*
X76036480Y-131656720D01*
X75979099Y-131845881D01*
X75885917Y-132020212D01*
X75760515Y-132173015D01*
X75607712Y-132298417D01*
X75433381Y-132391599D01*
X75244220Y-132448980D01*
X75155764Y-132457692D01*
X75096796Y-132463500D01*
X74903204Y-132463500D01*
X74844236Y-132457692D01*
X74755780Y-132448980D01*
X74566619Y-132391599D01*
X74392288Y-132298417D01*
X74239485Y-132173015D01*
X74114083Y-132020212D01*
X74020901Y-131845881D01*
X73963520Y-131656720D01*
X73944145Y-131460000D01*
X73963520Y-131263280D01*
X74020901Y-131074119D01*
X74114083Y-130899788D01*
X74239485Y-130746985D01*
X74392288Y-130621583D01*
X74566619Y-130528401D01*
X74755780Y-130471020D01*
X74844236Y-130462308D01*
X74903204Y-130456500D01*
X75096796Y-130456500D01*
X75155764Y-130462308D01*
X75155764Y-130462308D01*
G37*
G36*
X83262812Y-129033624D02*
X83426784Y-129101544D01*
X83574354Y-129200147D01*
X83699853Y-129325646D01*
X83798456Y-129473216D01*
X83866376Y-129637188D01*
X83901000Y-129811259D01*
X83901000Y-129988741D01*
X83866376Y-130162812D01*
X83798456Y-130326784D01*
X83699853Y-130474354D01*
X83574354Y-130599853D01*
X83426784Y-130698456D01*
X83262812Y-130766376D01*
X83088741Y-130801000D01*
X82911259Y-130801000D01*
X82737188Y-130766376D01*
X82573216Y-130698456D01*
X82425646Y-130599853D01*
X82300147Y-130474354D01*
X82201544Y-130326784D01*
X82133624Y-130162812D01*
X82099000Y-129988741D01*
X82099000Y-129811259D01*
X82133624Y-129637188D01*
X82201544Y-129473216D01*
X82300147Y-129325646D01*
X82425646Y-129200147D01*
X82573216Y-129101544D01*
X82737188Y-129033624D01*
X82911259Y-128999000D01*
X83088741Y-128999000D01*
X83262812Y-129033624D01*
X83262812Y-129033624D01*
G37*
G36*
X108662812Y-129033624D02*
X108826784Y-129101544D01*
X108974354Y-129200147D01*
X109099853Y-129325646D01*
X109198456Y-129473216D01*
X109266376Y-129637188D01*
X109301000Y-129811259D01*
X109301000Y-129988741D01*
X109266376Y-130162812D01*
X109198456Y-130326784D01*
X109099853Y-130474354D01*
X108974354Y-130599853D01*
X108826784Y-130698456D01*
X108662812Y-130766376D01*
X108488741Y-130801000D01*
X108311259Y-130801000D01*
X108137188Y-130766376D01*
X107973216Y-130698456D01*
X107825646Y-130599853D01*
X107700147Y-130474354D01*
X107601544Y-130326784D01*
X107533624Y-130162812D01*
X107499000Y-129988741D01*
X107499000Y-129811259D01*
X107533624Y-129637188D01*
X107601544Y-129473216D01*
X107700147Y-129325646D01*
X107825646Y-129200147D01*
X107973216Y-129101544D01*
X108137188Y-129033624D01*
X108311259Y-128999000D01*
X108488741Y-128999000D01*
X108662812Y-129033624D01*
X108662812Y-129033624D01*
G37*
G36*
X75155764Y-127922308D02*
X75244220Y-127931020D01*
X75433381Y-127988401D01*
X75607712Y-128081583D01*
X75760515Y-128206985D01*
X75885917Y-128359788D01*
X75979099Y-128534119D01*
X76036480Y-128723280D01*
X76055855Y-128920000D01*
X76036480Y-129116720D01*
X75979099Y-129305881D01*
X75885917Y-129480212D01*
X75760515Y-129633015D01*
X75607712Y-129758417D01*
X75433381Y-129851599D01*
X75244220Y-129908980D01*
X75155764Y-129917692D01*
X75096796Y-129923500D01*
X74903204Y-129923500D01*
X74844236Y-129917692D01*
X74755780Y-129908980D01*
X74566619Y-129851599D01*
X74392288Y-129758417D01*
X74239485Y-129633015D01*
X74114083Y-129480212D01*
X74020901Y-129305881D01*
X73963520Y-129116720D01*
X73944145Y-128920000D01*
X73963520Y-128723280D01*
X74020901Y-128534119D01*
X74114083Y-128359788D01*
X74239485Y-128206985D01*
X74392288Y-128081583D01*
X74566619Y-127988401D01*
X74755780Y-127931020D01*
X74844236Y-127922308D01*
X74903204Y-127916500D01*
X75096796Y-127916500D01*
X75155764Y-127922308D01*
X75155764Y-127922308D01*
G37*
G36*
X66748228Y-127181703D02*
X66903100Y-127245853D01*
X67042481Y-127338985D01*
X67161015Y-127457519D01*
X67254147Y-127596900D01*
X67318297Y-127751772D01*
X67351000Y-127916184D01*
X67351000Y-128083816D01*
X67318297Y-128248228D01*
X67254147Y-128403100D01*
X67161015Y-128542481D01*
X67042481Y-128661015D01*
X66903100Y-128754147D01*
X66748228Y-128818297D01*
X66583816Y-128851000D01*
X66416184Y-128851000D01*
X66251772Y-128818297D01*
X66096900Y-128754147D01*
X65957519Y-128661015D01*
X65838985Y-128542481D01*
X65745853Y-128403100D01*
X65681703Y-128248228D01*
X65649000Y-128083816D01*
X65649000Y-127916184D01*
X65681703Y-127751772D01*
X65745853Y-127596900D01*
X65838985Y-127457519D01*
X65957519Y-127338985D01*
X66096900Y-127245853D01*
X66251772Y-127181703D01*
X66416184Y-127149000D01*
X66583816Y-127149000D01*
X66748228Y-127181703D01*
X66748228Y-127181703D01*
G37*
G36*
X69248228Y-127181703D02*
X69403100Y-127245853D01*
X69542481Y-127338985D01*
X69661015Y-127457519D01*
X69754147Y-127596900D01*
X69818297Y-127751772D01*
X69851000Y-127916184D01*
X69851000Y-128083816D01*
X69818297Y-128248228D01*
X69754147Y-128403100D01*
X69661015Y-128542481D01*
X69542481Y-128661015D01*
X69403100Y-128754147D01*
X69248228Y-128818297D01*
X69083816Y-128851000D01*
X68916184Y-128851000D01*
X68751772Y-128818297D01*
X68596900Y-128754147D01*
X68457519Y-128661015D01*
X68338985Y-128542481D01*
X68245853Y-128403100D01*
X68181703Y-128248228D01*
X68149000Y-128083816D01*
X68149000Y-127916184D01*
X68181703Y-127751772D01*
X68245853Y-127596900D01*
X68338985Y-127457519D01*
X68457519Y-127338985D01*
X68596900Y-127245853D01*
X68751772Y-127181703D01*
X68916184Y-127149000D01*
X69083816Y-127149000D01*
X69248228Y-127181703D01*
X69248228Y-127181703D01*
G37*
G36*
X83262812Y-126493624D02*
X83426784Y-126561544D01*
X83574354Y-126660147D01*
X83699853Y-126785646D01*
X83798456Y-126933216D01*
X83866376Y-127097188D01*
X83901000Y-127271259D01*
X83901000Y-127448741D01*
X83866376Y-127622812D01*
X83798456Y-127786784D01*
X83699853Y-127934354D01*
X83574354Y-128059853D01*
X83426784Y-128158456D01*
X83262812Y-128226376D01*
X83088741Y-128261000D01*
X82911259Y-128261000D01*
X82737188Y-128226376D01*
X82573216Y-128158456D01*
X82425646Y-128059853D01*
X82300147Y-127934354D01*
X82201544Y-127786784D01*
X82133624Y-127622812D01*
X82099000Y-127448741D01*
X82099000Y-127271259D01*
X82133624Y-127097188D01*
X82201544Y-126933216D01*
X82300147Y-126785646D01*
X82425646Y-126660147D01*
X82573216Y-126561544D01*
X82737188Y-126493624D01*
X82911259Y-126459000D01*
X83088741Y-126459000D01*
X83262812Y-126493624D01*
X83262812Y-126493624D01*
G37*
G36*
X108662812Y-126493624D02*
X108826784Y-126561544D01*
X108974354Y-126660147D01*
X109099853Y-126785646D01*
X109198456Y-126933216D01*
X109266376Y-127097188D01*
X109301000Y-127271259D01*
X109301000Y-127448741D01*
X109266376Y-127622812D01*
X109198456Y-127786784D01*
X109099853Y-127934354D01*
X108974354Y-128059853D01*
X108826784Y-128158456D01*
X108662812Y-128226376D01*
X108488741Y-128261000D01*
X108311259Y-128261000D01*
X108137188Y-128226376D01*
X107973216Y-128158456D01*
X107825646Y-128059853D01*
X107700147Y-127934354D01*
X107601544Y-127786784D01*
X107533624Y-127622812D01*
X107499000Y-127448741D01*
X107499000Y-127271259D01*
X107533624Y-127097188D01*
X107601544Y-126933216D01*
X107700147Y-126785646D01*
X107825646Y-126660147D01*
X107973216Y-126561544D01*
X108137188Y-126493624D01*
X108311259Y-126459000D01*
X108488741Y-126459000D01*
X108662812Y-126493624D01*
X108662812Y-126493624D01*
G37*
G36*
X108662812Y-123953624D02*
X108826784Y-124021544D01*
X108974354Y-124120147D01*
X109099853Y-124245646D01*
X109198456Y-124393216D01*
X109266376Y-124557188D01*
X109301000Y-124731259D01*
X109301000Y-124908741D01*
X109266376Y-125082812D01*
X109198456Y-125246784D01*
X109099853Y-125394354D01*
X108974354Y-125519853D01*
X108826784Y-125618456D01*
X108662812Y-125686376D01*
X108488741Y-125721000D01*
X108311259Y-125721000D01*
X108137188Y-125686376D01*
X107973216Y-125618456D01*
X107825646Y-125519853D01*
X107700147Y-125394354D01*
X107601544Y-125246784D01*
X107533624Y-125082812D01*
X107499000Y-124908741D01*
X107499000Y-124731259D01*
X107533624Y-124557188D01*
X107601544Y-124393216D01*
X107700147Y-124245646D01*
X107825646Y-124120147D01*
X107973216Y-124021544D01*
X108137188Y-123953624D01*
X108311259Y-123919000D01*
X108488741Y-123919000D01*
X108662812Y-123953624D01*
X108662812Y-123953624D01*
G37*
G36*
X83262812Y-123953624D02*
X83426784Y-124021544D01*
X83574354Y-124120147D01*
X83699853Y-124245646D01*
X83798456Y-124393216D01*
X83866376Y-124557188D01*
X83901000Y-124731259D01*
X83901000Y-124908741D01*
X83866376Y-125082812D01*
X83798456Y-125246784D01*
X83699853Y-125394354D01*
X83574354Y-125519853D01*
X83426784Y-125618456D01*
X83262812Y-125686376D01*
X83088741Y-125721000D01*
X82911259Y-125721000D01*
X82737188Y-125686376D01*
X82573216Y-125618456D01*
X82425646Y-125519853D01*
X82300147Y-125394354D01*
X82201544Y-125246784D01*
X82133624Y-125082812D01*
X82099000Y-124908741D01*
X82099000Y-124731259D01*
X82133624Y-124557188D01*
X82201544Y-124393216D01*
X82300147Y-124245646D01*
X82425646Y-124120147D01*
X82573216Y-124021544D01*
X82737188Y-123953624D01*
X82911259Y-123919000D01*
X83088741Y-123919000D01*
X83262812Y-123953624D01*
X83262812Y-123953624D01*
G37*
G36*
X152811000Y-124971000D02*
X151189000Y-124971000D01*
X151189000Y-123349000D01*
X152811000Y-123349000D01*
X152811000Y-124971000D01*
X152811000Y-124971000D01*
G37*
G36*
X154776560Y-123380166D02*
X154924153Y-123441301D01*
X155055213Y-123528873D01*
X155056985Y-123530057D01*
X155169943Y-123643015D01*
X155258700Y-123775849D01*
X155319834Y-123923440D01*
X155351000Y-124080122D01*
X155351000Y-124239878D01*
X155319834Y-124396560D01*
X155258700Y-124544151D01*
X155169943Y-124676985D01*
X155056985Y-124789943D01*
X155056982Y-124789945D01*
X154924153Y-124878699D01*
X154924152Y-124878700D01*
X154924151Y-124878700D01*
X154776560Y-124939834D01*
X154619878Y-124971000D01*
X154460122Y-124971000D01*
X154303440Y-124939834D01*
X154155849Y-124878700D01*
X154155848Y-124878700D01*
X154155847Y-124878699D01*
X154023018Y-124789945D01*
X154023015Y-124789943D01*
X153910057Y-124676985D01*
X153821300Y-124544151D01*
X153760166Y-124396560D01*
X153729000Y-124239878D01*
X153729000Y-124080122D01*
X153760166Y-123923440D01*
X153821300Y-123775849D01*
X153910057Y-123643015D01*
X154023015Y-123530057D01*
X154024787Y-123528873D01*
X154155847Y-123441301D01*
X154303440Y-123380166D01*
X154460122Y-123349000D01*
X154619878Y-123349000D01*
X154776560Y-123380166D01*
X154776560Y-123380166D01*
G37*
G36*
X136811000Y-124971000D02*
X135189000Y-124971000D01*
X135189000Y-123349000D01*
X136811000Y-123349000D01*
X136811000Y-124971000D01*
X136811000Y-124971000D01*
G37*
G36*
X138776560Y-123380166D02*
X138924153Y-123441301D01*
X139055213Y-123528873D01*
X139056985Y-123530057D01*
X139169943Y-123643015D01*
X139258700Y-123775849D01*
X139319834Y-123923440D01*
X139351000Y-124080122D01*
X139351000Y-124239878D01*
X139319834Y-124396560D01*
X139258700Y-124544151D01*
X139169943Y-124676985D01*
X139056985Y-124789943D01*
X139056982Y-124789945D01*
X138924153Y-124878699D01*
X138924152Y-124878700D01*
X138924151Y-124878700D01*
X138776560Y-124939834D01*
X138619878Y-124971000D01*
X138460122Y-124971000D01*
X138303440Y-124939834D01*
X138155849Y-124878700D01*
X138155848Y-124878700D01*
X138155847Y-124878699D01*
X138023018Y-124789945D01*
X138023015Y-124789943D01*
X137910057Y-124676985D01*
X137821300Y-124544151D01*
X137760166Y-124396560D01*
X137729000Y-124239878D01*
X137729000Y-124080122D01*
X137760166Y-123923440D01*
X137821300Y-123775849D01*
X137910057Y-123643015D01*
X138023015Y-123530057D01*
X138024787Y-123528873D01*
X138155847Y-123441301D01*
X138303440Y-123380166D01*
X138460122Y-123349000D01*
X138619878Y-123349000D01*
X138776560Y-123380166D01*
X138776560Y-123380166D01*
G37*
G36*
X120811000Y-124971000D02*
X119189000Y-124971000D01*
X119189000Y-123349000D01*
X120811000Y-123349000D01*
X120811000Y-124971000D01*
X120811000Y-124971000D01*
G37*
G36*
X122776560Y-123380166D02*
X122924153Y-123441301D01*
X123055213Y-123528873D01*
X123056985Y-123530057D01*
X123169943Y-123643015D01*
X123258700Y-123775849D01*
X123319834Y-123923440D01*
X123351000Y-124080122D01*
X123351000Y-124239878D01*
X123319834Y-124396560D01*
X123258700Y-124544151D01*
X123169943Y-124676985D01*
X123056985Y-124789943D01*
X123056982Y-124789945D01*
X122924153Y-124878699D01*
X122924152Y-124878700D01*
X122924151Y-124878700D01*
X122776560Y-124939834D01*
X122619878Y-124971000D01*
X122460122Y-124971000D01*
X122303440Y-124939834D01*
X122155849Y-124878700D01*
X122155848Y-124878700D01*
X122155847Y-124878699D01*
X122023018Y-124789945D01*
X122023015Y-124789943D01*
X121910057Y-124676985D01*
X121821300Y-124544151D01*
X121760166Y-124396560D01*
X121729000Y-124239878D01*
X121729000Y-124080122D01*
X121760166Y-123923440D01*
X121821300Y-123775849D01*
X121910057Y-123643015D01*
X122023015Y-123530057D01*
X122024787Y-123528873D01*
X122155847Y-123441301D01*
X122303440Y-123380166D01*
X122460122Y-123349000D01*
X122619878Y-123349000D01*
X122776560Y-123380166D01*
X122776560Y-123380166D01*
G37*
G36*
X83262812Y-121413624D02*
X83426784Y-121481544D01*
X83574354Y-121580147D01*
X83699853Y-121705646D01*
X83798456Y-121853216D01*
X83866376Y-122017188D01*
X83901000Y-122191259D01*
X83901000Y-122368741D01*
X83866376Y-122542812D01*
X83798456Y-122706784D01*
X83699853Y-122854354D01*
X83574354Y-122979853D01*
X83426784Y-123078456D01*
X83262812Y-123146376D01*
X83088741Y-123181000D01*
X82911259Y-123181000D01*
X82737188Y-123146376D01*
X82573216Y-123078456D01*
X82425646Y-122979853D01*
X82300147Y-122854354D01*
X82201544Y-122706784D01*
X82133624Y-122542812D01*
X82099000Y-122368741D01*
X82099000Y-122191259D01*
X82133624Y-122017188D01*
X82201544Y-121853216D01*
X82300147Y-121705646D01*
X82425646Y-121580147D01*
X82573216Y-121481544D01*
X82737188Y-121413624D01*
X82911259Y-121379000D01*
X83088741Y-121379000D01*
X83262812Y-121413624D01*
X83262812Y-121413624D01*
G37*
G36*
X108662812Y-121413624D02*
X108826784Y-121481544D01*
X108974354Y-121580147D01*
X109099853Y-121705646D01*
X109198456Y-121853216D01*
X109266376Y-122017188D01*
X109301000Y-122191259D01*
X109301000Y-122368741D01*
X109266376Y-122542812D01*
X109198456Y-122706784D01*
X109099853Y-122854354D01*
X108974354Y-122979853D01*
X108826784Y-123078456D01*
X108662812Y-123146376D01*
X108488741Y-123181000D01*
X108311259Y-123181000D01*
X108137188Y-123146376D01*
X107973216Y-123078456D01*
X107825646Y-122979853D01*
X107700147Y-122854354D01*
X107601544Y-122706784D01*
X107533624Y-122542812D01*
X107499000Y-122368741D01*
X107499000Y-122191259D01*
X107533624Y-122017188D01*
X107601544Y-121853216D01*
X107700147Y-121705646D01*
X107825646Y-121580147D01*
X107973216Y-121481544D01*
X108137188Y-121413624D01*
X108311259Y-121379000D01*
X108488741Y-121379000D01*
X108662812Y-121413624D01*
X108662812Y-121413624D01*
G37*
G36*
X152236560Y-120840166D02*
X152384153Y-120901301D01*
X152414179Y-120921364D01*
X152516985Y-120990057D01*
X152629943Y-121103015D01*
X152718700Y-121235849D01*
X152779834Y-121383440D01*
X152811000Y-121540122D01*
X152811000Y-121699878D01*
X152779834Y-121856560D01*
X152734834Y-121965201D01*
X152718699Y-122004153D01*
X152631127Y-122135213D01*
X152629943Y-122136985D01*
X152516985Y-122249943D01*
X152516982Y-122249945D01*
X152384153Y-122338699D01*
X152384152Y-122338700D01*
X152384151Y-122338700D01*
X152236560Y-122399834D01*
X152079878Y-122431000D01*
X151920122Y-122431000D01*
X151763440Y-122399834D01*
X151615849Y-122338700D01*
X151615848Y-122338700D01*
X151615847Y-122338699D01*
X151483018Y-122249945D01*
X151483015Y-122249943D01*
X151370057Y-122136985D01*
X151368873Y-122135213D01*
X151281301Y-122004153D01*
X151265167Y-121965201D01*
X151220166Y-121856560D01*
X151189000Y-121699878D01*
X151189000Y-121540122D01*
X151220166Y-121383440D01*
X151281300Y-121235849D01*
X151370057Y-121103015D01*
X151483015Y-120990057D01*
X151585821Y-120921364D01*
X151615847Y-120901301D01*
X151763440Y-120840166D01*
X151920122Y-120809000D01*
X152079878Y-120809000D01*
X152236560Y-120840166D01*
X152236560Y-120840166D01*
G37*
G36*
X154776560Y-120840166D02*
X154924153Y-120901301D01*
X154954179Y-120921364D01*
X155056985Y-120990057D01*
X155169943Y-121103015D01*
X155258700Y-121235849D01*
X155319834Y-121383440D01*
X155351000Y-121540122D01*
X155351000Y-121699878D01*
X155319834Y-121856560D01*
X155274834Y-121965201D01*
X155258699Y-122004153D01*
X155171127Y-122135213D01*
X155169943Y-122136985D01*
X155056985Y-122249943D01*
X155056982Y-122249945D01*
X154924153Y-122338699D01*
X154924152Y-122338700D01*
X154924151Y-122338700D01*
X154776560Y-122399834D01*
X154619878Y-122431000D01*
X154460122Y-122431000D01*
X154303440Y-122399834D01*
X154155849Y-122338700D01*
X154155848Y-122338700D01*
X154155847Y-122338699D01*
X154023018Y-122249945D01*
X154023015Y-122249943D01*
X153910057Y-122136985D01*
X153908873Y-122135213D01*
X153821301Y-122004153D01*
X153805167Y-121965201D01*
X153760166Y-121856560D01*
X153729000Y-121699878D01*
X153729000Y-121540122D01*
X153760166Y-121383440D01*
X153821300Y-121235849D01*
X153910057Y-121103015D01*
X154023015Y-120990057D01*
X154125821Y-120921364D01*
X154155847Y-120901301D01*
X154303440Y-120840166D01*
X154460122Y-120809000D01*
X154619878Y-120809000D01*
X154776560Y-120840166D01*
X154776560Y-120840166D01*
G37*
G36*
X138776560Y-120840166D02*
X138924153Y-120901301D01*
X138954179Y-120921364D01*
X139056985Y-120990057D01*
X139169943Y-121103015D01*
X139258700Y-121235849D01*
X139319834Y-121383440D01*
X139351000Y-121540122D01*
X139351000Y-121699878D01*
X139319834Y-121856560D01*
X139274834Y-121965201D01*
X139258699Y-122004153D01*
X139171127Y-122135213D01*
X139169943Y-122136985D01*
X139056985Y-122249943D01*
X139056982Y-122249945D01*
X138924153Y-122338699D01*
X138924152Y-122338700D01*
X138924151Y-122338700D01*
X138776560Y-122399834D01*
X138619878Y-122431000D01*
X138460122Y-122431000D01*
X138303440Y-122399834D01*
X138155849Y-122338700D01*
X138155848Y-122338700D01*
X138155847Y-122338699D01*
X138023018Y-122249945D01*
X138023015Y-122249943D01*
X137910057Y-122136985D01*
X137908873Y-122135213D01*
X137821301Y-122004153D01*
X137805167Y-121965201D01*
X137760166Y-121856560D01*
X137729000Y-121699878D01*
X137729000Y-121540122D01*
X137760166Y-121383440D01*
X137821300Y-121235849D01*
X137910057Y-121103015D01*
X138023015Y-120990057D01*
X138125821Y-120921364D01*
X138155847Y-120901301D01*
X138303440Y-120840166D01*
X138460122Y-120809000D01*
X138619878Y-120809000D01*
X138776560Y-120840166D01*
X138776560Y-120840166D01*
G37*
G36*
X136236560Y-120840166D02*
X136384153Y-120901301D01*
X136414179Y-120921364D01*
X136516985Y-120990057D01*
X136629943Y-121103015D01*
X136718700Y-121235849D01*
X136779834Y-121383440D01*
X136811000Y-121540122D01*
X136811000Y-121699878D01*
X136779834Y-121856560D01*
X136734834Y-121965201D01*
X136718699Y-122004153D01*
X136631127Y-122135213D01*
X136629943Y-122136985D01*
X136516985Y-122249943D01*
X136516982Y-122249945D01*
X136384153Y-122338699D01*
X136384152Y-122338700D01*
X136384151Y-122338700D01*
X136236560Y-122399834D01*
X136079878Y-122431000D01*
X135920122Y-122431000D01*
X135763440Y-122399834D01*
X135615849Y-122338700D01*
X135615848Y-122338700D01*
X135615847Y-122338699D01*
X135483018Y-122249945D01*
X135483015Y-122249943D01*
X135370057Y-122136985D01*
X135368873Y-122135213D01*
X135281301Y-122004153D01*
X135265167Y-121965201D01*
X135220166Y-121856560D01*
X135189000Y-121699878D01*
X135189000Y-121540122D01*
X135220166Y-121383440D01*
X135281300Y-121235849D01*
X135370057Y-121103015D01*
X135483015Y-120990057D01*
X135585821Y-120921364D01*
X135615847Y-120901301D01*
X135763440Y-120840166D01*
X135920122Y-120809000D01*
X136079878Y-120809000D01*
X136236560Y-120840166D01*
X136236560Y-120840166D01*
G37*
G36*
X120236560Y-120840166D02*
X120384153Y-120901301D01*
X120414179Y-120921364D01*
X120516985Y-120990057D01*
X120629943Y-121103015D01*
X120718700Y-121235849D01*
X120779834Y-121383440D01*
X120811000Y-121540122D01*
X120811000Y-121699878D01*
X120779834Y-121856560D01*
X120734834Y-121965201D01*
X120718699Y-122004153D01*
X120631127Y-122135213D01*
X120629943Y-122136985D01*
X120516985Y-122249943D01*
X120516982Y-122249945D01*
X120384153Y-122338699D01*
X120384152Y-122338700D01*
X120384151Y-122338700D01*
X120236560Y-122399834D01*
X120079878Y-122431000D01*
X119920122Y-122431000D01*
X119763440Y-122399834D01*
X119615849Y-122338700D01*
X119615848Y-122338700D01*
X119615847Y-122338699D01*
X119483018Y-122249945D01*
X119483015Y-122249943D01*
X119370057Y-122136985D01*
X119368873Y-122135213D01*
X119281301Y-122004153D01*
X119265167Y-121965201D01*
X119220166Y-121856560D01*
X119189000Y-121699878D01*
X119189000Y-121540122D01*
X119220166Y-121383440D01*
X119281300Y-121235849D01*
X119370057Y-121103015D01*
X119483015Y-120990057D01*
X119585821Y-120921364D01*
X119615847Y-120901301D01*
X119763440Y-120840166D01*
X119920122Y-120809000D01*
X120079878Y-120809000D01*
X120236560Y-120840166D01*
X120236560Y-120840166D01*
G37*
G36*
X122776560Y-120840166D02*
X122924153Y-120901301D01*
X122954179Y-120921364D01*
X123056985Y-120990057D01*
X123169943Y-121103015D01*
X123258700Y-121235849D01*
X123319834Y-121383440D01*
X123351000Y-121540122D01*
X123351000Y-121699878D01*
X123319834Y-121856560D01*
X123274834Y-121965201D01*
X123258699Y-122004153D01*
X123171127Y-122135213D01*
X123169943Y-122136985D01*
X123056985Y-122249943D01*
X123056982Y-122249945D01*
X122924153Y-122338699D01*
X122924152Y-122338700D01*
X122924151Y-122338700D01*
X122776560Y-122399834D01*
X122619878Y-122431000D01*
X122460122Y-122431000D01*
X122303440Y-122399834D01*
X122155849Y-122338700D01*
X122155848Y-122338700D01*
X122155847Y-122338699D01*
X122023018Y-122249945D01*
X122023015Y-122249943D01*
X121910057Y-122136985D01*
X121908873Y-122135213D01*
X121821301Y-122004153D01*
X121805167Y-121965201D01*
X121760166Y-121856560D01*
X121729000Y-121699878D01*
X121729000Y-121540122D01*
X121760166Y-121383440D01*
X121821300Y-121235849D01*
X121910057Y-121103015D01*
X122023015Y-120990057D01*
X122125821Y-120921364D01*
X122155847Y-120901301D01*
X122303440Y-120840166D01*
X122460122Y-120809000D01*
X122619878Y-120809000D01*
X122776560Y-120840166D01*
X122776560Y-120840166D01*
G37*
G36*
X96245239Y-119687101D02*
X96481053Y-119758634D01*
X96698381Y-119874799D01*
X96888871Y-120031129D01*
X97045201Y-120221619D01*
X97161366Y-120438947D01*
X97232899Y-120674761D01*
X97257053Y-120920000D01*
X97232899Y-121165239D01*
X97161366Y-121401053D01*
X97045201Y-121618381D01*
X96888871Y-121808871D01*
X96698381Y-121965201D01*
X96481053Y-122081366D01*
X96245239Y-122152899D01*
X96061457Y-122171000D01*
X95938543Y-122171000D01*
X95754761Y-122152899D01*
X95518947Y-122081366D01*
X95301619Y-121965201D01*
X95111129Y-121808871D01*
X94954799Y-121618381D01*
X94838634Y-121401053D01*
X94767101Y-121165239D01*
X94742947Y-120920000D01*
X94767101Y-120674761D01*
X94838634Y-120438947D01*
X94954799Y-120221619D01*
X95111129Y-120031129D01*
X95301619Y-119874799D01*
X95518947Y-119758634D01*
X95754761Y-119687101D01*
X95938543Y-119669000D01*
X96061457Y-119669000D01*
X96245239Y-119687101D01*
X96245239Y-119687101D01*
G37*
G36*
X90245239Y-119687101D02*
X90481053Y-119758634D01*
X90698381Y-119874799D01*
X90888871Y-120031129D01*
X91045201Y-120221619D01*
X91161366Y-120438947D01*
X91232899Y-120674761D01*
X91257053Y-120920000D01*
X91232899Y-121165239D01*
X91161366Y-121401053D01*
X91045201Y-121618381D01*
X90888871Y-121808871D01*
X90698381Y-121965201D01*
X90481053Y-122081366D01*
X90245239Y-122152899D01*
X90061457Y-122171000D01*
X89938543Y-122171000D01*
X89754761Y-122152899D01*
X89518947Y-122081366D01*
X89301619Y-121965201D01*
X89111129Y-121808871D01*
X88954799Y-121618381D01*
X88838634Y-121401053D01*
X88767101Y-121165239D01*
X88742947Y-120920000D01*
X88767101Y-120674761D01*
X88838634Y-120438947D01*
X88954799Y-120221619D01*
X89111129Y-120031129D01*
X89301619Y-119874799D01*
X89518947Y-119758634D01*
X89754761Y-119687101D01*
X89938543Y-119669000D01*
X90061457Y-119669000D01*
X90245239Y-119687101D01*
X90245239Y-119687101D01*
G37*
G36*
X102245239Y-119687101D02*
X102481053Y-119758634D01*
X102698381Y-119874799D01*
X102888871Y-120031129D01*
X103045201Y-120221619D01*
X103161366Y-120438947D01*
X103232899Y-120674761D01*
X103257053Y-120920000D01*
X103232899Y-121165239D01*
X103161366Y-121401053D01*
X103045201Y-121618381D01*
X102888871Y-121808871D01*
X102698381Y-121965201D01*
X102481053Y-122081366D01*
X102245239Y-122152899D01*
X102061457Y-122171000D01*
X101938543Y-122171000D01*
X101754761Y-122152899D01*
X101518947Y-122081366D01*
X101301619Y-121965201D01*
X101111129Y-121808871D01*
X100954799Y-121618381D01*
X100838634Y-121401053D01*
X100767101Y-121165239D01*
X100742947Y-120920000D01*
X100767101Y-120674761D01*
X100838634Y-120438947D01*
X100954799Y-120221619D01*
X101111129Y-120031129D01*
X101301619Y-119874799D01*
X101518947Y-119758634D01*
X101754761Y-119687101D01*
X101938543Y-119669000D01*
X102061457Y-119669000D01*
X102245239Y-119687101D01*
X102245239Y-119687101D01*
G37*
G36*
X113245239Y-118527101D02*
X113481053Y-118598634D01*
X113698381Y-118714799D01*
X113888871Y-118871129D01*
X114045201Y-119061619D01*
X114161366Y-119278947D01*
X114232899Y-119514761D01*
X114257053Y-119760000D01*
X114232899Y-120005239D01*
X114161366Y-120241053D01*
X114045201Y-120458381D01*
X113888871Y-120648871D01*
X113698381Y-120805201D01*
X113481053Y-120921366D01*
X113245239Y-120992899D01*
X113061457Y-121011000D01*
X112938543Y-121011000D01*
X112754761Y-120992899D01*
X112518947Y-120921366D01*
X112301619Y-120805201D01*
X112111129Y-120648871D01*
X111954799Y-120458381D01*
X111838634Y-120241053D01*
X111767101Y-120005239D01*
X111742947Y-119760000D01*
X111767101Y-119514761D01*
X111838634Y-119278947D01*
X111954799Y-119061619D01*
X112111129Y-118871129D01*
X112301619Y-118714799D01*
X112518947Y-118598634D01*
X112754761Y-118527101D01*
X112938543Y-118509000D01*
X113061457Y-118509000D01*
X113245239Y-118527101D01*
X113245239Y-118527101D01*
G37*
G36*
X83262812Y-118873624D02*
X83426784Y-118941544D01*
X83574354Y-119040147D01*
X83699853Y-119165646D01*
X83798456Y-119313216D01*
X83866376Y-119477188D01*
X83901000Y-119651259D01*
X83901000Y-119828741D01*
X83866376Y-120002812D01*
X83798456Y-120166784D01*
X83699853Y-120314354D01*
X83574354Y-120439853D01*
X83426784Y-120538456D01*
X83262812Y-120606376D01*
X83088741Y-120641000D01*
X82911259Y-120641000D01*
X82737188Y-120606376D01*
X82573216Y-120538456D01*
X82425646Y-120439853D01*
X82300147Y-120314354D01*
X82201544Y-120166784D01*
X82133624Y-120002812D01*
X82099000Y-119828741D01*
X82099000Y-119651259D01*
X82133624Y-119477188D01*
X82201544Y-119313216D01*
X82300147Y-119165646D01*
X82425646Y-119040147D01*
X82573216Y-118941544D01*
X82737188Y-118873624D01*
X82911259Y-118839000D01*
X83088741Y-118839000D01*
X83262812Y-118873624D01*
X83262812Y-118873624D01*
G37*
G36*
X108662812Y-118873624D02*
X108826784Y-118941544D01*
X108974354Y-119040147D01*
X109099853Y-119165646D01*
X109198456Y-119313216D01*
X109266376Y-119477188D01*
X109301000Y-119651259D01*
X109301000Y-119828741D01*
X109266376Y-120002812D01*
X109198456Y-120166784D01*
X109099853Y-120314354D01*
X108974354Y-120439853D01*
X108826784Y-120538456D01*
X108662812Y-120606376D01*
X108488741Y-120641000D01*
X108311259Y-120641000D01*
X108137188Y-120606376D01*
X107973216Y-120538456D01*
X107825646Y-120439853D01*
X107700147Y-120314354D01*
X107601544Y-120166784D01*
X107533624Y-120002812D01*
X107499000Y-119828741D01*
X107499000Y-119651259D01*
X107533624Y-119477188D01*
X107601544Y-119313216D01*
X107700147Y-119165646D01*
X107825646Y-119040147D01*
X107973216Y-118941544D01*
X108137188Y-118873624D01*
X108311259Y-118839000D01*
X108488741Y-118839000D01*
X108662812Y-118873624D01*
X108662812Y-118873624D01*
G37*
G36*
X66306565Y-117989389D02*
X66497834Y-118068615D01*
X66669976Y-118183637D01*
X66816363Y-118330024D01*
X66931385Y-118502166D01*
X67010611Y-118693435D01*
X67051000Y-118896484D01*
X67051000Y-119103516D01*
X67010611Y-119306565D01*
X66931385Y-119497834D01*
X66816363Y-119669976D01*
X66669976Y-119816363D01*
X66497834Y-119931385D01*
X66306565Y-120010611D01*
X66103516Y-120051000D01*
X65896484Y-120051000D01*
X65693435Y-120010611D01*
X65502166Y-119931385D01*
X65330024Y-119816363D01*
X65183637Y-119669976D01*
X65068615Y-119497834D01*
X64989389Y-119306565D01*
X64949000Y-119103516D01*
X64949000Y-118896484D01*
X64989389Y-118693435D01*
X65068615Y-118502166D01*
X65183637Y-118330024D01*
X65330024Y-118183637D01*
X65502166Y-118068615D01*
X65693435Y-117989389D01*
X65896484Y-117949000D01*
X66103516Y-117949000D01*
X66306565Y-117989389D01*
X66306565Y-117989389D01*
G37*
G36*
X72051000Y-120051000D02*
X69949000Y-120051000D01*
X69949000Y-117949000D01*
X72051000Y-117949000D01*
X72051000Y-120051000D01*
X72051000Y-120051000D01*
G37*
G36*
X120236560Y-118300166D02*
X120384153Y-118361301D01*
X120515213Y-118448873D01*
X120516985Y-118450057D01*
X120629943Y-118563015D01*
X120718700Y-118695849D01*
X120779834Y-118843440D01*
X120811000Y-119000122D01*
X120811000Y-119159878D01*
X120787316Y-119278945D01*
X120779834Y-119316560D01*
X120718699Y-119464153D01*
X120684881Y-119514765D01*
X120629943Y-119596985D01*
X120516985Y-119709943D01*
X120516982Y-119709945D01*
X120384153Y-119798699D01*
X120384152Y-119798700D01*
X120384151Y-119798700D01*
X120236560Y-119859834D01*
X120079878Y-119891000D01*
X119920122Y-119891000D01*
X119763440Y-119859834D01*
X119615849Y-119798700D01*
X119615848Y-119798700D01*
X119615847Y-119798699D01*
X119483018Y-119709945D01*
X119483015Y-119709943D01*
X119370057Y-119596985D01*
X119315119Y-119514765D01*
X119281301Y-119464153D01*
X119220166Y-119316560D01*
X119212684Y-119278945D01*
X119189000Y-119159878D01*
X119189000Y-119000122D01*
X119220166Y-118843440D01*
X119281300Y-118695849D01*
X119370057Y-118563015D01*
X119483015Y-118450057D01*
X119484787Y-118448873D01*
X119615847Y-118361301D01*
X119763440Y-118300166D01*
X119920122Y-118269000D01*
X120079878Y-118269000D01*
X120236560Y-118300166D01*
X120236560Y-118300166D01*
G37*
G36*
X154776560Y-118300166D02*
X154924153Y-118361301D01*
X155055213Y-118448873D01*
X155056985Y-118450057D01*
X155169943Y-118563015D01*
X155258700Y-118695849D01*
X155319834Y-118843440D01*
X155351000Y-119000122D01*
X155351000Y-119159878D01*
X155327316Y-119278945D01*
X155319834Y-119316560D01*
X155258699Y-119464153D01*
X155224881Y-119514765D01*
X155169943Y-119596985D01*
X155056985Y-119709943D01*
X155056982Y-119709945D01*
X154924153Y-119798699D01*
X154924152Y-119798700D01*
X154924151Y-119798700D01*
X154776560Y-119859834D01*
X154619878Y-119891000D01*
X154460122Y-119891000D01*
X154303440Y-119859834D01*
X154155849Y-119798700D01*
X154155848Y-119798700D01*
X154155847Y-119798699D01*
X154023018Y-119709945D01*
X154023015Y-119709943D01*
X153910057Y-119596985D01*
X153855119Y-119514765D01*
X153821301Y-119464153D01*
X153760166Y-119316560D01*
X153752684Y-119278945D01*
X153729000Y-119159878D01*
X153729000Y-119000122D01*
X153760166Y-118843440D01*
X153821300Y-118695849D01*
X153910057Y-118563015D01*
X154023015Y-118450057D01*
X154024787Y-118448873D01*
X154155847Y-118361301D01*
X154303440Y-118300166D01*
X154460122Y-118269000D01*
X154619878Y-118269000D01*
X154776560Y-118300166D01*
X154776560Y-118300166D01*
G37*
G36*
X152236560Y-118300166D02*
X152384153Y-118361301D01*
X152515213Y-118448873D01*
X152516985Y-118450057D01*
X152629943Y-118563015D01*
X152718700Y-118695849D01*
X152779834Y-118843440D01*
X152811000Y-119000122D01*
X152811000Y-119159878D01*
X152787316Y-119278945D01*
X152779834Y-119316560D01*
X152718699Y-119464153D01*
X152684881Y-119514765D01*
X152629943Y-119596985D01*
X152516985Y-119709943D01*
X152516982Y-119709945D01*
X152384153Y-119798699D01*
X152384152Y-119798700D01*
X152384151Y-119798700D01*
X152236560Y-119859834D01*
X152079878Y-119891000D01*
X151920122Y-119891000D01*
X151763440Y-119859834D01*
X151615849Y-119798700D01*
X151615848Y-119798700D01*
X151615847Y-119798699D01*
X151483018Y-119709945D01*
X151483015Y-119709943D01*
X151370057Y-119596985D01*
X151315119Y-119514765D01*
X151281301Y-119464153D01*
X151220166Y-119316560D01*
X151212684Y-119278945D01*
X151189000Y-119159878D01*
X151189000Y-119000122D01*
X151220166Y-118843440D01*
X151281300Y-118695849D01*
X151370057Y-118563015D01*
X151483015Y-118450057D01*
X151484787Y-118448873D01*
X151615847Y-118361301D01*
X151763440Y-118300166D01*
X151920122Y-118269000D01*
X152079878Y-118269000D01*
X152236560Y-118300166D01*
X152236560Y-118300166D01*
G37*
G36*
X138776560Y-118300166D02*
X138924153Y-118361301D01*
X139055213Y-118448873D01*
X139056985Y-118450057D01*
X139169943Y-118563015D01*
X139258700Y-118695849D01*
X139319834Y-118843440D01*
X139351000Y-119000122D01*
X139351000Y-119159878D01*
X139327316Y-119278945D01*
X139319834Y-119316560D01*
X139258699Y-119464153D01*
X139224881Y-119514765D01*
X139169943Y-119596985D01*
X139056985Y-119709943D01*
X139056982Y-119709945D01*
X138924153Y-119798699D01*
X138924152Y-119798700D01*
X138924151Y-119798700D01*
X138776560Y-119859834D01*
X138619878Y-119891000D01*
X138460122Y-119891000D01*
X138303440Y-119859834D01*
X138155849Y-119798700D01*
X138155848Y-119798700D01*
X138155847Y-119798699D01*
X138023018Y-119709945D01*
X138023015Y-119709943D01*
X137910057Y-119596985D01*
X137855119Y-119514765D01*
X137821301Y-119464153D01*
X137760166Y-119316560D01*
X137752684Y-119278945D01*
X137729000Y-119159878D01*
X137729000Y-119000122D01*
X137760166Y-118843440D01*
X137821300Y-118695849D01*
X137910057Y-118563015D01*
X138023015Y-118450057D01*
X138024787Y-118448873D01*
X138155847Y-118361301D01*
X138303440Y-118300166D01*
X138460122Y-118269000D01*
X138619878Y-118269000D01*
X138776560Y-118300166D01*
X138776560Y-118300166D01*
G37*
G36*
X136236560Y-118300166D02*
X136384153Y-118361301D01*
X136515213Y-118448873D01*
X136516985Y-118450057D01*
X136629943Y-118563015D01*
X136718700Y-118695849D01*
X136779834Y-118843440D01*
X136811000Y-119000122D01*
X136811000Y-119159878D01*
X136787316Y-119278945D01*
X136779834Y-119316560D01*
X136718699Y-119464153D01*
X136684881Y-119514765D01*
X136629943Y-119596985D01*
X136516985Y-119709943D01*
X136516982Y-119709945D01*
X136384153Y-119798699D01*
X136384152Y-119798700D01*
X136384151Y-119798700D01*
X136236560Y-119859834D01*
X136079878Y-119891000D01*
X135920122Y-119891000D01*
X135763440Y-119859834D01*
X135615849Y-119798700D01*
X135615848Y-119798700D01*
X135615847Y-119798699D01*
X135483018Y-119709945D01*
X135483015Y-119709943D01*
X135370057Y-119596985D01*
X135315119Y-119514765D01*
X135281301Y-119464153D01*
X135220166Y-119316560D01*
X135212684Y-119278945D01*
X135189000Y-119159878D01*
X135189000Y-119000122D01*
X135220166Y-118843440D01*
X135281300Y-118695849D01*
X135370057Y-118563015D01*
X135483015Y-118450057D01*
X135484787Y-118448873D01*
X135615847Y-118361301D01*
X135763440Y-118300166D01*
X135920122Y-118269000D01*
X136079878Y-118269000D01*
X136236560Y-118300166D01*
X136236560Y-118300166D01*
G37*
G36*
X122776560Y-118300166D02*
X122924153Y-118361301D01*
X123055213Y-118448873D01*
X123056985Y-118450057D01*
X123169943Y-118563015D01*
X123258700Y-118695849D01*
X123319834Y-118843440D01*
X123351000Y-119000122D01*
X123351000Y-119159878D01*
X123327316Y-119278945D01*
X123319834Y-119316560D01*
X123258699Y-119464153D01*
X123224881Y-119514765D01*
X123169943Y-119596985D01*
X123056985Y-119709943D01*
X123056982Y-119709945D01*
X122924153Y-119798699D01*
X122924152Y-119798700D01*
X122924151Y-119798700D01*
X122776560Y-119859834D01*
X122619878Y-119891000D01*
X122460122Y-119891000D01*
X122303440Y-119859834D01*
X122155849Y-119798700D01*
X122155848Y-119798700D01*
X122155847Y-119798699D01*
X122023018Y-119709945D01*
X122023015Y-119709943D01*
X121910057Y-119596985D01*
X121855119Y-119514765D01*
X121821301Y-119464153D01*
X121760166Y-119316560D01*
X121752684Y-119278945D01*
X121729000Y-119159878D01*
X121729000Y-119000122D01*
X121760166Y-118843440D01*
X121821300Y-118695849D01*
X121910057Y-118563015D01*
X122023015Y-118450057D01*
X122024787Y-118448873D01*
X122155847Y-118361301D01*
X122303440Y-118300166D01*
X122460122Y-118269000D01*
X122619878Y-118269000D01*
X122776560Y-118300166D01*
X122776560Y-118300166D01*
G37*
G36*
X108662812Y-116333624D02*
X108826784Y-116401544D01*
X108974354Y-116500147D01*
X109099853Y-116625646D01*
X109198456Y-116773216D01*
X109266376Y-116937188D01*
X109301000Y-117111259D01*
X109301000Y-117288741D01*
X109266376Y-117462812D01*
X109198456Y-117626784D01*
X109099853Y-117774354D01*
X108974354Y-117899853D01*
X108826784Y-117998456D01*
X108662812Y-118066376D01*
X108488741Y-118101000D01*
X108311259Y-118101000D01*
X108137188Y-118066376D01*
X107973216Y-117998456D01*
X107825646Y-117899853D01*
X107700147Y-117774354D01*
X107601544Y-117626784D01*
X107533624Y-117462812D01*
X107499000Y-117288741D01*
X107499000Y-117111259D01*
X107533624Y-116937188D01*
X107601544Y-116773216D01*
X107700147Y-116625646D01*
X107825646Y-116500147D01*
X107973216Y-116401544D01*
X108137188Y-116333624D01*
X108311259Y-116299000D01*
X108488741Y-116299000D01*
X108662812Y-116333624D01*
X108662812Y-116333624D01*
G37*
G36*
X83262812Y-116333624D02*
X83426784Y-116401544D01*
X83574354Y-116500147D01*
X83699853Y-116625646D01*
X83798456Y-116773216D01*
X83866376Y-116937188D01*
X83901000Y-117111259D01*
X83901000Y-117288741D01*
X83866376Y-117462812D01*
X83798456Y-117626784D01*
X83699853Y-117774354D01*
X83574354Y-117899853D01*
X83426784Y-117998456D01*
X83262812Y-118066376D01*
X83088741Y-118101000D01*
X82911259Y-118101000D01*
X82737188Y-118066376D01*
X82573216Y-117998456D01*
X82425646Y-117899853D01*
X82300147Y-117774354D01*
X82201544Y-117626784D01*
X82133624Y-117462812D01*
X82099000Y-117288741D01*
X82099000Y-117111259D01*
X82133624Y-116937188D01*
X82201544Y-116773216D01*
X82300147Y-116625646D01*
X82425646Y-116500147D01*
X82573216Y-116401544D01*
X82737188Y-116333624D01*
X82911259Y-116299000D01*
X83088741Y-116299000D01*
X83262812Y-116333624D01*
X83262812Y-116333624D01*
G37*
G36*
X120236560Y-115760166D02*
X120384153Y-115821301D01*
X120515213Y-115908873D01*
X120516985Y-115910057D01*
X120629943Y-116023015D01*
X120718700Y-116155849D01*
X120779834Y-116303440D01*
X120811000Y-116460122D01*
X120811000Y-116619878D01*
X120779834Y-116776560D01*
X120718700Y-116924151D01*
X120629943Y-117056985D01*
X120516985Y-117169943D01*
X120516982Y-117169945D01*
X120384153Y-117258699D01*
X120384152Y-117258700D01*
X120384151Y-117258700D01*
X120236560Y-117319834D01*
X120079878Y-117351000D01*
X119920122Y-117351000D01*
X119763440Y-117319834D01*
X119615849Y-117258700D01*
X119615848Y-117258700D01*
X119615847Y-117258699D01*
X119483018Y-117169945D01*
X119483015Y-117169943D01*
X119370057Y-117056985D01*
X119281300Y-116924151D01*
X119220166Y-116776560D01*
X119189000Y-116619878D01*
X119189000Y-116460122D01*
X119220166Y-116303440D01*
X119281300Y-116155849D01*
X119370057Y-116023015D01*
X119483015Y-115910057D01*
X119484787Y-115908873D01*
X119615847Y-115821301D01*
X119763440Y-115760166D01*
X119920122Y-115729000D01*
X120079878Y-115729000D01*
X120236560Y-115760166D01*
X120236560Y-115760166D01*
G37*
G36*
X122776560Y-115760166D02*
X122924153Y-115821301D01*
X123055213Y-115908873D01*
X123056985Y-115910057D01*
X123169943Y-116023015D01*
X123258700Y-116155849D01*
X123319834Y-116303440D01*
X123351000Y-116460122D01*
X123351000Y-116619878D01*
X123319834Y-116776560D01*
X123258700Y-116924151D01*
X123169943Y-117056985D01*
X123056985Y-117169943D01*
X123056982Y-117169945D01*
X122924153Y-117258699D01*
X122924152Y-117258700D01*
X122924151Y-117258700D01*
X122776560Y-117319834D01*
X122619878Y-117351000D01*
X122460122Y-117351000D01*
X122303440Y-117319834D01*
X122155849Y-117258700D01*
X122155848Y-117258700D01*
X122155847Y-117258699D01*
X122023018Y-117169945D01*
X122023015Y-117169943D01*
X121910057Y-117056985D01*
X121821300Y-116924151D01*
X121760166Y-116776560D01*
X121729000Y-116619878D01*
X121729000Y-116460122D01*
X121760166Y-116303440D01*
X121821300Y-116155849D01*
X121910057Y-116023015D01*
X122023015Y-115910057D01*
X122024787Y-115908873D01*
X122155847Y-115821301D01*
X122303440Y-115760166D01*
X122460122Y-115729000D01*
X122619878Y-115729000D01*
X122776560Y-115760166D01*
X122776560Y-115760166D01*
G37*
G36*
X138776560Y-115760166D02*
X138924153Y-115821301D01*
X139055213Y-115908873D01*
X139056985Y-115910057D01*
X139169943Y-116023015D01*
X139258700Y-116155849D01*
X139319834Y-116303440D01*
X139351000Y-116460122D01*
X139351000Y-116619878D01*
X139319834Y-116776560D01*
X139258700Y-116924151D01*
X139169943Y-117056985D01*
X139056985Y-117169943D01*
X139056982Y-117169945D01*
X138924153Y-117258699D01*
X138924152Y-117258700D01*
X138924151Y-117258700D01*
X138776560Y-117319834D01*
X138619878Y-117351000D01*
X138460122Y-117351000D01*
X138303440Y-117319834D01*
X138155849Y-117258700D01*
X138155848Y-117258700D01*
X138155847Y-117258699D01*
X138023018Y-117169945D01*
X138023015Y-117169943D01*
X137910057Y-117056985D01*
X137821300Y-116924151D01*
X137760166Y-116776560D01*
X137729000Y-116619878D01*
X137729000Y-116460122D01*
X137760166Y-116303440D01*
X137821300Y-116155849D01*
X137910057Y-116023015D01*
X138023015Y-115910057D01*
X138024787Y-115908873D01*
X138155847Y-115821301D01*
X138303440Y-115760166D01*
X138460122Y-115729000D01*
X138619878Y-115729000D01*
X138776560Y-115760166D01*
X138776560Y-115760166D01*
G37*
G36*
X152236560Y-115760166D02*
X152384153Y-115821301D01*
X152515213Y-115908873D01*
X152516985Y-115910057D01*
X152629943Y-116023015D01*
X152718700Y-116155849D01*
X152779834Y-116303440D01*
X152811000Y-116460122D01*
X152811000Y-116619878D01*
X152779834Y-116776560D01*
X152718700Y-116924151D01*
X152629943Y-117056985D01*
X152516985Y-117169943D01*
X152516982Y-117169945D01*
X152384153Y-117258699D01*
X152384152Y-117258700D01*
X152384151Y-117258700D01*
X152236560Y-117319834D01*
X152079878Y-117351000D01*
X151920122Y-117351000D01*
X151763440Y-117319834D01*
X151615849Y-117258700D01*
X151615848Y-117258700D01*
X151615847Y-117258699D01*
X151483018Y-117169945D01*
X151483015Y-117169943D01*
X151370057Y-117056985D01*
X151281300Y-116924151D01*
X151220166Y-116776560D01*
X151189000Y-116619878D01*
X151189000Y-116460122D01*
X151220166Y-116303440D01*
X151281300Y-116155849D01*
X151370057Y-116023015D01*
X151483015Y-115910057D01*
X151484787Y-115908873D01*
X151615847Y-115821301D01*
X151763440Y-115760166D01*
X151920122Y-115729000D01*
X152079878Y-115729000D01*
X152236560Y-115760166D01*
X152236560Y-115760166D01*
G37*
G36*
X154776560Y-115760166D02*
X154924153Y-115821301D01*
X155055213Y-115908873D01*
X155056985Y-115910057D01*
X155169943Y-116023015D01*
X155258700Y-116155849D01*
X155319834Y-116303440D01*
X155351000Y-116460122D01*
X155351000Y-116619878D01*
X155319834Y-116776560D01*
X155258700Y-116924151D01*
X155169943Y-117056985D01*
X155056985Y-117169943D01*
X155056982Y-117169945D01*
X154924153Y-117258699D01*
X154924152Y-117258700D01*
X154924151Y-117258700D01*
X154776560Y-117319834D01*
X154619878Y-117351000D01*
X154460122Y-117351000D01*
X154303440Y-117319834D01*
X154155849Y-117258700D01*
X154155848Y-117258700D01*
X154155847Y-117258699D01*
X154023018Y-117169945D01*
X154023015Y-117169943D01*
X153910057Y-117056985D01*
X153821300Y-116924151D01*
X153760166Y-116776560D01*
X153729000Y-116619878D01*
X153729000Y-116460122D01*
X153760166Y-116303440D01*
X153821300Y-116155849D01*
X153910057Y-116023015D01*
X154023015Y-115910057D01*
X154024787Y-115908873D01*
X154155847Y-115821301D01*
X154303440Y-115760166D01*
X154460122Y-115729000D01*
X154619878Y-115729000D01*
X154776560Y-115760166D01*
X154776560Y-115760166D01*
G37*
G36*
X136236560Y-115760166D02*
X136384153Y-115821301D01*
X136515213Y-115908873D01*
X136516985Y-115910057D01*
X136629943Y-116023015D01*
X136718700Y-116155849D01*
X136779834Y-116303440D01*
X136811000Y-116460122D01*
X136811000Y-116619878D01*
X136779834Y-116776560D01*
X136718700Y-116924151D01*
X136629943Y-117056985D01*
X136516985Y-117169943D01*
X136516982Y-117169945D01*
X136384153Y-117258699D01*
X136384152Y-117258700D01*
X136384151Y-117258700D01*
X136236560Y-117319834D01*
X136079878Y-117351000D01*
X135920122Y-117351000D01*
X135763440Y-117319834D01*
X135615849Y-117258700D01*
X135615848Y-117258700D01*
X135615847Y-117258699D01*
X135483018Y-117169945D01*
X135483015Y-117169943D01*
X135370057Y-117056985D01*
X135281300Y-116924151D01*
X135220166Y-116776560D01*
X135189000Y-116619878D01*
X135189000Y-116460122D01*
X135220166Y-116303440D01*
X135281300Y-116155849D01*
X135370057Y-116023015D01*
X135483015Y-115910057D01*
X135484787Y-115908873D01*
X135615847Y-115821301D01*
X135763440Y-115760166D01*
X135920122Y-115729000D01*
X136079878Y-115729000D01*
X136236560Y-115760166D01*
X136236560Y-115760166D01*
G37*
G36*
X108662812Y-113793624D02*
X108826784Y-113861544D01*
X108974354Y-113960147D01*
X109099853Y-114085646D01*
X109198456Y-114233216D01*
X109266376Y-114397188D01*
X109301000Y-114571259D01*
X109301000Y-114748741D01*
X109266376Y-114922812D01*
X109198456Y-115086784D01*
X109099853Y-115234354D01*
X108974354Y-115359853D01*
X108826784Y-115458456D01*
X108662812Y-115526376D01*
X108488741Y-115561000D01*
X108311259Y-115561000D01*
X108137188Y-115526376D01*
X107973216Y-115458456D01*
X107825646Y-115359853D01*
X107700147Y-115234354D01*
X107601544Y-115086784D01*
X107533624Y-114922812D01*
X107499000Y-114748741D01*
X107499000Y-114571259D01*
X107533624Y-114397188D01*
X107601544Y-114233216D01*
X107700147Y-114085646D01*
X107825646Y-113960147D01*
X107973216Y-113861544D01*
X108137188Y-113793624D01*
X108311259Y-113759000D01*
X108488741Y-113759000D01*
X108662812Y-113793624D01*
X108662812Y-113793624D01*
G37*
G36*
X83262812Y-113793624D02*
X83426784Y-113861544D01*
X83574354Y-113960147D01*
X83699853Y-114085646D01*
X83798456Y-114233216D01*
X83866376Y-114397188D01*
X83901000Y-114571259D01*
X83901000Y-114748741D01*
X83866376Y-114922812D01*
X83798456Y-115086784D01*
X83699853Y-115234354D01*
X83574354Y-115359853D01*
X83426784Y-115458456D01*
X83262812Y-115526376D01*
X83088741Y-115561000D01*
X82911259Y-115561000D01*
X82737188Y-115526376D01*
X82573216Y-115458456D01*
X82425646Y-115359853D01*
X82300147Y-115234354D01*
X82201544Y-115086784D01*
X82133624Y-114922812D01*
X82099000Y-114748741D01*
X82099000Y-114571259D01*
X82133624Y-114397188D01*
X82201544Y-114233216D01*
X82300147Y-114085646D01*
X82425646Y-113960147D01*
X82573216Y-113861544D01*
X82737188Y-113793624D01*
X82911259Y-113759000D01*
X83088741Y-113759000D01*
X83262812Y-113793624D01*
X83262812Y-113793624D01*
G37*
G36*
X152236560Y-113220166D02*
X152384153Y-113281301D01*
X152452278Y-113326821D01*
X152516985Y-113370057D01*
X152629943Y-113483015D01*
X152718700Y-113615849D01*
X152779834Y-113763440D01*
X152811000Y-113920122D01*
X152811000Y-114079878D01*
X152779834Y-114236560D01*
X152718700Y-114384151D01*
X152629943Y-114516985D01*
X152516985Y-114629943D01*
X152516982Y-114629945D01*
X152384153Y-114718699D01*
X152384152Y-114718700D01*
X152384151Y-114718700D01*
X152236560Y-114779834D01*
X152079878Y-114811000D01*
X151920122Y-114811000D01*
X151763440Y-114779834D01*
X151615849Y-114718700D01*
X151615848Y-114718700D01*
X151615847Y-114718699D01*
X151483018Y-114629945D01*
X151483015Y-114629943D01*
X151370057Y-114516985D01*
X151281300Y-114384151D01*
X151220166Y-114236560D01*
X151189000Y-114079878D01*
X151189000Y-113920122D01*
X151220166Y-113763440D01*
X151281300Y-113615849D01*
X151370057Y-113483015D01*
X151483015Y-113370057D01*
X151547722Y-113326821D01*
X151615847Y-113281301D01*
X151763440Y-113220166D01*
X151920122Y-113189000D01*
X152079878Y-113189000D01*
X152236560Y-113220166D01*
X152236560Y-113220166D01*
G37*
G36*
X154776560Y-113220166D02*
X154924153Y-113281301D01*
X154992278Y-113326821D01*
X155056985Y-113370057D01*
X155169943Y-113483015D01*
X155258700Y-113615849D01*
X155319834Y-113763440D01*
X155351000Y-113920122D01*
X155351000Y-114079878D01*
X155319834Y-114236560D01*
X155258700Y-114384151D01*
X155169943Y-114516985D01*
X155056985Y-114629943D01*
X155056982Y-114629945D01*
X154924153Y-114718699D01*
X154924152Y-114718700D01*
X154924151Y-114718700D01*
X154776560Y-114779834D01*
X154619878Y-114811000D01*
X154460122Y-114811000D01*
X154303440Y-114779834D01*
X154155849Y-114718700D01*
X154155848Y-114718700D01*
X154155847Y-114718699D01*
X154023018Y-114629945D01*
X154023015Y-114629943D01*
X153910057Y-114516985D01*
X153821300Y-114384151D01*
X153760166Y-114236560D01*
X153729000Y-114079878D01*
X153729000Y-113920122D01*
X153760166Y-113763440D01*
X153821300Y-113615849D01*
X153910057Y-113483015D01*
X154023015Y-113370057D01*
X154087722Y-113326821D01*
X154155847Y-113281301D01*
X154303440Y-113220166D01*
X154460122Y-113189000D01*
X154619878Y-113189000D01*
X154776560Y-113220166D01*
X154776560Y-113220166D01*
G37*
G36*
X120236560Y-113220166D02*
X120384153Y-113281301D01*
X120452278Y-113326821D01*
X120516985Y-113370057D01*
X120629943Y-113483015D01*
X120718700Y-113615849D01*
X120779834Y-113763440D01*
X120811000Y-113920122D01*
X120811000Y-114079878D01*
X120779834Y-114236560D01*
X120718700Y-114384151D01*
X120629943Y-114516985D01*
X120516985Y-114629943D01*
X120516982Y-114629945D01*
X120384153Y-114718699D01*
X120384152Y-114718700D01*
X120384151Y-114718700D01*
X120236560Y-114779834D01*
X120079878Y-114811000D01*
X119920122Y-114811000D01*
X119763440Y-114779834D01*
X119615849Y-114718700D01*
X119615848Y-114718700D01*
X119615847Y-114718699D01*
X119483018Y-114629945D01*
X119483015Y-114629943D01*
X119370057Y-114516985D01*
X119281300Y-114384151D01*
X119220166Y-114236560D01*
X119189000Y-114079878D01*
X119189000Y-113920122D01*
X119220166Y-113763440D01*
X119281300Y-113615849D01*
X119370057Y-113483015D01*
X119483015Y-113370057D01*
X119547722Y-113326821D01*
X119615847Y-113281301D01*
X119763440Y-113220166D01*
X119920122Y-113189000D01*
X120079878Y-113189000D01*
X120236560Y-113220166D01*
X120236560Y-113220166D01*
G37*
G36*
X136236560Y-113220166D02*
X136384153Y-113281301D01*
X136452278Y-113326821D01*
X136516985Y-113370057D01*
X136629943Y-113483015D01*
X136718700Y-113615849D01*
X136779834Y-113763440D01*
X136811000Y-113920122D01*
X136811000Y-114079878D01*
X136779834Y-114236560D01*
X136718700Y-114384151D01*
X136629943Y-114516985D01*
X136516985Y-114629943D01*
X136516982Y-114629945D01*
X136384153Y-114718699D01*
X136384152Y-114718700D01*
X136384151Y-114718700D01*
X136236560Y-114779834D01*
X136079878Y-114811000D01*
X135920122Y-114811000D01*
X135763440Y-114779834D01*
X135615849Y-114718700D01*
X135615848Y-114718700D01*
X135615847Y-114718699D01*
X135483018Y-114629945D01*
X135483015Y-114629943D01*
X135370057Y-114516985D01*
X135281300Y-114384151D01*
X135220166Y-114236560D01*
X135189000Y-114079878D01*
X135189000Y-113920122D01*
X135220166Y-113763440D01*
X135281300Y-113615849D01*
X135370057Y-113483015D01*
X135483015Y-113370057D01*
X135547722Y-113326821D01*
X135615847Y-113281301D01*
X135763440Y-113220166D01*
X135920122Y-113189000D01*
X136079878Y-113189000D01*
X136236560Y-113220166D01*
X136236560Y-113220166D01*
G37*
G36*
X138776560Y-113220166D02*
X138924153Y-113281301D01*
X138992278Y-113326821D01*
X139056985Y-113370057D01*
X139169943Y-113483015D01*
X139258700Y-113615849D01*
X139319834Y-113763440D01*
X139351000Y-113920122D01*
X139351000Y-114079878D01*
X139319834Y-114236560D01*
X139258700Y-114384151D01*
X139169943Y-114516985D01*
X139056985Y-114629943D01*
X139056982Y-114629945D01*
X138924153Y-114718699D01*
X138924152Y-114718700D01*
X138924151Y-114718700D01*
X138776560Y-114779834D01*
X138619878Y-114811000D01*
X138460122Y-114811000D01*
X138303440Y-114779834D01*
X138155849Y-114718700D01*
X138155848Y-114718700D01*
X138155847Y-114718699D01*
X138023018Y-114629945D01*
X138023015Y-114629943D01*
X137910057Y-114516985D01*
X137821300Y-114384151D01*
X137760166Y-114236560D01*
X137729000Y-114079878D01*
X137729000Y-113920122D01*
X137760166Y-113763440D01*
X137821300Y-113615849D01*
X137910057Y-113483015D01*
X138023015Y-113370057D01*
X138087722Y-113326821D01*
X138155847Y-113281301D01*
X138303440Y-113220166D01*
X138460122Y-113189000D01*
X138619878Y-113189000D01*
X138776560Y-113220166D01*
X138776560Y-113220166D01*
G37*
G36*
X122776560Y-113220166D02*
X122924153Y-113281301D01*
X122992278Y-113326821D01*
X123056985Y-113370057D01*
X123169943Y-113483015D01*
X123258700Y-113615849D01*
X123319834Y-113763440D01*
X123351000Y-113920122D01*
X123351000Y-114079878D01*
X123319834Y-114236560D01*
X123258700Y-114384151D01*
X123169943Y-114516985D01*
X123056985Y-114629943D01*
X123056982Y-114629945D01*
X122924153Y-114718699D01*
X122924152Y-114718700D01*
X122924151Y-114718700D01*
X122776560Y-114779834D01*
X122619878Y-114811000D01*
X122460122Y-114811000D01*
X122303440Y-114779834D01*
X122155849Y-114718700D01*
X122155848Y-114718700D01*
X122155847Y-114718699D01*
X122023018Y-114629945D01*
X122023015Y-114629943D01*
X121910057Y-114516985D01*
X121821300Y-114384151D01*
X121760166Y-114236560D01*
X121729000Y-114079878D01*
X121729000Y-113920122D01*
X121760166Y-113763440D01*
X121821300Y-113615849D01*
X121910057Y-113483015D01*
X122023015Y-113370057D01*
X122087722Y-113326821D01*
X122155847Y-113281301D01*
X122303440Y-113220166D01*
X122460122Y-113189000D01*
X122619878Y-113189000D01*
X122776560Y-113220166D01*
X122776560Y-113220166D01*
G37*
G36*
X90166821Y-112321313D02*
X90166824Y-112321314D01*
X90166825Y-112321314D01*
X90327239Y-112369975D01*
X90327241Y-112369976D01*
X90327244Y-112369977D01*
X90475078Y-112448995D01*
X90604659Y-112555341D01*
X90711005Y-112684922D01*
X90790023Y-112832756D01*
X90790024Y-112832759D01*
X90790025Y-112832761D01*
X90838686Y-112993175D01*
X90838687Y-112993179D01*
X90855117Y-113160000D01*
X90838687Y-113326821D01*
X90838686Y-113326824D01*
X90838686Y-113326825D01*
X90825572Y-113370057D01*
X90790023Y-113487244D01*
X90711005Y-113635078D01*
X90604659Y-113764659D01*
X90475078Y-113871005D01*
X90327244Y-113950023D01*
X90327241Y-113950024D01*
X90327239Y-113950025D01*
X90166825Y-113998686D01*
X90166824Y-113998686D01*
X90166821Y-113998687D01*
X90041804Y-114011000D01*
X89958196Y-114011000D01*
X89833179Y-113998687D01*
X89833176Y-113998686D01*
X89833175Y-113998686D01*
X89672761Y-113950025D01*
X89672759Y-113950024D01*
X89672756Y-113950023D01*
X89524922Y-113871005D01*
X89395341Y-113764659D01*
X89288995Y-113635078D01*
X89209977Y-113487244D01*
X89174429Y-113370057D01*
X89161314Y-113326825D01*
X89161314Y-113326824D01*
X89161313Y-113326821D01*
X89144883Y-113160000D01*
X89161313Y-112993179D01*
X89161314Y-112993175D01*
X89209975Y-112832761D01*
X89209976Y-112832759D01*
X89209977Y-112832756D01*
X89288995Y-112684922D01*
X89395341Y-112555341D01*
X89524922Y-112448995D01*
X89672756Y-112369977D01*
X89672759Y-112369976D01*
X89672761Y-112369975D01*
X89833175Y-112321314D01*
X89833176Y-112321314D01*
X89833179Y-112321313D01*
X89958196Y-112309000D01*
X90041804Y-112309000D01*
X90166821Y-112321313D01*
X90166821Y-112321313D01*
G37*
G36*
X96166821Y-112321313D02*
X96166824Y-112321314D01*
X96166825Y-112321314D01*
X96327239Y-112369975D01*
X96327241Y-112369976D01*
X96327244Y-112369977D01*
X96475078Y-112448995D01*
X96604659Y-112555341D01*
X96711005Y-112684922D01*
X96790023Y-112832756D01*
X96790024Y-112832759D01*
X96790025Y-112832761D01*
X96838686Y-112993175D01*
X96838687Y-112993179D01*
X96855117Y-113160000D01*
X96838687Y-113326821D01*
X96838686Y-113326824D01*
X96838686Y-113326825D01*
X96825572Y-113370057D01*
X96790023Y-113487244D01*
X96711005Y-113635078D01*
X96604659Y-113764659D01*
X96475078Y-113871005D01*
X96327244Y-113950023D01*
X96327241Y-113950024D01*
X96327239Y-113950025D01*
X96166825Y-113998686D01*
X96166824Y-113998686D01*
X96166821Y-113998687D01*
X96041804Y-114011000D01*
X95958196Y-114011000D01*
X95833179Y-113998687D01*
X95833176Y-113998686D01*
X95833175Y-113998686D01*
X95672761Y-113950025D01*
X95672759Y-113950024D01*
X95672756Y-113950023D01*
X95524922Y-113871005D01*
X95395341Y-113764659D01*
X95288995Y-113635078D01*
X95209977Y-113487244D01*
X95174429Y-113370057D01*
X95161314Y-113326825D01*
X95161314Y-113326824D01*
X95161313Y-113326821D01*
X95144883Y-113160000D01*
X95161313Y-112993179D01*
X95161314Y-112993175D01*
X95209975Y-112832761D01*
X95209976Y-112832759D01*
X95209977Y-112832756D01*
X95288995Y-112684922D01*
X95395341Y-112555341D01*
X95524922Y-112448995D01*
X95672756Y-112369977D01*
X95672759Y-112369976D01*
X95672761Y-112369975D01*
X95833175Y-112321314D01*
X95833176Y-112321314D01*
X95833179Y-112321313D01*
X95958196Y-112309000D01*
X96041804Y-112309000D01*
X96166821Y-112321313D01*
X96166821Y-112321313D01*
G37*
G36*
X102166821Y-112321313D02*
X102166824Y-112321314D01*
X102166825Y-112321314D01*
X102327239Y-112369975D01*
X102327241Y-112369976D01*
X102327244Y-112369977D01*
X102475078Y-112448995D01*
X102604659Y-112555341D01*
X102711005Y-112684922D01*
X102790023Y-112832756D01*
X102790024Y-112832759D01*
X102790025Y-112832761D01*
X102838686Y-112993175D01*
X102838687Y-112993179D01*
X102855117Y-113160000D01*
X102838687Y-113326821D01*
X102838686Y-113326824D01*
X102838686Y-113326825D01*
X102825572Y-113370057D01*
X102790023Y-113487244D01*
X102711005Y-113635078D01*
X102604659Y-113764659D01*
X102475078Y-113871005D01*
X102327244Y-113950023D01*
X102327241Y-113950024D01*
X102327239Y-113950025D01*
X102166825Y-113998686D01*
X102166824Y-113998686D01*
X102166821Y-113998687D01*
X102041804Y-114011000D01*
X101958196Y-114011000D01*
X101833179Y-113998687D01*
X101833176Y-113998686D01*
X101833175Y-113998686D01*
X101672761Y-113950025D01*
X101672759Y-113950024D01*
X101672756Y-113950023D01*
X101524922Y-113871005D01*
X101395341Y-113764659D01*
X101288995Y-113635078D01*
X101209977Y-113487244D01*
X101174429Y-113370057D01*
X101161314Y-113326825D01*
X101161314Y-113326824D01*
X101161313Y-113326821D01*
X101144883Y-113160000D01*
X101161313Y-112993179D01*
X101161314Y-112993175D01*
X101209975Y-112832761D01*
X101209976Y-112832759D01*
X101209977Y-112832756D01*
X101288995Y-112684922D01*
X101395341Y-112555341D01*
X101524922Y-112448995D01*
X101672756Y-112369977D01*
X101672759Y-112369976D01*
X101672761Y-112369975D01*
X101833175Y-112321314D01*
X101833176Y-112321314D01*
X101833179Y-112321313D01*
X101958196Y-112309000D01*
X102041804Y-112309000D01*
X102166821Y-112321313D01*
X102166821Y-112321313D01*
G37*
G36*
X108662812Y-111253624D02*
X108826784Y-111321544D01*
X108974354Y-111420147D01*
X109099853Y-111545646D01*
X109198456Y-111693216D01*
X109266376Y-111857188D01*
X109301000Y-112031259D01*
X109301000Y-112208741D01*
X109266376Y-112382812D01*
X109198456Y-112546784D01*
X109099853Y-112694354D01*
X108974354Y-112819853D01*
X108826784Y-112918456D01*
X108662812Y-112986376D01*
X108488741Y-113021000D01*
X108311259Y-113021000D01*
X108137188Y-112986376D01*
X107973216Y-112918456D01*
X107825646Y-112819853D01*
X107700147Y-112694354D01*
X107601544Y-112546784D01*
X107533624Y-112382812D01*
X107499000Y-112208741D01*
X107499000Y-112031259D01*
X107533624Y-111857188D01*
X107601544Y-111693216D01*
X107700147Y-111545646D01*
X107825646Y-111420147D01*
X107973216Y-111321544D01*
X108137188Y-111253624D01*
X108311259Y-111219000D01*
X108488741Y-111219000D01*
X108662812Y-111253624D01*
X108662812Y-111253624D01*
G37*
G36*
X83262812Y-111253624D02*
X83426784Y-111321544D01*
X83574354Y-111420147D01*
X83699853Y-111545646D01*
X83798456Y-111693216D01*
X83866376Y-111857188D01*
X83901000Y-112031259D01*
X83901000Y-112208741D01*
X83866376Y-112382812D01*
X83798456Y-112546784D01*
X83699853Y-112694354D01*
X83574354Y-112819853D01*
X83426784Y-112918456D01*
X83262812Y-112986376D01*
X83088741Y-113021000D01*
X82911259Y-113021000D01*
X82737188Y-112986376D01*
X82573216Y-112918456D01*
X82425646Y-112819853D01*
X82300147Y-112694354D01*
X82201544Y-112546784D01*
X82133624Y-112382812D01*
X82099000Y-112208741D01*
X82099000Y-112031259D01*
X82133624Y-111857188D01*
X82201544Y-111693216D01*
X82300147Y-111545646D01*
X82425646Y-111420147D01*
X82573216Y-111321544D01*
X82737188Y-111253624D01*
X82911259Y-111219000D01*
X83088741Y-111219000D01*
X83262812Y-111253624D01*
X83262812Y-111253624D01*
G37*
G36*
X83262812Y-108713624D02*
X83426784Y-108781544D01*
X83574354Y-108880147D01*
X83699853Y-109005646D01*
X83798456Y-109153216D01*
X83866376Y-109317188D01*
X83901000Y-109491259D01*
X83901000Y-109668741D01*
X83866376Y-109842812D01*
X83798456Y-110006784D01*
X83699853Y-110154354D01*
X83574354Y-110279853D01*
X83426784Y-110378456D01*
X83262812Y-110446376D01*
X83088741Y-110481000D01*
X82911259Y-110481000D01*
X82737188Y-110446376D01*
X82573216Y-110378456D01*
X82425646Y-110279853D01*
X82300147Y-110154354D01*
X82201544Y-110006784D01*
X82133624Y-109842812D01*
X82099000Y-109668741D01*
X82099000Y-109491259D01*
X82133624Y-109317188D01*
X82201544Y-109153216D01*
X82300147Y-109005646D01*
X82425646Y-108880147D01*
X82573216Y-108781544D01*
X82737188Y-108713624D01*
X82911259Y-108679000D01*
X83088741Y-108679000D01*
X83262812Y-108713624D01*
X83262812Y-108713624D01*
G37*
G36*
X108662812Y-108713624D02*
X108826784Y-108781544D01*
X108974354Y-108880147D01*
X109099853Y-109005646D01*
X109198456Y-109153216D01*
X109266376Y-109317188D01*
X109301000Y-109491259D01*
X109301000Y-109668741D01*
X109266376Y-109842812D01*
X109198456Y-110006784D01*
X109099853Y-110154354D01*
X108974354Y-110279853D01*
X108826784Y-110378456D01*
X108662812Y-110446376D01*
X108488741Y-110481000D01*
X108311259Y-110481000D01*
X108137188Y-110446376D01*
X107973216Y-110378456D01*
X107825646Y-110279853D01*
X107700147Y-110154354D01*
X107601544Y-110006784D01*
X107533624Y-109842812D01*
X107499000Y-109668741D01*
X107499000Y-109491259D01*
X107533624Y-109317188D01*
X107601544Y-109153216D01*
X107700147Y-109005646D01*
X107825646Y-108880147D01*
X107973216Y-108781544D01*
X108137188Y-108713624D01*
X108311259Y-108679000D01*
X108488741Y-108679000D01*
X108662812Y-108713624D01*
X108662812Y-108713624D01*
G37*
G36*
X71170752Y-107838456D02*
X71364903Y-107877075D01*
X71592571Y-107971378D01*
X71796542Y-108107668D01*
X71797469Y-108108287D01*
X71971713Y-108282531D01*
X71971715Y-108282534D01*
X72108622Y-108487429D01*
X72202925Y-108715097D01*
X72251000Y-108956787D01*
X72251000Y-109203213D01*
X72202925Y-109444903D01*
X72108622Y-109672571D01*
X71994870Y-109842812D01*
X71971713Y-109877469D01*
X71797469Y-110051713D01*
X71797466Y-110051715D01*
X71592571Y-110188622D01*
X71364903Y-110282925D01*
X71183636Y-110318981D01*
X71123214Y-110331000D01*
X70876786Y-110331000D01*
X70816364Y-110318981D01*
X70635097Y-110282925D01*
X70407429Y-110188622D01*
X70202534Y-110051715D01*
X70202531Y-110051713D01*
X70028287Y-109877469D01*
X70005130Y-109842812D01*
X69891378Y-109672571D01*
X69797075Y-109444903D01*
X69749000Y-109203213D01*
X69749000Y-108956787D01*
X69797075Y-108715097D01*
X69891378Y-108487429D01*
X70028285Y-108282534D01*
X70028287Y-108282531D01*
X70202531Y-108108287D01*
X70203458Y-108107668D01*
X70407429Y-107971378D01*
X70635097Y-107877075D01*
X70829248Y-107838456D01*
X70876786Y-107829000D01*
X71123214Y-107829000D01*
X71170752Y-107838456D01*
X71170752Y-107838456D01*
G37*
G36*
X66090752Y-107838456D02*
X66284903Y-107877075D01*
X66512571Y-107971378D01*
X66716542Y-108107668D01*
X66717469Y-108108287D01*
X66891713Y-108282531D01*
X66891715Y-108282534D01*
X67028622Y-108487429D01*
X67122925Y-108715097D01*
X67171000Y-108956787D01*
X67171000Y-109203213D01*
X67122925Y-109444903D01*
X67028622Y-109672571D01*
X66914870Y-109842812D01*
X66891713Y-109877469D01*
X66717469Y-110051713D01*
X66717466Y-110051715D01*
X66512571Y-110188622D01*
X66284903Y-110282925D01*
X66103636Y-110318981D01*
X66043214Y-110331000D01*
X65796786Y-110331000D01*
X65736364Y-110318981D01*
X65555097Y-110282925D01*
X65327429Y-110188622D01*
X65122534Y-110051715D01*
X65122531Y-110051713D01*
X64948287Y-109877469D01*
X64925130Y-109842812D01*
X64811378Y-109672571D01*
X64717075Y-109444903D01*
X64669000Y-109203213D01*
X64669000Y-108956787D01*
X64717075Y-108715097D01*
X64811378Y-108487429D01*
X64948285Y-108282534D01*
X64948287Y-108282531D01*
X65122531Y-108108287D01*
X65123458Y-108107668D01*
X65327429Y-107971378D01*
X65555097Y-107877075D01*
X65749248Y-107838456D01*
X65796786Y-107829000D01*
X66043214Y-107829000D01*
X66090752Y-107838456D01*
X66090752Y-107838456D01*
G37*
G36*
X83262812Y-106173624D02*
X83426784Y-106241544D01*
X83574354Y-106340147D01*
X83699853Y-106465646D01*
X83798456Y-106613216D01*
X83866376Y-106777188D01*
X83901000Y-106951259D01*
X83901000Y-107128741D01*
X83866376Y-107302812D01*
X83798456Y-107466784D01*
X83699853Y-107614354D01*
X83574354Y-107739853D01*
X83426784Y-107838456D01*
X83262812Y-107906376D01*
X83088741Y-107941000D01*
X82911259Y-107941000D01*
X82737188Y-107906376D01*
X82573216Y-107838456D01*
X82425646Y-107739853D01*
X82300147Y-107614354D01*
X82201544Y-107466784D01*
X82133624Y-107302812D01*
X82099000Y-107128741D01*
X82099000Y-106951259D01*
X82133624Y-106777188D01*
X82201544Y-106613216D01*
X82300147Y-106465646D01*
X82425646Y-106340147D01*
X82573216Y-106241544D01*
X82737188Y-106173624D01*
X82911259Y-106139000D01*
X83088741Y-106139000D01*
X83262812Y-106173624D01*
X83262812Y-106173624D01*
G37*
G36*
X108662812Y-106173624D02*
X108826784Y-106241544D01*
X108974354Y-106340147D01*
X109099853Y-106465646D01*
X109198456Y-106613216D01*
X109266376Y-106777188D01*
X109301000Y-106951259D01*
X109301000Y-107128741D01*
X109266376Y-107302812D01*
X109198456Y-107466784D01*
X109099853Y-107614354D01*
X108974354Y-107739853D01*
X108826784Y-107838456D01*
X108662812Y-107906376D01*
X108488741Y-107941000D01*
X108311259Y-107941000D01*
X108137188Y-107906376D01*
X107973216Y-107838456D01*
X107825646Y-107739853D01*
X107700147Y-107614354D01*
X107601544Y-107466784D01*
X107533624Y-107302812D01*
X107499000Y-107128741D01*
X107499000Y-106951259D01*
X107533624Y-106777188D01*
X107601544Y-106613216D01*
X107700147Y-106465646D01*
X107825646Y-106340147D01*
X107973216Y-106241544D01*
X108137188Y-106173624D01*
X108311259Y-106139000D01*
X108488741Y-106139000D01*
X108662812Y-106173624D01*
X108662812Y-106173624D01*
G37*
G36*
X83262812Y-103633624D02*
X83426784Y-103701544D01*
X83574354Y-103800147D01*
X83699853Y-103925646D01*
X83798456Y-104073216D01*
X83866376Y-104237188D01*
X83901000Y-104411259D01*
X83901000Y-104588741D01*
X83866376Y-104762812D01*
X83798456Y-104926784D01*
X83699853Y-105074354D01*
X83574354Y-105199853D01*
X83426784Y-105298456D01*
X83262812Y-105366376D01*
X83088741Y-105401000D01*
X82911259Y-105401000D01*
X82737188Y-105366376D01*
X82573216Y-105298456D01*
X82425646Y-105199853D01*
X82300147Y-105074354D01*
X82201544Y-104926784D01*
X82133624Y-104762812D01*
X82099000Y-104588741D01*
X82099000Y-104411259D01*
X82133624Y-104237188D01*
X82201544Y-104073216D01*
X82300147Y-103925646D01*
X82425646Y-103800147D01*
X82573216Y-103701544D01*
X82737188Y-103633624D01*
X82911259Y-103599000D01*
X83088741Y-103599000D01*
X83262812Y-103633624D01*
X83262812Y-103633624D01*
G37*
G36*
X108662812Y-103633624D02*
X108826784Y-103701544D01*
X108974354Y-103800147D01*
X109099853Y-103925646D01*
X109198456Y-104073216D01*
X109266376Y-104237188D01*
X109301000Y-104411259D01*
X109301000Y-104588741D01*
X109266376Y-104762812D01*
X109198456Y-104926784D01*
X109099853Y-105074354D01*
X108974354Y-105199853D01*
X108826784Y-105298456D01*
X108662812Y-105366376D01*
X108488741Y-105401000D01*
X108311259Y-105401000D01*
X108137188Y-105366376D01*
X107973216Y-105298456D01*
X107825646Y-105199853D01*
X107700147Y-105074354D01*
X107601544Y-104926784D01*
X107533624Y-104762812D01*
X107499000Y-104588741D01*
X107499000Y-104411259D01*
X107533624Y-104237188D01*
X107601544Y-104073216D01*
X107700147Y-103925646D01*
X107825646Y-103800147D01*
X107973216Y-103701544D01*
X108137188Y-103633624D01*
X108311259Y-103599000D01*
X108488741Y-103599000D01*
X108662812Y-103633624D01*
X108662812Y-103633624D01*
G37*
G36*
X66103636Y-102761019D02*
X66284903Y-102797075D01*
X66512571Y-102891378D01*
X66716542Y-103027668D01*
X66717469Y-103028287D01*
X66891713Y-103202531D01*
X66891715Y-103202534D01*
X67028622Y-103407429D01*
X67122925Y-103635097D01*
X67171000Y-103876787D01*
X67171000Y-104123213D01*
X67122925Y-104364903D01*
X67028622Y-104592571D01*
X66914870Y-104762812D01*
X66891713Y-104797469D01*
X66717469Y-104971713D01*
X66717466Y-104971715D01*
X66512571Y-105108622D01*
X66284903Y-105202925D01*
X66103635Y-105238981D01*
X66043214Y-105251000D01*
X65796786Y-105251000D01*
X65736365Y-105238981D01*
X65555097Y-105202925D01*
X65327429Y-105108622D01*
X65122534Y-104971715D01*
X65122531Y-104971713D01*
X64948287Y-104797469D01*
X64925130Y-104762812D01*
X64811378Y-104592571D01*
X64717075Y-104364903D01*
X64669000Y-104123213D01*
X64669000Y-103876787D01*
X64717075Y-103635097D01*
X64811378Y-103407429D01*
X64948285Y-103202534D01*
X64948287Y-103202531D01*
X65122531Y-103028287D01*
X65123458Y-103027668D01*
X65327429Y-102891378D01*
X65555097Y-102797075D01*
X65736365Y-102761019D01*
X65796786Y-102749000D01*
X66043214Y-102749000D01*
X66103636Y-102761019D01*
X66103636Y-102761019D01*
G37*
G36*
X72251000Y-105251000D02*
X69749000Y-105251000D01*
X69749000Y-102749000D01*
X72251000Y-102749000D01*
X72251000Y-105251000D01*
X72251000Y-105251000D01*
G37*
G36*
X90248228Y-102181703D02*
X90403100Y-102245853D01*
X90542481Y-102338985D01*
X90661015Y-102457519D01*
X90754147Y-102596900D01*
X90818297Y-102751772D01*
X90851000Y-102916184D01*
X90851000Y-103083816D01*
X90818297Y-103248228D01*
X90754147Y-103403100D01*
X90661015Y-103542481D01*
X90542481Y-103661015D01*
X90403100Y-103754147D01*
X90248228Y-103818297D01*
X90083816Y-103851000D01*
X89916184Y-103851000D01*
X89751772Y-103818297D01*
X89596900Y-103754147D01*
X89457519Y-103661015D01*
X89338985Y-103542481D01*
X89245853Y-103403100D01*
X89181703Y-103248228D01*
X89149000Y-103083816D01*
X89149000Y-102916184D01*
X89181703Y-102751772D01*
X89245853Y-102596900D01*
X89338985Y-102457519D01*
X89457519Y-102338985D01*
X89596900Y-102245853D01*
X89751772Y-102181703D01*
X89916184Y-102149000D01*
X90083816Y-102149000D01*
X90248228Y-102181703D01*
X90248228Y-102181703D01*
G37*
G36*
X96248228Y-102181703D02*
X96403100Y-102245853D01*
X96542481Y-102338985D01*
X96661015Y-102457519D01*
X96754147Y-102596900D01*
X96818297Y-102751772D01*
X96851000Y-102916184D01*
X96851000Y-103083816D01*
X96818297Y-103248228D01*
X96754147Y-103403100D01*
X96661015Y-103542481D01*
X96542481Y-103661015D01*
X96403100Y-103754147D01*
X96248228Y-103818297D01*
X96083816Y-103851000D01*
X95916184Y-103851000D01*
X95751772Y-103818297D01*
X95596900Y-103754147D01*
X95457519Y-103661015D01*
X95338985Y-103542481D01*
X95245853Y-103403100D01*
X95181703Y-103248228D01*
X95149000Y-103083816D01*
X95149000Y-102916184D01*
X95181703Y-102751772D01*
X95245853Y-102596900D01*
X95338985Y-102457519D01*
X95457519Y-102338985D01*
X95596900Y-102245853D01*
X95751772Y-102181703D01*
X95916184Y-102149000D01*
X96083816Y-102149000D01*
X96248228Y-102181703D01*
X96248228Y-102181703D01*
G37*
G36*
X102248228Y-102181703D02*
X102403100Y-102245853D01*
X102542481Y-102338985D01*
X102661015Y-102457519D01*
X102754147Y-102596900D01*
X102818297Y-102751772D01*
X102851000Y-102916184D01*
X102851000Y-103083816D01*
X102818297Y-103248228D01*
X102754147Y-103403100D01*
X102661015Y-103542481D01*
X102542481Y-103661015D01*
X102403100Y-103754147D01*
X102248228Y-103818297D01*
X102083816Y-103851000D01*
X101916184Y-103851000D01*
X101751772Y-103818297D01*
X101596900Y-103754147D01*
X101457519Y-103661015D01*
X101338985Y-103542481D01*
X101245853Y-103403100D01*
X101181703Y-103248228D01*
X101149000Y-103083816D01*
X101149000Y-102916184D01*
X101181703Y-102751772D01*
X101245853Y-102596900D01*
X101338985Y-102457519D01*
X101457519Y-102338985D01*
X101596900Y-102245853D01*
X101751772Y-102181703D01*
X101916184Y-102149000D01*
X102083816Y-102149000D01*
X102248228Y-102181703D01*
X102248228Y-102181703D01*
G37*
G36*
X106352527Y-89488736D02*
X106452410Y-89508604D01*
X106734674Y-89625521D01*
X106988705Y-89795259D01*
X107204741Y-90011295D01*
X107374479Y-90265326D01*
X107491396Y-90547590D01*
X107491396Y-90547591D01*
X107531653Y-90749973D01*
X107551000Y-90847240D01*
X107551000Y-91152760D01*
X107491396Y-91452410D01*
X107374479Y-91734674D01*
X107204741Y-91988705D01*
X106988705Y-92204741D01*
X106734674Y-92374479D01*
X106452410Y-92491396D01*
X106352527Y-92511264D01*
X106152762Y-92551000D01*
X105847238Y-92551000D01*
X105647473Y-92511264D01*
X105547590Y-92491396D01*
X105265326Y-92374479D01*
X105011295Y-92204741D01*
X104795259Y-91988705D01*
X104625521Y-91734674D01*
X104508604Y-91452410D01*
X104449000Y-91152760D01*
X104449000Y-90847240D01*
X104468348Y-90749973D01*
X104508604Y-90547591D01*
X104508604Y-90547590D01*
X104625521Y-90265326D01*
X104795259Y-90011295D01*
X105011295Y-89795259D01*
X105265326Y-89625521D01*
X105547590Y-89508604D01*
X105647473Y-89488736D01*
X105847238Y-89449000D01*
X106152762Y-89449000D01*
X106352527Y-89488736D01*
X106352527Y-89488736D01*
G37*
G36*
X96352527Y-89488736D02*
X96452410Y-89508604D01*
X96734674Y-89625521D01*
X96988705Y-89795259D01*
X97204741Y-90011295D01*
X97374479Y-90265326D01*
X97491396Y-90547590D01*
X97491396Y-90547591D01*
X97531653Y-90749973D01*
X97551000Y-90847240D01*
X97551000Y-91152760D01*
X97491396Y-91452410D01*
X97374479Y-91734674D01*
X97204741Y-91988705D01*
X96988705Y-92204741D01*
X96734674Y-92374479D01*
X96452410Y-92491396D01*
X96352527Y-92511264D01*
X96152762Y-92551000D01*
X95847238Y-92551000D01*
X95647473Y-92511264D01*
X95547590Y-92491396D01*
X95265326Y-92374479D01*
X95011295Y-92204741D01*
X94795259Y-91988705D01*
X94625521Y-91734674D01*
X94508604Y-91452410D01*
X94449000Y-91152760D01*
X94449000Y-90847240D01*
X94468348Y-90749973D01*
X94508604Y-90547591D01*
X94508604Y-90547590D01*
X94625521Y-90265326D01*
X94795259Y-90011295D01*
X95011295Y-89795259D01*
X95265326Y-89625521D01*
X95547590Y-89508604D01*
X95647473Y-89488736D01*
X95847238Y-89449000D01*
X96152762Y-89449000D01*
X96352527Y-89488736D01*
X96352527Y-89488736D01*
G37*
G36*
X67296565Y-89069389D02*
X67487834Y-89148615D01*
X67659976Y-89263637D01*
X67806363Y-89410024D01*
X67921385Y-89582166D01*
X68000611Y-89773435D01*
X68041000Y-89976484D01*
X68041000Y-90183516D01*
X68000611Y-90386565D01*
X67921385Y-90577834D01*
X67806363Y-90749976D01*
X67659976Y-90896363D01*
X67487834Y-91011385D01*
X67296565Y-91090611D01*
X67093516Y-91131000D01*
X66886484Y-91131000D01*
X66683435Y-91090611D01*
X66492166Y-91011385D01*
X66320024Y-90896363D01*
X66173637Y-90749976D01*
X66058615Y-90577834D01*
X65979389Y-90386565D01*
X65939000Y-90183516D01*
X65939000Y-89976484D01*
X65979389Y-89773435D01*
X66058615Y-89582166D01*
X66173637Y-89410024D01*
X66320024Y-89263637D01*
X66492166Y-89148615D01*
X66683435Y-89069389D01*
X66886484Y-89029000D01*
X67093516Y-89029000D01*
X67296565Y-89069389D01*
X67296565Y-89069389D01*
G37*
G36*
X131786821Y-85241313D02*
X131786824Y-85241314D01*
X131786825Y-85241314D01*
X131947239Y-85289975D01*
X131947241Y-85289976D01*
X131947244Y-85289977D01*
X132095078Y-85368995D01*
X132224659Y-85475341D01*
X132331005Y-85604922D01*
X132410023Y-85752756D01*
X132458687Y-85913179D01*
X132475117Y-86080000D01*
X132458687Y-86246821D01*
X132410023Y-86407244D01*
X132331005Y-86555078D01*
X132224659Y-86684659D01*
X132095078Y-86791005D01*
X131947244Y-86870023D01*
X131947241Y-86870024D01*
X131947239Y-86870025D01*
X131786825Y-86918686D01*
X131786824Y-86918686D01*
X131786821Y-86918687D01*
X131661804Y-86931000D01*
X131578196Y-86931000D01*
X131453179Y-86918687D01*
X131453176Y-86918686D01*
X131453175Y-86918686D01*
X131292761Y-86870025D01*
X131292759Y-86870024D01*
X131292756Y-86870023D01*
X131144922Y-86791005D01*
X131015341Y-86684659D01*
X130908995Y-86555078D01*
X130829977Y-86407244D01*
X130781313Y-86246821D01*
X130764883Y-86080000D01*
X130781313Y-85913179D01*
X130829977Y-85752756D01*
X130908995Y-85604922D01*
X131015341Y-85475341D01*
X131144922Y-85368995D01*
X131292756Y-85289977D01*
X131292759Y-85289976D01*
X131292761Y-85289975D01*
X131453175Y-85241314D01*
X131453176Y-85241314D01*
X131453179Y-85241313D01*
X131578196Y-85229000D01*
X131661804Y-85229000D01*
X131786821Y-85241313D01*
X131786821Y-85241313D01*
G37*
G36*
X136166821Y-85241313D02*
X136166824Y-85241314D01*
X136166825Y-85241314D01*
X136327239Y-85289975D01*
X136327241Y-85289976D01*
X136327244Y-85289977D01*
X136475078Y-85368995D01*
X136604659Y-85475341D01*
X136711005Y-85604922D01*
X136790023Y-85752756D01*
X136838687Y-85913179D01*
X136855117Y-86080000D01*
X136838687Y-86246821D01*
X136790023Y-86407244D01*
X136711005Y-86555078D01*
X136604659Y-86684659D01*
X136475078Y-86791005D01*
X136327244Y-86870023D01*
X136327241Y-86870024D01*
X136327239Y-86870025D01*
X136166825Y-86918686D01*
X136166824Y-86918686D01*
X136166821Y-86918687D01*
X136041804Y-86931000D01*
X135958196Y-86931000D01*
X135833179Y-86918687D01*
X135833176Y-86918686D01*
X135833175Y-86918686D01*
X135672761Y-86870025D01*
X135672759Y-86870024D01*
X135672756Y-86870023D01*
X135524922Y-86791005D01*
X135395341Y-86684659D01*
X135288995Y-86555078D01*
X135209977Y-86407244D01*
X135161313Y-86246821D01*
X135144883Y-86080000D01*
X135161313Y-85913179D01*
X135209977Y-85752756D01*
X135288995Y-85604922D01*
X135395341Y-85475341D01*
X135524922Y-85368995D01*
X135672756Y-85289977D01*
X135672759Y-85289976D01*
X135672761Y-85289975D01*
X135833175Y-85241314D01*
X135833176Y-85241314D01*
X135833179Y-85241313D01*
X135958196Y-85229000D01*
X136041804Y-85229000D01*
X136166821Y-85241313D01*
X136166821Y-85241313D01*
G37*
G36*
X143786821Y-85241313D02*
X143786824Y-85241314D01*
X143786825Y-85241314D01*
X143947239Y-85289975D01*
X143947241Y-85289976D01*
X143947244Y-85289977D01*
X144095078Y-85368995D01*
X144224659Y-85475341D01*
X144331005Y-85604922D01*
X144410023Y-85752756D01*
X144458687Y-85913179D01*
X144475117Y-86080000D01*
X144458687Y-86246821D01*
X144410023Y-86407244D01*
X144331005Y-86555078D01*
X144224659Y-86684659D01*
X144095078Y-86791005D01*
X143947244Y-86870023D01*
X143947241Y-86870024D01*
X143947239Y-86870025D01*
X143786825Y-86918686D01*
X143786824Y-86918686D01*
X143786821Y-86918687D01*
X143661804Y-86931000D01*
X143578196Y-86931000D01*
X143453179Y-86918687D01*
X143453176Y-86918686D01*
X143453175Y-86918686D01*
X143292761Y-86870025D01*
X143292759Y-86870024D01*
X143292756Y-86870023D01*
X143144922Y-86791005D01*
X143015341Y-86684659D01*
X142908995Y-86555078D01*
X142829977Y-86407244D01*
X142781313Y-86246821D01*
X142764883Y-86080000D01*
X142781313Y-85913179D01*
X142829977Y-85752756D01*
X142908995Y-85604922D01*
X143015341Y-85475341D01*
X143144922Y-85368995D01*
X143292756Y-85289977D01*
X143292759Y-85289976D01*
X143292761Y-85289975D01*
X143453175Y-85241314D01*
X143453176Y-85241314D01*
X143453179Y-85241313D01*
X143578196Y-85229000D01*
X143661804Y-85229000D01*
X143786821Y-85241313D01*
X143786821Y-85241313D01*
G37*
G36*
X155786821Y-85241313D02*
X155786824Y-85241314D01*
X155786825Y-85241314D01*
X155947239Y-85289975D01*
X155947241Y-85289976D01*
X155947244Y-85289977D01*
X156095078Y-85368995D01*
X156224659Y-85475341D01*
X156331005Y-85604922D01*
X156410023Y-85752756D01*
X156458687Y-85913179D01*
X156475117Y-86080000D01*
X156458687Y-86246821D01*
X156410023Y-86407244D01*
X156331005Y-86555078D01*
X156224659Y-86684659D01*
X156095078Y-86791005D01*
X155947244Y-86870023D01*
X155947241Y-86870024D01*
X155947239Y-86870025D01*
X155786825Y-86918686D01*
X155786824Y-86918686D01*
X155786821Y-86918687D01*
X155661804Y-86931000D01*
X155578196Y-86931000D01*
X155453179Y-86918687D01*
X155453176Y-86918686D01*
X155453175Y-86918686D01*
X155292761Y-86870025D01*
X155292759Y-86870024D01*
X155292756Y-86870023D01*
X155144922Y-86791005D01*
X155015341Y-86684659D01*
X154908995Y-86555078D01*
X154829977Y-86407244D01*
X154781313Y-86246821D01*
X154764883Y-86080000D01*
X154781313Y-85913179D01*
X154829977Y-85752756D01*
X154908995Y-85604922D01*
X155015341Y-85475341D01*
X155144922Y-85368995D01*
X155292756Y-85289977D01*
X155292759Y-85289976D01*
X155292761Y-85289975D01*
X155453175Y-85241314D01*
X155453176Y-85241314D01*
X155453179Y-85241313D01*
X155578196Y-85229000D01*
X155661804Y-85229000D01*
X155786821Y-85241313D01*
X155786821Y-85241313D01*
G37*
G36*
X148166821Y-85241313D02*
X148166824Y-85241314D01*
X148166825Y-85241314D01*
X148327239Y-85289975D01*
X148327241Y-85289976D01*
X148327244Y-85289977D01*
X148475078Y-85368995D01*
X148604659Y-85475341D01*
X148711005Y-85604922D01*
X148790023Y-85752756D01*
X148838687Y-85913179D01*
X148855117Y-86080000D01*
X148838687Y-86246821D01*
X148790023Y-86407244D01*
X148711005Y-86555078D01*
X148604659Y-86684659D01*
X148475078Y-86791005D01*
X148327244Y-86870023D01*
X148327241Y-86870024D01*
X148327239Y-86870025D01*
X148166825Y-86918686D01*
X148166824Y-86918686D01*
X148166821Y-86918687D01*
X148041804Y-86931000D01*
X147958196Y-86931000D01*
X147833179Y-86918687D01*
X147833176Y-86918686D01*
X147833175Y-86918686D01*
X147672761Y-86870025D01*
X147672759Y-86870024D01*
X147672756Y-86870023D01*
X147524922Y-86791005D01*
X147395341Y-86684659D01*
X147288995Y-86555078D01*
X147209977Y-86407244D01*
X147161313Y-86246821D01*
X147144883Y-86080000D01*
X147161313Y-85913179D01*
X147209977Y-85752756D01*
X147288995Y-85604922D01*
X147395341Y-85475341D01*
X147524922Y-85368995D01*
X147672756Y-85289977D01*
X147672759Y-85289976D01*
X147672761Y-85289975D01*
X147833175Y-85241314D01*
X147833176Y-85241314D01*
X147833179Y-85241313D01*
X147958196Y-85229000D01*
X148041804Y-85229000D01*
X148166821Y-85241313D01*
X148166821Y-85241313D01*
G37*
G36*
X124166821Y-85241313D02*
X124166824Y-85241314D01*
X124166825Y-85241314D01*
X124327239Y-85289975D01*
X124327241Y-85289976D01*
X124327244Y-85289977D01*
X124475078Y-85368995D01*
X124604659Y-85475341D01*
X124711005Y-85604922D01*
X124790023Y-85752756D01*
X124838687Y-85913179D01*
X124855117Y-86080000D01*
X124838687Y-86246821D01*
X124790023Y-86407244D01*
X124711005Y-86555078D01*
X124604659Y-86684659D01*
X124475078Y-86791005D01*
X124327244Y-86870023D01*
X124327241Y-86870024D01*
X124327239Y-86870025D01*
X124166825Y-86918686D01*
X124166824Y-86918686D01*
X124166821Y-86918687D01*
X124041804Y-86931000D01*
X123958196Y-86931000D01*
X123833179Y-86918687D01*
X123833176Y-86918686D01*
X123833175Y-86918686D01*
X123672761Y-86870025D01*
X123672759Y-86870024D01*
X123672756Y-86870023D01*
X123524922Y-86791005D01*
X123395341Y-86684659D01*
X123288995Y-86555078D01*
X123209977Y-86407244D01*
X123161313Y-86246821D01*
X123144883Y-86080000D01*
X123161313Y-85913179D01*
X123209977Y-85752756D01*
X123288995Y-85604922D01*
X123395341Y-85475341D01*
X123524922Y-85368995D01*
X123672756Y-85289977D01*
X123672759Y-85289976D01*
X123672761Y-85289975D01*
X123833175Y-85241314D01*
X123833176Y-85241314D01*
X123833179Y-85241313D01*
X123958196Y-85229000D01*
X124041804Y-85229000D01*
X124166821Y-85241313D01*
X124166821Y-85241313D01*
G37*
G36*
X67306565Y-83989389D02*
X67497834Y-84068615D01*
X67669976Y-84183637D01*
X67816363Y-84330024D01*
X67931385Y-84502166D01*
X68010611Y-84693435D01*
X68051000Y-84896484D01*
X68051000Y-85103516D01*
X68010611Y-85306565D01*
X67931385Y-85497834D01*
X67816363Y-85669976D01*
X67669976Y-85816363D01*
X67497834Y-85931385D01*
X67306565Y-86010611D01*
X67103516Y-86051000D01*
X66896484Y-86051000D01*
X66693435Y-86010611D01*
X66502166Y-85931385D01*
X66330024Y-85816363D01*
X66183637Y-85669976D01*
X66068615Y-85497834D01*
X65989389Y-85306565D01*
X65949000Y-85103516D01*
X65949000Y-84896484D01*
X65989389Y-84693435D01*
X66068615Y-84502166D01*
X66183637Y-84330024D01*
X66330024Y-84183637D01*
X66502166Y-84068615D01*
X66693435Y-83989389D01*
X66896484Y-83949000D01*
X67103516Y-83949000D01*
X67306565Y-83989389D01*
X67306565Y-83989389D01*
G37*
G36*
X77806565Y-82989389D02*
X77997834Y-83068615D01*
X78169976Y-83183637D01*
X78316363Y-83330024D01*
X78431385Y-83502166D01*
X78510611Y-83693435D01*
X78551000Y-83896484D01*
X78551000Y-84103516D01*
X78510611Y-84306565D01*
X78431385Y-84497834D01*
X78316363Y-84669976D01*
X78169976Y-84816363D01*
X77997834Y-84931385D01*
X77806565Y-85010611D01*
X77603516Y-85051000D01*
X77396484Y-85051000D01*
X77193435Y-85010611D01*
X77002166Y-84931385D01*
X76830024Y-84816363D01*
X76683637Y-84669976D01*
X76568615Y-84497834D01*
X76489389Y-84306565D01*
X76449000Y-84103516D01*
X76449000Y-83896484D01*
X76489389Y-83693435D01*
X76568615Y-83502166D01*
X76683637Y-83330024D01*
X76830024Y-83183637D01*
X77002166Y-83068615D01*
X77193435Y-82989389D01*
X77396484Y-82949000D01*
X77603516Y-82949000D01*
X77806565Y-82989389D01*
X77806565Y-82989389D01*
G37*
G36*
X131786821Y-82701313D02*
X131786824Y-82701314D01*
X131786825Y-82701314D01*
X131947239Y-82749975D01*
X131947241Y-82749976D01*
X131947244Y-82749977D01*
X132095078Y-82828995D01*
X132224659Y-82935341D01*
X132331005Y-83064922D01*
X132410023Y-83212756D01*
X132458687Y-83373179D01*
X132475117Y-83540000D01*
X132458687Y-83706821D01*
X132410023Y-83867244D01*
X132331005Y-84015078D01*
X132224659Y-84144659D01*
X132095078Y-84251005D01*
X131947244Y-84330023D01*
X131947241Y-84330024D01*
X131947239Y-84330025D01*
X131786825Y-84378686D01*
X131786824Y-84378686D01*
X131786821Y-84378687D01*
X131661804Y-84391000D01*
X131578196Y-84391000D01*
X131453179Y-84378687D01*
X131453176Y-84378686D01*
X131453175Y-84378686D01*
X131292761Y-84330025D01*
X131292759Y-84330024D01*
X131292756Y-84330023D01*
X131144922Y-84251005D01*
X131015341Y-84144659D01*
X130908995Y-84015078D01*
X130829977Y-83867244D01*
X130781313Y-83706821D01*
X130764883Y-83540000D01*
X130781313Y-83373179D01*
X130829977Y-83212756D01*
X130908995Y-83064922D01*
X131015341Y-82935341D01*
X131144922Y-82828995D01*
X131292756Y-82749977D01*
X131292759Y-82749976D01*
X131292761Y-82749975D01*
X131453175Y-82701314D01*
X131453176Y-82701314D01*
X131453179Y-82701313D01*
X131578196Y-82689000D01*
X131661804Y-82689000D01*
X131786821Y-82701313D01*
X131786821Y-82701313D01*
G37*
G36*
X124166821Y-82701313D02*
X124166824Y-82701314D01*
X124166825Y-82701314D01*
X124327239Y-82749975D01*
X124327241Y-82749976D01*
X124327244Y-82749977D01*
X124475078Y-82828995D01*
X124604659Y-82935341D01*
X124711005Y-83064922D01*
X124790023Y-83212756D01*
X124838687Y-83373179D01*
X124855117Y-83540000D01*
X124838687Y-83706821D01*
X124790023Y-83867244D01*
X124711005Y-84015078D01*
X124604659Y-84144659D01*
X124475078Y-84251005D01*
X124327244Y-84330023D01*
X124327241Y-84330024D01*
X124327239Y-84330025D01*
X124166825Y-84378686D01*
X124166824Y-84378686D01*
X124166821Y-84378687D01*
X124041804Y-84391000D01*
X123958196Y-84391000D01*
X123833179Y-84378687D01*
X123833176Y-84378686D01*
X123833175Y-84378686D01*
X123672761Y-84330025D01*
X123672759Y-84330024D01*
X123672756Y-84330023D01*
X123524922Y-84251005D01*
X123395341Y-84144659D01*
X123288995Y-84015078D01*
X123209977Y-83867244D01*
X123161313Y-83706821D01*
X123144883Y-83540000D01*
X123161313Y-83373179D01*
X123209977Y-83212756D01*
X123288995Y-83064922D01*
X123395341Y-82935341D01*
X123524922Y-82828995D01*
X123672756Y-82749977D01*
X123672759Y-82749976D01*
X123672761Y-82749975D01*
X123833175Y-82701314D01*
X123833176Y-82701314D01*
X123833179Y-82701313D01*
X123958196Y-82689000D01*
X124041804Y-82689000D01*
X124166821Y-82701313D01*
X124166821Y-82701313D01*
G37*
G36*
X136166821Y-82701313D02*
X136166824Y-82701314D01*
X136166825Y-82701314D01*
X136327239Y-82749975D01*
X136327241Y-82749976D01*
X136327244Y-82749977D01*
X136475078Y-82828995D01*
X136604659Y-82935341D01*
X136711005Y-83064922D01*
X136790023Y-83212756D01*
X136838687Y-83373179D01*
X136855117Y-83540000D01*
X136838687Y-83706821D01*
X136790023Y-83867244D01*
X136711005Y-84015078D01*
X136604659Y-84144659D01*
X136475078Y-84251005D01*
X136327244Y-84330023D01*
X136327241Y-84330024D01*
X136327239Y-84330025D01*
X136166825Y-84378686D01*
X136166824Y-84378686D01*
X136166821Y-84378687D01*
X136041804Y-84391000D01*
X135958196Y-84391000D01*
X135833179Y-84378687D01*
X135833176Y-84378686D01*
X135833175Y-84378686D01*
X135672761Y-84330025D01*
X135672759Y-84330024D01*
X135672756Y-84330023D01*
X135524922Y-84251005D01*
X135395341Y-84144659D01*
X135288995Y-84015078D01*
X135209977Y-83867244D01*
X135161313Y-83706821D01*
X135144883Y-83540000D01*
X135161313Y-83373179D01*
X135209977Y-83212756D01*
X135288995Y-83064922D01*
X135395341Y-82935341D01*
X135524922Y-82828995D01*
X135672756Y-82749977D01*
X135672759Y-82749976D01*
X135672761Y-82749975D01*
X135833175Y-82701314D01*
X135833176Y-82701314D01*
X135833179Y-82701313D01*
X135958196Y-82689000D01*
X136041804Y-82689000D01*
X136166821Y-82701313D01*
X136166821Y-82701313D01*
G37*
G36*
X148166821Y-82701313D02*
X148166824Y-82701314D01*
X148166825Y-82701314D01*
X148327239Y-82749975D01*
X148327241Y-82749976D01*
X148327244Y-82749977D01*
X148475078Y-82828995D01*
X148604659Y-82935341D01*
X148711005Y-83064922D01*
X148790023Y-83212756D01*
X148838687Y-83373179D01*
X148855117Y-83540000D01*
X148838687Y-83706821D01*
X148790023Y-83867244D01*
X148711005Y-84015078D01*
X148604659Y-84144659D01*
X148475078Y-84251005D01*
X148327244Y-84330023D01*
X148327241Y-84330024D01*
X148327239Y-84330025D01*
X148166825Y-84378686D01*
X148166824Y-84378686D01*
X148166821Y-84378687D01*
X148041804Y-84391000D01*
X147958196Y-84391000D01*
X147833179Y-84378687D01*
X147833176Y-84378686D01*
X147833175Y-84378686D01*
X147672761Y-84330025D01*
X147672759Y-84330024D01*
X147672756Y-84330023D01*
X147524922Y-84251005D01*
X147395341Y-84144659D01*
X147288995Y-84015078D01*
X147209977Y-83867244D01*
X147161313Y-83706821D01*
X147144883Y-83540000D01*
X147161313Y-83373179D01*
X147209977Y-83212756D01*
X147288995Y-83064922D01*
X147395341Y-82935341D01*
X147524922Y-82828995D01*
X147672756Y-82749977D01*
X147672759Y-82749976D01*
X147672761Y-82749975D01*
X147833175Y-82701314D01*
X147833176Y-82701314D01*
X147833179Y-82701313D01*
X147958196Y-82689000D01*
X148041804Y-82689000D01*
X148166821Y-82701313D01*
X148166821Y-82701313D01*
G37*
G36*
X143786821Y-82701313D02*
X143786824Y-82701314D01*
X143786825Y-82701314D01*
X143947239Y-82749975D01*
X143947241Y-82749976D01*
X143947244Y-82749977D01*
X144095078Y-82828995D01*
X144224659Y-82935341D01*
X144331005Y-83064922D01*
X144410023Y-83212756D01*
X144458687Y-83373179D01*
X144475117Y-83540000D01*
X144458687Y-83706821D01*
X144410023Y-83867244D01*
X144331005Y-84015078D01*
X144224659Y-84144659D01*
X144095078Y-84251005D01*
X143947244Y-84330023D01*
X143947241Y-84330024D01*
X143947239Y-84330025D01*
X143786825Y-84378686D01*
X143786824Y-84378686D01*
X143786821Y-84378687D01*
X143661804Y-84391000D01*
X143578196Y-84391000D01*
X143453179Y-84378687D01*
X143453176Y-84378686D01*
X143453175Y-84378686D01*
X143292761Y-84330025D01*
X143292759Y-84330024D01*
X143292756Y-84330023D01*
X143144922Y-84251005D01*
X143015341Y-84144659D01*
X142908995Y-84015078D01*
X142829977Y-83867244D01*
X142781313Y-83706821D01*
X142764883Y-83540000D01*
X142781313Y-83373179D01*
X142829977Y-83212756D01*
X142908995Y-83064922D01*
X143015341Y-82935341D01*
X143144922Y-82828995D01*
X143292756Y-82749977D01*
X143292759Y-82749976D01*
X143292761Y-82749975D01*
X143453175Y-82701314D01*
X143453176Y-82701314D01*
X143453179Y-82701313D01*
X143578196Y-82689000D01*
X143661804Y-82689000D01*
X143786821Y-82701313D01*
X143786821Y-82701313D01*
G37*
G36*
X155786821Y-82701313D02*
X155786824Y-82701314D01*
X155786825Y-82701314D01*
X155947239Y-82749975D01*
X155947241Y-82749976D01*
X155947244Y-82749977D01*
X156095078Y-82828995D01*
X156224659Y-82935341D01*
X156331005Y-83064922D01*
X156410023Y-83212756D01*
X156458687Y-83373179D01*
X156475117Y-83540000D01*
X156458687Y-83706821D01*
X156410023Y-83867244D01*
X156331005Y-84015078D01*
X156224659Y-84144659D01*
X156095078Y-84251005D01*
X155947244Y-84330023D01*
X155947241Y-84330024D01*
X155947239Y-84330025D01*
X155786825Y-84378686D01*
X155786824Y-84378686D01*
X155786821Y-84378687D01*
X155661804Y-84391000D01*
X155578196Y-84391000D01*
X155453179Y-84378687D01*
X155453176Y-84378686D01*
X155453175Y-84378686D01*
X155292761Y-84330025D01*
X155292759Y-84330024D01*
X155292756Y-84330023D01*
X155144922Y-84251005D01*
X155015341Y-84144659D01*
X154908995Y-84015078D01*
X154829977Y-83867244D01*
X154781313Y-83706821D01*
X154764883Y-83540000D01*
X154781313Y-83373179D01*
X154829977Y-83212756D01*
X154908995Y-83064922D01*
X155015341Y-82935341D01*
X155144922Y-82828995D01*
X155292756Y-82749977D01*
X155292759Y-82749976D01*
X155292761Y-82749975D01*
X155453175Y-82701314D01*
X155453176Y-82701314D01*
X155453179Y-82701313D01*
X155578196Y-82689000D01*
X155661804Y-82689000D01*
X155786821Y-82701313D01*
X155786821Y-82701313D01*
G37*
G36*
X155786821Y-80161313D02*
X155786824Y-80161314D01*
X155786825Y-80161314D01*
X155947239Y-80209975D01*
X155947241Y-80209976D01*
X155947244Y-80209977D01*
X156095078Y-80288995D01*
X156224659Y-80395341D01*
X156331005Y-80524922D01*
X156410023Y-80672756D01*
X156458687Y-80833179D01*
X156475117Y-81000000D01*
X156458687Y-81166821D01*
X156410023Y-81327244D01*
X156331005Y-81475078D01*
X156224659Y-81604659D01*
X156095078Y-81711005D01*
X155947244Y-81790023D01*
X155947241Y-81790024D01*
X155947239Y-81790025D01*
X155786825Y-81838686D01*
X155786824Y-81838686D01*
X155786821Y-81838687D01*
X155661804Y-81851000D01*
X155578196Y-81851000D01*
X155453179Y-81838687D01*
X155453176Y-81838686D01*
X155453175Y-81838686D01*
X155292761Y-81790025D01*
X155292759Y-81790024D01*
X155292756Y-81790023D01*
X155144922Y-81711005D01*
X155015341Y-81604659D01*
X154908995Y-81475078D01*
X154829977Y-81327244D01*
X154781313Y-81166821D01*
X154764883Y-81000000D01*
X154781313Y-80833179D01*
X154829977Y-80672756D01*
X154908995Y-80524922D01*
X155015341Y-80395341D01*
X155144922Y-80288995D01*
X155292756Y-80209977D01*
X155292759Y-80209976D01*
X155292761Y-80209975D01*
X155453175Y-80161314D01*
X155453176Y-80161314D01*
X155453179Y-80161313D01*
X155578196Y-80149000D01*
X155661804Y-80149000D01*
X155786821Y-80161313D01*
X155786821Y-80161313D01*
G37*
G36*
X131786821Y-80161313D02*
X131786824Y-80161314D01*
X131786825Y-80161314D01*
X131947239Y-80209975D01*
X131947241Y-80209976D01*
X131947244Y-80209977D01*
X132095078Y-80288995D01*
X132224659Y-80395341D01*
X132331005Y-80524922D01*
X132410023Y-80672756D01*
X132458687Y-80833179D01*
X132475117Y-81000000D01*
X132458687Y-81166821D01*
X132410023Y-81327244D01*
X132331005Y-81475078D01*
X132224659Y-81604659D01*
X132095078Y-81711005D01*
X131947244Y-81790023D01*
X131947241Y-81790024D01*
X131947239Y-81790025D01*
X131786825Y-81838686D01*
X131786824Y-81838686D01*
X131786821Y-81838687D01*
X131661804Y-81851000D01*
X131578196Y-81851000D01*
X131453179Y-81838687D01*
X131453176Y-81838686D01*
X131453175Y-81838686D01*
X131292761Y-81790025D01*
X131292759Y-81790024D01*
X131292756Y-81790023D01*
X131144922Y-81711005D01*
X131015341Y-81604659D01*
X130908995Y-81475078D01*
X130829977Y-81327244D01*
X130781313Y-81166821D01*
X130764883Y-81000000D01*
X130781313Y-80833179D01*
X130829977Y-80672756D01*
X130908995Y-80524922D01*
X131015341Y-80395341D01*
X131144922Y-80288995D01*
X131292756Y-80209977D01*
X131292759Y-80209976D01*
X131292761Y-80209975D01*
X131453175Y-80161314D01*
X131453176Y-80161314D01*
X131453179Y-80161313D01*
X131578196Y-80149000D01*
X131661804Y-80149000D01*
X131786821Y-80161313D01*
X131786821Y-80161313D01*
G37*
G36*
X143786821Y-80161313D02*
X143786824Y-80161314D01*
X143786825Y-80161314D01*
X143947239Y-80209975D01*
X143947241Y-80209976D01*
X143947244Y-80209977D01*
X144095078Y-80288995D01*
X144224659Y-80395341D01*
X144331005Y-80524922D01*
X144410023Y-80672756D01*
X144458687Y-80833179D01*
X144475117Y-81000000D01*
X144458687Y-81166821D01*
X144410023Y-81327244D01*
X144331005Y-81475078D01*
X144224659Y-81604659D01*
X144095078Y-81711005D01*
X143947244Y-81790023D01*
X143947241Y-81790024D01*
X143947239Y-81790025D01*
X143786825Y-81838686D01*
X143786824Y-81838686D01*
X143786821Y-81838687D01*
X143661804Y-81851000D01*
X143578196Y-81851000D01*
X143453179Y-81838687D01*
X143453176Y-81838686D01*
X143453175Y-81838686D01*
X143292761Y-81790025D01*
X143292759Y-81790024D01*
X143292756Y-81790023D01*
X143144922Y-81711005D01*
X143015341Y-81604659D01*
X142908995Y-81475078D01*
X142829977Y-81327244D01*
X142781313Y-81166821D01*
X142764883Y-81000000D01*
X142781313Y-80833179D01*
X142829977Y-80672756D01*
X142908995Y-80524922D01*
X143015341Y-80395341D01*
X143144922Y-80288995D01*
X143292756Y-80209977D01*
X143292759Y-80209976D01*
X143292761Y-80209975D01*
X143453175Y-80161314D01*
X143453176Y-80161314D01*
X143453179Y-80161313D01*
X143578196Y-80149000D01*
X143661804Y-80149000D01*
X143786821Y-80161313D01*
X143786821Y-80161313D01*
G37*
G36*
X136851000Y-81851000D02*
X135149000Y-81851000D01*
X135149000Y-80149000D01*
X136851000Y-80149000D01*
X136851000Y-81851000D01*
X136851000Y-81851000D01*
G37*
G36*
X148851000Y-81851000D02*
X147149000Y-81851000D01*
X147149000Y-80149000D01*
X148851000Y-80149000D01*
X148851000Y-81851000D01*
X148851000Y-81851000D01*
G37*
G36*
X124851000Y-81851000D02*
X123149000Y-81851000D01*
X123149000Y-80149000D01*
X124851000Y-80149000D01*
X124851000Y-81851000D01*
X124851000Y-81851000D01*
G37*
G36*
X156166821Y-76321313D02*
X156166824Y-76321314D01*
X156166825Y-76321314D01*
X156327239Y-76369975D01*
X156327241Y-76369976D01*
X156327244Y-76369977D01*
X156475078Y-76448995D01*
X156604659Y-76555341D01*
X156711005Y-76684922D01*
X156790023Y-76832756D01*
X156838687Y-76993179D01*
X156855117Y-77160000D01*
X156838687Y-77326821D01*
X156838686Y-77326824D01*
X156838686Y-77326825D01*
X156831353Y-77351000D01*
X156790023Y-77487244D01*
X156711005Y-77635078D01*
X156604659Y-77764659D01*
X156475078Y-77871005D01*
X156327244Y-77950023D01*
X156327241Y-77950024D01*
X156327239Y-77950025D01*
X156166825Y-77998686D01*
X156166824Y-77998686D01*
X156166821Y-77998687D01*
X156041804Y-78011000D01*
X155958196Y-78011000D01*
X155833179Y-77998687D01*
X155833176Y-77998686D01*
X155833175Y-77998686D01*
X155672761Y-77950025D01*
X155672759Y-77950024D01*
X155672756Y-77950023D01*
X155524922Y-77871005D01*
X155395341Y-77764659D01*
X155288995Y-77635078D01*
X155209977Y-77487244D01*
X155168648Y-77351000D01*
X155161314Y-77326825D01*
X155161314Y-77326824D01*
X155161313Y-77326821D01*
X155144883Y-77160000D01*
X155161313Y-76993179D01*
X155209977Y-76832756D01*
X155288995Y-76684922D01*
X155395341Y-76555341D01*
X155524922Y-76448995D01*
X155672756Y-76369977D01*
X155672759Y-76369976D01*
X155672761Y-76369975D01*
X155833175Y-76321314D01*
X155833176Y-76321314D01*
X155833179Y-76321313D01*
X155958196Y-76309000D01*
X156041804Y-76309000D01*
X156166821Y-76321313D01*
X156166821Y-76321313D01*
G37*
G36*
X132166821Y-76321313D02*
X132166824Y-76321314D01*
X132166825Y-76321314D01*
X132327239Y-76369975D01*
X132327241Y-76369976D01*
X132327244Y-76369977D01*
X132475078Y-76448995D01*
X132604659Y-76555341D01*
X132711005Y-76684922D01*
X132790023Y-76832756D01*
X132838687Y-76993179D01*
X132855117Y-77160000D01*
X132838687Y-77326821D01*
X132838686Y-77326824D01*
X132838686Y-77326825D01*
X132831353Y-77351000D01*
X132790023Y-77487244D01*
X132711005Y-77635078D01*
X132604659Y-77764659D01*
X132475078Y-77871005D01*
X132327244Y-77950023D01*
X132327241Y-77950024D01*
X132327239Y-77950025D01*
X132166825Y-77998686D01*
X132166824Y-77998686D01*
X132166821Y-77998687D01*
X132041804Y-78011000D01*
X131958196Y-78011000D01*
X131833179Y-77998687D01*
X131833176Y-77998686D01*
X131833175Y-77998686D01*
X131672761Y-77950025D01*
X131672759Y-77950024D01*
X131672756Y-77950023D01*
X131524922Y-77871005D01*
X131395341Y-77764659D01*
X131288995Y-77635078D01*
X131209977Y-77487244D01*
X131168648Y-77351000D01*
X131161314Y-77326825D01*
X131161314Y-77326824D01*
X131161313Y-77326821D01*
X131144883Y-77160000D01*
X131161313Y-76993179D01*
X131209977Y-76832756D01*
X131288995Y-76684922D01*
X131395341Y-76555341D01*
X131524922Y-76448995D01*
X131672756Y-76369977D01*
X131672759Y-76369976D01*
X131672761Y-76369975D01*
X131833175Y-76321314D01*
X131833176Y-76321314D01*
X131833179Y-76321313D01*
X131958196Y-76309000D01*
X132041804Y-76309000D01*
X132166821Y-76321313D01*
X132166821Y-76321313D01*
G37*
G36*
X144166821Y-76321313D02*
X144166824Y-76321314D01*
X144166825Y-76321314D01*
X144327239Y-76369975D01*
X144327241Y-76369976D01*
X144327244Y-76369977D01*
X144475078Y-76448995D01*
X144604659Y-76555341D01*
X144711005Y-76684922D01*
X144790023Y-76832756D01*
X144838687Y-76993179D01*
X144855117Y-77160000D01*
X144838687Y-77326821D01*
X144838686Y-77326824D01*
X144838686Y-77326825D01*
X144831353Y-77351000D01*
X144790023Y-77487244D01*
X144711005Y-77635078D01*
X144604659Y-77764659D01*
X144475078Y-77871005D01*
X144327244Y-77950023D01*
X144327241Y-77950024D01*
X144327239Y-77950025D01*
X144166825Y-77998686D01*
X144166824Y-77998686D01*
X144166821Y-77998687D01*
X144041804Y-78011000D01*
X143958196Y-78011000D01*
X143833179Y-77998687D01*
X143833176Y-77998686D01*
X143833175Y-77998686D01*
X143672761Y-77950025D01*
X143672759Y-77950024D01*
X143672756Y-77950023D01*
X143524922Y-77871005D01*
X143395341Y-77764659D01*
X143288995Y-77635078D01*
X143209977Y-77487244D01*
X143168648Y-77351000D01*
X143161314Y-77326825D01*
X143161314Y-77326824D01*
X143161313Y-77326821D01*
X143144883Y-77160000D01*
X143161313Y-76993179D01*
X143209977Y-76832756D01*
X143288995Y-76684922D01*
X143395341Y-76555341D01*
X143524922Y-76448995D01*
X143672756Y-76369977D01*
X143672759Y-76369976D01*
X143672761Y-76369975D01*
X143833175Y-76321314D01*
X143833176Y-76321314D01*
X143833179Y-76321313D01*
X143958196Y-76309000D01*
X144041804Y-76309000D01*
X144166821Y-76321313D01*
X144166821Y-76321313D01*
G37*
G36*
X68351000Y-77351000D02*
X65649000Y-77351000D01*
X65649000Y-74649000D01*
X68351000Y-74649000D01*
X68351000Y-77351000D01*
X68351000Y-77351000D01*
G37*
G36*
X128051000Y-76003500D02*
X125949000Y-76003500D01*
X125949000Y-73996500D01*
X128051000Y-73996500D01*
X128051000Y-76003500D01*
X128051000Y-76003500D01*
G37*
G36*
X152051000Y-76003500D02*
X149949000Y-76003500D01*
X149949000Y-73996500D01*
X152051000Y-73996500D01*
X152051000Y-76003500D01*
X152051000Y-76003500D01*
G37*
G36*
X140051000Y-76003500D02*
X137949000Y-76003500D01*
X137949000Y-73996500D01*
X140051000Y-73996500D01*
X140051000Y-76003500D01*
X140051000Y-76003500D01*
G37*
G36*
X79306565Y-72989389D02*
X79497834Y-73068615D01*
X79669976Y-73183637D01*
X79816363Y-73330024D01*
X79931385Y-73502166D01*
X80010611Y-73693435D01*
X80051000Y-73896484D01*
X80051000Y-74103516D01*
X80010611Y-74306565D01*
X79931385Y-74497834D01*
X79816363Y-74669976D01*
X79669976Y-74816363D01*
X79497834Y-74931385D01*
X79306565Y-75010611D01*
X79103516Y-75051000D01*
X78896484Y-75051000D01*
X78693435Y-75010611D01*
X78502166Y-74931385D01*
X78330024Y-74816363D01*
X78183637Y-74669976D01*
X78068615Y-74497834D01*
X77989389Y-74306565D01*
X77949000Y-74103516D01*
X77949000Y-73896484D01*
X77989389Y-73693435D01*
X78068615Y-73502166D01*
X78183637Y-73330024D01*
X78330024Y-73183637D01*
X78502166Y-73068615D01*
X78693435Y-72989389D01*
X78896484Y-72949000D01*
X79103516Y-72949000D01*
X79306565Y-72989389D01*
X79306565Y-72989389D01*
G37*
G36*
X139155764Y-71462308D02*
X139244220Y-71471020D01*
X139433381Y-71528401D01*
X139607712Y-71621583D01*
X139760515Y-71746985D01*
X139885917Y-71899788D01*
X139979099Y-72074119D01*
X140036480Y-72263280D01*
X140055855Y-72460000D01*
X140036480Y-72656720D01*
X139979099Y-72845881D01*
X139885917Y-73020212D01*
X139760515Y-73173015D01*
X139607712Y-73298417D01*
X139433381Y-73391599D01*
X139244220Y-73448980D01*
X139155764Y-73457692D01*
X139096796Y-73463500D01*
X138903204Y-73463500D01*
X138844236Y-73457692D01*
X138755780Y-73448980D01*
X138566619Y-73391599D01*
X138392288Y-73298417D01*
X138239485Y-73173015D01*
X138114083Y-73020212D01*
X138020901Y-72845881D01*
X137963520Y-72656720D01*
X137944145Y-72460000D01*
X137963520Y-72263280D01*
X138020901Y-72074119D01*
X138114083Y-71899788D01*
X138239485Y-71746985D01*
X138392288Y-71621583D01*
X138566619Y-71528401D01*
X138755780Y-71471020D01*
X138844236Y-71462308D01*
X138903204Y-71456500D01*
X139096796Y-71456500D01*
X139155764Y-71462308D01*
X139155764Y-71462308D01*
G37*
G36*
X151155764Y-71462308D02*
X151244220Y-71471020D01*
X151433381Y-71528401D01*
X151607712Y-71621583D01*
X151760515Y-71746985D01*
X151885917Y-71899788D01*
X151979099Y-72074119D01*
X152036480Y-72263280D01*
X152055855Y-72460000D01*
X152036480Y-72656720D01*
X151979099Y-72845881D01*
X151885917Y-73020212D01*
X151760515Y-73173015D01*
X151607712Y-73298417D01*
X151433381Y-73391599D01*
X151244220Y-73448980D01*
X151155764Y-73457692D01*
X151096796Y-73463500D01*
X150903204Y-73463500D01*
X150844236Y-73457692D01*
X150755780Y-73448980D01*
X150566619Y-73391599D01*
X150392288Y-73298417D01*
X150239485Y-73173015D01*
X150114083Y-73020212D01*
X150020901Y-72845881D01*
X149963520Y-72656720D01*
X149944145Y-72460000D01*
X149963520Y-72263280D01*
X150020901Y-72074119D01*
X150114083Y-71899788D01*
X150239485Y-71746985D01*
X150392288Y-71621583D01*
X150566619Y-71528401D01*
X150755780Y-71471020D01*
X150844236Y-71462308D01*
X150903204Y-71456500D01*
X151096796Y-71456500D01*
X151155764Y-71462308D01*
X151155764Y-71462308D01*
G37*
G36*
X127155764Y-71462308D02*
X127244220Y-71471020D01*
X127433381Y-71528401D01*
X127607712Y-71621583D01*
X127760515Y-71746985D01*
X127885917Y-71899788D01*
X127979099Y-72074119D01*
X128036480Y-72263280D01*
X128055855Y-72460000D01*
X128036480Y-72656720D01*
X127979099Y-72845881D01*
X127885917Y-73020212D01*
X127760515Y-73173015D01*
X127607712Y-73298417D01*
X127433381Y-73391599D01*
X127244220Y-73448980D01*
X127155764Y-73457692D01*
X127096796Y-73463500D01*
X126903204Y-73463500D01*
X126844236Y-73457692D01*
X126755780Y-73448980D01*
X126566619Y-73391599D01*
X126392288Y-73298417D01*
X126239485Y-73173015D01*
X126114083Y-73020212D01*
X126020901Y-72845881D01*
X125963520Y-72656720D01*
X125944145Y-72460000D01*
X125963520Y-72263280D01*
X126020901Y-72074119D01*
X126114083Y-71899788D01*
X126239485Y-71746985D01*
X126392288Y-71621583D01*
X126566619Y-71528401D01*
X126755780Y-71471020D01*
X126844236Y-71462308D01*
X126903204Y-71456500D01*
X127096796Y-71456500D01*
X127155764Y-71462308D01*
X127155764Y-71462308D01*
G37*
G36*
X111352527Y-69488736D02*
X111452410Y-69508604D01*
X111734674Y-69625521D01*
X111988705Y-69795259D01*
X112204741Y-70011295D01*
X112374479Y-70265326D01*
X112491396Y-70547590D01*
X112551000Y-70847240D01*
X112551000Y-71152760D01*
X112491396Y-71452410D01*
X112374479Y-71734674D01*
X112204741Y-71988705D01*
X111988705Y-72204741D01*
X111734674Y-72374479D01*
X111452410Y-72491396D01*
X111352527Y-72511264D01*
X111152762Y-72551000D01*
X110847238Y-72551000D01*
X110647473Y-72511264D01*
X110547590Y-72491396D01*
X110265326Y-72374479D01*
X110011295Y-72204741D01*
X109795259Y-71988705D01*
X109625521Y-71734674D01*
X109508604Y-71452410D01*
X109449000Y-71152760D01*
X109449000Y-70847240D01*
X109508604Y-70547590D01*
X109625521Y-70265326D01*
X109795259Y-70011295D01*
X110011295Y-69795259D01*
X110265326Y-69625521D01*
X110547590Y-69508604D01*
X110647473Y-69488736D01*
X110847238Y-69449000D01*
X111152762Y-69449000D01*
X111352527Y-69488736D01*
X111352527Y-69488736D01*
G37*
G36*
X91352527Y-69488736D02*
X91452410Y-69508604D01*
X91734674Y-69625521D01*
X91988705Y-69795259D01*
X92204741Y-70011295D01*
X92374479Y-70265326D01*
X92491396Y-70547590D01*
X92551000Y-70847240D01*
X92551000Y-71152760D01*
X92491396Y-71452410D01*
X92374479Y-71734674D01*
X92204741Y-71988705D01*
X91988705Y-72204741D01*
X91734674Y-72374479D01*
X91452410Y-72491396D01*
X91352527Y-72511264D01*
X91152762Y-72551000D01*
X90847238Y-72551000D01*
X90647473Y-72511264D01*
X90547590Y-72491396D01*
X90265326Y-72374479D01*
X90011295Y-72204741D01*
X89795259Y-71988705D01*
X89625521Y-71734674D01*
X89508604Y-71452410D01*
X89449000Y-71152760D01*
X89449000Y-70847240D01*
X89508604Y-70547590D01*
X89625521Y-70265326D01*
X89795259Y-70011295D01*
X90011295Y-69795259D01*
X90265326Y-69625521D01*
X90547590Y-69508604D01*
X90647473Y-69488736D01*
X90847238Y-69449000D01*
X91152762Y-69449000D01*
X91352527Y-69488736D01*
X91352527Y-69488736D01*
G37*
G36*
X151155764Y-68922308D02*
X151244220Y-68931020D01*
X151433381Y-68988401D01*
X151607712Y-69081583D01*
X151760515Y-69206985D01*
X151885917Y-69359788D01*
X151979099Y-69534119D01*
X152036480Y-69723280D01*
X152055855Y-69920000D01*
X152036480Y-70116720D01*
X151979099Y-70305881D01*
X151885917Y-70480212D01*
X151760515Y-70633015D01*
X151607712Y-70758417D01*
X151433381Y-70851599D01*
X151244220Y-70908980D01*
X151155764Y-70917692D01*
X151096796Y-70923500D01*
X150903204Y-70923500D01*
X150844236Y-70917692D01*
X150755780Y-70908980D01*
X150566619Y-70851599D01*
X150392288Y-70758417D01*
X150239485Y-70633015D01*
X150114083Y-70480212D01*
X150020901Y-70305881D01*
X149963520Y-70116720D01*
X149944145Y-69920000D01*
X149963520Y-69723280D01*
X150020901Y-69534119D01*
X150114083Y-69359788D01*
X150239485Y-69206985D01*
X150392288Y-69081583D01*
X150566619Y-68988401D01*
X150755780Y-68931020D01*
X150844236Y-68922308D01*
X150903204Y-68916500D01*
X151096796Y-68916500D01*
X151155764Y-68922308D01*
X151155764Y-68922308D01*
G37*
G36*
X139155764Y-68922308D02*
X139244220Y-68931020D01*
X139433381Y-68988401D01*
X139607712Y-69081583D01*
X139760515Y-69206985D01*
X139885917Y-69359788D01*
X139979099Y-69534119D01*
X140036480Y-69723280D01*
X140055855Y-69920000D01*
X140036480Y-70116720D01*
X139979099Y-70305881D01*
X139885917Y-70480212D01*
X139760515Y-70633015D01*
X139607712Y-70758417D01*
X139433381Y-70851599D01*
X139244220Y-70908980D01*
X139155764Y-70917692D01*
X139096796Y-70923500D01*
X138903204Y-70923500D01*
X138844236Y-70917692D01*
X138755780Y-70908980D01*
X138566619Y-70851599D01*
X138392288Y-70758417D01*
X138239485Y-70633015D01*
X138114083Y-70480212D01*
X138020901Y-70305881D01*
X137963520Y-70116720D01*
X137944145Y-69920000D01*
X137963520Y-69723280D01*
X138020901Y-69534119D01*
X138114083Y-69359788D01*
X138239485Y-69206985D01*
X138392288Y-69081583D01*
X138566619Y-68988401D01*
X138755780Y-68931020D01*
X138844236Y-68922308D01*
X138903204Y-68916500D01*
X139096796Y-68916500D01*
X139155764Y-68922308D01*
X139155764Y-68922308D01*
G37*
G36*
X127155764Y-68922308D02*
X127244220Y-68931020D01*
X127433381Y-68988401D01*
X127607712Y-69081583D01*
X127760515Y-69206985D01*
X127885917Y-69359788D01*
X127979099Y-69534119D01*
X128036480Y-69723280D01*
X128055855Y-69920000D01*
X128036480Y-70116720D01*
X127979099Y-70305881D01*
X127885917Y-70480212D01*
X127760515Y-70633015D01*
X127607712Y-70758417D01*
X127433381Y-70851599D01*
X127244220Y-70908980D01*
X127155764Y-70917692D01*
X127096796Y-70923500D01*
X126903204Y-70923500D01*
X126844236Y-70917692D01*
X126755780Y-70908980D01*
X126566619Y-70851599D01*
X126392288Y-70758417D01*
X126239485Y-70633015D01*
X126114083Y-70480212D01*
X126020901Y-70305881D01*
X125963520Y-70116720D01*
X125944145Y-69920000D01*
X125963520Y-69723280D01*
X126020901Y-69534119D01*
X126114083Y-69359788D01*
X126239485Y-69206985D01*
X126392288Y-69081583D01*
X126566619Y-68988401D01*
X126755780Y-68931020D01*
X126844236Y-68922308D01*
X126903204Y-68916500D01*
X127096796Y-68916500D01*
X127155764Y-68922308D01*
X127155764Y-68922308D01*
G37*
G36*
X67263567Y-67174959D02*
X67394072Y-67200918D01*
X67639939Y-67302759D01*
X67860464Y-67450110D01*
X67861215Y-67450612D01*
X68049388Y-67638785D01*
X68049390Y-67638788D01*
X68197241Y-67860061D01*
X68299082Y-68105928D01*
X68351000Y-68366938D01*
X68351000Y-68633062D01*
X68299082Y-68894072D01*
X68197241Y-69139939D01*
X68050341Y-69359788D01*
X68049388Y-69361215D01*
X67861215Y-69549388D01*
X67861212Y-69549390D01*
X67639939Y-69697241D01*
X67394072Y-69799082D01*
X67263567Y-69825041D01*
X67133063Y-69851000D01*
X66866937Y-69851000D01*
X66736433Y-69825041D01*
X66605928Y-69799082D01*
X66360061Y-69697241D01*
X66138788Y-69549390D01*
X66138785Y-69549388D01*
X65950612Y-69361215D01*
X65949659Y-69359788D01*
X65802759Y-69139939D01*
X65700918Y-68894072D01*
X65649000Y-68633062D01*
X65649000Y-68366938D01*
X65700918Y-68105928D01*
X65802759Y-67860061D01*
X65950610Y-67638788D01*
X65950612Y-67638785D01*
X66138785Y-67450612D01*
X66139536Y-67450110D01*
X66360061Y-67302759D01*
X66605928Y-67200918D01*
X66736433Y-67174959D01*
X66866937Y-67149000D01*
X67133063Y-67149000D01*
X67263567Y-67174959D01*
X67263567Y-67174959D01*
G37*
G36*
X144248228Y-66181703D02*
X144403100Y-66245853D01*
X144542481Y-66338985D01*
X144661015Y-66457519D01*
X144754147Y-66596900D01*
X144818297Y-66751772D01*
X144851000Y-66916184D01*
X144851000Y-67083816D01*
X144818297Y-67248228D01*
X144754147Y-67403100D01*
X144661015Y-67542481D01*
X144542481Y-67661015D01*
X144403100Y-67754147D01*
X144248228Y-67818297D01*
X144083816Y-67851000D01*
X143916184Y-67851000D01*
X143751772Y-67818297D01*
X143596900Y-67754147D01*
X143457519Y-67661015D01*
X143338985Y-67542481D01*
X143245853Y-67403100D01*
X143181703Y-67248228D01*
X143149000Y-67083816D01*
X143149000Y-66916184D01*
X143181703Y-66751772D01*
X143245853Y-66596900D01*
X143338985Y-66457519D01*
X143457519Y-66338985D01*
X143596900Y-66245853D01*
X143751772Y-66181703D01*
X143916184Y-66149000D01*
X144083816Y-66149000D01*
X144248228Y-66181703D01*
X144248228Y-66181703D01*
G37*
G36*
X156248228Y-66181703D02*
X156403100Y-66245853D01*
X156542481Y-66338985D01*
X156661015Y-66457519D01*
X156754147Y-66596900D01*
X156818297Y-66751772D01*
X156851000Y-66916184D01*
X156851000Y-67083816D01*
X156818297Y-67248228D01*
X156754147Y-67403100D01*
X156661015Y-67542481D01*
X156542481Y-67661015D01*
X156403100Y-67754147D01*
X156248228Y-67818297D01*
X156083816Y-67851000D01*
X155916184Y-67851000D01*
X155751772Y-67818297D01*
X155596900Y-67754147D01*
X155457519Y-67661015D01*
X155338985Y-67542481D01*
X155245853Y-67403100D01*
X155181703Y-67248228D01*
X155149000Y-67083816D01*
X155149000Y-66916184D01*
X155181703Y-66751772D01*
X155245853Y-66596900D01*
X155338985Y-66457519D01*
X155457519Y-66338985D01*
X155596900Y-66245853D01*
X155751772Y-66181703D01*
X155916184Y-66149000D01*
X156083816Y-66149000D01*
X156248228Y-66181703D01*
X156248228Y-66181703D01*
G37*
G36*
X132248228Y-66181703D02*
X132403100Y-66245853D01*
X132542481Y-66338985D01*
X132661015Y-66457519D01*
X132754147Y-66596900D01*
X132818297Y-66751772D01*
X132851000Y-66916184D01*
X132851000Y-67083816D01*
X132818297Y-67248228D01*
X132754147Y-67403100D01*
X132661015Y-67542481D01*
X132542481Y-67661015D01*
X132403100Y-67754147D01*
X132248228Y-67818297D01*
X132083816Y-67851000D01*
X131916184Y-67851000D01*
X131751772Y-67818297D01*
X131596900Y-67754147D01*
X131457519Y-67661015D01*
X131338985Y-67542481D01*
X131245853Y-67403100D01*
X131181703Y-67248228D01*
X131149000Y-67083816D01*
X131149000Y-66916184D01*
X131181703Y-66751772D01*
X131245853Y-66596900D01*
X131338985Y-66457519D01*
X131457519Y-66338985D01*
X131596900Y-66245853D01*
X131751772Y-66181703D01*
X131916184Y-66149000D01*
X132083816Y-66149000D01*
X132248228Y-66181703D01*
X132248228Y-66181703D01*
G37*
G36*
X82351000Y-58351000D02*
X79649000Y-58351000D01*
X79649000Y-55649000D01*
X82351000Y-55649000D01*
X82351000Y-58351000D01*
X82351000Y-58351000D01*
G37*
G36*
X122763567Y-55674959D02*
X122894072Y-55700918D01*
X123139939Y-55802759D01*
X123360464Y-55950110D01*
X123361215Y-55950612D01*
X123549388Y-56138785D01*
X123549390Y-56138788D01*
X123697241Y-56360061D01*
X123799082Y-56605928D01*
X123851000Y-56866938D01*
X123851000Y-57133062D01*
X123799082Y-57394072D01*
X123697241Y-57639939D01*
X123549890Y-57860464D01*
X123549388Y-57861215D01*
X123361215Y-58049388D01*
X123361212Y-58049390D01*
X123139939Y-58197241D01*
X122894072Y-58299082D01*
X122763567Y-58325041D01*
X122633063Y-58351000D01*
X122366937Y-58351000D01*
X122236433Y-58325041D01*
X122105928Y-58299082D01*
X121860061Y-58197241D01*
X121638788Y-58049390D01*
X121638785Y-58049388D01*
X121450612Y-57861215D01*
X121450110Y-57860464D01*
X121302759Y-57639939D01*
X121200918Y-57394072D01*
X121149000Y-57133062D01*
X121149000Y-56866938D01*
X121200918Y-56605928D01*
X121302759Y-56360061D01*
X121450610Y-56138788D01*
X121450612Y-56138785D01*
X121638785Y-55950612D01*
X121639536Y-55950110D01*
X121860061Y-55802759D01*
X122105928Y-55700918D01*
X122236433Y-55674959D01*
X122366937Y-55649000D01*
X122633063Y-55649000D01*
X122763567Y-55674959D01*
X122763567Y-55674959D01*
G37*
G36*
X116351000Y-58351000D02*
X113649000Y-58351000D01*
X113649000Y-55649000D01*
X116351000Y-55649000D01*
X116351000Y-58351000D01*
X116351000Y-58351000D01*
G37*
G36*
X105763567Y-55674959D02*
X105894072Y-55700918D01*
X106139939Y-55802759D01*
X106360464Y-55950110D01*
X106361215Y-55950612D01*
X106549388Y-56138785D01*
X106549390Y-56138788D01*
X106697241Y-56360061D01*
X106799082Y-56605928D01*
X106851000Y-56866938D01*
X106851000Y-57133062D01*
X106799082Y-57394072D01*
X106697241Y-57639939D01*
X106549890Y-57860464D01*
X106549388Y-57861215D01*
X106361215Y-58049388D01*
X106361212Y-58049390D01*
X106139939Y-58197241D01*
X105894072Y-58299082D01*
X105763567Y-58325041D01*
X105633063Y-58351000D01*
X105366937Y-58351000D01*
X105236433Y-58325041D01*
X105105928Y-58299082D01*
X104860061Y-58197241D01*
X104638788Y-58049390D01*
X104638785Y-58049388D01*
X104450612Y-57861215D01*
X104450110Y-57860464D01*
X104302759Y-57639939D01*
X104200918Y-57394072D01*
X104149000Y-57133062D01*
X104149000Y-56866938D01*
X104200918Y-56605928D01*
X104302759Y-56360061D01*
X104450610Y-56138788D01*
X104450612Y-56138785D01*
X104638785Y-55950612D01*
X104639536Y-55950110D01*
X104860061Y-55802759D01*
X105105928Y-55700918D01*
X105236433Y-55674959D01*
X105366937Y-55649000D01*
X105633063Y-55649000D01*
X105763567Y-55674959D01*
X105763567Y-55674959D01*
G37*
G36*
X99351000Y-58351000D02*
X96649000Y-58351000D01*
X96649000Y-55649000D01*
X99351000Y-55649000D01*
X99351000Y-58351000D01*
X99351000Y-58351000D01*
G37*
G36*
X88763567Y-55674959D02*
X88894072Y-55700918D01*
X89139939Y-55802759D01*
X89360464Y-55950110D01*
X89361215Y-55950612D01*
X89549388Y-56138785D01*
X89549390Y-56138788D01*
X89697241Y-56360061D01*
X89799082Y-56605928D01*
X89851000Y-56866938D01*
X89851000Y-57133062D01*
X89799082Y-57394072D01*
X89697241Y-57639939D01*
X89549890Y-57860464D01*
X89549388Y-57861215D01*
X89361215Y-58049388D01*
X89361212Y-58049390D01*
X89139939Y-58197241D01*
X88894072Y-58299082D01*
X88763567Y-58325041D01*
X88633063Y-58351000D01*
X88366937Y-58351000D01*
X88236433Y-58325041D01*
X88105928Y-58299082D01*
X87860061Y-58197241D01*
X87638788Y-58049390D01*
X87638785Y-58049388D01*
X87450612Y-57861215D01*
X87450110Y-57860464D01*
X87302759Y-57639939D01*
X87200918Y-57394072D01*
X87149000Y-57133062D01*
X87149000Y-56866938D01*
X87200918Y-56605928D01*
X87302759Y-56360061D01*
X87450610Y-56138788D01*
X87450612Y-56138785D01*
X87638785Y-55950612D01*
X87639536Y-55950110D01*
X87860061Y-55802759D01*
X88105928Y-55700918D01*
X88236433Y-55674959D01*
X88366937Y-55649000D01*
X88633063Y-55649000D01*
X88763567Y-55674959D01*
X88763567Y-55674959D01*
G37*
G36*
X154642006Y-53883582D02*
X155042565Y-54049499D01*
X155403059Y-54290373D01*
X155709627Y-54596941D01*
X155950501Y-54957435D01*
X156116418Y-55357994D01*
X156201000Y-55783219D01*
X156201000Y-56216781D01*
X156116418Y-56642006D01*
X155950501Y-57042565D01*
X155709627Y-57403059D01*
X155403059Y-57709627D01*
X155042565Y-57950501D01*
X154642006Y-58116418D01*
X154216781Y-58201000D01*
X153783219Y-58201000D01*
X153357994Y-58116418D01*
X152957435Y-57950501D01*
X152596941Y-57709627D01*
X152290373Y-57403059D01*
X152049499Y-57042565D01*
X151883582Y-56642006D01*
X151799000Y-56216781D01*
X151799000Y-55783219D01*
X151883582Y-55357994D01*
X152049499Y-54957435D01*
X152290373Y-54596941D01*
X152596941Y-54290373D01*
X152957435Y-54049499D01*
X153357994Y-53883582D01*
X153783219Y-53799000D01*
X154216781Y-53799000D01*
X154642006Y-53883582D01*
X154642006Y-53883582D01*
G37*
G36*
X66642006Y-53883582D02*
X67042565Y-54049499D01*
X67403059Y-54290373D01*
X67709627Y-54596941D01*
X67950501Y-54957435D01*
X68116418Y-55357994D01*
X68201000Y-55783219D01*
X68201000Y-56216781D01*
X68116418Y-56642006D01*
X67950501Y-57042565D01*
X67709627Y-57403059D01*
X67403059Y-57709627D01*
X67042565Y-57950501D01*
X66642006Y-58116418D01*
X66216781Y-58201000D01*
X65783219Y-58201000D01*
X65357994Y-58116418D01*
X64957435Y-57950501D01*
X64596941Y-57709627D01*
X64290373Y-57403059D01*
X64049499Y-57042565D01*
X63883582Y-56642006D01*
X63799000Y-56216781D01*
X63799000Y-55783219D01*
X63883582Y-55357994D01*
X64049499Y-54957435D01*
X64290373Y-54596941D01*
X64596941Y-54290373D01*
X64957435Y-54049499D01*
X65357994Y-53883582D01*
X65783219Y-53799000D01*
X66216781Y-53799000D01*
X66642006Y-53883582D01*
X66642006Y-53883582D01*
G37*
M02*
